<svg width="20" height="20" viewBox="0 0 20 20" fill="none" xmlns="http://www.w3.org/2000/svg">
<path fill-rule="evenodd" clip-rule="evenodd" d="M11.9701 6.42209C11.9701 8.65415 10.2037 10.4434 8.00001 10.4434C5.79636 10.4434 4.02991 8.65415 4.02991 6.42209C4.02991 4.19003 5.79636 2.4 8.00001 2.4C10.2037 2.4 11.9701 4.19003 11.9701 6.42209ZM16.3184 8.07029H17.2808C17.677 8.07029 18 8.39785 18 8.79959C18 9.20132 17.677 9.52888 17.2808 9.52888H16.3184V10.4707C16.3184 10.8724 15.9962 11.2 15.5992 11.2C15.203 11.2 14.88 10.8724 14.88 10.4707V9.52888H13.9192C13.5222 9.52888 13.2 9.20132 13.2 8.79959C13.2 8.39785 13.5222 8.07029 13.9192 8.07029H14.88V7.12929C14.88 6.72756 15.203 6.4 15.5992 6.4C15.9962 6.4 16.3184 6.72756 16.3184 7.12929V8.07029Z" fill="#202123"/>
<path opacity="0.3" d="M17.2808 8.07029H16.3184V7.12929C16.3184 6.72756 15.9962 6.4 15.5992 6.4C15.203 6.4 14.88 6.72756 14.88 7.12929V8.07029H13.9192C13.5222 8.07029 13.2 8.39785 13.2 8.79959C13.2 9.20132 13.5222 9.52888 13.9192 9.52888H14.88V10.4707C14.88 10.8724 15.203 11.2 15.5992 11.2C15.9962 11.2 16.3184 10.8724 16.3184 10.4707V9.52888H17.2808C17.677 9.52888 18 9.20132 18 8.79959C18 8.39785 17.677 8.07029 17.2808 8.07029Z" fill="#E8E8E8"/>
<path d="M8 12.4124C4.76338 12.4124 2 12.9299 2 14.9973C2 17.0639 4.74656 17.6 8 17.6C11.2358 17.6 14 17.0825 14 15.0151C14 12.9477 11.2534 12.4124 8 12.4124Z" fill="#E8E8E8"/>
<path opacity="0.3" d="M8.00001 10.4434C10.2037 10.4434 11.9701 8.65415 11.9701 6.42209C11.9701 4.19003 10.2037 2.4 8.00001 2.4C5.79636 2.4 4.02991 4.19003 4.02991 6.42209C4.02991 8.65415 5.79636 10.4434 8.00001 10.4434Z" fill="#E8E8E8"/>
</svg>
