<svg width="20" height="20" viewBox="0 0 20 20" fill="none" xmlns="http://www.w3.org/2000/svg">
<path fill-rule="evenodd" clip-rule="evenodd" d="M11.527 4.49187H13.9003C14.4289 4.451 14.9554 4.51138 15.4532 4.66493C17.0512 5.07711 17.7902 6.2221 17.9591 8.06209C17.9943 8.37968 18.0072 8.69992 17.9975 9.02048C17.9975 9.0206 17.9975 9.02073 17.9975 9.02085V9.95788C17.9975 9.95803 17.9975 9.95818 17.9975 9.95832V13.2233C17.9965 13.5773 17.9704 13.9307 17.9193 14.281C17.822 14.8992 17.6045 15.4924 17.2791 16.0273C17.1295 16.2856 16.9479 16.5241 16.7385 16.7372C15.7906 17.6071 14.532 18.0599 13.2459 17.9936H6.74449C5.4564 18.0594 4.19569 17.6068 3.24481 16.7372C3.03792 16.5237 2.85869 16.2852 2.71132 16.0273C2.3878 15.4928 2.17495 14.899 2.08536 14.281C2.02839 13.9313 2 13.5776 2 13.2233V9.95813C2 9.95805 2 9.95797 2 9.95788V9.02085V6.73507C2 3.75361 3.10255 2.00023 6.09009 2.00023H7.75457C8.34024 1.99116 8.8971 2.25329 9.26256 2.7101L10.0379 3.782C10.4041 4.22814 10.95 4.48799 11.527 4.49187ZM10 8.35C10.3645 8.35 10.66 8.64549 10.66 9.01V10.2227V10.69H12.34C12.7045 10.69 13 10.9855 13 11.35C13 11.7145 12.7045 12.01 12.34 12.01H10.66V13.69C10.66 14.0545 10.3645 14.35 10 14.35C9.63549 14.35 9.34 14.0545 9.34 13.69V12.01H7.66C7.29549 12.01 7 11.7145 7 11.35C7 10.9855 7.29549 10.69 7.66 10.69H9.34L9.34 10.2227V9.01C9.34 8.69105 9.56623 8.42495 9.86699 8.36341C9.90995 8.35462 9.95443 8.35 10 8.35Z" fill="white"/>
<path opacity="0.4" fill-rule="evenodd" clip-rule="evenodd" d="M11.553 4.49188H13.9075C16.9377 4.49188 18.0118 6.0394 17.9975 9.02085V9.95788C17.9971 10.1251 14.427 10.2134 10.66 10.2227V9.01C10.66 8.64549 10.3645 8.35 10 8.35C9.63549 8.35 9.34 8.64549 9.34 9.01V10.2227C5.57092 10.2136 1.99825 10.1254 2 9.95788V6.73507C2 3.75361 3.10255 2.00023 6.09009 2.00023H7.75457C8.34024 1.99116 8.8971 2.25329 9.26256 2.7101L10.0379 3.782C10.4096 4.23484 10.9665 4.49575 11.553 4.49188Z" fill="#1A1926"/>
<path fill-rule="evenodd" clip-rule="evenodd" d="M16.8025 5.37211C15.9802 4.72538 14.9442 4.41114 13.9003 4.49187H6.07585C4.2122 4.49187 3.07409 5.09526 2.51926 6.28075C2.33197 6.66487 2.20024 7.07357 2.12804 7.49463C2.12804 7.59225 2.10858 7.68986 2.08878 7.78921C2.07691 7.84881 2.06491 7.90903 2.05691 7.97024C2.01886 8.31916 2 8.66988 2 9.02085V13.2233C2 13.5776 2.02839 13.9313 2.08536 14.281C2.17495 14.899 2.3878 15.4928 2.71132 16.0273C2.85869 16.2852 3.03792 16.5237 3.24481 16.7372C4.19569 17.6068 5.45639 18.0594 6.74449 17.9936H13.2459C14.532 18.0599 15.7906 17.6071 16.7385 16.7372C16.9479 16.5241 17.1295 16.2856 17.2791 16.0273C17.6045 15.4924 17.822 14.8992 17.9193 14.281C17.9704 13.9307 17.9965 13.5773 17.9975 13.2233V9.02085C18.0218 8.21623 17.9039 7.41363 17.649 6.64988C17.5195 6.27828 17.3216 5.93403 17.0657 5.63477C16.9852 5.54026 16.8972 5.45242 16.8025 5.37211ZM10 14.35C9.63549 14.35 9.34 14.0545 9.34 13.69V12.01H7.66C7.29549 12.01 7 11.7145 7 11.35C7 10.9855 7.29549 10.69 7.66 10.69H9.34V9.01C9.34 8.64549 9.63549 8.35 10 8.35C10.3645 8.35 10.66 8.64549 10.66 9.01V10.69H12.34C12.7045 10.69 13 10.9855 13 11.35C13 11.7145 12.7045 12.01 12.34 12.01H10.66V13.69C10.66 14.0545 10.3645 14.35 10 14.35Z" fill="#E8E8E8"/>
</svg>
