<svg width="20" height="20" viewBox="0 0 20 20" fill="none" xmlns="http://www.w3.org/2000/svg">
<path d="M18 10C18 14.4192 14.4184 18 10 18C5.5816 18 2 14.4192 2 10C2 5.5824 5.5816 2 10 2C14.4184 2 18 5.5824 18 10Z" fill="#202123"/>
<path opacity="0.25" d="M18 10C18 14.4192 14.4184 18 10 18C5.5816 18 2 14.4192 2 10C2 5.5824 5.5816 2 10 2C14.4184 2 18 5.5824 18 10Z" fill="#E8E8E8"/>
<path d="M9.99608 12.343C10.3905 12.343 10.7041 12.6574 10.7041 13.043C10.7041 13.4286 10.3905 13.743 10.0041 13.743C9.61608 13.743 9.30008 13.4286 9.30008 13.043C9.30008 12.6574 9.61288 12.343 9.99608 12.343ZM9.99608 6.26875C10.3817 6.26875 10.6961 6.58315 10.6961 6.96875V10.5048C10.6961 10.8904 10.3817 11.2048 9.99608 11.2048C9.61048 11.2048 9.29608 10.8904 9.29608 10.5048V6.96875C9.29608 6.58315 9.61048 6.26875 9.99608 6.26875Z" fill="#E8E8E8"/>
</svg>
