<svg width="20" height="20" viewBox="0 0 20 20" fill="none" xmlns="http://www.w3.org/2000/svg">
<path fill-rule="evenodd" clip-rule="evenodd" d="M3.95001 4.20001C3.5358 4.20001 3.20001 4.5358 3.20001 4.95001C3.20001 5.36423 3.5358 5.70001 3.95001 5.70001H15.95C16.3642 5.70001 16.7 5.36423 16.7 4.95001C16.7 4.5358 16.3642 4.20001 15.95 4.20001H3.95001ZM3.95001 7.53001C3.5358 7.53001 3.20001 7.8658 3.20001 8.28001C3.20001 8.69423 3.5358 9.03001 3.95001 9.03001H15.95C16.3642 9.03001 16.7 8.69423 16.7 8.28001C16.7 7.8658 16.3642 7.53001 15.95 7.53001H3.95001ZM3.20001 11.6167C3.20001 11.2025 3.5358 10.8667 3.95001 10.8667H15.95C16.3642 10.8667 16.7 11.2025 16.7 11.6167C16.7 12.0309 16.3642 12.3667 15.95 12.3667H3.95001C3.5358 12.3667 3.20001 12.0309 3.20001 11.6167ZM3.95001 14.2C3.5358 14.2 3.20001 14.5358 3.20001 14.95C3.20001 15.3642 3.5358 15.7 3.95001 15.7H15.95C16.3642 15.7 16.7 15.3642 16.7 14.95C16.7 14.5358 16.3642 14.2 15.95 14.2H3.95001Z" fill="#E8E8E8"/>
</svg>
