<svg width="20" height="20" viewBox="0 0 20 20" fill="none" xmlns="http://www.w3.org/2000/svg">
<path fill-rule="evenodd" clip-rule="evenodd" d="M3.95001 4.20001C3.5358 4.20001 3.20001 4.5358 3.20001 4.95001C3.20001 5.36423 3.5358 5.70001 3.95001 5.70001H15.95C16.3642 5.70001 16.7 5.36423 16.7 4.95001C16.7 4.5358 16.3642 4.20001 15.95 4.20001H3.95001ZM6.79001 7.53333C6.37579 7.53333 6.04001 7.86911 6.04001 8.28333C6.04001 8.69754 6.37579 9.03333 6.79001 9.03333H13.11C13.5242 9.03333 13.86 8.69754 13.86 8.28333C13.86 7.86911 13.5242 7.53333 13.11 7.53333H6.79001ZM3.20001 11.6167C3.20001 11.2025 3.5358 10.8667 3.95001 10.8667H15.95C16.3642 10.8667 16.7 11.2025 16.7 11.6167C16.7 12.0309 16.3642 12.3667 15.95 12.3667H3.95001C3.5358 12.3667 3.20001 12.0309 3.20001 11.6167ZM6.79001 14.2C6.37579 14.2 6.04001 14.5358 6.04001 14.95C6.04001 15.3642 6.37579 15.7 6.79001 15.7H13.11C13.5242 15.7 13.86 15.3642 13.86 14.95C13.86 14.5358 13.5242 14.2 13.11 14.2H6.79001Z" fill="#E8E8E8"/>
</svg>
