<svg width="20" height="20" viewBox="0 0 20 20" fill="none" xmlns="http://www.w3.org/2000/svg">
<path fill-rule="evenodd" clip-rule="evenodd" d="M3.95001 4.20001C3.5358 4.20001 3.20001 4.5358 3.20001 4.95001C3.20001 5.36423 3.5358 5.70001 3.95001 5.70001H15.95C16.3642 5.70001 16.7 5.36423 16.7 4.95001C16.7 4.5358 16.3642 4.20001 15.95 4.20001H3.95001ZM3.95001 7.53339C3.5358 7.53339 3.20001 7.86917 3.20001 8.28339C3.20001 8.6976 3.5358 9.03339 3.95001 9.03339H10.2633C10.6776 9.03339 11.0133 8.6976 11.0133 8.28339C11.0133 7.86917 10.6776 7.53339 10.2633 7.53339H3.95001ZM3.20001 11.6166C3.20001 11.2024 3.5358 10.8666 3.95001 10.8666H15.95C16.3642 10.8666 16.7 11.2024 16.7 11.6166C16.7 12.0309 16.3642 12.3666 15.95 12.3666H3.95001C3.5358 12.3666 3.20001 12.0309 3.20001 11.6166ZM3.95001 14.2C3.5358 14.2 3.20001 14.5358 3.20001 14.95C3.20001 15.3642 3.5358 15.7 3.95001 15.7H10.2633C10.6776 15.7 11.0133 15.3642 11.0133 14.95C11.0133 14.5358 10.6776 14.2 10.2633 14.2H3.95001Z" fill="#E8E8E8"/>
</svg>
