<svg width="20" height="20" viewBox="0 0 20 20" fill="none" xmlns="http://www.w3.org/2000/svg">
<path fill-rule="evenodd" clip-rule="evenodd" d="M2.26098 7.81945C2.01224 8.30839 2.01224 8.94845 2.01224 10.2286V10.6857C2.01224 13.246 2.01224 14.5261 2.50973 15.504C2.94734 16.3641 3.64561 17.0635 4.50446 17.5017C5.48085 18 6.75901 18 9.31533 18H10.6847C13.241 18 14.5191 18 15.4955 17.5017C16.3544 17.0635 17.0526 16.3641 17.4903 15.504C17.9877 14.5261 17.9877 13.246 17.9877 10.6857V10.2286C17.9877 8.94845 17.9877 8.30839 17.739 7.81945C17.5202 7.38936 17.1711 7.03969 16.7416 6.82055C16.2534 6.57143 15.6144 6.57143 14.3362 6.57143H5.66378C4.38562 6.57143 3.74654 6.57143 3.25835 6.82055C2.82892 7.03969 2.47979 7.38936 2.26098 7.81945ZM7.4325 8.85714C6.95984 8.85714 6.57667 9.2409 6.57667 9.71428C6.57667 10.1877 6.95984 10.5714 7.4325 10.5714H12.5675C13.0401 10.5714 13.4233 10.1877 13.4233 9.71428C13.4233 9.2409 13.0401 8.85714 12.5675 8.85714H7.4325Z" fill="#E8E8E8"/>
<path fill-rule="evenodd" clip-rule="evenodd" d="M7.62843 2C6.24234 2 4.92094 2.62384 4.16175 3.7853C3.21499 5.2337 2.07627 7.28572 2.01223 8.85714C1.98471 9.53229 2.01223 11.8523 2.01223 10.2286C2.01223 8.94845 2.01223 8.30839 2.26098 7.81945C2.47978 7.38937 2.82892 7.0397 3.25834 6.82056C3.74654 6.57143 4.38562 6.57143 5.66378 6.57143H14.3362C15.6144 6.57143 16.2534 6.57143 16.7416 6.82056C17.1711 7.0397 17.5202 7.38937 17.739 7.81945C17.9877 8.30839 17.9877 8.94845 17.9877 10.2286C17.9877 11.8523 18.0153 9.5323 17.9877 8.85714C17.9237 7.28572 16.785 5.2337 15.8382 3.7853C15.079 2.62384 13.7576 2 12.3715 2H7.62843Z" fill="#202123"/>
<path opacity="0.3" fill-rule="evenodd" clip-rule="evenodd" d="M7.62846 2C6.24237 2 4.92097 2.62384 4.16178 3.7853C3.21502 5.2337 2.0763 7.28572 2.01226 8.85714C1.98474 9.53229 2.01226 11.8523 2.01226 10.2286C2.01226 8.94845 2.01226 8.30839 2.26101 7.81945C2.47981 7.38937 2.82895 7.0397 3.25837 6.82056C3.74657 6.57143 4.38565 6.57143 5.66381 6.57143H14.3362C15.6144 6.57143 16.2535 6.57143 16.7417 6.82056C17.1711 7.0397 17.5202 7.38937 17.739 7.81945C17.9878 8.30839 17.9878 8.94845 17.9878 10.2286C17.9878 11.8523 18.0153 9.5323 17.9878 8.85714C17.9237 7.28572 16.785 5.2337 15.8382 3.7853C15.0791 2.62384 13.7577 2 12.3716 2H7.62846Z" fill="#E8E8E8"/>
</svg>
