<svg width="20" height="20" viewBox="0 0 20 20" fill="none" xmlns="http://www.w3.org/2000/svg">
<path d="M13.6962 18H6.30376C4.15139 18 2.4 16.2648 2.4 14.1316V9.86835C2.4 7.73515 4.15139 6 6.30376 6H13.6962C15.8486 6 17.6 7.73515 17.6 9.86835V14.1316C17.6 16.2648 15.8486 18 13.6962 18Z" fill="#202123"/>
<path opacity="0.25" d="M13.6962 18H6.30376C4.15139 18 2.4 16.2648 2.4 14.1316V9.86835C2.4 7.73515 4.15139 6 6.30376 6H13.6962C15.8486 6 17.6 7.73515 17.6 9.86835V14.1316C17.6 16.2648 15.8486 18 13.6962 18Z" fill="#E8E8E8"/>
<path d="M13.0041 8.4C12.6752 8.4 12.4082 8.14107 12.4082 7.82203V5.48551C12.4082 4.20089 11.3308 3.15593 10.0072 3.15593C9.39775 3.15593 8.75816 3.39328 8.30289 3.83022C7.84683 4.26871 7.59418 4.85207 7.59179 5.47473V7.82203C7.59179 8.14107 7.32483 8.4 6.9959 8.4C6.66696 8.4 6.4 8.14107 6.4 7.82203V5.48551C6.40397 4.53842 6.78217 3.66454 7.46387 3.01028C8.14478 2.35449 9.02512 2.02543 10.0095 2C11.9879 2 13.6 3.56359 13.6 5.48551V7.82203C13.6 8.14107 13.333 8.4 13.0041 8.4Z" fill="#E8E8E8"/>
</svg>
