<svg width="20" height="20" viewBox="0 0 20 20" fill="none" xmlns="http://www.w3.org/2000/svg">
<path fill-rule="evenodd" clip-rule="evenodd" d="M5.5 4.43402C5.5 4.03203 5.83202 3.70001 6.23401 3.70001H10.0331C11.5629 3.70001 12.8076 4.94469 12.8076 6.47453C12.8076 8.00436 11.5629 9.24904 10.0331 9.24904H5.5V4.43402ZM6.23401 2.20001C5.00359 2.20001 4 3.2036 4 4.43402V9.99904V15.5641C4 16.7945 5.00359 17.7981 6.23401 17.7981H11.799C14.1573 17.7981 16.0735 15.8818 16.0735 13.5236C16.0735 11.6185 14.8231 10.0019 13.0992 9.45091C13.8469 8.68092 14.3076 7.63086 14.3076 6.47453C14.3076 4.11627 12.3913 2.20001 10.0331 2.20001H6.23401ZM5.5 15.5641V10.749H11.799C13.3289 10.749 14.5735 11.9937 14.5735 13.5236C14.5735 15.0534 13.3289 16.2981 11.799 16.2981H6.23401C5.83202 16.2981 5.5 15.9661 5.5 15.5641Z" fill="#E8E8E8"/>
</svg>
