<svg width="20" height="20" viewBox="0 0 20 20" fill="none" xmlns="http://www.w3.org/2000/svg">
<path d="M9.99294 15.2972L4.79956 17.8913C4.40737 18.1042 3.91815 17.962 3.69879 17.5715C3.63472 17.4487 3.60085 17.3122 3.6 17.1735V11.367C3.6 11.9427 3.92459 12.2981 4.77839 12.6961L9.99294 15.2972Z" fill="#202123"/>
<path opacity="0.4" d="M9.99294 15.2972L4.79956 17.8913C4.40737 18.1042 3.91815 17.962 3.69879 17.5715C3.63472 17.4487 3.60085 17.3122 3.6 17.1735V11.367C3.6 11.9427 3.92459 12.2981 4.77839 12.6961L9.99294 15.2972Z" fill="#E8E8E8"/>
<path d="M12.4556 2C14.6218 2 16.3788 2.85284 16.4 5.03469V17.1735C16.3991 17.3099 16.3652 17.4441 16.3012 17.5644C16.1984 17.7605 16.0208 17.9061 15.8092 17.9678C15.5976 18.0295 15.3702 18.0018 15.1793 17.8913L9.99294 15.2972L4.77839 12.6961C3.92459 12.2981 3.6 11.9427 3.6 11.367V5.03469C3.6 2.85284 5.357 2 7.51621 2H12.4556Z" fill="#E8E8E8"/>
</svg>
