<svg width="20" height="20" viewBox="0 0 20 20" fill="none" xmlns="http://www.w3.org/2000/svg">
<path fill-rule="evenodd" clip-rule="evenodd" d="M11.3846 2.14706C11.5272 2.03353 11.7065 1.98076 11.8849 2.00634C15.1207 2.36692 17.6329 4.88617 17.9962 8.13218C18.0169 8.31527 17.9652 8.49436 17.8512 8.63827C17.7365 8.78218 17.5739 8.87252 17.3915 8.89251C17.3652 8.89571 17.3397 8.89731 17.3134 8.89731C16.9644 8.89731 16.672 8.63427 16.6329 8.28568C16.3413 5.68408 14.3255 3.66373 11.732 3.3743C11.3559 3.33193 11.0842 2.99134 11.1264 2.61477C11.1463 2.42848 11.238 2.26219 11.3846 2.14706ZM11.1317 5.33643C11.2042 4.96466 11.554 4.72161 11.9349 4.79197C13.6025 5.11737 14.8893 6.40857 15.2152 8.08034C15.2877 8.45292 15.0439 8.81509 14.6734 8.88945C14.6288 8.89744 14.585 8.90144 14.5411 8.90144C14.2145 8.90144 13.9308 8.66718 13.8687 8.34498V8.34418C13.6503 7.22487 12.789 6.3614 11.6735 6.14394C11.303 6.07118 11.0592 5.7082 11.1317 5.33643Z" fill="#202123"/>
<path opacity="0.4" fill-rule="evenodd" clip-rule="evenodd" d="M11.3846 2.14706C11.5272 2.03353 11.7065 1.98076 11.8849 2.00634C15.1207 2.36692 17.6329 4.88617 17.9962 8.13218C18.0169 8.31527 17.9652 8.49436 17.8512 8.63827C17.7365 8.78218 17.5739 8.87252 17.3915 8.89251C17.3652 8.89571 17.3397 8.89731 17.3134 8.89731C16.9644 8.89731 16.672 8.63427 16.6329 8.28568C16.3413 5.68408 14.3255 3.66373 11.732 3.3743C11.3559 3.33193 11.0842 2.99134 11.1264 2.61477C11.1463 2.42848 11.238 2.26219 11.3846 2.14706ZM11.1317 5.33643C11.2042 4.96466 11.554 4.72161 11.9349 4.79197C13.6025 5.11737 14.8893 6.40857 15.2152 8.08034C15.2877 8.45292 15.0439 8.81509 14.6734 8.88945C14.6288 8.89744 14.585 8.90144 14.5411 8.90144C14.2145 8.90144 13.9308 8.66718 13.8687 8.34498V8.34418C13.6503 7.22487 12.789 6.3614 11.6735 6.14394C11.303 6.07118 11.0592 5.7082 11.1317 5.33643Z" fill="#E8E8E8"/>
<path fill-rule="evenodd" clip-rule="evenodd" d="M9.22591 10.7784C12.4174 13.969 13.1414 10.2778 15.1735 12.3085C17.1325 14.267 18.2585 14.6594 15.7764 17.1407C15.4655 17.3906 13.4901 20.3966 6.54801 13.4564C-0.394955 6.5154 2.60931 4.53802 2.85924 4.2272C5.34733 1.73893 5.73296 2.87145 7.692 4.82994C9.72405 6.86142 6.03442 7.58781 9.22591 10.7784Z" fill="#E8E8E8"/>
</svg>
