<svg width="20" height="20" viewBox="0 0 20 20" fill="none" xmlns="http://www.w3.org/2000/svg">
<path d="M14.352 5.38913L14.272 5.21332C14.056 4.75783 13.808 4.23041 13.656 3.92675C13.288 3.20755 12.656 2.80799 11.88 2.8H8.112C7.336 2.80799 6.712 3.20755 6.344 3.92675C6.184 4.2464 5.912 4.82176 5.688 5.29323L5.64 5.38913C5.616 5.45305 5.552 5.48502 5.488 5.48502C3.56 5.48502 2 7.05128 2 8.96915V13.7159C2 15.6337 3.56 17.2 5.488 17.2H14.512C16.432 17.2 18 15.6337 18 13.7159V8.96915C18 7.05128 16.432 5.48502 14.512 5.48502C14.44 5.48502 14.384 5.44506 14.352 5.38913Z" fill="#202123"/>
<path d="M9.99961 7.92245C10.8396 7.92245 11.6316 8.25009 12.2236 8.84143C12.8156 9.44077 13.1436 10.2319 13.1436 11.063C13.1356 11.934 12.7836 12.7171 12.2156 13.2845C11.6476 13.8519 10.8636 14.2035 9.99961 14.2035C9.15961 14.2035 8.37561 13.8758 7.77561 13.2845C7.18361 12.6852 6.85561 11.902 6.85561 11.063C6.84761 10.2319 7.17561 9.44876 7.76761 8.84942C8.36761 8.25009 9.15961 7.92245 9.99961 7.92245ZM9.99961 9.12112C9.47961 9.12112 8.99161 9.3209 8.61561 9.69648C8.24761 10.0641 8.04761 10.5515 8.05561 11.055V11.063C8.05561 11.5824 8.25561 12.0698 8.62361 12.4374C8.99161 12.805 9.47961 13.0048 9.99961 13.0048C11.0716 13.0048 11.9356 12.1338 11.9436 11.063C11.9436 10.5435 11.7436 10.0561 11.3756 9.68849C11.0076 9.3209 10.5196 9.12112 9.99961 9.12112ZM14.4876 7.73067C14.8876 7.73067 15.2156 8.0583 15.2156 8.45786C15.2156 8.85742 14.8876 9.17706 14.4876 9.17706C14.0876 9.17706 13.7676 8.85742 13.7676 8.45786C13.7676 8.0583 14.0876 7.73067 14.4876 7.73067Z" fill="#E8E8E8"/>
<path opacity="0.25" d="M14.352 5.38913L14.272 5.21332C14.056 4.75783 13.808 4.23041 13.656 3.92675C13.288 3.20755 12.656 2.80799 11.88 2.8H8.112C7.336 2.80799 6.712 3.20755 6.344 3.92675C6.184 4.2464 5.912 4.82176 5.688 5.29323L5.64 5.38913C5.616 5.45305 5.552 5.48502 5.488 5.48502C3.56 5.48502 2 7.05128 2 8.96915V13.7159C2 15.6337 3.56 17.2 5.488 17.2H14.512C16.432 17.2 18 15.6337 18 13.7159V8.96915C18 7.05128 16.432 5.48502 14.512 5.48502C14.44 5.48502 14.384 5.44506 14.352 5.38913Z" fill="#E8E8E8"/>
</svg>
