<svg width="20" height="20" viewBox="0 0 20 20" fill="none" xmlns="http://www.w3.org/2000/svg">
<path fill-rule="evenodd" clip-rule="evenodd" d="M4.61056 2.29443L2.70404 2.00666C2.67673 2.00266 2.64953 2.0005 2.62258 2.00008C2.32612 1.99545 2.05988 2.20184 2.00859 2.50227C1.95263 2.82202 2.17646 3.13378 2.49621 3.18974L3.70327 3.39758L4.43869 12.1116C4.52662 13.166 5.40594 13.9813 6.46911 13.9813H15.1903C16.2055 13.9813 17.0689 13.2387 17.2127 12.2307L17.9721 6.98678C18.0441 6.50795 17.9881 5.98036 17.6684 5.61265C17.3486 5.24494 17.0289 5.07707 16.5413 5.07707H5.74567C5.48987 5.07707 5.28204 4.88522 5.25805 4.62862L5.10617 2.83801C5.08219 2.56622 4.88235 2.3432 4.61056 2.29443ZM11.697 8.03396H13.9113C14.247 8.03396 14.5108 8.29776 14.5108 8.63349C14.5108 8.96124 14.247 9.23303 13.9113 9.23303H11.697C11.3613 9.23303 11.0975 8.96124 11.0975 8.63349C11.0975 8.29776 11.3613 8.03396 11.697 8.03396ZM8.54811 16.4598C8.54811 15.7883 8.00453 15.2447 7.34105 15.2447C6.66958 15.2447 6.126 15.7883 6.126 16.4598C6.126 17.1233 6.66958 17.6668 7.34105 17.6668C8.00453 17.6668 8.54811 17.1233 8.54811 16.4598ZM15.5411 16.4598C15.5411 15.7883 14.9975 15.2447 14.334 15.2447C13.6626 15.2447 13.119 15.7883 13.119 16.4598C13.119 17.1233 13.6626 17.6668 14.334 17.6668C14.9975 17.6668 15.5411 17.1233 15.5411 16.4598Z" fill="#202123"/>
<path opacity="0.4" d="M7.34105 15.2447C8.00453 15.2447 8.54811 15.7883 8.54811 16.4598C8.54811 17.1233 8.00453 17.6668 7.34105 17.6668C6.66958 17.6668 6.126 17.1233 6.126 16.4598C6.126 15.7883 6.66958 15.2447 7.34105 15.2447ZM14.334 15.2447C14.9975 15.2447 15.5411 15.7883 15.5411 16.4598C15.5411 17.1233 14.9975 17.6668 14.334 17.6668C13.6626 17.6668 13.119 17.1233 13.119 16.4598C13.119 15.7883 13.6626 15.2447 14.334 15.2447Z" fill="#E8E8E8"/>
<path d="M2.62258 2.00008L2.70404 2.00666L4.61056 2.29443C4.88235 2.3432 5.08219 2.56622 5.10617 2.83801L5.25805 4.62862C5.28204 4.88522 5.48987 5.07707 5.74567 5.07707H16.5413C17.0289 5.07707 17.3486 5.24494 17.6684 5.61265C17.9881 5.98036 18.0441 6.50795 17.9721 6.98678L17.2127 12.2307C17.0689 13.2387 16.2055 13.9813 15.1903 13.9813H6.46911C5.40594 13.9813 4.52662 13.166 4.43869 12.1116L3.70327 3.39758L2.49621 3.18974C2.17646 3.13378 1.95263 2.82202 2.00859 2.50227C2.06454 2.17453 2.3763 1.9587 2.70404 2.00666L2.62258 2.00008ZM13.9113 8.03396H11.697C11.3613 8.03396 11.0975 8.29776 11.0975 8.63349C11.0975 8.96124 11.3613 9.23303 11.697 9.23303H13.9113C14.247 9.23303 14.5108 8.96124 14.5108 8.63349C14.5108 8.29776 14.247 8.03396 13.9113 8.03396Z" fill="#E8E8E8"/>
</svg>
