<svg width="20" height="20" viewBox="0 0 20 20" fill="none" xmlns="http://www.w3.org/2000/svg">
<path fill-rule="evenodd" clip-rule="evenodd" d="M2 10.012C2 5.7977 5.368 2 10.016 2C14.56 2 18 5.72559 18 9.98798C18 14.9314 13.968 18 10 18C8.688 18 7.2328 17.6475 6.0648 16.9584C5.656 16.7101 5.312 16.5258 4.872 16.67L3.256 17.1507C2.848 17.2789 2.48 16.9584 2.6 16.5258L3.136 14.7311C3.224 14.4827 3.208 14.2183 3.08 14.01C2.392 12.7441 2 11.358 2 10.012Z" fill="#202123"/>
<path opacity="0.25" d="M10.016 2C5.368 2 2 5.7977 2 10.012C2 11.358 2.392 12.7441 3.08 14.01C3.208 14.2183 3.224 14.4827 3.136 14.7311L2.6 16.5258C2.48 16.9584 2.848 17.2789 3.256 17.1507L4.872 16.67C5.312 16.5258 5.656 16.7101 6.0648 16.9584C7.2328 17.6475 8.688 18 10 18C13.968 18 18 14.9314 18 9.98798C18 5.72559 14.56 2 10.016 2Z" fill="#E8E8E8"/>
<path d="M7.74958 8.75012C8.44271 8.75012 8.99916 9.30742 8.99916 10.0016C8.99916 10.686 8.44271 11.2433 7.74958 11.253C7.06622 11.253 6.5 10.686 6.5 10.0016C6.5 9.30742 7.05645 8.75012 7.74958 8.75012ZM12.2504 8.75012C12.9435 8.75012 13.5 9.30742 13.5 10.0016C13.5 10.686 12.9435 11.253 12.2504 11.253C11.5573 11.2433 11.0008 10.686 11.0008 9.99181C11.0008 9.30742 11.5671 8.74035 12.2504 8.75012Z" fill="#E8E8E8"/>
</svg>
