<svg width="20" height="20" viewBox="0 0 20 20" fill="none" xmlns="http://www.w3.org/2000/svg">
<path d="M16.3886 4.09192C15.7569 3.76184 15.0522 4.39842 14.6392 4.77565C13.6916 5.67158 12.8897 6.70897 11.9907 7.65205C10.9944 8.68944 10.0711 9.72684 9.0506 10.7407C8.46744 11.3065 7.8357 11.9195 7.44693 12.6269C6.57219 11.8016 5.81895 10.9057 4.84703 10.1748C4.14238 9.65614 2.97608 9.27891 3.00037 10.5285C3.04897 12.1554 4.53115 13.9001 5.62457 15.0081C6.08623 15.4797 6.69368 15.9748 7.39833 15.9984C8.24876 16.0455 9.12349 15.0553 9.63375 14.513C10.5328 13.5699 11.2618 12.5089 12.0879 11.5423C13.157 10.2691 14.2504 9.01952 15.2952 7.72278C15.9513 6.92116 18.0166 4.94065 16.3886 4.09192Z" fill="#E8E8E8"/>
</svg>
