<svg width="20" height="20" viewBox="0 0 20 20" fill="none" xmlns="http://www.w3.org/2000/svg">
<path fill-rule="evenodd" clip-rule="evenodd" d="M8.06343 16.9305L8.06049 16.9335L8.06179 16.9322L8.062 16.932L13.1184 11.883L15.1351 9.86629C15.6197 9.38171 15.8902 8.78318 15.8902 8.15442C15.8902 7.52566 15.6197 6.92712 15.1351 6.44255L13.5575 4.86487C13.0729 4.3803 12.4743 4.10977 11.8456 4.10977C11.2168 4.10977 10.6183 4.3803 10.1337 4.86487L9.06977 5.92881V14.4651C9.06977 15.4223 8.67983 16.2964 8.06343 16.9305ZM15.5814 10.9302H14.0712L13.1184 11.883L8.06053 16.9335L8.05813 16.9359L8.02834 16.9657C7.95227 17.0417 7.86498 17.1211 7.77978 17.1884C7.51242 17.4179 7.21322 17.5935 6.90737 17.7172C6.80975 17.7609 6.7152 17.7953 6.64026 17.8226L6.64024 17.8226L6.64021 17.8226L6.64017 17.8226L6.64009 17.8226L6.63356 17.825L6.61932 17.83C6.26551 17.9479 5.89257 18 5.53491 18H15.5814C16.2664 18 16.8806 17.7692 17.3249 17.3249C17.7693 16.8806 18 16.2664 18 15.5814V13.3488C18 12.6639 17.7693 12.0497 17.3249 11.6053C16.8806 11.161 16.2664 10.9302 15.5814 10.9302Z" fill="#202123"/>
<path opacity="0.25" fill-rule="evenodd" clip-rule="evenodd" d="M9.06981 14.4651C9.06981 15.4223 8.67987 16.2965 8.06348 16.9305C8.67985 16.2965 9.0698 15.4223 9.0698 14.4651V14.3482L9.06981 14.3482V14.4651ZM14.0712 10.9302H15.5814C16.2664 10.9302 16.8806 11.161 17.3249 11.6053C17.7693 12.0497 18 12.6639 18 13.3488V15.5814C18 16.2664 17.7693 16.8806 17.3249 17.3249C16.8806 17.7692 16.2664 18 15.5814 18H5.53491C5.89257 18 6.26551 17.9479 6.61932 17.83L6.63356 17.825L6.64009 17.8226L6.64017 17.8226L6.64021 17.8226L6.64024 17.8226C6.71518 17.7953 6.80975 17.7609 6.90737 17.7172C7.21322 17.5935 7.51242 17.4179 7.77978 17.1884C7.86498 17.1212 7.95227 17.0417 8.02834 16.9657L8.05813 16.9359L8.06348 16.9305L8.06053 16.9335L13.1184 11.883L14.0712 10.9302Z" fill="#E8E8E8"/>
<path opacity="0.25" fill-rule="evenodd" clip-rule="evenodd" d="M8.06049 16.9335L8.06343 16.9305C8.67983 16.2964 9.06977 15.4223 9.06977 14.4651V5.92881L10.1337 4.86487C10.6183 4.3803 11.2168 4.10977 11.8456 4.10977C12.4743 4.10977 13.0729 4.3803 13.5575 4.86487L15.1351 6.44255C15.6197 6.92712 15.8902 7.52566 15.8902 8.15442C15.8902 8.78318 15.6197 9.38171 15.1351 9.86629L13.1184 11.883L8.06049 16.9335Z" fill="#E8E8E8"/>
<path fill-rule="evenodd" clip-rule="evenodd" d="M4.4186 2C3.73363 2 3.11945 2.23076 2.6751 2.6751C2.23076 3.11945 2 3.73363 2 4.4186V14.4651C2 14.7068 2.02677 14.9433 2.06957 15.1659C2.07086 15.1726 2.07228 15.1793 2.07382 15.186L2.07539 15.1928C2.09675 15.2853 2.12291 15.3987 2.15863 15.5148L2.16259 15.5272L2.16552 15.536L2.16552 15.536C2.19864 15.6354 2.23901 15.7565 2.28847 15.8751C2.29686 15.9005 2.30715 15.9256 2.31939 15.9501C2.43524 16.1818 2.57188 16.4138 2.73888 16.6335C2.74478 16.6413 2.75088 16.6489 2.75718 16.6563C2.84603 16.7613 2.93403 16.8573 3.01394 16.9445L3.01741 16.9483C3.12298 17.0635 3.23262 17.1554 3.33295 17.2335C3.34376 17.2431 3.35494 17.2524 3.36647 17.2611C3.58621 17.4281 3.81823 17.5648 4.04992 17.6806C4.07454 17.6929 4.09974 17.7033 4.12532 17.7117C4.25298 17.7672 4.37495 17.8069 4.48282 17.8406L4.48516 17.8414C4.60109 17.877 4.71434 17.9032 4.80676 17.9245L4.8068 17.9245L4.81404 17.9262C4.82071 17.9277 4.82742 17.9291 4.83414 17.9304C5.05668 17.9732 5.29323 18 5.53488 18C5.89254 18 6.26548 17.9479 6.61929 17.83L6.63353 17.825L6.64006 17.8226L6.64014 17.8226C6.7151 17.7953 6.80969 17.761 6.90734 17.7172C7.2132 17.5935 7.51239 17.4179 7.77975 17.1884C7.86495 17.1211 7.95224 17.0417 8.02831 16.9657L8.0581 16.9359L8.06343 16.9305C8.67983 16.2964 9.06977 15.4223 9.06977 14.4651V4.4186C9.06977 3.73363 8.83901 3.11945 8.39466 2.6751C7.95032 2.23076 7.33614 2 6.65116 2H4.4186ZM4.23256 14.4651C4.23256 13.7459 4.81563 13.1628 5.53488 13.1628C6.25414 13.1628 6.83721 13.7459 6.83721 14.4651C6.83721 15.1844 6.25414 15.7674 5.53488 15.7674C4.81563 15.7674 4.23256 15.1844 4.23256 14.4651Z" fill="#E8E8E8"/>
</svg>
