<svg width="20" height="20" viewBox="0 0 20 20" fill="none" xmlns="http://www.w3.org/2000/svg">
<path fill-rule="evenodd" clip-rule="evenodd" d="M11.7699 6.80993C11.7699 8.92494 10.0391 10.6199 7.87943 10.6199C5.72052 10.6199 3.98901 8.92494 3.98901 6.80993C3.98901 4.69492 5.72052 3 7.87943 3C10.0391 3 11.7699 4.69492 11.7699 6.80993ZM2 14.9339C2 12.976 4.70842 12.4862 7.87947 12.4862C11.0677 12.4862 13.7589 12.9929 13.7589 14.9523C13.7589 16.9102 11.0505 17.4 7.87947 17.4C4.6912 17.4 2 16.8933 2 14.9339ZM13.3387 6.879C13.3387 7.95605 13.0084 8.96105 12.4291 9.79586C12.3688 9.88172 12.4221 9.99747 12.527 10.0159C12.6726 10.0396 12.8221 10.0542 12.9747 10.0573C14.4933 10.0964 15.8561 9.13889 16.2326 7.69695C16.7908 5.55741 15.1532 3.63634 13.0671 3.63634C12.8409 3.63634 12.624 3.65934 12.4127 3.7015C12.3837 3.70764 12.3524 3.72144 12.3367 3.74597C12.3164 3.7774 12.3313 3.81803 12.3516 3.84486C12.9786 4.70573 13.3387 5.75365 13.3387 6.879ZM15.8538 11.5618C16.8745 11.7573 17.5454 12.1552 17.8233 12.7355C18.0589 13.2108 18.0589 13.7627 17.8233 14.238C17.3982 15.1364 16.0268 15.4254 15.4937 15.4998C15.3833 15.5151 15.2949 15.4231 15.3066 15.3143C15.579 12.8244 13.4131 11.6439 12.8526 11.3725C12.8291 11.3595 12.8237 11.3411 12.826 11.3288C12.8276 11.3211 12.8377 11.3089 12.8557 11.3066C14.0683 11.2836 15.3724 11.4469 15.8538 11.5618Z" fill="#202123"/>
<path d="M7.87947 12.4862C4.70842 12.4862 2 12.976 2 14.9339C2 16.8933 4.6912 17.4 7.87947 17.4C11.0505 17.4 13.7589 16.9102 13.7589 14.9523C13.7589 12.9929 11.0677 12.4862 7.87947 12.4862Z" fill="#E8E8E8"/>
<path opacity="0.3" d="M7.87943 10.6199C10.0391 10.6199 11.7699 8.92494 11.7699 6.80993C11.7699 4.69492 10.0391 3 7.87943 3C5.72052 3 3.98901 4.69492 3.98901 6.80993C3.98901 8.92494 5.72052 10.6199 7.87943 10.6199Z" fill="#E8E8E8"/>
<path opacity="0.3" d="M13.3387 6.879C13.3387 7.95605 13.0084 8.96105 12.4291 9.79586C12.3688 9.88172 12.4221 9.99747 12.527 10.0159C12.6726 10.0396 12.8221 10.0542 12.9747 10.0573C14.4933 10.0964 15.8561 9.13889 16.2326 7.69695C16.7908 5.55741 15.1532 3.63634 13.0671 3.63634C12.8409 3.63634 12.624 3.65934 12.4127 3.7015C12.3837 3.70764 12.3524 3.72144 12.3367 3.74597C12.3164 3.7774 12.3313 3.81803 12.3516 3.84486C12.9786 4.70573 13.3387 5.75365 13.3387 6.879Z" fill="#E8E8E8"/>
<path d="M17.8233 12.7355C17.5454 12.1552 16.8745 11.7573 15.8538 11.5618C15.3724 11.4469 14.0683 11.2836 12.8557 11.3066C12.8377 11.3089 12.8276 11.3211 12.826 11.3288C12.8237 11.3411 12.8291 11.3595 12.8526 11.3725C13.4131 11.6439 15.579 12.8244 15.3066 15.3143C15.2949 15.4231 15.3833 15.5151 15.4937 15.4998C16.0268 15.4254 17.3982 15.1364 17.8233 14.238C18.0589 13.7627 18.0589 13.2108 17.8233 12.7355Z" fill="#E8E8E8"/>
</svg>
