<svg width="20" height="20" viewBox="0 0 20 20" fill="none" xmlns="http://www.w3.org/2000/svg">
<path d="M14.887 7H10.1185C8.254 7 7 8.309 7 10.256V14.7495C7 16.691 8.254 18 10.1185 18H14.887C16.7515 18 18 16.691 18 14.7495V10.256C18 8.309 16.7515 7 14.887 7Z" fill="#202123"/>
<path opacity="0.25" d="M14.887 7H10.1185C8.254 7 7 8.309 7 10.256V14.7495C7 16.691 8.254 18 10.1185 18H14.887C16.7515 18 18 16.691 18 14.7495V10.256C18 8.309 16.7515 7 14.887 7Z" fill="#E8E8E8"/>
<path fill-rule="evenodd" clip-rule="evenodd" d="M5.1185 2H9.887C11.7515 2 13 3.309 13 5.256V5.5H9.32725C7.039 5.5 5.5 7.1065 5.5 9.496V13H5.1185C3.254 13 2 11.691 2 9.7495V5.256C2 3.309 3.254 2 5.1185 2Z" fill="#E8E8E8"/>
</svg>
