<svg width="14" height="16" viewBox="0 0 14 16" fill="none" xmlns="http://www.w3.org/2000/svg">
<path fill-rule="evenodd" clip-rule="evenodd" d="M1.09438 0.644365C1.50696 0.231785 2.06654 0 2.65001 0H7.72501C7.92392 0 8.11469 0.0790176 8.25534 0.21967L13.3303 5.29467C13.471 5.43532 13.55 5.62609 13.55 5.825V13.8C13.55 14.3835 13.3182 14.9431 12.9056 15.3556C12.4931 15.7682 11.9335 16 11.35 16H2.65001C2.06654 16 1.50696 15.7682 1.09438 15.3556C0.681797 14.9431 0.450012 14.3835 0.450012 13.8V2.2C0.450012 1.61652 0.681797 1.05695 1.09438 0.644365ZM2.65001 1.5C2.46436 1.5 2.28631 1.57375 2.15504 1.70503C2.02376 1.8363 1.95001 2.01435 1.95001 2.2V13.8C1.95001 13.9857 2.02376 14.1637 2.15504 14.295C2.28631 14.4263 2.46436 14.5 2.65001 14.5H11.35C11.5357 14.5 11.7137 14.4263 11.845 14.295C11.9763 14.1637 12.05 13.9857 12.05 13.8V6.13566L7.41435 1.5H2.65001Z" fill="#E8E8E8"/>
<path fill-rule="evenodd" clip-rule="evenodd" d="M7.72498 0C8.13919 0 8.47498 0.335786 8.47498 0.75V5.075H12.8C13.2142 5.075 13.55 5.41079 13.55 5.825C13.55 6.23921 13.2142 6.575 12.8 6.575H7.72498C7.31076 6.575 6.97498 6.23921 6.97498 5.825V0.75C6.97498 0.335786 7.31076 0 7.72498 0Z" fill="#E8E8E8"/>
<path d="M3 10.3352C3 10.078 3.05811 9.84933 3.17434 9.64905C3.29056 9.4463 3.45199 9.28929 3.65861 9.17802C3.86782 9.06429 4.10414 9.00742 4.36759 9.00742C4.69043 9.00742 4.96679 9.08901 5.19666 9.2522C5.42653 9.41539 5.5802 9.63792 5.65769 9.9198H4.92934C4.8751 9.811 4.79762 9.72817 4.69689 9.6713C4.59874 9.61443 4.48639 9.586 4.35984 9.586C4.1558 9.586 3.9905 9.65399 3.86394 9.78999C3.73739 9.92598 3.67411 10.1077 3.67411 10.3352C3.67411 10.5627 3.73739 10.7444 3.86394 10.8804C3.9905 11.0164 4.1558 11.0844 4.35984 11.0844C4.48639 11.0844 4.59874 11.0559 4.69689 10.9991C4.79762 10.9422 4.8751 10.8594 4.92934 10.7506H5.65769C5.5802 11.0325 5.42653 11.255 5.19666 11.4182C4.96679 11.5789 4.69043 11.6592 4.36759 11.6592C4.10414 11.6592 3.86782 11.6036 3.65861 11.4924C3.45199 11.3786 3.29056 11.2216 3.17434 11.0213C3.05811 10.821 3 10.5923 3 10.3352Z" fill="#E8E8E8"/>
<path d="M7.04743 11.6667C6.84855 11.6667 6.67034 11.6358 6.51279 11.5739C6.35524 11.5121 6.22869 11.4206 6.13312 11.2995C6.04014 11.1783 5.99107 11.0325 5.9859 10.8618H6.691C6.70133 10.9583 6.7362 11.0325 6.79561 11.0844C6.85501 11.1338 6.93249 11.1586 7.02806 11.1586C7.1262 11.1586 7.20369 11.1375 7.26051 11.0955C7.31733 11.051 7.34574 10.9904 7.34574 10.9138C7.34574 10.8495 7.32249 10.7963 7.276 10.7543C7.2321 10.7123 7.17657 10.6776 7.10942 10.6504C7.04485 10.6232 6.95187 10.5923 6.83047 10.5577C6.65484 10.5058 6.5115 10.4539 6.40044 10.4019C6.28938 10.35 6.19382 10.2734 6.11375 10.172C6.03368 10.0706 5.99365 9.93834 5.99365 9.77515C5.99365 9.53284 6.08534 9.34369 6.26872 9.2077C6.4521 9.06923 6.691 9 6.98544 9C7.28504 9 7.52654 9.06923 7.70991 9.2077C7.89329 9.34369 7.99144 9.53408 8.00435 9.77886H7.28763C7.28246 9.69479 7.25018 9.62927 7.19077 9.58229C7.13137 9.53284 7.05518 9.50811 6.9622 9.50811C6.88213 9.50811 6.81756 9.52913 6.76849 9.57116C6.71941 9.61072 6.69488 9.66883 6.69488 9.74548C6.69488 9.82955 6.7362 9.89507 6.81885 9.94205C6.9015 9.98903 7.03064 10.0397 7.20627 10.0941C7.3819 10.151 7.52395 10.2054 7.63243 10.2573C7.74349 10.3092 7.83905 10.3846 7.91912 10.4835C7.99919 10.5824 8.03922 10.7098 8.03922 10.8656C8.03922 11.0139 7.99919 11.1487 7.91912 11.2698C7.84164 11.391 7.72799 11.4874 7.57819 11.5591C7.42839 11.6308 7.25147 11.6667 7.04743 11.6667Z" fill="#E8E8E8"/>
<path d="M11 9.03709L10.0353 11.6407H9.20625L8.24158 9.03709H8.94668L9.62079 11.0028L10.2988 9.03709H11Z" fill="#E8E8E8"/>
</svg>
