<svg width="20" height="20" viewBox="0 0 20 20" fill="none" xmlns="http://www.w3.org/2000/svg">
<path fill-rule="evenodd" clip-rule="evenodd" d="M8.77041 13.2204C8.77041 12.0891 7.86141 11.1724 6.73959 11.1724H4.03082C2.909 11.1724 2 12.0891 2 13.2204V15.952C2 17.0826 2.909 18 4.03082 18H6.73959C7.86141 18 8.77041 17.0826 8.77041 15.952V13.2204ZM18 13.2204C18 12.0891 17.091 11.1724 15.9692 11.1724H13.2604C12.1386 11.1724 11.2296 12.0891 11.2296 13.2204V15.952C11.2296 17.0826 12.1386 18 13.2604 18H15.9692C17.091 18 18 17.0826 18 15.952V13.2204ZM8.77041 4.04797C8.77041 2.91668 7.86141 2 6.73959 2H4.03082C2.909 2 2 2.91668 2 4.04797V6.77962C2 7.91091 2.909 8.82759 4.03082 8.82759H6.73959C7.86141 8.82759 8.77041 7.91091 8.77041 6.77962V4.04797ZM15.9692 2H13.2604C12.1386 2 11.2296 2.91668 11.2296 4.04797V6.77962C11.2296 7.91091 12.1386 8.82759 13.2604 8.82759H15.9692C17.091 8.82759 18 7.91091 18 6.77962V4.04797C18 2.91668 17.091 2 15.9692 2Z" fill="#202123"/>
<path opacity="0.4" d="M13.2604 2H15.9692C17.091 2 18 2.91668 18 4.04797V6.77962C18 7.91091 17.091 8.82759 15.9692 8.82759H13.2604C12.1386 8.82759 11.2296 7.91091 11.2296 6.77962V4.04797C11.2296 2.91668 12.1386 2 13.2604 2Z" fill="#E8E8E8"/>
<path d="M6.73959 11.1724C7.86141 11.1724 8.77041 12.0891 8.77041 13.2204V15.952C8.77041 17.0826 7.86141 18 6.73959 18H4.03082C2.909 18 2 17.0826 2 15.952V13.2204C2 12.0891 2.909 11.1724 4.03082 11.1724H6.73959ZM15.9692 11.1724C17.091 11.1724 18 12.0891 18 13.2204V15.952C18 17.0826 17.091 18 15.9692 18H13.2604C12.1386 18 11.2296 17.0826 11.2296 15.952V13.2204C11.2296 12.0891 12.1386 11.1724 13.2604 11.1724H15.9692ZM6.73959 2C7.86141 2 8.77041 2.91668 8.77041 4.04797V6.77962C8.77041 7.91091 7.86141 8.82759 6.73959 8.82759H4.03082C2.909 8.82759 2 7.91091 2 6.77962V4.04797C2 2.91668 2.909 2 4.03082 2H6.73959Z" fill="#E8E8E8"/>
</svg>
