<svg width="20" height="20" viewBox="0 0 20 20" fill="none" xmlns="http://www.w3.org/2000/svg">
<path d="M16.3146 7.99075C16.3146 8.04515 15.8883 13.4378 15.6447 15.7073C15.4922 17.1 14.5944 17.9448 13.2476 17.9688C12.2128 17.992 11.1998 18 10.2031 18C9.14498 18 8.11019 17.992 7.10573 17.9688C5.80407 17.9376 4.90543 17.076 4.76071 15.7073C4.51019 13.4298 4.0916 8.04515 4.08382 7.99075C4.07604 7.82675 4.12895 7.67076 4.23631 7.54436C4.34213 7.42757 4.49462 7.35717 4.6549 7.35717H15.7513C15.9108 7.35717 16.0555 7.42757 16.1699 7.54436C16.2765 7.67076 16.3302 7.82675 16.3146 7.99075Z" fill="#202123"/>
<path opacity="0.25" d="M16.3146 7.99075C16.3146 8.04515 15.8883 13.4378 15.6447 15.7073C15.4922 17.1 14.5944 17.9448 13.2476 17.9688C12.2128 17.992 11.1998 18 10.2031 18C9.14498 18 8.11019 17.992 7.10573 17.9688C5.80407 17.9376 4.90543 17.076 4.76071 15.7073C4.51019 13.4298 4.0916 8.04515 4.08382 7.99075C4.07604 7.82675 4.12895 7.67076 4.23631 7.54436C4.34213 7.42757 4.49462 7.35717 4.6549 7.35717H15.7513C15.9108 7.35717 16.0555 7.42757 16.1699 7.54436C16.2765 7.67076 16.3302 7.82675 16.3146 7.99075Z" fill="#E8E8E8"/>
<path d="M17.4 5.18149C17.4 4.8527 17.1409 4.59511 16.8297 4.59511H14.4971C14.0225 4.59511 13.6102 4.25752 13.5043 3.78154L13.3736 3.19836C13.1908 2.49358 12.5598 2 11.8518 2H8.549C7.8332 2 7.20843 2.49358 7.01859 3.23676L6.89643 3.78234C6.78984 4.25752 6.37748 4.59511 5.90365 4.59511H3.57108C3.25909 4.59511 3 4.8527 3 5.18149V5.48548C3 5.80627 3.25909 6.07186 3.57108 6.07186H16.8297C17.1409 6.07186 17.4 5.80627 17.4 5.48548V5.18149Z" fill="#E8E8E8"/>
</svg>
