<svg width="20" height="20" viewBox="0 0 20 20" fill="none" xmlns="http://www.w3.org/2000/svg">
<path d="M9.99999 2V18" stroke="#202123" stroke-width="2" stroke-linecap="round" stroke-linejoin="round"/>
<path opacity="0.4" d="M9.99999 2V18" stroke="#E8E8E8" stroke-width="2" stroke-linecap="round" stroke-linejoin="round"/>
<path d="M14 4.82353H8C7.25739 4.82353 6.5452 5.09622 6.0201 5.58161C5.495 6.067 5.2 6.72532 5.2 7.41177C5.2 8.09821 5.495 8.75654 6.0201 9.24193C6.5452 9.72731 7.25739 10 8 10H12C12.7426 10 13.4548 10.2727 13.9799 10.7581C14.505 11.2435 14.8 11.9018 14.8 12.5882C14.8 13.2747 14.505 13.933 13.9799 14.4184C13.4548 14.9038 12.7426 15.1765 12 15.1765H5.2" stroke="#E8E8E8" stroke-width="2" stroke-linecap="round" stroke-linejoin="round"/>
</svg>
