<svg width="20" height="20" viewBox="0 0 20 20" fill="none" xmlns="http://www.w3.org/2000/svg">
<path fill-rule="evenodd" clip-rule="evenodd" d="M14.5169 8.19042L15.4416 7.0361C15.8649 6.49143 16.0154 5.86172 15.8743 5.22054C15.752 4.63764 15.3946 4.08342 14.8584 3.66297L13.5509 2.62141C12.4127 1.71363 11.0017 1.80918 10.1927 2.85074L9.30092 3.95824C9.20686 4.07673 9.22285 4.24682 9.33949 4.34237C9.63001 4.57771 10.1958 5.03635 10.8522 5.56849C12.0002 6.49917 13.4255 7.65465 14.1407 8.23342C14.2564 8.32706 14.4238 8.30795 14.5169 8.19042ZM12.0427 16.181H17.1045C17.5983 16.181 18 16.589 18 17.0907C18 17.5933 17.5983 18.0004 17.1045 18.0004H12.0427C11.5489 18.0004 11.1472 17.5933 11.1472 17.0907C11.1472 16.589 11.5489 16.181 12.0427 16.181Z" fill="#202123"/>
<path opacity="0.4" d="M17.1045 16.181H12.0427C11.5489 16.181 11.1472 16.589 11.1472 17.0907C11.1472 17.5933 11.5489 18.0004 12.0427 18.0004H17.1045C17.5983 18.0004 18 17.5933 18 17.0907C18 16.589 17.5983 16.181 17.1045 16.181Z" fill="#E8E8E8"/>
<path d="M8.49711 5.47035L13.2936 9.34611C13.4093 9.4388 13.429 9.60889 13.3387 9.72738L7.65239 17.1368C7.29494 17.5945 6.76816 17.8535 6.20376 17.863L3.09955 17.9013C2.934 17.9032 2.78913 17.7885 2.75151 17.6241L2.04601 14.5568C1.92372 13.993 2.04601 13.4101 2.40346 12.961L8.11802 5.51622C8.21021 5.39677 8.38047 5.37575 8.49711 5.47035Z" fill="#E8E8E8"/>
<path opacity="0.4" d="M15.4416 7.0361L14.5169 8.19042C14.4238 8.30795 14.2564 8.32706 14.1407 8.23342C13.0166 7.32373 10.1381 4.98929 9.33949 4.34237C9.22285 4.24682 9.20686 4.07673 9.30092 3.95824L10.1927 2.85074C11.0017 1.80918 12.4127 1.71363 13.5509 2.62141L14.8584 3.66297C15.3946 4.08342 15.752 4.63764 15.8743 5.22054C16.0154 5.86172 15.8649 6.49143 15.4416 7.0361Z" fill="#E8E8E8"/>
</svg>
