<svg width="14" height="16" viewBox="0 0 14 16" fill="none" xmlns="http://www.w3.org/2000/svg">
<path fill-rule="evenodd" clip-rule="evenodd" d="M1.09438 0.644365C1.50696 0.231785 2.06654 0 2.65001 0H7.72501C7.92392 0 8.11469 0.0790176 8.25534 0.21967L13.3303 5.29467C13.471 5.43532 13.55 5.62609 13.55 5.825V13.8C13.55 14.3835 13.3182 14.9431 12.9056 15.3556C12.4931 15.7682 11.9335 16 11.35 16H2.65001C2.06654 16 1.50696 15.7682 1.09438 15.3556C0.681797 14.9431 0.450012 14.3835 0.450012 13.8V2.2C0.450012 1.61652 0.681797 1.05695 1.09438 0.644365ZM2.65001 1.5C2.46436 1.5 2.28631 1.57375 2.15504 1.70503C2.02376 1.8363 1.95001 2.01435 1.95001 2.2V13.8C1.95001 13.9857 2.02376 14.1637 2.15504 14.295C2.28631 14.4263 2.46436 14.5 2.65001 14.5H11.35C11.5357 14.5 11.7137 14.4263 11.845 14.295C11.9763 14.1637 12.05 13.9857 12.05 13.8V6.13566L7.41435 1.5H2.65001Z" fill="#E8E8E8"/>
<path fill-rule="evenodd" clip-rule="evenodd" d="M7.72501 0C8.13922 0 8.47501 0.335786 8.47501 0.75V5.075H12.8C13.2142 5.075 13.55 5.41079 13.55 5.825C13.55 6.23921 13.2142 6.575 12.8 6.575H7.72501C7.31079 6.575 6.97501 6.23921 6.97501 5.825V0.75C6.97501 0.335786 7.31079 0 7.72501 0Z" fill="#E8E8E8"/>
<path d="M5.11263 11.9188L4.45494 10.962L3.87543 11.9188H2.98317L4.01801 10.33L2.96017 8.79451H3.87543L4.52393 9.73804L5.09424 8.79451H5.98649L4.96086 10.37L6.02789 11.9188H5.11263Z" fill="#E8E8E8"/>
<path d="M7.20918 11.3314H8.23942V11.9188H6.42271V8.79451H7.20918V11.3314Z" fill="#E8E8E8"/>
<path d="M9.78276 11.95C9.54667 11.95 9.3351 11.9129 9.14806 11.8387C8.96102 11.7646 8.81078 11.6548 8.69733 11.5094C8.58695 11.364 8.52869 11.1889 8.52256 10.9842H9.35963C9.37189 11.0999 9.41329 11.1889 9.48381 11.2513C9.55433 11.3106 9.64632 11.3403 9.75977 11.3403C9.87628 11.3403 9.96826 11.315 10.0357 11.2646C10.1032 11.2112 10.1369 11.1385 10.1369 11.0465C10.1369 10.9694 10.1093 10.9056 10.0541 10.8551C10.002 10.8047 9.93607 10.7632 9.85635 10.7305C9.77969 10.6979 9.66931 10.6608 9.5252 10.6193C9.3167 10.557 9.14653 10.4946 9.01468 10.4323C8.88284 10.37 8.76939 10.278 8.67434 10.1564C8.57929 10.0347 8.53176 9.87601 8.53176 9.68018C8.53176 9.38941 8.64061 9.16242 8.85831 8.99924C9.07601 8.83308 9.35963 8.75 9.70917 8.75C10.0648 8.75 10.3515 8.83308 10.5692 8.99924C10.7869 9.16242 10.9035 9.39089 10.9188 9.68463H10.0679C10.0618 9.58375 10.0235 9.50512 9.95293 9.44875C9.88241 9.38941 9.79196 9.35974 9.68158 9.35974C9.58653 9.35974 9.50987 9.38496 9.45161 9.4354C9.39336 9.48287 9.36423 9.5526 9.36423 9.64458C9.36423 9.74546 9.41329 9.82408 9.5114 9.88046C9.60952 9.93683 9.76283 9.99766 9.97133 10.0629C10.1798 10.1312 10.3485 10.1965 10.4773 10.2588C10.6091 10.3211 10.7225 10.4116 10.8176 10.5303C10.9126 10.6489 10.9602 10.8017 10.9602 10.9887C10.9602 11.1667 10.9126 11.3284 10.8176 11.4738C10.7256 11.6192 10.5907 11.7349 10.4129 11.8209C10.235 11.907 10.025 11.95 9.78276 11.95Z" fill="#E8E8E8"/>
</svg>
