<svg width="20" height="20" viewBox="0 0 20 20" fill="none" xmlns="http://www.w3.org/2000/svg">
<path fill-rule="evenodd" clip-rule="evenodd" d="M15.4532 4.66491C14.9554 4.51138 14.4289 4.45101 13.9004 4.49188H11.553C11.5529 4.49188 11.5528 4.49188 11.5527 4.49188H11.5276C10.9504 4.48816 10.4042 4.22829 10.0379 3.782L9.26256 2.7101C8.8971 2.25329 8.34024 1.99116 7.75457 2.00023H6.09009C3.10255 2.00023 2 3.75361 2 6.73507V9.02086V9.95788C2 9.95797 2 9.95805 2 9.95813V13.2233C2 13.5776 2.02839 13.9313 2.08536 14.281C2.17495 14.899 2.3878 15.4928 2.71132 16.0273C2.85869 16.2852 3.03792 16.5237 3.24481 16.7372C4.19569 17.6068 5.45639 18.0594 6.74449 17.9936H13.2459C14.532 18.0599 15.7906 17.6071 16.7385 16.7372C16.9479 16.5242 17.1295 16.2856 17.2791 16.0273C17.6045 15.4924 17.822 14.8992 17.9193 14.281C17.9704 13.9307 17.9965 13.5773 17.9975 13.2233V9.95832C17.9975 9.95818 17.9975 9.95803 17.9975 9.95788V9.02085C17.9975 9.02073 17.9975 9.02061 17.9975 9.02048C18.0072 8.69992 17.9943 8.37968 17.9591 8.06209C17.7902 6.22208 17.0512 5.07707 15.4532 4.66491ZM5.97627 11.5125H14.0924C14.2894 11.5147 14.4739 11.6094 14.5903 11.7681C14.6915 11.8861 14.7426 12.0389 14.7326 12.194C14.727 12.3704 14.651 12.5372 14.5213 12.6573C14.3917 12.7773 14.2193 12.8405 14.0426 12.8329H5.97627C5.61092 12.8329 5.31474 12.5373 5.31474 12.1727C5.31474 11.8081 5.61092 11.5125 5.97627 11.5125Z" fill="#202123"/>
<path opacity="0.4" d="M13.9075 4.49188H11.553C10.9665 4.49575 10.4096 4.23484 10.0379 3.782L9.26256 2.7101C8.8971 2.25329 8.34024 1.99116 7.75457 2.00023H6.09009C3.10255 2.00023 2 3.75361 2 6.73507V9.95788C1.99629 10.3123 17.9965 10.3119 17.9975 9.95788V9.02085C18.0118 6.0394 16.9377 4.49188 13.9075 4.49188Z" fill="#E8E8E8"/>
<path d="M13.9003 4.49188C14.9442 4.41115 15.9802 4.72539 16.8025 5.37212C16.8972 5.45242 16.9852 5.54026 17.0657 5.63477C17.3216 5.93403 17.5195 6.27829 17.649 6.64989C17.9039 7.41363 18.0218 8.21623 17.9975 9.02086V13.2233C17.9965 13.5773 17.9704 13.9307 17.9193 14.281C17.822 14.8992 17.6045 15.4924 17.2791 16.0273C17.1295 16.2856 16.9479 16.5242 16.7385 16.7372C15.7906 17.6071 14.532 18.0599 13.2459 17.9936H6.74449C5.45639 18.0594 4.19569 17.6068 3.24481 16.7372C3.03792 16.5237 2.85869 16.2852 2.71132 16.0273C2.3878 15.4928 2.17495 14.899 2.08536 14.281C2.02839 13.9313 2 13.5776 2 13.2233V9.02086C2 8.66988 2.01886 8.31916 2.05691 7.97025C2.07825 7.80698 2.12804 7.6508 2.12804 7.49463C2.20024 7.07357 2.33197 6.66487 2.51926 6.28075C3.07409 5.09527 4.2122 4.49188 6.07585 4.49188H13.9003ZM14.0924 11.5125H5.97627C5.61092 11.5125 5.31474 11.8081 5.31474 12.1727C5.31474 12.5373 5.61092 12.8329 5.97627 12.8329H14.0426C14.2193 12.8405 14.3917 12.7773 14.5213 12.6573C14.651 12.5372 14.727 12.3704 14.7326 12.194C14.7426 12.0389 14.6915 11.8861 14.5903 11.7681C14.4739 11.6094 14.2894 11.5147 14.0924 11.5125Z" fill="#E8E8E8"/>
</svg>
