<svg width="20" height="20" viewBox="0 0 20 20" fill="none" xmlns="http://www.w3.org/2000/svg">
<path fill-rule="evenodd" clip-rule="evenodd" d="M16.7946 4.51875C17.4595 4.51875 18 5.04972 18 5.70294C18 6.35704 17.4595 6.888 16.7946 6.888H11.5342C10.8684 6.888 10.328 6.35704 10.328 5.70294C10.328 5.04972 10.8684 4.51875 11.5342 4.51875H16.7946ZM3.20622 13.1508H8.46663C9.1324 13.1508 9.67285 13.6817 9.67285 14.3358C9.67285 14.9891 9.1324 15.5209 8.46663 15.5209H3.20622C2.54044 15.5209 2 14.9891 2 14.3358C2 13.6817 2.54044 13.1508 3.20622 13.1508Z" fill="#202123"/>
<path opacity="0.4" d="M18 5.70294C18 5.04972 17.4595 4.51875 16.7946 4.51875H11.5342C10.8684 4.51875 10.328 5.04972 10.328 5.70294C10.328 6.35704 10.8684 6.888 11.5342 6.888H16.7946C17.4595 6.888 18 6.35704 18 5.70294Z" fill="#E8E8E8"/>
<path d="M7.50219 5.70285C7.50219 7.19618 6.27109 8.40657 4.7511 8.40657C3.23199 8.40657 2 7.19618 2 5.70285C2 4.21039 3.23199 3 4.7511 3C6.27109 3 7.50219 4.21039 7.50219 5.70285Z" fill="#E8E8E8"/>
<path opacity="0.4" d="M8.46663 13.1508H3.20622C2.54044 13.1508 2 13.6817 2 14.3358C2 14.9891 2.54044 15.5209 3.20622 15.5209H8.46663C9.1324 15.5209 9.67285 14.9891 9.67285 14.3358C9.67285 13.6817 9.1324 13.1508 8.46663 13.1508Z" fill="#E8E8E8"/>
<path d="M18.0001 14.3037C18.0001 15.7962 16.769 17.0066 15.249 17.0066C13.7299 17.0066 12.4979 15.7962 12.4979 14.3037C12.4979 12.8104 13.7299 11.6 15.249 11.6C16.769 11.6 18.0001 12.8104 18.0001 14.3037Z" fill="#E8E8E8"/>
</svg>
