<svg width="20" height="20" viewBox="0 0 20 20" fill="none" xmlns="http://www.w3.org/2000/svg">
<path opacity="0.4" fill-rule="evenodd" clip-rule="evenodd" d="M11.527 4.49187C10.95 4.48799 10.4041 4.22814 10.0379 3.782L9.26256 2.7101C8.8971 2.25329 8.34024 1.99116 7.75457 2.00023H6.09009C3.10255 2.00023 2 3.75361 2 6.73507V9.02085C2 8.66988 2.01886 8.31916 2.05691 7.97024C2.06491 7.90903 2.07691 7.84881 2.08878 7.78921C2.10858 7.68986 2.12804 7.59225 2.12804 7.49463C2.20024 7.07357 2.33197 6.66487 2.51926 6.28075C3.07409 5.09526 4.2122 4.49187 6.07585 4.49187H11.527Z" fill="#202123"/>
<path fill-rule="evenodd" clip-rule="evenodd" d="M16.8025 5.37211C15.9802 4.72538 14.9442 4.41114 13.9003 4.49187H6.07585C4.2122 4.49187 3.07409 5.09526 2.51926 6.28075C2.33197 6.66487 2.20024 7.07357 2.12804 7.49463C2.12804 7.59225 2.10858 7.68986 2.08878 7.78921C2.07691 7.84881 2.06491 7.90903 2.05691 7.97024C2.01886 8.31916 2 8.66988 2 9.02085V13.2233C2 13.5776 2.02839 13.9313 2.08536 14.281C2.17495 14.899 2.3878 15.4928 2.71132 16.0273C2.85869 16.2852 3.03792 16.5237 3.24481 16.7372C4.19569 17.6068 5.45639 18.0594 6.74449 17.9936H13.2459C14.532 18.0599 15.7906 17.6071 16.7385 16.7372C16.9479 16.5241 17.1295 16.2856 17.2791 16.0273C17.6045 15.4924 17.822 14.8992 17.9193 14.281C17.9704 13.9307 17.9965 13.5773 17.9975 13.2233V9.02085C18.0218 8.21623 17.9039 7.41363 17.649 6.64988C17.5195 6.27828 17.3216 5.93403 17.0657 5.63477C16.9852 5.54026 16.8972 5.45242 16.8025 5.37211ZM10.2405 8.34887C10.4944 8.09503 10.9059 8.09503 11.1598 8.34887L13.5298 10.719C13.7837 10.9728 13.7837 11.3843 13.5298 11.6382L11.1598 14.0083C10.9059 14.2621 10.4944 14.2621 10.2405 14.0083C9.98668 13.7544 9.98668 13.3429 10.2405 13.089L11.501 11.8286H6.75C6.39102 11.8286 6.1 11.5376 6.1 11.1786C6.1 10.8196 6.39102 10.5286 6.75 10.5286H11.501L10.2405 9.26811C9.98668 9.01427 9.98668 8.60271 10.2405 8.34887Z" fill="#E8E8E8"/>
<path opacity="0.4" fill-rule="evenodd" clip-rule="evenodd" d="M11.527 4.49187C10.95 4.48799 10.4041 4.22814 10.0379 3.782L9.26256 2.7101C8.8971 2.25329 8.34024 1.99116 7.75457 2.00023H6.09009C3.10255 2.00023 2 3.75361 2 6.73507V9.02085C2 8.66988 2.01886 8.31916 2.05691 7.97024C2.06491 7.90903 2.07691 7.84881 2.08878 7.78921C2.10858 7.68986 2.12804 7.59225 2.12804 7.49463C2.20024 7.07357 2.33197 6.66487 2.51926 6.28075C3.07409 5.09526 4.2122 4.49187 6.07585 4.49187H11.527Z" fill="#E8E8E8"/>
</svg>
