<svg width="20" height="20" viewBox="0 0 20 20" fill="none" xmlns="http://www.w3.org/2000/svg">
<path d="M9.81186 17.4698C7.98343 16.3417 6.28374 15.0115 4.74387 13.5036C3.65678 12.4269 2.82656 11.1123 2.31664 9.66014C1.40554 6.82814 2.46612 3.59157 5.42719 2.63072C6.99011 2.14043 8.6899 2.4414 9.99693 3.43986C11.3044 2.44252 13.0037 2.14164 14.5667 2.63072C17.5277 3.59157 18.5954 6.82814 17.6843 9.66014C17.1786 11.1109 16.3533 12.4254 15.2713 13.5036C13.7301 15.0099 12.0306 16.3399 10.2033 17.4698L10.004 17.5998L9.81186 17.4698Z" fill="#202123"/>
<path opacity="0.25" d="M9.81186 17.4698C7.98343 16.3417 6.28374 15.0115 4.74387 13.5036C3.65678 12.4269 2.82656 11.1123 2.31664 9.66014C1.40554 6.82814 2.46612 3.59157 5.42719 2.63072C6.99011 2.14043 8.6899 2.4414 9.99693 3.43986C11.3044 2.44252 13.0037 2.14164 14.5667 2.63072C17.5277 3.59157 18.5954 6.82814 17.6843 9.66014C17.1786 11.1109 16.3533 12.4254 15.2713 13.5036C13.7301 15.0099 12.0306 16.3399 10.2033 17.4698L10.004 17.5998L9.81186 17.4698Z" fill="#E8E8E8"/>
<path d="M14.9663 7.99936C14.8056 7.98901 14.6559 7.9087 14.5524 7.77724C14.4488 7.64577 14.4005 7.47471 14.4187 7.30412C14.4361 6.74224 14.1163 6.2308 13.6233 6.03182C13.3107 5.94648 13.1214 5.6079 13.1996 5.274C13.2738 4.94547 13.5814 4.74119 13.8906 4.81514C13.9297 4.82161 13.9672 4.83576 14.0014 4.85685C14.99 5.23727 15.63 6.26113 15.5791 7.38059C15.5775 7.55027 15.5113 7.71197 15.3958 7.82863C15.2802 7.94529 15.1252 8.00691 14.9663 7.99936Z" fill="#E8E8E8"/>
</svg>
