<svg width="20" height="20" viewBox="0 0 20 20" fill="none" xmlns="http://www.w3.org/2000/svg">
<path d="M13.4709 2H6.53707C3.81964 2 2 3.90086 2 6.73129V13.2688C2 14.2545 2.22445 15.1295 2.63327 15.8434C2.8978 15.5217 3.19439 15.1696 3.48297 14.8159C3.97194 14.2313 4.44489 13.653 4.74148 13.2768C5.18236 12.7314 6.34469 11.2958 7.95591 11.9695C8.28457 12.1058 8.57315 12.2983 8.83768 12.4667C9.48697 12.8998 9.75952 13.0282 10.2164 12.7787C10.7214 12.5068 11.0501 11.9695 11.3948 11.4072C11.5792 11.1105 11.7635 10.8225 11.9639 10.5579C12.8377 9.41896 14.1844 9.11418 15.3066 9.7879C15.8677 10.1248 16.3487 10.5498 16.7976 10.9822C16.8938 11.0784 16.99 11.1674 17.0782 11.2556C17.1984 11.3752 17.5992 11.7762 18 12.162V6.73129C18 3.90086 16.1804 2 13.4709 2Z" fill="#202123"/>
<path d="M17.9999 12.1619V13.2687C17.9999 13.4524 17.9919 13.6377 17.9759 13.8213C17.7514 16.3486 15.9959 18 13.4628 18H6.53699C5.25442 18 4.17226 17.5837 3.3947 16.829C3.09009 16.5491 2.83358 16.2203 2.63318 15.8433C2.89771 15.5217 3.1943 15.1696 3.48288 14.8167C3.97186 14.2312 4.4448 13.6529 4.7414 13.2767C5.18228 12.7313 6.3446 11.2957 7.95582 11.9694C8.28448 12.1057 8.57306 12.2982 8.83759 12.4667C9.48689 12.8998 9.75943 13.0281 10.2163 12.7795C10.7214 12.5068 11.05 11.9694 11.3947 11.408C11.5791 11.1104 11.7634 10.8225 11.9638 10.5578C12.8376 9.41887 14.1843 9.1141 15.3065 9.78782C15.8676 10.1247 16.3486 10.5498 16.7975 10.9821C16.8937 11.0783 16.9899 11.1673 17.0781 11.2556C17.1983 11.3759 17.5991 11.7769 17.9999 12.1619Z" fill="#E8E8E8"/>
<path opacity="0.25" d="M13.4709 2H6.53707C3.81964 2 2 3.90086 2 6.73129V13.2688C2 14.2545 2.22445 15.1295 2.63327 15.8434C2.8978 15.5217 3.19439 15.1696 3.48297 14.8159C3.97194 14.2313 4.44489 13.653 4.74148 13.2768C5.18236 12.7314 6.34469 11.2958 7.95591 11.9695C8.28457 12.1058 8.57315 12.2983 8.83768 12.4667C9.48697 12.8998 9.75952 13.0282 10.2164 12.7787C10.7214 12.5068 11.0501 11.9695 11.3948 11.4072C11.5792 11.1105 11.7635 10.8225 11.9639 10.5579C12.8377 9.41896 14.1844 9.11418 15.3066 9.7879C15.8677 10.1248 16.3487 10.5498 16.7976 10.9822C16.8938 11.0784 16.99 11.1674 17.0782 11.2556C17.1984 11.3752 17.5992 11.7762 18 12.162V6.73129C18 3.90086 16.1804 2 13.4709 2Z" fill="#E8E8E8"/>
<path d="M9.56351 7.43733C9.56351 8.56421 8.62483 9.50261 7.49858 9.50261C6.37313 9.50261 5.43445 8.56421 5.43445 7.43733C5.43445 6.31125 6.37313 5.37206 7.49858 5.37206C8.62483 5.37206 9.56351 6.31125 9.56351 7.43733Z" fill="#E8E8E8"/>
</svg>
