<svg width="20" height="20" viewBox="0 0 20 20" fill="none" xmlns="http://www.w3.org/2000/svg">
<path d="M3.82082 4.89733L2 9.79412H6.66594C7.11738 9.79412 7.49169 10.1469 7.63159 10.5666C7.87315 11.2914 8.48043 12.2647 10 12.2647C11.5196 12.2647 12.1269 11.2914 12.3684 10.5666C12.5083 10.1469 12.8826 9.79412 13.3341 9.79412H18L16.0894 4.86135C15.6554 3.74103 14.5581 3 13.3331 3H6.59073C5.35135 3 4.24437 3.75825 3.82082 4.89733Z" fill="#202123"/>
<path opacity="0.25" d="M3.82082 4.89733L2 9.79412H6.66594C7.11738 9.79412 7.49169 10.1469 7.63159 10.5666C7.87315 11.2914 8.48043 12.2647 10 12.2647C11.5196 12.2647 12.1269 11.2914 12.3684 10.5666C12.5083 10.1469 12.8826 9.79412 13.3341 9.79412H18L16.0894 4.86135C15.6554 3.74103 14.5581 3 13.3331 3H6.59073C5.35135 3 4.24437 3.75825 3.82082 4.89733Z" fill="#E8E8E8"/>
<path d="M2 14.1176V9.79411H6.66594C7.11738 9.79411 7.49169 10.1469 7.63159 10.5666C7.87315 11.2914 8.48043 12.2647 10 12.2647C11.5196 12.2647 12.1269 11.2914 12.3684 10.5666C12.5083 10.1469 12.8826 9.79411 13.3341 9.79411H18V14.1176C18 15.7095 16.6804 17 15.0526 17H4.94737C3.31958 17 2 15.7095 2 14.1176Z" fill="#E8E8E8"/>
</svg>
