<svg width="20" height="20" viewBox="0 0 20 20" fill="none" xmlns="http://www.w3.org/2000/svg">
<path fill-rule="evenodd" clip-rule="evenodd" d="M10.8481 3.50018L7.59639 16.5003H4.45C4.03579 16.5003 3.7 16.836 3.7 17.2503C3.7 17.6645 4.03579 18.0003 4.45 18.0003H8.1541C8.17303 18.001 8.19189 18.001 8.21063 18.0003H11.9055C12.3198 18.0003 12.6555 17.6645 12.6555 17.2503C12.6555 16.836 12.3198 16.5003 11.9055 16.5003H9.1426L12.3943 3.50018H15.5326C15.9468 3.50018 16.2826 3.16439 16.2826 2.75018C16.2826 2.33596 15.9468 2.00018 15.5326 2.00018H11.8245C11.8137 1.99994 11.8028 1.99994 11.792 2.00018H8.07702C7.66281 2.00018 7.32702 2.33596 7.32702 2.75018C7.32702 3.16439 7.66281 3.50018 8.07702 3.50018H10.8481Z" fill="#E8E8E8"/>
</svg>
