<svg width="20" height="20" viewBox="0 0 20 20" fill="none" xmlns="http://www.w3.org/2000/svg">
<path fill-rule="evenodd" clip-rule="evenodd" d="M4.42873 11.0825C3.83409 11.6772 3.50002 12.4837 3.50002 13.3246C3.50002 14.1656 3.83409 14.9721 4.42873 15.5667C5.02337 16.1614 5.82988 16.4955 6.67083 16.4955C7.08723 16.4955 7.49955 16.4134 7.88425 16.2541C8.26895 16.0947 8.6185 15.8612 8.91293 15.5667L10.5764 13.9033C10.8693 13.6104 11.3442 13.6104 11.6371 13.9033C11.9299 14.1962 11.9299 14.6711 11.6371 14.9639L9.97359 16.6274C9.53987 17.0611 9.02496 17.4052 8.45827 17.6399C7.89158 17.8746 7.28421 17.9955 6.67083 17.9955C5.43206 17.9955 4.24402 17.5034 3.36807 16.6274C2.49212 15.7515 2.00002 14.5634 2.00002 13.3246C2.00002 12.0859 2.49212 10.8978 3.36807 10.0219L5.03153 8.35842C5.32442 8.06553 5.7993 8.06553 6.09219 8.35842C6.38508 8.65132 6.38508 9.12619 6.09219 9.41909L4.42873 11.0825ZM8.35845 6.09217C8.06555 5.79927 8.06555 5.3244 8.35845 5.03151L10.0219 3.36805C10.4556 2.93432 10.9705 2.59027 11.5372 2.35554C12.1039 2.12081 12.7113 2 13.3247 2C13.938 2 14.5454 2.12081 15.1121 2.35554C15.6788 2.59027 16.1937 2.93432 16.6274 3.36805C17.0612 3.80177 17.4052 4.31668 17.6399 4.88337C17.8747 5.45006 17.9955 6.05743 17.9955 6.67081C17.9955 7.28419 17.8747 7.89156 17.6399 8.45825C17.4052 9.02494 17.0612 9.53985 16.6274 9.97357L14.964 11.637C14.6711 11.9299 14.1962 11.9299 13.9033 11.637C13.6104 11.3441 13.6104 10.8693 13.9033 10.5764L15.5668 8.91291C15.8612 8.61847 16.0948 8.26893 16.2541 7.88423C16.4135 7.49953 16.4955 7.08721 16.4955 6.67081C16.4955 6.25441 16.4135 5.84209 16.2541 5.45739C16.0948 5.07269 15.8612 4.72314 15.5668 4.42871C15.2723 4.13427 14.9228 3.90071 14.5381 3.74136C14.1534 3.58201 13.7411 3.5 13.3247 3.5C12.9083 3.5 12.496 3.58201 12.1113 3.74136C11.7266 3.90071 11.377 4.13427 11.0826 4.42871L9.41911 6.09217C9.12621 6.38506 8.65134 6.38506 8.35845 6.09217Z" fill="#E8E8E8"/>
<path fill-rule="evenodd" clip-rule="evenodd" d="M7.24945 12.746C6.95655 12.4532 6.95655 11.9783 7.24945 11.6854L11.6853 7.24949C11.9782 6.9566 12.4531 6.9566 12.746 7.24949C13.0389 7.54239 13.0389 8.01726 12.746 8.31015L8.31011 12.746C8.01721 13.0389 7.54234 13.0389 7.24945 12.746Z" fill="#202123"/>
<path opacity="0.4" fill-rule="evenodd" clip-rule="evenodd" d="M7.24945 12.746C6.95655 12.4532 6.95655 11.9783 7.24945 11.6854L11.6853 7.24949C11.9782 6.9566 12.4531 6.9566 12.746 7.24949C13.0389 7.54239 13.0389 8.01726 12.746 8.31015L8.31011 12.746C8.01721 13.0389 7.54234 13.0389 7.24945 12.746Z" fill="#E8E8E8"/>
</svg>
