<svg width="20" height="20" viewBox="0 0 20 20" fill="none" xmlns="http://www.w3.org/2000/svg">
<path fill-rule="evenodd" clip-rule="evenodd" d="M3.5 13.3246C3.5 12.4837 3.83407 11.6772 4.42871 11.0825L6.09217 9.41909C6.38506 9.12619 6.38506 8.65132 6.09217 8.35843C5.79927 8.06553 5.3244 8.06553 5.03151 8.35843L3.36805 10.0219C2.4921 10.8978 2 12.0859 2 13.3246C2 14.5634 2.4921 15.7515 3.36805 16.6274C4.244 17.5034 5.43203 17.9955 6.67081 17.9955C7.28419 17.9955 7.89156 17.8746 8.45825 17.6399C9.02494 17.4052 9.53985 17.0611 9.97357 16.6274L11.637 14.9639C11.9299 14.6711 11.9299 14.1962 11.637 13.9033C11.3441 13.6104 10.8693 13.6104 10.5764 13.9033L8.91291 15.5667C8.61848 15.8612 8.26893 16.0947 7.88423 16.2541C7.49953 16.4134 7.08721 16.4955 6.67081 16.4955C5.82986 16.4955 5.02335 16.1614 4.42871 15.5667C3.83407 14.9721 3.5 14.1656 3.5 13.3246ZM8.35843 5.03151C8.06553 5.3244 8.06553 5.79927 8.35843 6.09217C8.65132 6.38506 9.12619 6.38506 9.41909 6.09217L11.0825 4.42871C11.377 4.13427 11.7265 3.90071 12.1112 3.74136C12.4959 3.58202 12.9082 3.5 13.3246 3.5C13.741 3.5 14.1534 3.58201 14.5381 3.74136C14.9228 3.90071 15.2723 4.13427 15.5667 4.42871C15.8612 4.72315 16.0947 5.07269 16.2541 5.45739C16.4134 5.84209 16.4955 6.25441 16.4955 6.67081C16.4955 7.08721 16.4134 7.49953 16.2541 7.88423C16.0947 8.26893 15.8612 8.61847 15.5667 8.91291L13.9033 10.5764C13.6104 10.8693 13.6104 11.3441 13.9033 11.637C14.1962 11.9299 14.6711 11.9299 14.964 11.637L16.6274 9.97357C17.0611 9.53985 17.4052 9.02494 17.6399 8.45825C17.8746 7.89156 17.9955 7.28419 17.9955 6.67081C17.9955 6.05743 17.8746 5.45006 17.6399 4.88337C17.4052 4.31668 17.0611 3.80177 16.6274 3.36805C16.1937 2.93432 15.6788 2.59027 15.1121 2.35554C14.5454 2.12081 13.938 2 13.3246 2C12.7113 2 12.1039 2.12081 11.5372 2.35554C10.9705 2.59027 10.4556 2.93432 10.0219 3.36805L8.35843 5.03151ZM7.24945 11.6854C6.95656 11.9783 6.95656 12.4531 7.24945 12.746C7.54234 13.0389 8.01722 13.0389 8.31011 12.746L12.746 8.31015C13.0389 8.01725 13.0389 7.54238 12.746 7.24949C12.4531 6.95659 11.9782 6.95659 11.6853 7.24949L7.24945 11.6854Z" fill="#E8E8E8"/>
</svg>
