<svg width="16" height="12" viewBox="0 0 16 12" fill="none" xmlns="http://www.w3.org/2000/svg">
<path fill-rule="evenodd" clip-rule="evenodd" d="M0 0.75C0 0.335786 0.421444 0 0.941322 0H15.0586C15.5785 0 15.9999 0.335786 15.9999 0.75C15.9999 1.16421 15.5785 1.5 15.0586 1.5H0.941322C0.421444 1.5 0 1.16421 0 0.75Z" fill="#E8E8E8"/>
<path fill-rule="evenodd" clip-rule="evenodd" d="M0 5.94135C0 5.52713 0.421444 5.19135 0.941322 5.19135H15.0586C15.5785 5.19135 15.9999 5.52713 15.9999 5.94135C15.9999 6.35556 15.5785 6.69135 15.0586 6.69135H0.941322C0.421444 6.69135 0 6.35556 0 5.94135Z" fill="#E8E8E8"/>
<path fill-rule="evenodd" clip-rule="evenodd" d="M0 11.1327C0 10.7185 0.421444 10.3827 0.941322 10.3827H15.0586C15.5785 10.3827 15.9999 10.7185 15.9999 11.1327C15.9999 11.5469 15.5785 11.8827 15.0586 11.8827H0.941322C0.421444 11.8827 0 11.5469 0 11.1327Z" fill="#E8E8E8"/>
</svg>
