<svg width="16" height="12" viewBox="0 0 16 12" fill="none" xmlns="http://www.w3.org/2000/svg">
<path fill-rule="evenodd" clip-rule="evenodd" d="M3.25204 0.75C3.25204 0.335786 3.58783 0 4.00204 0H15.25C15.6642 0 16 0.335786 16 0.75C16 1.16421 15.6642 1.5 15.25 1.5H4.00204C3.58783 1.5 3.25204 1.16421 3.25204 0.75Z" fill="#E8E8E8"/>
<path fill-rule="evenodd" clip-rule="evenodd" d="M3.25204 5.94135C3.25204 5.52713 3.58783 5.19135 4.00204 5.19135H15.25C15.6642 5.19135 16 5.52713 16 5.94135C16 6.35556 15.6642 6.69135 15.25 6.69135H4.00204C3.58783 6.69135 3.25204 6.35556 3.25204 5.94135Z" fill="#E8E8E8"/>
<path fill-rule="evenodd" clip-rule="evenodd" d="M3.25204 11.1327C3.25204 10.7185 3.58783 10.3827 4.00204 10.3827H15.25C15.6642 10.3827 16 10.7185 16 11.1327C16 11.5469 15.6642 11.8827 15.25 11.8827H4.00204C3.58783 11.8827 3.25204 11.5469 3.25204 11.1327Z" fill="#E8E8E8"/>
<path fill-rule="evenodd" clip-rule="evenodd" d="M0 0.75C0 0.335786 0.335786 0 0.75 0H0.758056C1.17227 0 1.50806 0.335786 1.50806 0.75C1.50806 1.16421 1.17227 1.5 0.758056 1.5H0.75C0.335786 1.5 0 1.16421 0 0.75Z" fill="#E8E8E8"/>
<path fill-rule="evenodd" clip-rule="evenodd" d="M0 5.94135C0 5.52713 0.335786 5.19135 0.75 5.19135H0.758056C1.17227 5.19135 1.50806 5.52713 1.50806 5.94135C1.50806 6.35556 1.17227 6.69135 0.758056 6.69135H0.75C0.335786 6.69135 0 6.35556 0 5.94135Z" fill="#E8E8E8"/>
<path fill-rule="evenodd" clip-rule="evenodd" d="M0 11.1327C0 10.7185 0.335786 10.3827 0.75 10.3827H0.758056C1.17227 10.3827 1.50806 10.7185 1.50806 11.1327C1.50806 11.5469 1.17227 11.8827 0.758056 11.8827H0.75C0.335786 11.8827 0 11.5469 0 11.1327Z" fill="#E8E8E8"/>
</svg>
