<svg width="20" height="20" viewBox="0 0 20 20" fill="none" xmlns="http://www.w3.org/2000/svg">
<path d="M7.2253 2.74942C8.97319 1.73382 11.1216 1.75157 12.8531 2.79592C14.5676 3.86153 15.6096 5.76334 15.5999 7.80915C15.56 9.84155 14.4426 11.752 13.046 13.2289C12.2399 14.0851 11.3381 14.8423 10.3591 15.4848C10.2582 15.5431 10.1478 15.5822 10.0332 15.6C9.92288 15.5953 9.81545 15.5627 9.7206 15.5052C8.22594 14.5397 6.91467 13.3072 5.84987 11.8672C4.95887 10.6651 4.45267 9.21281 4.4 7.70754L4.40399 7.48855C4.47674 5.52372 5.53984 3.72874 7.2253 2.74942ZM10.7258 6.02782C10.0153 5.72579 9.19604 5.88988 8.65065 6.44348C8.10527 6.99708 7.94131 7.83098 8.23533 8.55582C8.52935 9.28067 9.22335 9.75347 9.99328 9.75348C10.4977 9.7571 10.9826 9.55506 11.3398 9.19238C11.6971 8.8297 11.8972 8.33651 11.8954 7.8227C11.8981 7.03843 11.4364 6.32985 10.7258 6.02782Z" fill="#E8E8E8"/>
<path d="M10 18C12.2091 18 14 17.6418 14 17.2C14 16.7582 12.2091 16.4 10 16.4C7.79086 16.4 6 16.7582 6 17.2C6 17.6418 7.79086 18 10 18Z" fill="#202123"/>
<path opacity="0.4" d="M10 18C12.2091 18 14 17.6418 14 17.2C14 16.7582 12.2091 16.4 10 16.4C7.79086 16.4 6 16.7582 6 17.2C6 17.6418 7.79086 18 10 18Z" fill="#E8E8E8"/>
</svg>
