<svg width="20" height="20" viewBox="0 0 20 20" fill="none" xmlns="http://www.w3.org/2000/svg">
<path d="M13.385 7.37106C15.2709 7.37106 16.8 8.86643 16.8 10.7108V14.6603C16.8 16.5046 15.2709 18 13.385 18H6.61504C4.72908 18 3.2 16.5046 3.2 14.6603V10.7108C3.2 8.86643 4.72908 7.37106 6.61504 7.37106H13.385ZM9.99593 11.1075C9.60574 11.1075 9.2887 11.4175 9.2887 11.7991V13.564C9.2887 13.9535 9.60574 14.2636 9.99593 14.2636C10.3943 14.2636 10.7113 13.9535 10.7113 13.564V11.7991C10.7113 11.4175 10.3943 11.1075 9.99593 11.1075Z" fill="#E8E8E8"/>
<path d="M14.4183 6.31676V7.49334C14.1337 7.41384 13.833 7.37409 13.524 7.37409H12.9957V6.31676C12.9957 4.70294 11.6544 3.39122 10.0041 3.39122C8.35394 3.39122 7.01263 4.69499 7.0045 6.30086V7.37409H6.48424C6.16721 7.37409 5.86643 7.41384 5.58191 7.50129V6.31676C5.59004 3.93181 7.56541 2 9.98789 2C12.4429 2 14.4183 3.93181 14.4183 6.31676Z" fill="#202123"/>
<path opacity="0.4" d="M14.4183 6.31676V7.49334C14.1337 7.41384 13.833 7.37409 13.524 7.37409H12.9957V6.31676C12.9957 4.70294 11.6544 3.39122 10.0041 3.39122C8.35394 3.39122 7.01263 4.69499 7.0045 6.30086V7.37409H6.48424C6.16721 7.37409 5.86643 7.41384 5.58191 7.50129V6.31676C5.59004 3.93181 7.56541 2 9.98789 2C12.4429 2 14.4183 3.93181 14.4183 6.31676Z" fill="#E8E8E8"/>
</svg>
