<svg width="20" height="20" viewBox="0 0 20 20" fill="none" xmlns="http://www.w3.org/2000/svg">
<path d="M1.81693 5.58815C1.81693 3.62735 3.44112 2.03055 5.43655 2.03055H9.40544C11.3968 2.03055 13.0169 3.62255 13.0169 5.58015V14.4729C13.0169 16.4345 11.3927 18.0305 9.39648 18.0305H5.42922C3.43705 18.0305 1.81693 16.4385 1.81693 14.4809V13.7289V5.58815Z" fill="#202123"/>
<path opacity="0.25" d="M1.81693 5.58815C1.81693 3.62735 3.44112 2.03055 5.43655 2.03055H9.40544C11.3968 2.03055 13.0169 3.62255 13.0169 5.58015V14.4729C13.0169 16.4345 11.3927 18.0305 9.39648 18.0305H5.42922C3.43705 18.0305 1.81693 16.4385 1.81693 14.4809V13.7289V5.58815Z" fill="#E8E8E8"/>
<path d="M17.6401 9.59439L15.3634 7.26719C15.1281 7.02719 14.7495 7.02719 14.515 7.26879C14.2812 7.51039 14.282 7.89999 14.5165 8.13999L15.7639 9.41439H14.5679H7.8557C7.52457 9.41439 7.25577 9.69039 7.25577 10.0304C7.25577 10.3712 7.52457 10.6464 7.8557 10.6464H15.7639L14.5165 11.9208C14.282 12.1608 14.2812 12.5504 14.515 12.792C14.6326 12.9128 14.7861 12.9736 14.9404 12.9736C15.0931 12.9736 15.2466 12.9128 15.3634 12.7936L17.6401 10.4672C17.7531 10.3512 17.8169 10.1944 17.8169 10.0304C17.8169 9.86719 17.7531 9.71039 17.6401 9.59439Z" fill="#E8E8E8"/>
</svg>
