<svg width="20" height="20" viewBox="0 0 20 20" fill="none" xmlns="http://www.w3.org/2000/svg">
<path fill-rule="evenodd" clip-rule="evenodd" d="M14.0241 3C15.5249 3 16.8881 3.8336 17.5809 5.1392C17.7361 5.4312 17.6625 5.7952 17.4041 6.0016L11.4641 10.7528C11.0481 11.0888 10.5441 11.256 10.0401 11.256H10.0321H10.0241C9.52007 11.256 9.01607 11.0888 8.60007 10.7528L2.66007 6.0016C2.40167 5.7952 2.32807 5.4312 2.48327 5.1392C3.17607 3.8336 4.53927 3 6.04007 3H14.0241ZM13.976 17.4005C16.208 17.3925 18 15.5845 18 13.3525C18 13.3525 18 9.86128 17.992 8.09408C17.9912 7.76048 17.6056 7.57328 17.3432 7.78208C16.2268 8.66893 14.6438 9.93552 13.4997 10.851C12.6664 11.5178 12.0659 11.9983 12.048 12.0101C11.48 12.4741 10.76 12.7309 10.024 12.7309C9.288 12.7309 8.568 12.4741 8 12.0189C7.9576 11.9829 4.5584 9.23328 2.6576 7.72528C2.396 7.51728 2.012 7.70448 2.0112 8.03888C2.0048 9.81968 2 13.3605 2 13.3605V13.3685C2 15.6005 3.816 17.4005 6.04 17.4005H13.968H13.976Z" fill="#202123"/>
<path opacity="0.25" d="M18 13.3525C18 15.5845 16.208 17.3925 13.976 17.4005H13.968H6.04C3.816 17.4005 2 15.6005 2 13.3685V13.3605C2 13.3605 2.0048 9.81968 2.0112 8.03888C2.012 7.70448 2.396 7.51728 2.6576 7.72528C4.5584 9.23328 7.9576 11.9829 8 12.0189C8.568 12.4741 9.288 12.7309 10.024 12.7309C10.76 12.7309 11.48 12.4741 12.048 12.0101C12.0904 11.9821 15.4136 9.31488 17.3432 7.78208C17.6056 7.57328 17.9912 7.76048 17.992 8.09408C18 9.86128 18 13.3525 18 13.3525Z" fill="#E8E8E8"/>
<path d="M17.5809 5.1392C16.8881 3.8336 15.5249 3 14.0241 3H6.04007C4.53927 3 3.17607 3.8336 2.48327 5.1392C2.32807 5.4312 2.40167 5.7952 2.66007 6.0016L8.60007 10.7528C9.01607 11.0888 9.52007 11.256 10.0241 11.256C10.0273 11.256 10.0297 11.256 10.0321 11.256C10.0345 11.256 10.0377 11.256 10.0401 11.256C10.5441 11.256 11.0481 11.0888 11.4641 10.7528L17.4041 6.0016C17.6625 5.7952 17.7361 5.4312 17.5809 5.1392Z" fill="#E8E8E8"/>
</svg>
