<svg width="20" height="20" viewBox="0 0 20 20" fill="none" xmlns="http://www.w3.org/2000/svg">
<path fill-rule="evenodd" clip-rule="evenodd" d="M6.848 2H13.5528C16.024 2 17.4 3.424 17.4 5.864V14.128C17.4 16.608 16.024 18 13.5528 18H6.848C4.416 18 3 16.608 3 14.128V5.864C3 3.424 4.416 2 6.848 2Z" fill="#202123"/>
<path opacity="0.25" d="M13.5528 2H6.848C4.416 2 3 3.424 3 5.864V14.128C3 16.608 4.416 18 6.848 18H13.5528C16.024 18 17.4 16.608 17.4 14.128V5.864C17.4 3.424 16.024 2 13.5528 2Z" fill="#E8E8E8"/>
<path d="M7.06398 12.992H13.336C13.6552 13.024 13.896 13.296 13.896 13.624C13.896 13.9432 13.6552 14.216 13.336 14.248H7.06398C6.82398 14.28 6.59198 14.16 6.46398 13.96C6.33598 13.752 6.33598 13.488 6.46398 13.288C6.59198 13.08 6.82398 12.968 7.06398 12.992ZM13.336 9.3432C13.68 9.3432 13.96 9.624 13.96 9.968C13.96 10.312 13.68 10.592 13.336 10.592H7.06398C6.71918 10.592 6.43998 10.312 6.43998 9.968C6.43998 9.624 6.71918 9.3432 7.06398 9.3432H13.336ZM9.45518 5.72C9.79998 5.72 10.08 6 10.08 6.3432C10.08 6.696 9.79998 6.976 9.45518 6.976H7.06398C6.71918 6.976 6.43998 6.696 6.43998 6.352C6.43998 6.008 6.71918 5.728 7.06398 5.728V5.72H9.45518Z" fill="#E8E8E8"/>
</svg>
