<svg width="20" height="20" viewBox="0 0 20 20" fill="none" xmlns="http://www.w3.org/2000/svg">
<path fill-rule="evenodd" clip-rule="evenodd" d="M5.16671 6.09996C5.04515 6.09996 4.92857 6.14825 4.84262 6.2342C4.75667 6.32016 4.70838 6.43674 4.70838 6.55829V13.3603H15.2916V6.55829C15.2916 6.43674 15.2433 6.32016 15.1574 6.2342C15.0714 6.14825 14.9549 6.09996 14.8333 6.09996H5.16671ZM16.7916 13.3603V6.55829C16.7916 6.03891 16.5853 5.54081 16.218 5.17355C15.8508 4.8063 15.3527 4.59998 14.8333 4.59998H5.16671C4.64733 4.59998 4.14922 4.8063 3.78197 5.17355C3.41471 5.54081 3.20839 6.03891 3.20839 6.55829V13.3603H2.75006C2.38008 13.3603 2.06538 13.6301 2.00887 13.9958C1.95236 14.3614 2.17093 14.7136 2.52364 14.8253L4.33613 15.3993C4.40936 15.4225 4.48573 15.4343 4.56254 15.4343H15.4375C15.5143 15.4343 15.5906 15.4225 15.6639 15.3993L17.4764 14.8253C17.8291 14.7136 18.0476 14.3614 17.9911 13.9958C17.9346 13.6301 17.6199 13.3603 17.2499 13.3603H16.7916Z" fill="#E8E8E8"/>
</svg>
