<svg width="20" height="20" viewBox="0 0 20 20" fill="none" xmlns="http://www.w3.org/2000/svg">
<path fill-rule="evenodd" clip-rule="evenodd" d="M15.3657 7.43773C15.3657 8.44244 15.6312 9.03383 16.2156 9.71627C16.6585 10.219 16.8 10.8652 16.8 11.5646C16.8 12.2647 16.5694 12.9278 16.1091 13.4668C15.5072 14.113 14.6572 14.5255 13.7898 14.5972C12.532 14.7044 11.2749 14.7946 10.0004 14.7946C8.72509 14.7946 7.46805 14.7407 6.21101 14.5972C5.34278 14.5255 4.49283 14.113 3.89094 13.4668C3.42979 12.9278 3.20001 12.2647 3.20001 11.5646C3.20001 10.8652 3.34154 10.219 3.7844 9.71627C4.38629 9.03383 4.63435 8.44244 4.63435 7.43773V7.09611C4.63435 5.75057 4.97068 4.87074 5.66161 4.01024C6.68886 2.75334 8.33549 2 9.96463 2H10.0354C11.6995 2 13.3994 2.78959 14.4092 4.09968C15.0643 4.94325 15.3657 5.78683 15.3657 7.09611V7.43773ZM8.37017 15.7827C8.7701 15.6973 11.2071 15.6973 11.607 15.7827C11.9489 15.8616 12.3186 16.0454 12.3186 16.4482C12.2987 16.8325 12.0737 17.1717 11.762 17.3869L11.7628 17.3877C11.3597 17.7019 10.8866 17.9017 10.3921 17.9734C10.1186 18.0081 9.84983 18.0097 9.58587 17.9734C9.09052 17.9017 8.61745 17.7019 8.21434 17.3877L8.21513 17.3869C7.90346 17.1717 7.67845 16.8325 7.65857 16.4482C7.65857 16.0454 8.02829 15.8616 8.37017 15.7827Z" fill="#202123"/>
<path d="M16.2156 9.71627C15.6312 9.03383 15.3657 8.44244 15.3657 7.43773V7.09611C15.3657 5.78683 15.0643 4.94325 14.4092 4.09968C13.3994 2.78959 11.6995 2 10.0354 2H9.96463C8.33549 2 6.68886 2.75334 5.66161 4.01024C4.97068 4.87074 4.63435 5.75057 4.63435 7.09611V7.43773C4.63435 8.44244 4.38629 9.03383 3.7844 9.71627C3.34154 10.219 3.20001 10.8652 3.20001 11.5646C3.20001 12.2647 3.42979 12.9278 3.89094 13.4668C4.49283 14.113 5.34278 14.5255 6.21101 14.5972C7.46805 14.7407 8.72509 14.7946 10.0004 14.7946C11.2749 14.7946 12.532 14.7044 13.7898 14.5972C14.6572 14.5255 15.5072 14.113 16.1091 13.4668C16.5694 12.9278 16.8 12.2647 16.8 11.5646C16.8 10.8652 16.6585 10.219 16.2156 9.71627Z" fill="#E8E8E8"/>
<path opacity="0.4" d="M11.607 15.7827C11.2071 15.6973 8.7701 15.6973 8.37017 15.7827C8.02829 15.8616 7.65857 16.0454 7.65857 16.4482C7.67845 16.8325 7.90346 17.1717 8.21513 17.3869L8.21434 17.3877C8.61745 17.7019 9.09052 17.9017 9.58587 17.9734C9.84983 18.0097 10.1186 18.0081 10.3921 17.9734C10.8866 17.9017 11.3597 17.7019 11.7628 17.3877L11.762 17.3869C12.0737 17.1717 12.2987 16.8325 12.3186 16.4482C12.3186 16.0454 11.9489 15.8616 11.607 15.7827Z" fill="#E8E8E8"/>
</svg>
