<svg width="18" height="14" viewBox="0 0 18 14" fill="none" xmlns="http://www.w3.org/2000/svg">
<path fill-rule="evenodd" clip-rule="evenodd" d="M4.90204 1.90002C4.90204 1.48581 5.23783 1.15002 5.65204 1.15002H16.9C17.3142 1.15002 17.65 1.48581 17.65 1.90002C17.65 2.31424 17.3142 2.65002 16.9 2.65002H5.65204C5.23783 2.65002 4.90204 2.31424 4.90204 1.90002Z" fill="#E8E8E8"/>
<path fill-rule="evenodd" clip-rule="evenodd" d="M4.90204 7.09137C4.90204 6.67716 5.23783 6.34137 5.65204 6.34137H16.9C17.3142 6.34137 17.65 6.67716 17.65 7.09137C17.65 7.50558 17.3142 7.84137 16.9 7.84137H5.65204C5.23783 7.84137 4.90204 7.50558 4.90204 7.09137Z" fill="#E8E8E8"/>
<path fill-rule="evenodd" clip-rule="evenodd" d="M4.90204 12.2827C4.90204 11.8685 5.23783 11.5327 5.65204 11.5327H16.9C17.3142 11.5327 17.65 11.8685 17.65 12.2827C17.65 12.6969 17.3142 13.0327 16.9 13.0327H5.65204C5.23783 13.0327 4.90204 12.6969 4.90204 12.2827Z" fill="#E8E8E8"/>
<path d="M1.75 3.5H0.875V0.875H0V0H1.75V3.5Z" fill="#E8E8E8"/>
<path d="M1.75 11.375H0V10.5H2.625V14H0V13.125H1.75V12.8625L1.3125 12.6875V11.8125L1.75 11.6375V11.375Z" fill="#E8E8E8"/>
<path d="M1.75 6.125H0V5.25H2.625V6.125L0.875 7.875H2.625V8.75H0V7.875L1.75 6.125Z" fill="#E8E8E8"/>
</svg>
