<svg width="14" height="16" viewBox="0 0 14 16" fill="none" xmlns="http://www.w3.org/2000/svg">
<path fill-rule="evenodd" clip-rule="evenodd" d="M1.09438 0.644365C1.50696 0.231785 2.06654 0 2.65001 0H7.72501C7.92392 0 8.11469 0.0790176 8.25534 0.21967L13.3303 5.29467C13.471 5.43532 13.55 5.62609 13.55 5.825V13.8C13.55 14.3835 13.3182 14.9431 12.9056 15.3556C12.4931 15.7682 11.9335 16 11.35 16H2.65001C2.06654 16 1.50696 15.7682 1.09438 15.3556C0.681797 14.9431 0.450012 14.3835 0.450012 13.8V2.2C0.450012 1.61652 0.681797 1.05695 1.09438 0.644365ZM2.65001 1.5C2.46436 1.5 2.28631 1.57375 2.15504 1.70503C2.02376 1.8363 1.95001 2.01435 1.95001 2.2V13.8C1.95001 13.9857 2.02376 14.1637 2.15504 14.295C2.28631 14.4263 2.46436 14.5 2.65001 14.5H11.35C11.5357 14.5 11.7137 14.4263 11.845 14.295C11.9763 14.1637 12.05 13.9857 12.05 13.8V6.13566L7.41435 1.5H2.65001Z" fill="#E8E8E8"/>
<path fill-rule="evenodd" clip-rule="evenodd" d="M7.72498 0C8.13919 0 8.47498 0.335786 8.47498 0.75V5.075H12.8C13.2142 5.075 13.55 5.41079 13.55 5.825C13.55 6.23921 13.2142 6.575 12.8 6.575H7.72498C7.31076 6.575 6.97498 6.23921 6.97498 5.825V0.75C6.97498 0.335786 7.31076 0 7.72498 0Z" fill="#E8E8E8"/>
<path d="M5.3678 9.81579C5.3678 9.98958 5.32649 10.1491 5.24388 10.2944C5.16126 10.4369 5.03439 10.5523 4.86326 10.6406C4.69213 10.7289 4.47969 10.7731 4.22594 10.7731H3.75681V11.85H3V8.84998H4.22594C4.47379 8.84998 4.68328 8.89129 4.85441 8.97391C5.02554 9.05653 5.15389 9.17049 5.23945 9.31579C5.32502 9.46109 5.3678 9.62775 5.3678 9.81579ZM4.16841 10.1919C4.31299 10.1919 4.42068 10.1591 4.49149 10.0936C4.5623 10.028 4.59771 9.93545 4.59771 9.81579C4.59771 9.69613 4.5623 9.60354 4.49149 9.53801C4.42068 9.47248 4.31299 9.43972 4.16841 9.43972H3.75681V10.1919H4.16841Z" fill="#E8E8E8"/>
<path d="M6.92578 8.84998C7.25329 8.84998 7.53949 8.91265 7.78439 9.03801C8.02928 9.16337 8.21811 9.34 8.35089 9.56792C8.48661 9.793 8.55447 10.0537 8.55447 10.35C8.55447 10.6434 8.48661 10.9041 8.35089 11.132C8.21811 11.3599 8.0278 11.5366 7.77996 11.6619C7.53507 11.7873 7.25034 11.85 6.92578 11.85H5.7618V8.84998H6.92578ZM6.8771 11.2175C7.1633 11.2175 7.38606 11.142 7.54539 10.991C7.70472 10.84 7.78439 10.6263 7.78439 10.35C7.78439 10.0736 7.70472 9.85852 7.54539 9.70468C7.38606 9.55083 7.1633 9.47391 6.8771 9.47391H6.51861V11.2175H6.8771Z" fill="#E8E8E8"/>
<path d="M11 8.84998V9.43545H9.73422V10.0679H10.6813V10.6363H9.73422V11.85H8.97741V8.84998H11Z" fill="#E8E8E8"/>
</svg>
