<svg width="20" height="20" viewBox="0 0 20 20" fill="none" xmlns="http://www.w3.org/2000/svg">
<path fill-rule="evenodd" clip-rule="evenodd" d="M7.33332 2.5C6.35148 2.5 5.55554 3.29009 5.55554 4.26471V5.14706H14.4444V4.26471C14.4444 3.29009 13.6485 2.5 12.6667 2.5H7.33332ZM14.4445 12.8676H14.4444V15.7353C14.4444 16.7099 13.6485 17.5 12.6667 17.5H7.33332C6.35148 17.5 5.55554 16.7099 5.55554 15.7353V12.8676C5.19112 12.8676 4.88892 12.5676 4.88892 12.2059C4.88892 11.8441 5.19114 11.5441 5.55558 11.5441H14.4445C14.8089 11.5441 15.1111 11.8441 15.1111 12.2059C15.1111 12.5676 14.8089 12.8676 14.4445 12.8676Z" fill="#202123"/>
<path fill-rule="evenodd" clip-rule="evenodd" d="M4.66667 5.14706H15.3333C17.1111 5.14706 18 6.02941 18 7.79412V12.2059C18 13.9706 17.1111 14.8529 15.3333 14.8529H14.4444V12.8676H14.4445C14.8089 12.8676 15.1111 12.5676 15.1111 12.2059C15.1111 11.8441 14.8089 11.5441 14.4445 11.5441H5.55558C5.19114 11.5441 4.88892 11.8441 4.88892 12.2059C4.88892 12.5676 5.19112 12.8676 5.55554 12.8676V14.8529H4.66667C2.88889 14.8529 2 13.9706 2 12.2059V7.79412C2 6.02941 2.88889 5.14706 4.66667 5.14706ZM5.55556 9.33823H8.22222C8.58667 9.33823 8.88889 9.03823 8.88889 8.67647C8.88889 8.3147 8.58667 8.0147 8.22222 8.0147H5.55556C5.19111 8.0147 4.88889 8.3147 4.88889 8.67647C4.88889 9.03823 5.19111 9.33823 5.55556 9.33823Z" fill="#E8E8E8"/>
<path opacity="0.4" d="M5.55554 4.26471C5.55554 3.29009 6.35148 2.5 7.33332 2.5H12.6667C13.6485 2.5 14.4444 3.29009 14.4444 4.26471V5.14706H5.55554V4.26471Z" fill="#E8E8E8"/>
<path opacity="0.4" fill-rule="evenodd" clip-rule="evenodd" d="M14.4444 12.8676H14.4445C14.8089 12.8676 15.1111 12.5676 15.1111 12.2059C15.1111 11.8441 14.8089 11.5441 14.4445 11.5441H5.55558C5.19114 11.5441 4.88892 11.8441 4.88892 12.2059C4.88892 12.5676 5.19112 12.8676 5.55554 12.8676V15.7353C5.55554 16.7099 6.35148 17.5 7.33332 17.5H12.6667C13.6485 17.5 14.4444 16.7099 14.4444 15.7353V12.8676Z" fill="#E8E8E8"/>
</svg>
