<svg width="20" height="20" viewBox="0 0 20 20" fill="none" xmlns="http://www.w3.org/2000/svg">
<path d="M9.99764 12.54C6.54722 12.54 3.60001 13.084 3.60001 15.26C3.60001 17.4368 6.52882 18 9.99764 18C13.4481 18 16.3953 17.4568 16.3953 15.28C16.3953 13.1032 13.4673 12.54 9.99764 12.54Z" fill="#E8E8E8"/>
<path d="M9.99764 10.4672C12.3481 10.4672 14.2313 8.58323 14.2313 6.23362C14.2313 3.88401 12.3481 2 9.99764 2C7.64803 2 5.76402 3.88401 5.76402 6.23362C5.76402 8.58323 7.64803 10.4672 9.99764 10.4672Z" fill="#202123"/>
<path opacity="0.3" d="M9.99764 10.4672C12.3481 10.4672 14.2313 8.58323 14.2313 6.23362C14.2313 3.88401 12.3481 2 9.99764 2C7.64803 2 5.76402 3.88401 5.76402 6.23362C5.76402 8.58323 7.64803 10.4672 9.99764 10.4672Z" fill="#E8E8E8"/>
</svg>
