<svg width="20" height="20" viewBox="0 0 20 20" fill="none" xmlns="http://www.w3.org/2000/svg">
<path d="M13.4505 2.8C13.4127 2.9944 13.3938 3.19201 13.3942 3.39005C13.3942 5.16684 14.8367 6.60722 16.6161 6.60722C16.8121 6.60625 17.0075 6.58744 17.2 6.55102V12.9292C17.2 15.6125 15.6172 17.2 12.9299 17.2H7.07709C4.38281 17.2 2.8 15.6125 2.8 12.9292V7.08488C2.8 4.40156 4.38281 2.8 7.07709 2.8H13.4505ZM13.5472 7.5954L13.4533 7.60127C13.2969 7.62377 13.1563 7.70864 13.0636 7.83649L11.1361 10.3161L8.94128 8.5881C8.81598 8.49047 8.65657 8.44737 8.49905 8.46852C8.34153 8.48967 8.19919 8.57328 8.10416 8.70049L5.7405 11.7491C5.65742 11.8526 5.61269 11.9817 5.61388 12.1143L5.61595 12.2026C5.63887 12.4346 5.79799 12.6351 6.0259 12.707C6.28231 12.788 6.5611 12.6858 6.70425 12.4585L8.681 9.90166L10.8758 11.6226C11.0007 11.7233 11.1611 11.7689 11.3203 11.749C11.4795 11.7292 11.6238 11.6455 11.72 11.5173L14.0063 8.56702V8.55297C14.202 8.28997 14.152 7.91911 13.8937 7.71707C13.7687 7.62055 13.6098 7.57876 13.4533 7.60127L13.5472 7.5954Z" fill="#E8E8E8"/>
<path d="M16.8 5.2C17.9046 5.2 18.8 4.30457 18.8 3.2C18.8 2.09543 17.9046 1.2 16.8 1.2C15.6954 1.2 14.8 2.09543 14.8 3.2C14.8 4.30457 15.6954 5.2 16.8 5.2Z" fill="#202123"/>
<path opacity="0.4" d="M16.8 5.2C17.9046 5.2 18.8 4.30457 18.8 3.2C18.8 2.09543 17.9046 1.2 16.8 1.2C15.6954 1.2 14.8 2.09543 14.8 3.2C14.8 4.30457 15.6954 5.2 16.8 5.2Z" fill="#E8E8E8"/>
</svg>
