<svg width="20" height="20" viewBox="0 0 20 20" fill="none" xmlns="http://www.w3.org/2000/svg">
<path fill-rule="evenodd" clip-rule="evenodd" d="M13.3705 4.06582C13.22 2.90365 12.2348 2 11.0334 2H8.96674C7.76454 2 6.78006 2.90365 6.62958 4.06582H5.0552C3.37037 4.06582 2.00009 5.4329 2.00009 7.11373V9.26608H2C2.00003 9.2675 2.00006 9.26893 2.00009 9.27036V9.8879C2.00009 9.93821 2.00637 9.98772 2.0184 10.0354C2.06695 11.905 2.15411 14.383 2.16808 14.6912C2.22491 15.4459 2.51385 16.2087 2.96368 16.7466C3.58959 17.5014 4.36037 17.8383 5.4353 17.8383C6.92084 17.8463 8.55845 17.8463 10.1488 17.8463C11.7456 17.8463 13.2952 17.8463 14.6038 17.8383C15.6636 17.8383 16.4584 17.4926 17.0763 16.7466C17.5261 16.2087 17.815 15.4379 17.8558 14.6912C17.8644 14.5321 17.8914 13.4612 17.9219 12.2468L17.9219 12.2464C17.9405 11.5091 17.9604 10.7188 17.9783 10.0478C17.9925 9.99632 18 9.94261 18 9.8879V7.11373C18 5.4329 16.6329 4.06582 14.9529 4.06582H13.3705ZM8.96674 3.20059H11.0334C11.5712 3.20059 12.0211 3.56878 12.1555 4.06582H7.84378C7.97825 3.56878 8.42807 3.20059 8.96674 3.20059Z" fill="#202123"/>
<path opacity="0.3" d="M2 9.26608C2.04002 11.1374 2.15208 14.3382 2.16808 14.6912C2.22491 15.4459 2.51385 16.2087 2.96368 16.7466C3.58959 17.5014 4.36037 17.8383 5.4353 17.8383C6.92084 17.8463 8.55845 17.8463 10.1488 17.8463C11.7456 17.8463 13.2952 17.8463 14.6038 17.8383C15.6636 17.8383 16.4584 17.4926 17.0763 16.7466C17.5261 16.2087 17.815 15.4379 17.8558 14.6912C17.8719 14.3942 17.9519 10.9197 17.9999 9.26608H2Z" fill="#E8E8E8"/>
<path d="M9.39981 12.7123V13.7481C9.39981 14.0794 9.66874 14.3484 10.0001 14.3484C10.3315 14.3484 10.6004 14.0794 10.6004 13.7481V12.7123C10.6004 12.381 10.3315 12.112 10.0001 12.112C9.66874 12.112 9.39981 12.381 9.39981 12.7123Z" fill="#E8E8E8"/>
<path d="M11.0334 2C12.2348 2 13.22 2.90365 13.3705 4.06582H14.9529C16.6329 4.06582 18 5.4329 18 7.11373V9.8879C18 10.0896 17.8984 10.2777 17.7311 10.389C16.0807 11.4815 14.1213 12.2091 12.0659 12.4932C12.0379 12.4972 12.0106 12.4988 11.9834 12.4988C11.7121 12.4988 11.4696 12.3155 11.4015 12.0466C11.2399 11.4095 10.6612 10.9636 9.99605 10.9636C9.32212 10.9636 8.74983 11.3999 8.57214 12.0498C8.4921 12.3403 8.21277 12.526 7.91022 12.486C5.86841 12.201 3.91704 11.4767 2.26983 10.389C2.10094 10.2785 2.00009 10.0896 2.00009 9.8879V7.11373C2.00009 5.4329 3.37037 4.06582 5.0552 4.06582H6.62958C6.78006 2.90365 7.76454 2 8.96674 2H11.0334ZM11.0334 3.20059H8.96674C8.42807 3.20059 7.97825 3.56878 7.84378 4.06582H12.1555C12.0211 3.56878 11.5712 3.20059 11.0334 3.20059Z" fill="#E8E8E8"/>
</svg>
