<svg width="20" height="20" viewBox="0 0 20 20" fill="none" xmlns="http://www.w3.org/2000/svg">
<path d="M18 15.6044C18 10.6276 14.9542 7.42182 10.7273 7.09164V12.9004C15.5076 13.1353 18 15.6044 18 15.6044Z" fill="#202123"/>
<path opacity="0.3" d="M18 15.6044C18 10.6276 14.9542 7.42182 10.7273 7.09164V12.9004C15.5076 13.1353 18 15.6044 18 15.6044Z" fill="#E8E8E8"/>
<path d="M8.40436 4.49091C8.936 4.03637 9.79709 4.03637 10.3287 4.49091C10.5949 4.71782 10.7287 5.01601 10.7273 5.31346V7.09164C10.7273 7.65 10.7273 11.65 10.7273 12.9004V14.6226C10.7287 14.9207 10.5949 15.2182 10.3287 15.4451C10.0633 15.672 9.71491 15.7862 9.36654 15.7862C9.01818 15.7862 8.67054 15.6727 8.40436 15.4451L2.88865 10.728C2.42191 10.3288 2.42191 9.60719 2.88865 9.20802L8.40436 4.49091Z" fill="#E8E8E8"/>
</svg>
