<svg width="20" height="20" viewBox="0 0 20 20" fill="none" xmlns="http://www.w3.org/2000/svg">
<path fill-rule="evenodd" clip-rule="evenodd" d="M16.7219 11.264C17.008 11.416 17.2288 11.656 17.3841 11.896C17.6866 12.392 17.6621 13 17.3678 13.536L16.7955 14.496C16.493 15.008 15.9289 15.328 15.3484 15.328C15.0622 15.328 14.7434 15.248 14.4818 15.088C14.2692 14.952 14.0239 14.904 13.7623 14.904C12.9529 14.904 12.2743 15.568 12.2498 16.36C12.2498 17.28 11.4977 18 10.5575 18H9.44556C8.49719 18 7.74503 17.28 7.74503 16.36C7.72868 15.568 7.0501 14.904 6.24071 14.904C5.97091 14.904 5.72564 14.952 5.52125 15.088C5.25963 15.248 4.9326 15.328 4.65463 15.328C4.06598 15.328 3.50186 15.008 3.19936 14.496L2.63524 13.536C2.33274 13.016 2.31639 12.392 2.61889 11.896C2.7497 11.656 2.99497 11.416 3.27294 11.264C3.50186 11.152 3.64902 10.968 3.78801 10.752C4.19679 10.064 3.95152 9.16 3.25659 8.752C2.4472 8.296 2.18558 7.28 2.65159 6.488L3.19936 5.544C3.67355 4.752 4.68733 4.472 5.5049 4.936C6.21618 5.32 7.14003 5.064 7.55699 4.384C7.6878 4.16 7.76138 3.92 7.74503 3.68C7.72868 3.368 7.81861 3.072 7.97395 2.832C8.27644 2.336 8.82421 2.016 9.42104 2H10.5738C11.1788 2 11.7266 2.336 12.0291 2.832C12.1762 3.072 12.2743 3.368 12.2498 3.68C12.2335 3.92 12.307 4.16 12.4379 4.384C12.8548 5.064 13.7787 5.32 14.4981 4.936C15.3075 4.472 16.3295 4.752 16.7955 5.544L17.3433 6.488C17.8174 7.28 17.5558 8.296 16.7383 8.752C16.0433 9.16 15.7981 10.064 16.215 10.752C16.3458 10.968 16.493 11.152 16.7219 11.264Z" fill="#202123"/>
<path d="M10.0097 12.264C8.72611 12.264 7.68781 11.264 7.68781 10.008C7.68781 8.752 8.72611 7.744 10.0097 7.744C11.2933 7.744 12.3071 8.752 12.3071 10.008C12.3071 11.264 11.2933 12.264 10.0097 12.264Z" fill="#E8E8E8"/>
<path opacity="0.25" d="M17.3841 11.896C17.2288 11.656 17.008 11.416 16.7219 11.264C16.493 11.152 16.3458 10.968 16.215 10.752C15.7981 10.064 16.0433 9.16 16.7383 8.752C17.5558 8.296 17.8174 7.28 17.3433 6.488L16.7955 5.544C16.3295 4.752 15.3075 4.472 14.4981 4.936C13.7787 5.32 12.8548 5.064 12.4379 4.384C12.307 4.16 12.2335 3.92 12.2498 3.68C12.2743 3.368 12.1762 3.072 12.0291 2.832C11.7266 2.336 11.1788 2 10.5738 2H9.42104C8.82421 2.016 8.27644 2.336 7.97395 2.832C7.81861 3.072 7.72868 3.368 7.74503 3.68C7.76138 3.92 7.6878 4.16 7.55699 4.384C7.14003 5.064 6.21618 5.32 5.5049 4.936C4.68733 4.472 3.67355 4.752 3.19936 5.544L2.65159 6.488C2.18558 7.28 2.4472 8.296 3.25659 8.752C3.95152 9.16 4.19679 10.064 3.78801 10.752C3.64902 10.968 3.50186 11.152 3.27294 11.264C2.99497 11.416 2.7497 11.656 2.61889 11.896C2.31639 12.392 2.33274 13.016 2.63524 13.536L3.19936 14.496C3.50186 15.008 4.06598 15.328 4.65463 15.328C4.9326 15.328 5.25963 15.248 5.52125 15.088C5.72564 14.952 5.97091 14.904 6.24071 14.904C7.0501 14.904 7.72868 15.568 7.74503 16.36C7.74503 17.28 8.49719 18 9.44556 18H10.5575C11.4977 18 12.2498 17.28 12.2498 16.36C12.2743 15.568 12.9529 14.904 13.7623 14.904C14.0239 14.904 14.2692 14.952 14.4818 15.088C14.7434 15.248 15.0622 15.328 15.3484 15.328C15.9289 15.328 16.493 15.008 16.7955 14.496L17.3678 13.536C17.6621 13 17.6866 12.392 17.3841 11.896Z" fill="#E8E8E8"/>
</svg>
