<svg width="20" height="20" viewBox="0 0 20 20" fill="none" xmlns="http://www.w3.org/2000/svg">
<path fill-rule="evenodd" clip-rule="evenodd" d="M12.2526 7.13297C11.895 6.78156 11.6297 6.33652 11.4964 5.83755L7.84737 7.96703C8.205 8.31843 8.47032 8.76347 8.60363 9.26243L12.2526 7.13297ZM8.60375 10.7372C8.47052 11.2362 8.20526 11.6812 7.84769 12.0327L11.4972 14.1593C11.6311 13.6606 11.8969 13.2158 12.2549 12.8648L8.60375 10.7372Z" fill="#202123"/>
<path opacity="0.4" fill-rule="evenodd" clip-rule="evenodd" d="M12.2526 7.13297C11.895 6.78156 11.6297 6.33652 11.4964 5.83755L7.84737 7.96703C8.205 8.31843 8.47032 8.76347 8.60363 9.26243L12.2526 7.13297ZM8.60375 10.7372C8.47052 11.2362 8.20526 11.6812 7.84769 12.0327L11.4972 14.1593C11.6311 13.6606 11.8969 13.2158 12.2549 12.8648L8.60375 10.7372Z" fill="#E8E8E8"/>
<path fill-rule="evenodd" clip-rule="evenodd" d="M14.25 2.25C12.676 2.25 11.4 3.52599 11.4 5.1C11.4 6.67401 12.676 7.95 14.25 7.95C15.824 7.95 17.1 6.67401 17.1 5.1C17.1 3.52599 15.824 2.25 14.25 2.25ZM5.85 7.15001C4.27599 7.15001 3 8.426 3 10C3 11.574 4.27599 12.85 5.85 12.85C7.42401 12.85 8.7 11.574 8.7 10C8.7 8.426 7.42401 7.15001 5.85 7.15001ZM11.4 14.9C11.4 13.326 12.676 12.05 14.25 12.05C15.824 12.05 17.1 13.326 17.1 14.9C17.1 16.474 15.824 17.75 14.25 17.75C12.676 17.75 11.4 16.474 11.4 14.9Z" fill="#E8E8E8"/>
</svg>
