<svg width="20" height="20" viewBox="0 0 20 20" fill="none" xmlns="http://www.w3.org/2000/svg">
<path d="M10.0692 18C9.97017 18 9.87111 17.9773 9.78171 17.931L6.90084 16.4397C6.08337 16.0161 5.44389 15.5407 4.94455 14.9868C3.85163 13.7756 3.24356 12.2208 3.2339 10.6079L3.20004 5.29941C3.19605 4.68674 3.59149 4.13682 4.18265 3.92972L9.47244 2.08543C9.78655 1.97325 10.1369 1.97168 10.4566 2.07994L15.7666 3.86147C16.3609 4.05994 16.7628 4.60594 16.766 5.21782L16.7999 10.5303C16.8103 12.1408 16.2232 13.7019 15.1472 14.9264C14.6535 15.4881 14.0197 15.9706 13.2103 16.402L10.3551 17.927C10.2666 17.9749 10.1683 17.9992 10.0692 18Z" fill="#202123"/>
<path opacity="0.25" d="M10.0692 18C9.97017 18 9.87111 17.9773 9.78171 17.931L6.90084 16.4397C6.08337 16.0161 5.44389 15.5407 4.94455 14.9868C3.85163 13.7756 3.24356 12.2208 3.2339 10.6079L3.20004 5.29941C3.19605 4.68674 3.59149 4.13682 4.18265 3.92972L9.47244 2.08543C9.78655 1.97325 10.1369 1.97168 10.4566 2.07994L15.7666 3.86147C16.3609 4.05994 16.7628 4.60594 16.766 5.21782L16.7999 10.5303C16.8103 12.1408 16.2232 13.7019 15.1472 14.9264C14.6535 15.4881 14.0197 15.9706 13.2103 16.402L10.3551 17.927C10.2666 17.9749 10.1683 17.9992 10.0692 18Z" fill="#E8E8E8"/>
<path d="M9.45552 11.8567C9.30089 11.8575 9.14625 11.8018 9.02705 11.6873L7.49359 10.2125C7.25681 9.98341 7.25439 9.61157 7.48876 9.38094C7.72313 9.14952 8.10569 9.14717 8.34328 9.37545L9.44666 10.4361L12.1407 7.77983C12.3759 7.54841 12.7584 7.54606 12.9952 7.77434C13.2328 8.00341 13.2352 8.37603 13.0008 8.60588L9.88157 11.6818C9.76398 11.7979 9.61016 11.8559 9.45552 11.8567Z" fill="#E8E8E8"/>
</svg>
