<svg width="20" height="20" viewBox="0 0 20 20" fill="none" xmlns="http://www.w3.org/2000/svg">
<path d="M10 3.6C11.6546 3.6 13.2234 4.17406 14.5893 5.23685C15.9551 6.2911 17.118 7.83564 17.9532 9.76727C18.0156 9.91389 18.0156 10.0853 17.9532 10.225C16.2829 14.0882 13.3093 16.4 10 16.4H9.9922C6.69073 16.4 3.71707 14.0882 2.04683 10.225C1.98439 10.0853 1.98439 9.91389 2.04683 9.76727C3.71707 5.90322 6.69073 3.6 9.9922 3.6H10ZM10 6.89697C8.27512 6.89697 6.87805 8.28558 6.87805 10C6.87805 11.7067 8.27512 13.0953 10 13.0953C11.7171 13.0953 13.1141 11.7067 13.1141 10C13.1141 8.28558 11.7171 6.89697 10 6.89697Z" fill="#202123"/>
<path opacity="0.3" d="M10 3.6C11.6546 3.6 13.2234 4.17406 14.5893 5.23685C15.9551 6.2911 17.118 7.83564 17.9532 9.76727C18.0156 9.91389 18.0156 10.0853 17.9532 10.225C16.2829 14.0882 13.3093 16.4 10 16.4H9.9922C6.69073 16.4 3.71707 14.0882 2.04683 10.225C1.98439 10.0853 1.98439 9.91389 2.04683 9.76727C3.71707 5.90322 6.69073 3.6 9.9922 3.6H10ZM10 6.89697C8.27512 6.89697 6.87805 8.28558 6.87805 10C6.87805 11.7067 8.27512 13.0953 10 13.0953C11.7171 13.0953 13.1141 11.7067 13.1141 10C13.1141 8.28558 11.7171 6.89697 10 6.89697Z" fill="#E8E8E8"/>
<path d="M11.9453 9.93939C11.9453 11.0022 11.0711 11.871 10.0019 11.871C8.92481 11.871 8.05066 11.0022 8.05066 9.93939C8.05066 9.80751 8.06627 9.68417 8.08968 9.56005H8.12871C8.99505 9.56005 9.69749 8.87738 9.72871 8.02327C9.81456 8.00853 9.90822 8 10.0019 8C11.0711 8 11.9453 8.86885 11.9453 9.93939Z" fill="#E8E8E8"/>
</svg>
