<svg width="20" height="20" viewBox="0 0 20 20" fill="none" xmlns="http://www.w3.org/2000/svg">
<path fill-rule="evenodd" clip-rule="evenodd" d="M2.78787 3.5C2.21634 3.5 1.75 3.96634 1.75 4.53787V5.99716C1.75 6.41137 1.41421 6.74716 1 6.74716C0.585786 6.74716 0.25 6.41137 0.25 5.99716V4.53787C0.25 3.13791 1.38791 2 2.78787 2H14.2121C15.6121 2 16.75 3.13791 16.75 4.53787V5.99716C16.75 6.41137 16.4142 6.74716 16 6.74716C15.5858 6.74716 15.25 6.41137 15.25 5.99716V4.53787C15.25 3.96634 14.7837 3.5 14.2121 3.5H9.23134V16.4962H11.3806C11.7948 16.4962 12.1306 16.832 12.1306 17.2462C12.1306 17.6604 11.7948 17.9962 11.3806 17.9962H8.48989C8.48704 17.9962 8.48419 17.9962 8.48134 17.9962C8.47849 17.9962 8.47564 17.9962 8.47279 17.9962H5.58209C5.16787 17.9962 4.83209 17.6604 4.83209 17.2462C4.83209 16.832 5.16787 16.4962 5.58209 16.4962H7.73134V3.5H2.78787Z" fill="#E8E8E8"/>
<path fill-rule="evenodd" clip-rule="evenodd" d="M12.6101 11.019C12.5501 11.019 12.5 11.0691 12.5 11.1292V11.8312C12.5 12.2454 12.1642 12.5812 11.75 12.5812C11.3358 12.5812 11 12.2454 11 11.8312V11.1292C11 10.2407 11.7217 9.51904 12.6101 9.51904H18.3287C19.2171 9.51904 19.9388 10.2407 19.9388 11.1292V11.8312C19.9388 12.2454 19.603 12.5812 19.1888 12.5812C18.7746 12.5812 18.4388 12.2454 18.4388 11.8312V11.1292C18.4388 11.0691 18.3887 11.019 18.3287 11.019H16.2194V16.4929H16.8641C17.2784 16.4929 17.6141 16.8286 17.6141 17.2429C17.6141 17.6571 17.2784 17.9929 16.8641 17.9929H15.4856C15.4802 17.993 15.4748 17.993 15.4694 17.993C15.464 17.993 15.4586 17.993 15.4533 17.9929H14.0746C13.6604 17.9929 13.3246 17.6571 13.3246 17.2429C13.3246 16.8286 13.6604 16.4929 14.0746 16.4929H14.7194V11.019H12.6101Z" fill="#E8E8E8"/>
</svg>
