<svg width="20" height="20" viewBox="0 0 20 20" fill="none" xmlns="http://www.w3.org/2000/svg">
<path d="M10.781 2.89089L12.5622 6.47031C12.6935 6.72964 12.9439 6.90974 13.2328 6.94976L17.2336 7.53245C17.4673 7.56527 17.6793 7.68853 17.8226 7.87663C17.9642 8.06232 18.025 8.29764 17.9906 8.52896C17.9626 8.72106 17.8722 8.89875 17.7337 9.03482L14.8347 11.845C14.6227 12.0411 14.5266 12.3317 14.5779 12.6158L15.2916 16.5666C15.3676 17.0437 15.0516 17.4935 14.5779 17.584C14.3826 17.6152 14.1826 17.5824 14.0065 17.4927L10.4378 15.6334C10.1729 15.4997 9.86004 15.4997 9.59519 15.6334L6.02642 17.4927C5.58793 17.7256 5.04461 17.5672 4.80056 17.1349C4.71014 16.9628 4.67813 16.7667 4.70774 16.5755L5.42149 12.6238C5.4727 12.3405 5.37588 12.0483 5.16464 11.8522L2.26561 9.04362C1.92074 8.71065 1.91034 8.16237 2.24241 7.8174C2.24961 7.81019 2.25761 7.80219 2.26561 7.79419C2.40324 7.65411 2.58408 7.56527 2.77932 7.54206L6.78018 6.95856C7.06824 6.91774 7.3187 6.73925 7.45073 6.47832L9.16789 2.89089C9.32073 2.58354 9.6376 2.39224 9.98167 2.40024H10.0889C10.3874 2.43626 10.6474 2.62116 10.781 2.89089Z" fill="#202123"/>
<path opacity="0.3" d="M10.781 2.89089L12.5622 6.47031C12.6935 6.72964 12.9439 6.90974 13.2328 6.94976L17.2336 7.53245C17.4673 7.56527 17.6793 7.68853 17.8226 7.87663C17.9642 8.06232 18.025 8.29764 17.9906 8.52896C17.9626 8.72106 17.8722 8.89875 17.7337 9.03482L14.8347 11.845C14.6227 12.0411 14.5266 12.3317 14.5779 12.6158L15.2916 16.5666C15.3676 17.0437 15.0516 17.4935 14.5779 17.584C14.3826 17.6152 14.1826 17.5824 14.0065 17.4927L10.4378 15.6334C10.1729 15.4997 9.86004 15.4997 9.59519 15.6334L6.02642 17.4927C5.58793 17.7256 5.04461 17.5672 4.80056 17.1349C4.71014 16.9628 4.67813 16.7667 4.70774 16.5755L5.42149 12.6238C5.4727 12.3405 5.37588 12.0483 5.16464 11.8522L2.26561 9.04362C1.92074 8.71065 1.91034 8.16237 2.24241 7.8174C2.24961 7.81019 2.25761 7.80219 2.26561 7.79419C2.40324 7.65411 2.58408 7.56527 2.77932 7.54206L6.78018 6.95856C7.06824 6.91774 7.3187 6.73925 7.45073 6.47832L9.16789 2.89089C9.32073 2.58354 9.6376 2.39224 9.98167 2.40024H10.0889C10.3874 2.43626 10.6474 2.62116 10.781 2.89089Z" fill="#E8E8E8"/>
<path d="M9.99361 15.5337C9.83865 15.5385 9.68768 15.5801 9.55189 15.6546L6.00058 17.5097C5.56605 17.7171 5.04605 17.5562 4.80243 17.1406C4.71217 16.9709 4.67942 16.7763 4.70977 16.5858L5.41907 12.6425C5.467 12.3559 5.37115 12.0645 5.16267 11.8627L2.26235 9.05478C1.91808 8.71771 1.91169 8.16445 2.24877 7.81937C2.25356 7.81457 2.25756 7.81056 2.26235 7.80656C2.39974 7.67045 2.57706 7.58077 2.76797 7.55275L6.77218 6.96347C7.06214 6.92664 7.31375 6.74569 7.44155 6.48307L9.18206 2.8505C9.34741 2.55746 9.66452 2.38291 10 2.40133C9.99361 2.63912 9.99361 15.372 9.99361 15.5337Z" fill="#E8E8E8"/>
</svg>
