<svg width="20" height="20" viewBox="0 0 20 20" fill="none" xmlns="http://www.w3.org/2000/svg">
<path fill-rule="evenodd" clip-rule="evenodd" d="M4.47878 3.75C3.93983 3.75 3.5 4.18983 3.5 4.72878V6.13984C3.5 6.55406 3.16421 6.88984 2.75 6.88984C2.33579 6.88984 2 6.55406 2 6.13984V4.72878C2 3.3614 3.1114 2.25 4.47878 2.25H15.5255C16.8928 2.25 18.0042 3.3614 18.0042 4.72878V6.13984C18.0042 6.55406 17.6685 6.88984 17.2542 6.88984C16.84 6.88984 16.5042 6.55406 16.5042 6.13984V4.72878C16.5042 4.18983 16.0644 3.75 15.5255 3.75H10.7341V8.55993C10.7341 8.97415 10.3983 9.30993 9.98407 9.30993C9.56986 9.30993 9.23407 8.97415 9.23407 8.55993V3.75H4.47878ZM10.7341 13.3947C10.7341 12.9805 10.3983 12.6447 9.98407 12.6447C9.56986 12.6447 9.23407 12.9805 9.23407 13.3947V16.2671H7.18065C6.76644 16.2671 6.43065 16.6028 6.43065 17.0171C6.43065 17.4313 6.76644 17.7671 7.18065 17.7671H9.97146L9.98407 17.7672L9.99669 17.7671H12.7875C13.2017 17.7671 13.5375 17.4313 13.5375 17.0171C13.5375 16.6028 13.2017 16.2671 12.7875 16.2671H10.7341V13.3947ZM3.71695 10.2273C3.30274 10.2273 2.96695 10.5631 2.96695 10.9773C2.96695 11.3916 3.30274 11.7273 3.71695 11.7273H16.2873C16.7015 11.7273 17.0373 11.3916 17.0373 10.9773C17.0373 10.5631 16.7015 10.2273 16.2873 10.2273H3.71695Z" fill="#E8E8E8"/>
</svg>
