<svg width="20" height="20" viewBox="0 0 20 20" fill="none" xmlns="http://www.w3.org/2000/svg">
<path fill-rule="evenodd" clip-rule="evenodd" d="M6.536 2H13.472C16.184 2 18 3.904 18 6.736V13.272C18 16.096 16.184 18 13.472 18H6.536C3.824 18 2 16.096 2 13.272V6.736C2 3.904 3.824 2 6.536 2Z" fill="#202123"/>
<path opacity="0.25" d="M13.472 2H6.536C3.824 2 2 3.904 2 6.736V13.272C2 16.096 3.824 18 6.536 18H13.472C16.184 18 18 16.096 18 13.272V6.736C18 3.904 16.184 2 13.472 2Z" fill="#E8E8E8"/>
<path d="M9.05049 12.5985C8.87129 12.5985 8.69209 12.5305 8.55529 12.3937L6.65689 10.4953C6.38329 10.2217 6.38329 9.77848 6.65689 9.50568C6.93049 9.23208 7.37289 9.23128 7.64649 9.50488L9.05049 10.9089L12.3529 7.60648C12.6265 7.33288 13.0689 7.33288 13.3425 7.60648C13.6161 7.88008 13.6161 8.32328 13.3425 8.59688L9.54569 12.3937C9.40889 12.5305 9.22969 12.5985 9.05049 12.5985Z" fill="#E8E8E8"/>
</svg>
