<svg width="20" height="20" viewBox="0 0 20 20" fill="none" xmlns="http://www.w3.org/2000/svg">
<path d="M17.4 11.1811C16.7432 11.1811 16.2088 10.6516 16.2088 10.0008C16.2088 9.3492 16.7432 8.81968 17.4 8.81968C17.5592 8.81968 17.712 8.75706 17.824 8.64608C17.9368 8.53432 18 8.38291 18 8.22517L17.9992 6.08332C17.9992 4.27282 16.512 2.8 14.6848 2.8H5.3152C3.488 2.8 2.0008 4.27282 2.0008 6.08332L2 8.29413C2 8.45188 2.0632 8.60328 2.176 8.71505C2.288 8.82603 2.4408 8.88865 2.6 8.88865C3.2792 8.88865 3.7912 9.36664 3.7912 10.0008C3.7912 10.6516 3.2568 11.1811 2.6 11.1811C2.2688 11.1811 2 11.4474 2 11.7756V13.9159C2 15.7264 3.4864 17.2 5.3144 17.2H14.6856C16.5136 17.2 18 15.7264 18 13.9159V11.7756C18 11.4474 17.7312 11.1811 17.4 11.1811Z" fill="#202123"/>
<path opacity="0.25" d="M17.4 11.1811C16.7432 11.1811 16.2088 10.6516 16.2088 10.0008C16.2088 9.3492 16.7432 8.81968 17.4 8.81968C17.5592 8.81968 17.712 8.75706 17.824 8.64608C17.9368 8.53432 18 8.38291 18 8.22517L17.9992 6.08332C17.9992 4.27282 16.512 2.8 14.6848 2.8H5.3152C3.488 2.8 2.0008 4.27282 2.0008 6.08332L2 8.29413C2 8.45188 2.0632 8.60328 2.176 8.71505C2.288 8.82603 2.4408 8.88865 2.6 8.88865C3.2792 8.88865 3.7912 9.36664 3.7912 10.0008C3.7912 10.6516 3.2568 11.1811 2.6 11.1811C2.2688 11.1811 2 11.4474 2 11.7756V13.9159C2 15.7264 3.4864 17.2 5.3144 17.2H14.6856C16.5136 17.2 18 15.7264 18 13.9159V11.7756C18 11.4474 17.7312 11.1811 17.4 11.1811Z" fill="#E8E8E8"/>
<path d="M12.7443 9.6709L11.8011 10.5893L12.0243 11.8877C12.0627 12.1125 11.9723 12.3341 11.7875 12.4669C11.6043 12.6013 11.3651 12.6181 11.1635 12.5109L9.99947 11.8989L8.83307 12.5117C8.74667 12.5573 8.65227 12.5813 8.55867 12.5813C8.43627 12.5813 8.31547 12.5429 8.21147 12.4677C8.02747 12.3341 7.93707 12.1125 7.97547 11.8877L8.19787 10.5893L7.25467 9.6709C7.09147 9.5125 7.03467 9.2797 7.10507 9.0629C7.17627 8.8469 7.36027 8.6933 7.58507 8.6613L8.88587 8.4717L9.46907 7.2901C9.57067 7.0869 9.77387 6.9605 9.99947 6.9605H10.0011C10.2275 6.9613 10.4307 7.0877 10.5307 7.2909L11.1139 8.4717L12.4171 8.6621C12.6395 8.6933 12.8235 8.8469 12.8939 9.0629C12.9651 9.2797 12.9083 9.5125 12.7443 9.6709Z" fill="#E8E8E8"/>
</svg>
