<svg width="20" height="20" viewBox="0 0 20 20" fill="none" xmlns="http://www.w3.org/2000/svg">
<path d="M18 10C18 14.4192 14.4184 18 10 18C5.5816 18 2 14.4192 2 10C2 5.5824 5.5816 2 10 2C14.4184 2 18 5.5824 18 10Z" fill="#202123"/>
<path opacity="0.25" d="M18 10C18 14.4192 14.4184 18 10 18C5.5816 18 2 14.4192 2 10C2 5.5824 5.5816 2 10 2C14.4184 2 18 5.5824 18 10Z" fill="#E8E8E8"/>
<path d="M12.8578 13.0514C12.753 13.0514 12.6474 13.0242 12.5506 12.9674L9.4098 11.0938C9.229 10.985 9.1178 10.789 9.1178 10.5778V6.5402C9.1178 6.209 9.3866 5.9402 9.7178 5.9402C10.049 5.9402 10.3178 6.209 10.3178 6.5402V10.237L13.1658 11.9354C13.4498 12.1058 13.5434 12.4738 13.3738 12.7586C13.261 12.9466 13.0618 13.0514 12.8578 13.0514Z" fill="#E8E8E8"/>
</svg>
