<svg width="20" height="20" viewBox="0 0 20 20" fill="none" xmlns="http://www.w3.org/2000/svg">
<path fill-rule="evenodd" clip-rule="evenodd" d="M5.25 2.95001C5.25 2.5358 4.91421 2.20001 4.5 2.20001C4.08579 2.20001 3.75 2.5358 3.75 2.95001V8.44127C3.75 11.8914 6.54117 14.6825 9.99126 14.6825C13.4414 14.6825 16.2325 11.8914 16.2325 8.44127V2.95001C16.2325 2.5358 15.8967 2.20001 15.4825 2.20001C15.0683 2.20001 14.7325 2.5358 14.7325 2.95001V8.44127C14.7325 11.0629 12.6129 13.1825 9.99126 13.1825C7.36959 13.1825 5.25 11.0629 5.25 8.44127V2.95001ZM4.5 16.3204C4.08579 16.3204 3.75 16.6562 3.75 17.0704C3.75 17.4846 4.08579 17.8204 4.5 17.8204H15.4825C15.8967 17.8204 16.2325 17.4846 16.2325 17.0704C16.2325 16.6562 15.8967 16.3204 15.4825 16.3204H4.5Z" fill="#E8E8E8"/>
</svg>
