<svg width="20" height="20" viewBox="0 0 20 20" fill="none" xmlns="http://www.w3.org/2000/svg">
<path fill-rule="evenodd" clip-rule="evenodd" d="M17.3361 10.5833C17.7491 10.5848 18.0834 10.92 18.0834 11.3333V15.3333C18.0834 15.7475 17.7476 16.0833 17.3334 16.0833C16.9192 16.0833 16.5834 15.7475 16.5834 15.3333V13.067L14.7618 14.7787C13.9572 15.5808 12.9632 16.1669 11.8717 16.4826C10.7764 16.7994 9.61866 16.8336 8.50654 16.582C7.39443 16.3304 6.36418 15.8011 5.51193 15.0436C4.65968 14.2861 4.0132 13.3251 3.63283 12.2502C3.49465 11.8597 3.69918 11.4311 4.08967 11.293C4.48015 11.1548 4.90872 11.3593 5.0469 11.7498C5.34275 12.5858 5.84556 13.3333 6.50842 13.9225C7.17129 14.5116 7.97259 14.9233 8.83757 15.119C9.70255 15.3147 10.603 15.2881 11.4549 15.0417C12.3069 14.7953 13.0825 14.3371 13.7094 13.7098C13.7149 13.7043 13.7206 13.6988 13.7263 13.6934L15.4398 12.0833H13.3334C12.9192 12.0833 12.5834 11.7475 12.5834 11.3333C12.5834 10.9191 12.9192 10.5833 13.3334 10.5833H17.3312C17.3328 10.5833 17.3345 10.5833 17.3361 10.5833Z" fill="#202123"/>
<path opacity="0.4" fill-rule="evenodd" clip-rule="evenodd" d="M17.3361 10.5833C17.7491 10.5848 18.0834 10.92 18.0834 11.3333V15.3333C18.0834 15.7475 17.7476 16.0833 17.3334 16.0833C16.9192 16.0833 16.5834 15.7475 16.5834 15.3333V13.067L14.7618 14.7787C13.9572 15.5808 12.9632 16.1669 11.8717 16.4826C10.7764 16.7994 9.61866 16.8336 8.50654 16.582C7.39443 16.3304 6.36418 15.8011 5.51193 15.0436C4.65968 14.2861 4.0132 13.3251 3.63283 12.2502C3.49465 11.8597 3.69918 11.4311 4.08967 11.293C4.48015 11.1548 4.90872 11.3593 5.0469 11.7498C5.34275 12.5858 5.84556 13.3333 6.50842 13.9225C7.17129 14.5116 7.97259 14.9233 8.83757 15.119C9.70255 15.3147 10.603 15.2881 11.4549 15.0417C12.3069 14.7953 13.0825 14.3371 13.7094 13.7098C13.7149 13.7043 13.7206 13.6988 13.7263 13.6934L15.4398 12.0833H13.3334C12.9192 12.0833 12.5834 11.7475 12.5834 11.3333C12.5834 10.9191 12.9192 10.5833 13.3334 10.5833H17.3312C17.3328 10.5833 17.3345 10.5833 17.3361 10.5833Z" fill="#E8E8E8"/>
<path fill-rule="evenodd" clip-rule="evenodd" d="M11.4933 3.41805C10.3812 3.16642 9.22349 3.20061 8.12817 3.51743C7.03672 3.83314 6.04268 4.41922 5.23812 5.2213L3.41669 6.93282V4.66667C3.41669 4.25245 3.0809 3.91667 2.66669 3.91667C2.25248 3.91667 1.91669 4.25245 1.91669 4.66667V8.66501C1.91669 8.66625 1.91669 8.66748 1.91669 8.66871V8.68C1.91669 8.87935 1.99605 9.07049 2.13724 9.21121C2.27844 9.35194 2.46984 9.43066 2.66919 9.43L6.66919 9.41666C7.0834 9.41528 7.41807 9.07838 7.41669 8.66417C7.4153 8.24996 7.0784 7.91529 6.66419 7.91667L4.55266 7.92371L6.2736 6.30662C6.27932 6.30125 6.28494 6.29579 6.29049 6.29025C6.91742 5.663 7.69304 5.20479 8.54496 4.95837C9.39688 4.71195 10.2973 4.68535 11.1623 4.88107C12.0273 5.07678 12.8286 5.48842 13.4915 6.07758C14.1543 6.66673 14.6571 7.41421 14.953 8.25025C15.0912 8.64073 15.5197 8.84527 15.9102 8.70709C16.3007 8.56891 16.5052 8.14034 16.3671 7.74985C15.9867 6.67494 15.3402 5.71391 14.488 4.95642C13.6357 4.19893 12.6055 3.66968 11.4933 3.41805Z" fill="#E8E8E8"/>
</svg>
