<svg width="20" height="20" viewBox="0 0 20 20" fill="none" xmlns="http://www.w3.org/2000/svg">
<path d="M14.4432 7C16.404 7 18 8.59519 18 10.5558V14.453C18 16.4088 16.408 18 14.4512 18H5.5584C3.5968 18 2 16.4056 2 14.445V10.5478C2 8.59199 3.5928 7 5.5504 7L6.3024 7L14.4432 7Z" fill="#202123"/>
<path opacity="0.25" d="M14.4432 7C16.404 7 18 8.59519 18 10.5558V14.453C18 16.4088 16.408 18 14.4512 18H5.5584C3.5968 18 2 16.4056 2 14.445V10.5478C2 8.59199 3.5928 7 5.5504 7L6.3024 7L14.4432 7Z" fill="#E8E8E8"/>
<path d="M9.44845 1.92863L7.12125 4.20526C6.88125 4.44056 6.88125 4.81922 7.12285 5.05374C7.36445 5.28748 7.75405 5.2867 7.99405 5.05218L9.26845 3.80478V5.00076V11.713C9.26845 12.0441 9.54445 12.3129 9.88445 12.3129C10.2253 12.3129 10.5005 12.0441 10.5005 11.713V3.80478L11.7749 5.05218C12.0149 5.2867 12.4045 5.28748 12.6461 5.05374C12.7669 4.93609 12.8277 4.7826 12.8277 4.62833C12.8277 4.47562 12.7669 4.32213 12.6477 4.20526L10.3213 1.92863C10.2053 1.81565 10.0485 1.75176 9.88445 1.75176C9.72125 1.75176 9.56445 1.81565 9.44845 1.92863Z" fill="#E8E8E8"/>
</svg>
