<svg width="20" height="20" viewBox="0 0 20 20" fill="none" xmlns="http://www.w3.org/2000/svg">
<path opacity="0.3" d="M17.4648 5.95403C17.1296 5.74286 16.7176 5.72418 16.3664 5.90286L15.1808 6.50144C14.7424 6.72236 14.4704 7.16906 14.4704 7.66611V12.3329C14.4704 12.83 14.7424 13.2759 15.1808 13.4984L16.3656 14.0962C16.5264 14.179 16.6984 14.2188 16.8704 14.2188C17.0768 14.2188 17.2816 14.1603 17.4648 14.0458C17.8 13.8355 18 13.4708 18 13.0712V6.92946C18 6.52987 17.8 6.1652 17.4648 5.95403Z" fill="#202123"/>
<path opacity="0.4" d="M17.4648 5.95403C17.1296 5.74286 16.7176 5.72418 16.3664 5.90286L15.1808 6.50144C14.7424 6.72236 14.4704 7.16906 14.4704 7.66611V12.3329C14.4704 12.83 14.7424 13.2759 15.1808 13.4984L16.3656 14.0962C16.5264 14.179 16.6984 14.2188 16.8704 14.2188C17.0768 14.2188 17.2816 14.1603 17.4648 14.0458C17.8 13.8355 18 13.4708 18 13.0712V6.92946C18 6.52987 17.8 6.1652 17.4648 5.95403Z" fill="#E8E8E8"/>
<path d="M9.92408 16H5.29043C3.35281 16 2 14.664 2 12.7513V7.24873C2 5.33523 3.35281 4 5.29043 4H9.92408C11.8617 4 13.2145 5.33523 13.2145 7.24873V12.7513C13.2145 14.664 11.8617 16 9.92408 16Z" fill="#E8E8E8"/>
</svg>
