<svg width="20" height="20" viewBox="0 0 20 20" fill="none" xmlns="http://www.w3.org/2000/svg">
<path d="M15.825 8.26055C15.3972 8.26055 15.0501 8.60265 15.0501 9.02587C15.0501 11.8844 12.6949 14.2102 9.80039 14.2102C6.90509 14.2102 4.54995 11.8844 4.54995 9.02587C4.54995 8.60265 4.20276 8.26055 3.77497 8.26055C3.34719 8.26055 3 8.60265 3 9.02587C3 12.4698 5.63956 15.313 9.02541 15.6949V17.2347C9.02541 17.6572 9.37183 18.0001 9.80039 18.0001C10.2282 18.0001 10.5754 17.6572 10.5754 17.2347V15.6949C13.9604 15.313 16.6 12.4698 16.6 9.02587C16.6 8.60265 16.2528 8.26055 15.825 8.26055Z" fill="#202123"/>
<path d="M9.66009 12.5737H9.93985C11.4789 12.5737 12.7848 11.588 13.2443 10.2211C13.311 10.0221 13.1583 9.81701 12.9467 9.81701H12.085C11.8106 9.81701 11.589 9.59813 11.589 9.32797C11.589 9.05704 11.8106 8.8374 12.085 8.8374H12.9204C13.1971 8.8374 13.421 8.61622 13.421 8.343C13.421 8.06978 13.1971 7.8486 12.9204 7.8486H12.085C11.8106 7.8486 11.589 7.62895 11.589 7.35879C11.589 7.08787 11.8106 6.86822 12.085 6.86822H12.9204C13.1971 6.86822 13.421 6.64704 13.421 6.37382C13.421 6.1006 13.1971 5.87942 12.9204 5.87942H12.085C11.8106 5.87942 11.589 5.65978 11.589 5.38885C11.589 5.11869 11.8106 4.89904 12.085 4.89904H12.9909C13.1986 4.89904 13.3474 4.70312 13.2916 4.5049C12.8801 3.05921 11.5355 2 9.93985 2H9.66009C7.73738 2 6.17891 3.5383 6.17891 5.43783V9.13587C6.17891 11.0346 7.73738 12.5737 9.66009 12.5737Z" fill="#E8E8E8"/>
<path opacity="0.4" d="M15.825 8.26055C15.3972 8.26055 15.0501 8.60265 15.0501 9.02587C15.0501 11.8844 12.6949 14.2102 9.80039 14.2102C6.90509 14.2102 4.54995 11.8844 4.54995 9.02587C4.54995 8.60265 4.20276 8.26055 3.77497 8.26055C3.34719 8.26055 3 8.60265 3 9.02587C3 12.4698 5.63956 15.313 9.02541 15.6949V17.2347C9.02541 17.6572 9.37183 18.0001 9.80039 18.0001C10.2282 18.0001 10.5754 17.6572 10.5754 17.2347V15.6949C13.9604 15.313 16.6 12.4698 16.6 9.02587C16.6 8.60265 16.2528 8.26055 15.825 8.26055Z" fill="#E8E8E8"/>
</svg>
