<svg width="20" height="20" viewBox="0 0 20 20" fill="none" xmlns="http://www.w3.org/2000/svg">
<path fill-rule="evenodd" clip-rule="evenodd" d="M15.7811 5.28033C16.074 4.98744 16.074 4.51256 15.7811 4.21967C15.4882 3.92678 15.0133 3.92678 14.7204 4.21967L10.0004 8.93973L5.28033 4.21967C4.98744 3.92678 4.51256 3.92678 4.21967 4.21967C3.92678 4.51256 3.92678 4.98744 4.21967 5.28033L8.93973 10.0004L4.21967 14.7204C3.92678 15.0133 3.92678 15.4882 4.21967 15.7811C4.51256 16.074 4.98744 16.074 5.28033 15.7811L10.0004 11.061L14.7204 15.7811C15.0133 16.074 15.4882 16.074 15.7811 15.7811C16.074 15.4882 16.074 15.0133 15.7811 14.7204L11.061 10.0004L15.7811 5.28033Z" fill="#E8E8E8"/>
</svg>
