<svg width="150" height="150" viewBox="0 0 150 150" fill="none" xmlns="http://www.w3.org/2000/svg">
<circle cx="75" cy="75" r="75" fill="url(#paint0_radial_4117_88012)"/>
<mask id="mask0_4117_88012" style="mask-type:alpha" maskUnits="userSpaceOnUse" x="0" y="0" width="150" height="150">
<circle cx="75" cy="75" r="75" fill="#C4C4C4"/>
</mask>
<g mask="url(#mask0_4117_88012)">
<path d="M113.462 120.216L92.8763 114.161C90.3824 113.428 88.6701 111.139 88.6701 108.54V99.2515H61.3246V108.54C61.3246 111.139 59.612 113.428 57.1184 114.161L36.5323 120.216C31.5449 121.683 28.1197 126.26 28.1197 131.459V146.129C28.1197 149.365 30.7431 151.989 33.9794 151.989H116.015C119.252 151.989 121.875 149.365 121.875 146.129V131.459C121.875 126.26 118.45 121.683 113.462 120.216Z" fill="#E3AA75"/>
<path d="M113.462 120.215L92.8763 114.161C92.5282 114.058 92.1996 113.919 91.8846 113.76L74.9964 116.83L58.11 113.76C57.795 113.919 57.4665 114.058 57.1184 114.161L36.5323 120.215C31.5446 121.682 28.1197 126.26 28.1197 131.459V146.129C28.1197 149.365 30.7431 151.988 33.9794 151.988H116.015C119.252 151.988 121.875 149.365 121.875 146.128V131.458C121.875 126.26 118.45 121.682 113.462 120.215Z" fill="url(#paint1_linear_4117_88012)"/>
<path d="M51.8958 118.637L61.5739 126.932C62.9891 128.145 64.7939 128.813 66.6562 128.813C69.044 128.813 71.2686 127.745 72.7594 125.881L74.9974 123.084L77.2353 125.881C78.7261 127.745 80.9505 128.813 83.3386 128.813C85.2008 128.813 87.0056 128.145 88.4209 126.932L98.099 118.637C98.8838 117.964 99.4241 117.105 99.7272 116.176L92.8763 114.161C92.5282 114.058 92.1997 113.919 91.8847 113.76L74.9964 116.83L58.1101 113.76C57.7951 113.919 57.4665 114.058 57.1184 114.161L50.2675 116.176C50.5706 117.105 51.111 117.964 51.8958 118.637Z" fill="url(#paint2_linear_4117_88012)"/>
<path d="M61.3247 103.61C65.4282 105.802 70.0819 107.064 74.9974 107.064C79.9129 107.064 84.5666 105.802 88.6701 103.61V99.2515H61.3247V103.61Z" fill="#D29B6E"/>
<path d="M101.366 69.953H100.389V48.4673H49.6054V69.9528H48.6288C45.9319 69.9528 43.7457 72.139 43.7457 74.8359C43.7457 77.5327 45.9319 79.719 48.6288 79.719H49.704C50.7045 92.8268 61.6332 103.158 74.9974 103.158C88.3615 103.158 99.2902 92.8268 100.291 79.719H101.366C104.063 79.719 106.249 77.5327 106.249 74.8359C106.249 72.1393 104.063 69.953 101.366 69.953Z" fill="url(#paint3_linear_4117_88012)"/>
<path d="M92.5766 52.3738V48.4673H49.6054V69.9528H48.9075C46.3532 69.9528 44.0256 71.7904 43.7712 74.332C43.4783 77.2549 45.7659 79.7187 48.629 79.7187H49.7043C50.7047 92.8266 61.6334 103.157 74.9976 103.157C76.3338 103.157 77.6365 103.027 78.9162 102.828C66.7462 100.95 57.4184 90.4611 57.4184 77.7653V64.0925C57.4184 59.7777 60.9163 56.2796 65.2314 56.2796H88.6701C90.8275 56.2803 92.5766 54.5314 92.5766 52.3738Z" fill="url(#paint4_linear_4117_88012)"/>
<path d="M74.9974 116.83L59.2015 108.055C58.2294 107.515 57.0034 107.894 56.5059 108.889L54.0573 113.786C53.7366 114.427 53.8936 115.205 54.438 115.671L64.1161 123.967C65.7937 125.404 68.3288 125.166 69.7088 123.441L74.9974 116.83Z" fill="url(#paint5_linear_4117_88012)"/>
<path d="M74.9974 116.83L90.7933 108.055C91.7654 107.515 92.9914 107.894 93.4889 108.889L95.9375 113.786C96.2582 114.427 96.1012 115.205 95.5568 115.671L85.8787 123.967C84.2011 125.404 81.666 125.166 80.286 123.441L74.9974 116.83Z" fill="url(#paint6_linear_4117_88012)"/>
<path d="M63.2779 75.9823C62.1984 75.9823 61.3247 75.1076 61.3247 74.0291V72.0758C61.3247 70.9972 62.1984 70.1226 63.2779 70.1226C64.3575 70.1226 65.2312 70.9972 65.2312 72.0758V74.0291C65.2312 75.1079 64.3577 75.9823 63.2779 75.9823Z" fill="url(#paint7_radial_4117_88012)"/>
<path d="M86.7169 75.9823C85.6373 75.9823 84.7636 75.1076 84.7636 74.0291V72.0758C84.7636 70.9972 85.6373 70.1226 86.7169 70.1226C87.7964 70.1226 88.6701 70.9972 88.6701 72.0758V74.0291C88.6701 75.1079 87.7964 75.9823 86.7169 75.9823Z" fill="url(#paint8_radial_4117_88012)"/>
<path d="M65.2312 67.9995H61.3247C60.2451 67.9995 59.3714 67.1249 59.3714 66.0463C59.3714 64.9677 60.2451 64.093 61.3247 64.093H65.2312C66.3107 64.093 67.1844 64.9677 67.1844 66.0463C67.1844 67.1249 66.311 67.9995 65.2312 67.9995Z" fill="url(#paint9_linear_4117_88012)"/>
<path d="M88.6701 67.9995H84.7636C83.6841 67.9995 82.8104 67.1249 82.8104 66.0463C82.8104 64.9677 83.6841 64.093 84.7636 64.093H88.6701C89.7497 64.093 90.6234 64.9677 90.6234 66.0463C90.6234 67.1249 89.7497 67.9995 88.6701 67.9995Z" fill="url(#paint10_linear_4117_88012)"/>
<path d="M67.2752 82.8118C66.6602 82.8118 66.2033 83.3738 66.3055 83.9802C66.94 87.7409 70.5898 90.6248 74.9974 90.6248C79.405 90.6248 83.0548 87.7409 83.6893 83.9802C83.7915 83.3738 83.3346 82.8118 82.7196 82.8118H67.2752Z" fill="white"/>
<path d="M74.9974 134.41C76.0762 134.41 76.9507 133.535 76.9507 132.456C76.9507 131.378 76.0762 130.503 74.9974 130.503C73.9187 130.503 73.0442 131.378 73.0442 132.456C73.0442 133.535 73.9187 134.41 74.9974 134.41Z" fill="url(#paint11_radial_4117_88012)"/>
<path d="M74.9974 146.129C76.0761 146.129 76.9506 145.255 76.9506 144.176C76.9506 143.097 76.0761 142.223 74.9974 142.223C73.9186 142.223 73.0441 143.097 73.0441 144.176C73.0441 145.255 73.9186 146.129 74.9974 146.129Z" fill="url(#paint12_radial_4117_88012)"/>
<path d="M96.8819 44.561H53.1128C47.1489 44.561 42.5777 49.8597 43.4521 55.759L45.6989 70.9182L50.0843 70.3764C52.0416 70.1346 53.5119 68.4717 53.5119 66.4994V56.2803C53.5119 54.1226 55.2609 52.3738 57.4184 52.3738H92.5766C94.734 52.3738 96.4831 54.1226 96.4831 56.2803V66.4992C96.4831 68.4715 97.9534 70.1346 99.9107 70.3761L104.296 70.9179L106.543 55.7587C107.417 49.8594 102.846 44.561 96.8819 44.561Z" fill="url(#paint13_linear_4117_88012)"/>
<path d="M101.306 31.3748C100.931 30.2116 99.58 29.647 98.5126 30.2424C96.4778 31.3779 92.6952 32.8418 86.7166 32.8418H67.1841C59.633 32.8418 53.5114 38.9631 53.5114 46.5145C53.5114 49.7508 56.1349 52.3743 59.3712 52.3743H90.6229C97.9631 52.3743 105.303 43.755 101.306 31.3748Z" fill="url(#paint14_linear_4117_88012)"/>
<path d="M45.6989 134.409V151.989H39.8392V140.269C39.8392 137.033 42.4626 134.409 45.6989 134.409Z" fill="url(#paint15_linear_4117_88012)"/>
<path d="M104.296 134.409V151.989H110.156V140.269C110.156 137.033 107.532 134.409 104.296 134.409Z" fill="url(#paint16_linear_4117_88012)"/>
<path d="M45.6989 151.988H53.5119V115.221L45.6989 117.519V151.988Z" fill="url(#paint17_linear_4117_88012)"/>
<path d="M104.296 151.988H96.4829V115.221L104.296 117.519V151.988Z" fill="url(#paint18_linear_4117_88012)"/>
<path d="M45.6989 151.989H49.6054V138.316C49.6054 136.158 47.8563 134.409 45.6989 134.409V151.989Z" fill="#FFD164"/>
<path d="M104.296 151.989H100.389V138.316C100.389 136.158 102.138 134.409 104.296 134.409V151.989Z" fill="#FFD164"/>
<path d="M65.139 39.6502C65.1685 42.4197 67.6214 44.5607 70.3909 44.5607H96.882C98.2874 44.5607 99.611 44.8638 100.809 45.391C102.588 41.7793 103.113 36.9652 101.304 31.3666C100.93 30.2092 99.58 29.6457 98.5181 30.239C96.4845 31.375 92.7005 32.8415 86.7166 32.8415H67.1842C67.0622 32.9132 66.924 32.9942 66.802 33.0659C65.7458 35.0051 65.1382 37.2235 65.1382 39.5873C65.1385 39.608 65.1387 39.629 65.139 39.6502Z" fill="url(#paint19_linear_4117_88012)"/>
</g>
<defs>
<radialGradient id="paint0_radial_4117_88012" cx="0" cy="0" r="1" gradientUnits="userSpaceOnUse" gradientTransform="translate(29.6875 17.1875) rotate(51.8091) scale(149.102)">
<stop offset="0.492268" stop-color="#B8A4FC"/>
<stop offset="1" stop-color="#B859E4"/>
</radialGradient>
<linearGradient id="paint1_linear_4117_88012" x1="74.9973" y1="113.76" x2="74.9973" y2="151.988" gradientUnits="userSpaceOnUse">
<stop stop-color="#FF414F"/>
<stop offset="1" stop-color="#FF7456"/>
</linearGradient>
<linearGradient id="paint2_linear_4117_88012" x1="74.9974" y1="113.76" x2="74.9974" y2="128.813" gradientUnits="userSpaceOnUse">
<stop stop-color="#B33639"/>
<stop offset="1" stop-color="#E64549"/>
</linearGradient>
<linearGradient id="paint3_linear_4117_88012" x1="46.875" y1="54.6875" x2="96.875" y2="92.1875" gradientUnits="userSpaceOnUse">
<stop stop-color="#EDB379"/>
<stop offset="1" stop-color="#FFC182"/>
</linearGradient>
<linearGradient id="paint4_linear_4117_88012" x1="45.3125" y1="56.25" x2="75" y2="70.3125" gradientUnits="userSpaceOnUse">
<stop stop-color="#C58646"/>
<stop offset="1" stop-color="#C68748" stop-opacity="0.06"/>
</linearGradient>
<linearGradient id="paint5_linear_4117_88012" x1="64.4448" y1="107.809" x2="64.4448" y2="124.907" gradientUnits="userSpaceOnUse">
<stop stop-color="#FF414F"/>
<stop offset="1" stop-color="#FF7456"/>
</linearGradient>
<linearGradient id="paint6_linear_4117_88012" x1="85.55" y1="107.809" x2="85.55" y2="124.907" gradientUnits="userSpaceOnUse">
<stop stop-color="#FF414F"/>
<stop offset="1" stop-color="#FF7456"/>
</linearGradient>
<radialGradient id="paint7_radial_4117_88012" cx="0" cy="0" r="1" gradientUnits="userSpaceOnUse" gradientTransform="translate(62.5 71.875) rotate(71.5651) scale(4.94106 3.29404)">
<stop stop-color="#040404"/>
<stop offset="1" stop-color="#767676"/>
</radialGradient>
<radialGradient id="paint8_radial_4117_88012" cx="0" cy="0" r="1" gradientUnits="userSpaceOnUse" gradientTransform="translate(85.939 71.875) rotate(71.5651) scale(4.94106 3.29404)">
<stop stop-color="#040404"/>
<stop offset="1" stop-color="#767676"/>
</radialGradient>
<linearGradient id="paint9_linear_4117_88012" x1="64.0625" y1="64.0625" x2="64.0625" y2="68.75" gradientUnits="userSpaceOnUse">
<stop stop-color="#332A2E"/>
<stop offset="1" stop-color="#6E5A64"/>
</linearGradient>
<linearGradient id="paint10_linear_4117_88012" x1="87.5015" y1="64.0625" x2="87.5015" y2="68.75" gradientUnits="userSpaceOnUse">
<stop stop-color="#332A2E"/>
<stop offset="1" stop-color="#6E5A64"/>
</linearGradient>
<radialGradient id="paint11_radial_4117_88012" cx="0" cy="0" r="1" gradientUnits="userSpaceOnUse" gradientTransform="translate(75 129.688) rotate(90.0312) scale(4.72207)">
<stop stop-color="#FFC350"/>
<stop offset="1" stop-color="#FFD179" stop-opacity="0.97"/>
</radialGradient>
<radialGradient id="paint12_radial_4117_88012" cx="0" cy="0" r="1" gradientUnits="userSpaceOnUse" gradientTransform="translate(75 141.407) rotate(90.0312) scale(4.72208 4.72207)">
<stop stop-color="#FFC350"/>
<stop offset="1" stop-color="#FFD179" stop-opacity="0.97"/>
</radialGradient>
<linearGradient id="paint13_linear_4117_88012" x1="74.9974" y1="44.561" x2="74.9974" y2="70.9182" gradientUnits="userSpaceOnUse">
<stop stop-color="#362A30"/>
<stop offset="1" stop-color="#826574"/>
</linearGradient>
<linearGradient id="paint14_linear_4117_88012" x1="54.6875" y1="45.3126" x2="103.125" y2="34.3751" gradientUnits="userSpaceOnUse">
<stop stop-color="#64505A"/>
<stop offset="1" stop-color="#78606C"/>
</linearGradient>
<linearGradient id="paint15_linear_4117_88012" x1="42.769" y1="134.409" x2="42.769" y2="151.989" gradientUnits="userSpaceOnUse">
<stop stop-color="#B33639"/>
<stop offset="1" stop-color="#E64549"/>
</linearGradient>
<linearGradient id="paint16_linear_4117_88012" x1="107.226" y1="134.409" x2="107.226" y2="151.989" gradientUnits="userSpaceOnUse">
<stop stop-color="#B33639"/>
<stop offset="1" stop-color="#E64549"/>
</linearGradient>
<linearGradient id="paint17_linear_4117_88012" x1="49.6054" y1="115.221" x2="49.6054" y2="151.988" gradientUnits="userSpaceOnUse">
<stop stop-color="#FFCA62"/>
<stop offset="1" stop-color="#FFCA62" stop-opacity="0.38"/>
</linearGradient>
<linearGradient id="paint18_linear_4117_88012" x1="100.389" y1="115.221" x2="100.389" y2="151.988" gradientUnits="userSpaceOnUse">
<stop stop-color="#FFCA62"/>
<stop offset="1" stop-color="#FFCA62" stop-opacity="0.38"/>
</linearGradient>
<linearGradient id="paint19_linear_4117_88012" x1="65.625" y1="42.1874" x2="101.562" y2="31.2499" gradientUnits="userSpaceOnUse">
<stop stop-color="#7A646F"/>
<stop offset="1" stop-color="#6E5A64"/>
</linearGradient>
</defs>
</svg>
