<svg width="150" height="150" viewBox="0 0 150 150" fill="none" xmlns="http://www.w3.org/2000/svg">
<circle cx="75" cy="75" r="75" fill="url(#paint0_radial_4761_275)"/>
<mask id="mask0_4761_275" style="mask-type:alpha" maskUnits="userSpaceOnUse" x="0" y="0" width="150" height="150">
<circle cx="75" cy="75" r="75" fill="#C4C4C4"/>
</mask>
<g mask="url(#mask0_4761_275)">
<path d="M74.9998 32.3372C57.1405 32.3372 42.6628 46.8148 42.6628 64.6741V79.2574C42.6628 104.778 58.5103 117.824 58.5103 117.824H107.337V64.6741C107.337 46.8148 92.859 32.3372 74.9998 32.3372Z" fill="#FFD164"/>
<path d="M42.6628 64.6741V79.2574C42.6628 104.778 58.5103 117.824 58.5103 117.824H74.9998V32.3372C57.1405 32.3372 42.6628 46.8148 42.6628 64.6741Z" fill="url(#paint1_linear_4761_275)"/>
<path d="M111.136 124.758L91.4895 117.824C88.4474 116.75 86.413 113.875 86.413 110.649V98.9128H63.5867V110.649C63.5867 113.875 61.5523 116.75 58.5104 117.824L38.8644 124.758C34.3013 126.369 31.25 130.682 31.25 135.52V144.565C31.25 147.717 33.8049 150.272 36.9565 150.272H113.043C116.195 150.272 118.75 147.717 118.75 144.565V135.52C118.75 130.682 115.699 126.369 111.136 124.758Z" fill="url(#paint2_linear_4761_275)"/>
<path d="M111.135 124.758L94.7864 118.988C91.973 127.223 84.1872 133.152 74.9999 133.152C65.8125 133.152 58.0269 127.222 55.2135 118.988L38.8644 124.758C34.3013 126.369 31.25 130.682 31.25 135.521V144.565C31.25 147.717 33.8049 150.272 36.9565 150.272H113.043C116.195 150.272 118.75 147.717 118.75 144.565V135.521C118.75 130.682 115.698 126.369 111.135 124.758Z" fill="url(#paint3_linear_4761_275)"/>
<path d="M74.9999 140.761C87.501 140.761 98.0976 132.709 101.955 121.518L94.7864 118.988C91.9731 127.223 84.1873 133.152 74.9999 133.152C65.8125 133.152 58.027 127.222 55.2136 118.988L48.0449 121.518C51.9022 132.709 62.4988 140.761 74.9999 140.761Z" fill="url(#paint4_linear_4761_275)"/>
<path d="M45.0481 137.039L34.2755 127.806C33.4034 128.755 32.7108 129.85 32.201 131.038L42.5735 139.928C43.8386 141.013 44.5648 142.592 44.5648 144.261V150.272H48.3692V144.261C48.3694 141.48 47.1583 138.848 45.0481 137.039Z" fill="url(#paint5_linear_4761_275)"/>
<path d="M63.5868 105.99C66.6817 107.368 70.0573 108.223 73.6255 108.391C74.0857 108.413 74.5444 108.424 75 108.424C79.0584 108.424 82.9143 107.559 86.4129 106.025V98.9128H63.5868V105.99Z" fill="url(#paint6_linear_4761_275)"/>
<path d="M100.408 72.2825C97.9312 72.2825 95.9235 70.2748 95.9235 67.7982V64.6736C95.9235 59.4209 91.6654 55.1628 86.4127 55.1628H63.5866C58.3339 55.1628 54.0758 59.4209 54.0758 64.6736V67.7982C54.0758 70.2748 52.0682 72.2825 49.5915 72.2825C47.1041 72.2825 44.8373 74.0722 44.5895 76.5473C44.3043 79.3938 46.5322 81.7933 49.3202 81.7933H50.3673C51.3417 94.5586 61.9846 104.619 74.9996 104.619C88.0145 104.619 98.6575 94.5586 99.6318 81.7933H100.679C103.467 81.7933 105.695 79.3938 105.41 76.5473C105.162 74.0722 102.895 72.2825 100.408 72.2825Z" fill="url(#paint7_linear_4761_275)"/>
<path d="M63.5897 61.6843C65.4539 61.418 67.3602 61.9353 68.7851 63.166C78.2085 71.3052 90.4106 76.0868 103.532 76.0868C104.1 76.0868 104.693 76.0716 105.307 76.0481C104.819 73.8221 102.688 72.2576 100.353 72.2827C97.8965 72.309 95.9236 70.2546 95.9236 67.7982V64.6736C95.9236 59.4209 91.6655 55.1628 86.4128 55.1628H63.5867C61.4381 55.1628 59.4724 55.896 57.8802 57.0977V57.1081C55.5828 58.8442 54.0759 61.5723 54.0759 64.6736V67.9926C54.0759 70.4593 52.007 72.2581 49.5405 72.2825C47.0733 72.3069 44.836 74.0888 44.5898 76.547C44.3049 79.3936 46.5323 81.793 49.3205 81.793H50.3677C51.342 94.5583 61.9849 104.619 74.9999 104.619C76.3011 104.619 77.5698 104.492 78.8162 104.299C66.9642 102.469 57.8802 92.2549 57.8802 79.8909V68.2667C57.8802 64.9579 60.3136 62.1523 63.5897 61.6843Z" fill="url(#paint8_linear_4761_275)"/>
<path d="M63.587 77.9889C62.5355 77.9889 61.6848 77.1371 61.6848 76.0868V74.1846C61.6848 73.1343 62.5357 72.2825 63.587 72.2825C64.6382 72.2825 65.4891 73.1343 65.4891 74.1846V76.0868C65.4891 77.1371 64.6382 77.9889 63.587 77.9889Z" fill="url(#paint9_radial_4761_275)"/>
<path d="M86.4129 77.9889C85.3614 77.9889 84.5107 77.1371 84.5107 76.0868V74.1846C84.5107 73.1343 85.3616 72.2825 86.4129 72.2825C87.4644 72.2825 88.3151 73.1343 88.3151 74.1846V76.0868C88.3151 77.1371 87.4644 77.9889 86.4129 77.9889Z" fill="url(#paint10_radial_4761_275)"/>
<path d="M75.0001 91.3044C72.1468 91.3044 69.5126 90.3886 67.9578 88.8543C67.2092 88.1167 67.2019 86.9123 67.9392 86.1646C68.6767 85.416 69.8842 85.4086 70.6289 86.1459C71.2623 86.7711 72.7874 87.5001 74.9998 87.5001C77.2122 87.5001 78.7373 86.7711 79.3708 86.1459C80.1157 85.4084 81.3232 85.416 82.0605 86.1646C82.798 86.9123 82.7904 88.117 82.0418 88.8543C80.4875 90.3886 77.8533 91.3044 75.0001 91.3044Z" fill="#E3AA75"/>
<path d="M104.951 137.04L115.724 127.806C116.596 128.755 117.289 129.85 117.798 131.038L107.426 139.928C106.161 141.013 105.435 142.592 105.435 144.261V150.272H101.63V144.261C101.63 141.48 102.841 138.848 104.951 137.04Z" fill="url(#paint11_linear_4761_275)"/>
<path d="M59.7825 70.3822C58.9855 70.3822 58.2445 69.8777 57.9787 69.081C57.6461 68.0843 58.1848 67.007 59.1806 66.6744L64.8871 64.7722C65.8921 64.4368 66.9602 64.9784 67.2928 65.9751C67.6254 66.9718 67.0866 68.0491 66.0908 68.3817L60.3844 70.2838C60.1837 70.3506 59.9813 70.3822 59.7825 70.3822Z" fill="url(#paint12_linear_4761_275)"/>
<path d="M74.9998 32.3372C68.1202 32.3372 61.7545 34.5017 56.5128 38.1641C62.9691 57.9675 81.5742 72.2827 103.532 72.2827C104.814 72.2827 106.08 72.2184 107.337 72.1226V64.6738C107.337 46.8148 92.859 32.3372 74.9998 32.3372Z" fill="url(#paint13_radial_4761_275)"/>
<path d="M86.4128 104.62V112.228C86.4128 129.025 99.7279 135.054 99.7279 150.272H107.337V104.62H86.4128Z" fill="#FFD164"/>
</g>
<defs>
<radialGradient id="paint0_radial_4761_275" cx="0" cy="0" r="1" gradientUnits="userSpaceOnUse" gradientTransform="translate(20.3125 20.3125) rotate(49.1446) scale(152.87)">
<stop offset="0.572917" stop-color="#FFCC73"/>
<stop offset="1" stop-color="#FF93A0"/>
</radialGradient>
<linearGradient id="paint1_linear_4761_275" x1="58.8313" y1="32.3372" x2="58.8313" y2="117.824" gradientUnits="userSpaceOnUse">
<stop stop-color="#FFA436"/>
<stop offset="1" stop-color="#FFC773"/>
</linearGradient>
<linearGradient id="paint2_linear_4761_275" x1="64.0627" y1="110.938" x2="90.4983" y2="149.321" gradientUnits="userSpaceOnUse">
<stop stop-color="#F5D48E"/>
<stop offset="1" stop-color="#FFE7B3"/>
</linearGradient>
<linearGradient id="paint3_linear_4761_275" x1="45.3124" y1="123.438" x2="109.375" y2="145.312" gradientUnits="userSpaceOnUse">
<stop stop-color="#75D8FF"/>
<stop offset="1" stop-color="#ADEBFF"/>
</linearGradient>
<linearGradient id="paint4_linear_4761_275" x1="51.5625" y1="120.313" x2="104.688" y2="128.125" gradientUnits="userSpaceOnUse">
<stop stop-color="#EDEBED"/>
<stop offset="1" stop-color="#FCFAFC"/>
</linearGradient>
<linearGradient id="paint5_linear_4761_275" x1="40.2851" y1="127.806" x2="40.2851" y2="150.272" gradientUnits="userSpaceOnUse">
<stop stop-color="#8CACEB"/>
<stop offset="1" stop-color="#8CACEB" stop-opacity="0"/>
</linearGradient>
<linearGradient id="paint6_linear_4761_275" x1="64.0623" y1="104.688" x2="79.7984" y2="115.328" gradientUnits="userSpaceOnUse">
<stop stop-color="#EBC178"/>
<stop offset="1" stop-color="#F7D291" stop-opacity="0.14"/>
</linearGradient>
<linearGradient id="paint7_linear_4761_275" x1="57.8124" y1="56.25" x2="98.4374" y2="101.563" gradientUnits="userSpaceOnUse">
<stop stop-color="#F7D78F"/>
<stop offset="1" stop-color="#FFE7B3"/>
</linearGradient>
<linearGradient id="paint8_linear_4761_275" x1="56.25" y1="54.6875" x2="82.8125" y2="107.813" gradientUnits="userSpaceOnUse">
<stop stop-color="#F7CB7E"/>
<stop offset="1" stop-color="#F7D291" stop-opacity="0.14"/>
</linearGradient>
<radialGradient id="paint9_radial_4761_275" cx="0" cy="0" r="1" gradientUnits="userSpaceOnUse" gradientTransform="translate(62.8294 73.9891) rotate(71.565) scale(4.81182 3.20788)">
<stop stop-color="#040404"/>
<stop offset="1" stop-color="#767676"/>
</radialGradient>
<radialGradient id="paint10_radial_4761_275" cx="0" cy="0" r="1" gradientUnits="userSpaceOnUse" gradientTransform="translate(85.6553 73.9891) rotate(71.5651) scale(4.81182 3.20788)">
<stop stop-color="#040404"/>
<stop offset="1" stop-color="#767676"/>
</radialGradient>
<linearGradient id="paint11_linear_4761_275" x1="109.714" y1="127.806" x2="109.714" y2="150.272" gradientUnits="userSpaceOnUse">
<stop stop-color="#8CACEB"/>
<stop offset="1" stop-color="#8CACEB" stop-opacity="0"/>
</linearGradient>
<linearGradient id="paint12_linear_4761_275" x1="59.3751" y1="65.625" x2="65.6251" y2="68.75" gradientUnits="userSpaceOnUse">
<stop stop-color="#E3AA75"/>
<stop offset="1" stop-color="#FABB81"/>
</linearGradient>
<radialGradient id="paint13_radial_4761_275" cx="0" cy="0" r="1" gradientUnits="userSpaceOnUse" gradientTransform="translate(79.6874 32.8125) rotate(75.9638) scale(38.6541 49.1807)">
<stop stop-color="#FAD348"/>
<stop offset="1" stop-color="#FFE17D"/>
</radialGradient>
</defs>
</svg>
