<svg width="150" height="150" viewBox="0 0 150 150" fill="none" xmlns="http://www.w3.org/2000/svg">
<circle cx="75" cy="75" r="75" fill="url(#paint0_radial_4743_549)"/>
<mask id="mask0_4743_549" style="mask-type:alpha" maskUnits="userSpaceOnUse" x="0" y="0" width="150" height="150">
<circle cx="75" cy="75" r="75" fill="#C4C4C4"/>
</mask>
<g mask="url(#mask0_4743_549)">
<path d="M74.9987 31.6558C61.3414 31.6558 50.2697 35.914 50.2697 41.1669V50.678H99.7278V41.1669C99.7278 35.914 88.6561 31.6558 74.9987 31.6558Z" fill="url(#paint1_linear_4743_549)"/>
<path d="M74.9988 92.5283C97.061 92.5283 114.946 81.4562 114.946 67.7981C114.946 54.14 97.061 43.0679 74.9988 43.0679C52.9367 43.0679 35.0518 54.14 35.0518 67.7981C35.0518 81.4562 52.9367 92.5283 74.9988 92.5283Z" fill="url(#paint2_linear_4743_549)"/>
<path d="M110.096 112.874C108.97 109.881 107.337 104.466 107.337 98.2342C107.337 89.6742 107.337 67.7984 107.337 67.7984C107.337 58.3433 92.8584 50.6782 74.9986 50.6782C57.1387 50.6782 42.6606 58.3431 42.6606 67.7984C42.6606 67.7984 42.6606 89.6742 42.6606 98.2342C42.6606 104.466 41.0275 109.881 39.9013 112.874C39.2982 114.477 39.8165 116.265 41.1889 117.29C43.3998 118.939 47.2045 121.392 52.6958 123.621C66.953 129.408 83.0447 129.408 97.3016 123.621C102.793 121.392 106.598 118.939 108.808 117.29C110.181 116.265 110.699 114.477 110.096 112.874Z" fill="url(#paint3_linear_4743_549)"/>
<path d="M111.135 127.885L91.4885 120.95C88.4463 119.877 86.4119 117.001 86.4119 113.775V102.039H63.585V113.775C63.585 117.001 61.5506 119.877 58.5086 120.95L38.8619 127.885C34.2987 129.495 31.2473 133.808 31.2473 138.647V143.888C31.2473 147.039 33.8023 149.594 36.954 149.594H113.043C116.195 149.594 118.75 147.039 118.75 143.888V138.647C118.75 133.808 115.698 129.495 111.135 127.885Z" fill="url(#paint4_linear_4743_549)"/>
<path d="M63.5853 109.116C66.6803 110.494 70.0561 111.349 73.6244 111.517C74.0846 111.539 74.5432 111.55 74.9989 111.55C79.0574 111.55 82.9134 110.685 86.4122 109.151V102.039H63.5853V109.116Z" fill="url(#paint5_linear_4743_549)"/>
<path d="M92.1187 67.7985H89.1021C88.5976 67.7985 88.1136 67.5981 87.757 67.2413L80.7515 60.2357C80.0325 59.5168 78.8032 60.0259 78.8032 61.0429V65.8963C78.8032 66.9469 77.9516 67.7985 76.9009 67.7985H57.8785C53.6763 67.7985 50.2697 71.2052 50.2697 75.4074V82.3179C50.2697 95.6334 60.5024 107.091 73.8032 107.717C88.0042 108.386 99.7278 97.0703 99.7278 83.0165V75.4076C99.7276 71.2052 96.3209 67.7985 92.1187 67.7985Z" fill="url(#paint6_linear_4743_549)"/>
<path d="M92.1189 67.7985H89.1025C88.5981 67.7985 88.1141 67.5981 87.7573 67.2413L80.7517 60.2357C80.0328 59.5168 78.8032 60.0259 78.8032 61.0429V65.8965C78.8032 66.9472 77.9516 67.7988 76.9009 67.7988H57.8785C53.6763 67.7988 50.2697 71.2054 50.2697 75.4076V82.2543C50.2697 93.4218 57.3699 103.635 68.0915 106.76C71.813 107.844 75.418 107.969 78.8073 107.445C66.7997 105.554 57.8788 94.7493 57.8788 82.3181V79.2123C57.8788 75.0101 61.2854 71.6034 65.4876 71.6034H88.3145C90.4155 71.603 92.1189 69.8998 92.1189 67.7985Z" fill="url(#paint7_linear_4743_549)"/>
<path d="M63.5854 83.016C62.5339 83.016 61.6832 82.1642 61.6832 81.1138V79.2115C61.6832 78.1612 62.5341 77.3093 63.5854 77.3093C64.6368 77.3093 65.4877 78.1612 65.4877 79.2115V81.1138C65.4877 82.1642 64.6368 83.016 63.5854 83.016Z" fill="url(#paint8_radial_4743_549)"/>
<path d="M86.4122 83.016C85.3607 83.016 84.51 82.1642 84.51 81.1138V79.2115C84.51 78.1612 85.3609 77.3093 86.4122 77.3093C87.4638 77.3093 88.3144 78.1612 88.3144 79.2115V81.1138C88.3144 82.1642 87.4638 83.016 86.4122 83.016Z" fill="url(#paint9_radial_4743_549)"/>
<path d="M74.9987 96.3314C72.1454 96.3314 69.5111 95.4155 67.9563 93.8811C67.2076 93.1436 67.2003 91.9391 67.9376 91.1914C68.675 90.4436 69.8827 90.4354 70.6274 91.1727C71.2608 91.7979 72.786 92.5269 74.9985 92.5269C77.211 92.5269 78.7361 91.7979 79.3696 91.1727C80.1145 90.4351 81.322 90.4436 82.0594 91.1914C82.7969 91.9391 82.7893 93.1438 82.0407 93.8811C80.4863 95.4155 77.852 96.3314 74.9987 96.3314Z" fill="#E3AA75"/>
<path d="M61.681 75.6454C60.8062 75.6454 60.0184 75.0389 59.8253 74.15C59.6005 73.1235 60.2508 72.1093 61.2761 71.8845L65.0805 71.0522C66.1042 70.8293 67.1221 71.4768 67.3451 72.5039C67.5699 73.5303 66.9196 74.5445 65.8943 74.7694L62.0899 75.6016C61.9524 75.6313 61.8167 75.6454 61.681 75.6454Z" fill="url(#paint10_linear_4743_549)"/>
<path d="M88.3163 75.6452C88.1806 75.6452 88.0452 75.6314 87.9077 75.6014L84.1032 74.7692C83.0777 74.5444 82.4277 73.5302 82.6525 72.5037C82.8755 71.4764 83.8915 70.8272 84.917 71.0521L88.7215 71.8843C89.747 72.1091 90.397 73.1234 90.1722 74.1498C89.9787 75.0387 89.1912 75.6452 88.3163 75.6452Z" fill="url(#paint11_linear_4743_549)"/>
<path d="M111.135 127.885L100.162 124.012C96.5659 134.464 86.6713 141.986 74.9986 141.986C63.3259 141.986 53.4313 134.464 49.8348 124.012L38.8619 127.885C34.2987 129.495 31.2473 133.808 31.2473 138.647V143.888C31.2473 147.039 33.8023 149.594 36.954 149.594H113.043C116.195 149.594 118.75 147.039 118.75 143.888V138.647C118.75 133.808 115.698 129.495 111.135 127.885Z" fill="url(#paint12_linear_4743_549)"/>
<path d="M46.2505 125.277C50.3691 137.207 61.6689 145.79 74.9987 145.79C88.3285 145.79 99.6283 137.207 103.747 125.277L100.162 124.012C96.566 134.464 86.6714 141.986 74.9987 141.986C63.326 141.986 53.4314 134.464 49.8349 124.012L46.2505 125.277Z" fill="url(#paint13_linear_4743_549)"/>
<path d="M74.9988 55.1912C92.8587 55.1912 107.337 62.8561 107.337 72.3114C107.337 69.5758 107.337 67.7984 107.337 67.7984C107.337 58.3433 92.8587 50.6782 74.9988 50.6782C57.139 50.6782 42.6609 58.3431 42.6609 67.7984C42.6609 67.7984 42.6609 69.5758 42.6609 72.3114C42.6609 62.8563 57.139 55.1912 74.9988 55.1912Z" fill="url(#paint14_linear_4743_549)"/>
</g>
<defs>
<radialGradient id="paint0_radial_4743_549" cx="0" cy="0" r="1" gradientUnits="userSpaceOnUse" gradientTransform="translate(17.1875 26.5625) rotate(45.8551) scale(148.067)">
<stop offset="0.408481" stop-color="#D9FAAF"/>
<stop offset="1" stop-color="#90F0A0"/>
</radialGradient>
<linearGradient id="paint1_linear_4743_549" x1="53.125" y1="35.9374" x2="101.562" y2="49.9999" gradientUnits="userSpaceOnUse">
<stop stop-color="#FFD54A"/>
<stop offset="1" stop-color="#FFE17D"/>
</linearGradient>
<linearGradient id="paint2_linear_4743_549" x1="35.9377" y1="60.9374" x2="115.625" y2="74.9999" gradientUnits="userSpaceOnUse">
<stop stop-color="#FFC230"/>
<stop offset="1" stop-color="#FFD164"/>
</linearGradient>
<linearGradient id="paint3_linear_4743_549" x1="53.125" y1="54.6875" x2="100" y2="128.125" gradientUnits="userSpaceOnUse">
<stop stop-color="#B06438"/>
<stop offset="1" stop-color="#B67F5F"/>
</linearGradient>
<linearGradient id="paint4_linear_4743_549" x1="36.2987" y1="107.73" x2="66.8606" y2="166.665" gradientUnits="userSpaceOnUse">
<stop stop-color="#F5D89A"/>
<stop offset="1" stop-color="#FFE3A6"/>
</linearGradient>
<linearGradient id="paint5_linear_4743_549" x1="64.0625" y1="106.25" x2="72.546" y2="119.507" gradientUnits="userSpaceOnUse">
<stop stop-color="#EDBF6D"/>
<stop offset="1" stop-color="#F2CC88" stop-opacity="0"/>
</linearGradient>
<linearGradient id="paint6_linear_4743_549" x1="53.1248" y1="65.625" x2="90.6248" y2="106.25" gradientUnits="userSpaceOnUse">
<stop stop-color="#F5D89A"/>
<stop offset="1" stop-color="#FFE3A6"/>
</linearGradient>
<linearGradient id="paint7_linear_4743_549" x1="50" y1="67.1875" x2="73.4375" y2="109.375" gradientUnits="userSpaceOnUse">
<stop stop-color="#EDBF6D"/>
<stop offset="1" stop-color="#F2CC88" stop-opacity="0"/>
</linearGradient>
<radialGradient id="paint8_radial_4743_549" cx="0" cy="0" r="1" gradientUnits="userSpaceOnUse" gradientTransform="translate(62.8279 79.016) rotate(71.565) scale(4.81198 3.20799)">
<stop stop-color="#040404"/>
<stop offset="1" stop-color="#767676"/>
</radialGradient>
<radialGradient id="paint9_radial_4743_549" cx="0" cy="0" r="1" gradientUnits="userSpaceOnUse" gradientTransform="translate(85.6546 79.016) rotate(71.5651) scale(4.81198 3.20798)">
<stop stop-color="#040404"/>
<stop offset="1" stop-color="#767676"/>
</radialGradient>
<linearGradient id="paint10_linear_4743_549" x1="60.9375" y1="71.875" x2="63.5852" y2="75.6454" gradientUnits="userSpaceOnUse">
<stop stop-color="#99694D"/>
<stop offset="1" stop-color="#A06E50" stop-opacity="0.59"/>
</linearGradient>
<linearGradient id="paint11_linear_4743_549" x1="83.7647" y1="71.8744" x2="86.4128" y2="75.6449" gradientUnits="userSpaceOnUse">
<stop stop-color="#99694D"/>
<stop offset="1" stop-color="#A06E50" stop-opacity="0.59"/>
</linearGradient>
<linearGradient id="paint12_linear_4743_549" x1="45.3125" y1="126.562" x2="110.937" y2="142.187" gradientUnits="userSpaceOnUse">
<stop stop-color="#BCB9BD"/>
<stop offset="1" stop-color="#D5D2D6"/>
</linearGradient>
<linearGradient id="paint13_linear_4743_549" x1="48.4375" y1="126.562" x2="104.687" y2="137.5" gradientUnits="userSpaceOnUse">
<stop stop-color="#AAA5AB"/>
<stop offset="1" stop-color="#C8C3C9"/>
</linearGradient>
<linearGradient id="paint14_linear_4743_549" x1="50.0002" y1="54.6875" x2="101.563" y2="64.0625" gradientUnits="userSpaceOnUse">
<stop stop-color="#A05A30"/>
<stop offset="1" stop-color="#A05A30" stop-opacity="0"/>
</linearGradient>
</defs>
</svg>
