<svg width="150" height="150" viewBox="0 0 150 150" fill="none" xmlns="http://www.w3.org/2000/svg">
<circle cx="75" cy="75" r="75" fill="url(#paint0_radial_4117_87911)"/>
<path d="M96.556 94.16C96.7693 94.672 96.876 95.0987 96.876 95.44C96.876 96.2507 96.5347 96.9333 95.852 97.488C95.212 98.0427 94.4867 98.32 93.676 98.32C93.1213 98.32 92.588 98.1707 92.076 97.872C91.6067 97.5307 91.244 97.0613 90.988 96.464L86.764 86.864H63.34L59.116 96.464C58.86 97.0613 58.476 97.5307 57.964 97.872C57.452 98.1707 56.9187 98.32 56.364 98.32C55.5107 98.32 54.7427 98.0427 54.06 97.488C53.42 96.9333 53.1 96.2507 53.1 95.44C53.1 95.0987 53.2067 94.672 53.42 94.16L71.468 54.672C71.7667 53.9893 72.236 53.456 72.876 53.072C73.5587 52.688 74.2627 52.496 74.988 52.496C75.7133 52.496 76.396 52.688 77.036 53.072C77.7187 53.456 78.2093 53.9893 78.508 54.672L96.556 94.16ZM65.708 81.616H84.46L75.052 60.432L65.708 81.616Z" fill="white"/>
<defs>
<radialGradient id="paint0_radial_4117_87911" cx="0" cy="0" r="1" gradientUnits="userSpaceOnUse" gradientTransform="translate(20.3125 20.3125) rotate(49.1446) scale(152.87)">
<stop offset="0.311886" stop-color="#FFC259"/>
<stop offset="1" stop-color="#FF6C7E"/>
</radialGradient>
</defs>
</svg>
