<svg width="150" height="150" viewBox="0 0 150 150" fill="none" xmlns="http://www.w3.org/2000/svg">
<circle cx="75" cy="75" r="75" fill="url(#paint0_radial_4117_87916)"/>
<mask id="mask0_4117_87916" style="mask-type:alpha" maskUnits="userSpaceOnUse" x="0" y="0" width="150" height="150">
<circle cx="75" cy="75" r="75" fill="#C4C4C4"/>
</mask>
<g mask="url(#mask0_4117_87916)">
<path d="M113.602 124.686L100.62 120.691C98.1617 119.935 96.4842 117.663 96.4842 115.091V105.747C96.4842 104.668 95.6098 103.793 94.5311 103.793H55.4686C54.39 103.793 53.5156 104.668 53.5156 105.747V115.091C53.5156 117.663 51.8379 119.935 49.3793 120.691L36.3974 124.686C31.4804 126.199 28.125 130.742 28.125 135.886V144.809C28.125 148.045 30.7484 150.668 33.9844 150.668H116.016C119.252 150.668 121.875 148.045 121.875 144.809V135.886C121.875 130.742 118.519 126.198 113.602 124.686Z" fill="url(#paint1_linear_4117_87916)"/>
<path d="M49.5728 120.614C52.6052 128.922 62.8244 135.043 74.9997 135.043C87.175 135.043 97.3941 128.922 100.427 120.614C98.0779 119.798 96.4841 117.593 96.4841 115.091V105.747C96.4841 104.668 95.6097 103.793 94.531 103.793H55.4685C54.3899 103.793 53.5155 104.668 53.5155 105.747V115.091C53.5152 117.593 51.9217 119.798 49.5728 120.614Z" fill="url(#paint2_linear_4117_87916)"/>
<path d="M94.5309 103.793H55.4687C54.9008 103.793 54.4003 104.044 54.0436 104.431C58.6217 111.115 66.3047 115.512 75 115.512C83.6954 115.512 91.3784 111.115 95.9565 104.431C95.5993 104.044 95.0988 103.793 94.5309 103.793Z" fill="url(#paint3_linear_4117_87916)"/>
<path d="M101.367 70.5904H100.39V51.0591H49.6091V70.5902H48.6324C45.9469 70.5902 43.7496 72.7874 43.7496 75.473C43.7496 78.1586 45.9469 80.3558 48.6324 80.3558H49.7076C50.7079 93.4629 61.6361 103.793 74.9994 103.793C88.3627 103.793 99.2909 93.4629 100.291 80.3558H101.366C104.052 80.3558 106.249 78.1586 106.249 75.473C106.249 72.7874 104.052 70.5904 101.367 70.5904Z" fill="url(#paint4_linear_4117_87916)"/>
<path d="M63.2808 76.6195C62.2012 76.6195 61.3278 75.7448 61.3278 74.6664V72.7133C61.3278 71.6346 62.2012 70.7603 63.2808 70.7603C64.3604 70.7603 65.2339 71.6349 65.2339 72.7133V74.6664C65.2341 75.7451 64.3604 76.6195 63.2808 76.6195Z" fill="url(#paint5_radial_4117_87916)"/>
<path d="M86.7183 76.6195C85.6387 76.6195 84.7653 75.7448 84.7653 74.6664V72.7133C84.7653 71.6346 85.6387 70.7603 86.7183 70.7603C87.7979 70.7603 88.6714 71.6349 88.6714 72.7133V74.6664C88.6714 75.7451 87.7977 76.6195 86.7183 76.6195Z" fill="url(#paint6_radial_4117_87916)"/>
<path d="M65.2342 68.6368H61.3281C60.2484 68.6368 59.375 67.7622 59.375 66.6838C59.375 65.6051 60.2484 64.7307 61.3281 64.7307H65.2342C66.3138 64.7307 67.1873 65.6053 67.1873 66.6838C67.1873 67.7622 66.3138 68.6368 65.2342 68.6368Z" fill="url(#paint7_linear_4117_87916)"/>
<path d="M88.6717 68.6368H84.7656C83.6859 68.6368 82.8125 67.7622 82.8125 66.6838C82.8125 65.6051 83.6859 64.7307 84.7656 64.7307H88.6717C89.7513 64.7307 90.6248 65.6053 90.6248 66.6838C90.6248 67.7622 89.7511 68.6368 88.6717 68.6368Z" fill="url(#paint8_linear_4117_87916)"/>
<path d="M90.6249 53.0124V51.0591H49.6093V70.5902H48.8042C46.5804 70.5902 44.5035 71.9994 43.9275 74.1471C43.0561 77.3953 45.5156 80.3558 48.6329 80.3558H49.7081C50.7084 93.4629 61.6366 103.793 74.9999 103.793C76.3359 103.793 77.6386 103.663 78.9185 103.464C66.749 101.586 57.4218 91.098 57.4218 78.4027V66.6838C57.4218 61.2905 61.794 56.9183 67.1874 56.9183H86.7185C88.8761 56.9185 90.6249 55.1697 90.6249 53.0124Z" fill="url(#paint9_linear_4117_87916)"/>
<path d="M61.3278 33.8982C51.7285 35.885 44.8193 44.8879 45.8919 55.0575L47.5421 70.706L49.5569 70.6664C51.684 70.6246 53.3863 68.8883 53.3863 66.7609V58.8724C53.3863 55.6364 56.0097 53.013 59.2458 53.013H80.8592L61.3278 33.8982Z" fill="url(#paint10_linear_4117_87916)"/>
<path d="M90.6247 82.3091H59.3747C56.1387 82.3091 53.5153 84.9325 53.5153 88.1685V90.1216C53.5153 101.987 63.1342 111.606 74.9997 111.606C86.8651 111.606 96.4841 101.987 96.4841 90.1216V88.1685C96.4841 84.9325 93.8607 82.3091 90.6247 82.3091Z" fill="url(#paint11_linear_4117_87916)"/>
<path d="M74.9997 94.0278C72.07 94.0278 69.3655 93.0875 67.7689 91.512C67.0003 90.7549 66.9926 89.5179 67.7499 88.7502C68.507 87.9816 69.7468 87.9739 70.5117 88.7312C71.1621 89.373 72.7279 90.1216 74.9997 90.1216C77.2715 90.1216 78.8374 89.373 79.4878 88.7312C80.2526 87.9741 81.4924 87.9816 82.2496 88.7502C83.0067 89.5179 82.9992 90.7549 82.2306 91.512C80.634 93.0875 77.9295 94.0278 74.9997 94.0278Z" fill="#E3AA75"/>
<path d="M63.2812 90.1216V88.1685C63.2812 84.9325 65.9046 82.3091 69.1406 82.3091H59.3751C56.139 82.3091 53.5156 84.9325 53.5156 88.1685V90.1216C53.5156 101.987 63.1346 111.606 75.0001 111.606C76.6825 111.606 78.3118 111.393 79.8828 111.027C70.3739 108.814 63.2812 100.305 63.2812 90.1216Z" fill="url(#paint12_linear_4117_87916)"/>
<path d="M102.328 70.7055L103.979 55.057C105.195 43.5258 96.1542 33.4811 84.559 33.4811H65.2345C60.226 33.4811 54.5042 32.7676 51.1181 30.7306C50.4018 30.2997 49.4772 30.8537 49.4805 31.6896C49.5028 37.4538 52.2157 53.0122 80.8595 53.0122H90.625C93.8611 53.0122 96.4845 55.6356 96.4845 58.8717V66.7602C96.4845 68.8875 98.1868 70.6238 100.314 70.6656L102.328 70.7055Z" fill="url(#paint13_linear_4117_87916)"/>
</g>
<defs>
<radialGradient id="paint0_radial_4117_87916" cx="0" cy="0" r="1" gradientUnits="userSpaceOnUse" gradientTransform="translate(28.125 15.625) rotate(52.7652) scale(147.19)">
<stop offset="0.0625" stop-color="#A4F6FD"/>
<stop offset="1" stop-color="#7FFDC0"/>
</radialGradient>
<linearGradient id="paint1_linear_4117_87916" x1="48.4375" y1="123.438" x2="115.625" y2="143.75" gradientUnits="userSpaceOnUse">
<stop stop-color="#FF7E47"/>
<stop offset="1" stop-color="#FFB473"/>
</linearGradient>
<linearGradient id="paint2_linear_4117_87916" x1="60.5911" y1="116.89" x2="98.0979" y2="126.116" gradientUnits="userSpaceOnUse">
<stop stop-color="#FF8D5C"/>
<stop offset="1" stop-color="#FFBC82"/>
</linearGradient>
<linearGradient id="paint3_linear_4117_87916" x1="76.5626" y1="110.938" x2="74.6557" y2="116.538" gradientUnits="userSpaceOnUse">
<stop stop-color="#FF7E47"/>
<stop offset="1" stop-color="#FFB473"/>
</linearGradient>
<linearGradient id="paint4_linear_4117_87916" x1="57.81" y1="61.2141" x2="93.7486" y2="98.7151" gradientUnits="userSpaceOnUse">
<stop stop-color="#F3B68A"/>
<stop offset="1" stop-color="#FED5B8"/>
</linearGradient>
<radialGradient id="paint5_radial_4117_87916" cx="0" cy="0" r="1" gradientUnits="userSpaceOnUse" gradientTransform="translate(62.503 72.5126) rotate(71.565) scale(4.9406 3.29374)">
<stop stop-color="#040404"/>
<stop offset="1" stop-color="#767676"/>
</radialGradient>
<radialGradient id="paint6_radial_4117_87916" cx="0" cy="0" r="1" gradientUnits="userSpaceOnUse" gradientTransform="translate(85.9405 72.5126) rotate(71.565) scale(4.9406 3.29374)">
<stop stop-color="#040404"/>
<stop offset="1" stop-color="#767676"/>
</radialGradient>
<linearGradient id="paint7_linear_4117_87916" x1="62.5" y1="65.6249" x2="63.2811" y2="68.6368" gradientUnits="userSpaceOnUse">
<stop stop-color="#4D3F46"/>
<stop offset="1" stop-color="#6E5A64" stop-opacity="0.63"/>
</linearGradient>
<linearGradient id="paint8_linear_4117_87916" x1="85.9375" y1="65.6249" x2="86.7186" y2="68.6368" gradientUnits="userSpaceOnUse">
<stop stop-color="#4D3F46"/>
<stop offset="1" stop-color="#6E5A64" stop-opacity="0.63"/>
</linearGradient>
<linearGradient id="paint9_linear_4117_87916" x1="50.7601" y1="51.8388" x2="70.6221" y2="102.445" gradientUnits="userSpaceOnUse">
<stop stop-color="#EBA873"/>
<stop offset="1" stop-color="#EBA773" stop-opacity="0"/>
</linearGradient>
<linearGradient id="paint10_linear_4117_87916" x1="56.2499" y1="42.1875" x2="56.1182" y2="71.9091" gradientUnits="userSpaceOnUse">
<stop stop-color="#473A41"/>
<stop offset="1" stop-color="#6E5A64"/>
</linearGradient>
<linearGradient id="paint11_linear_4117_87916" x1="74.9999" y1="82.8126" x2="93.8696" y2="98.6709" gradientUnits="userSpaceOnUse">
<stop stop-color="#473A41"/>
<stop offset="1" stop-color="#6E5A64"/>
</linearGradient>
<linearGradient id="paint12_linear_4117_87916" x1="56.2503" y1="84.3751" x2="67.1878" y2="110.938" gradientUnits="userSpaceOnUse">
<stop stop-color="#6E5A64"/>
<stop offset="1" stop-color="#6E5A64" stop-opacity="0"/>
</linearGradient>
<linearGradient id="paint13_linear_4117_87916" x1="104.688" y1="54.6874" x2="48.4377" y2="31.2499" gradientUnits="userSpaceOnUse">
<stop stop-color="#473A41"/>
<stop offset="1" stop-color="#6E5A64"/>
</linearGradient>
</defs>
</svg>
