<svg width="48" height="48" viewBox="0 0 48 48" fill="none" xmlns="http://www.w3.org/2000/svg">
<circle cx="24" cy="24" r="24" fill="url(#paint0_radial_4117_88234)"/>
<mask id="mask0_4117_88234" style="mask-type:alpha" maskUnits="userSpaceOnUse" x="0" y="0" width="48" height="48">
<circle cx="24" cy="24" r="24" fill="#C4C4C4"/>
</mask>
<g mask="url(#mask0_4117_88234)">
<path d="M36.3079 38.4691L29.7204 36.5316C28.9224 36.2969 28.3744 35.5645 28.3744 34.7327V31.7605H19.6239V34.7327C19.6239 35.5645 19.0758 36.2969 18.2779 36.5316L11.6903 38.4691C10.0944 38.9385 8.99829 40.4033 8.99829 42.0669V46.7613C8.99829 47.7969 9.8378 48.6364 10.8734 48.6364H37.1249C38.1605 48.6364 39 47.7969 39 46.7613V42.0669C39 40.4033 37.904 38.9385 36.3079 38.4691Z" fill="#E3AA75"/>
<path d="M36.3079 38.469L29.7204 36.5315C29.609 36.4987 29.5039 36.4542 29.4031 36.4031L23.9988 37.3856L18.5952 36.4031C18.4944 36.4542 18.3893 36.4987 18.2779 36.5315L11.6903 38.469C10.0943 38.9384 8.99829 40.4032 8.99829 42.0668V46.7612C8.99829 47.7967 9.8378 48.6362 10.8734 48.6362H37.1249C38.1605 48.6362 39 47.7967 39 46.7611V42.0667C39 40.4032 37.904 38.9384 36.3079 38.469Z" fill="url(#paint1_linear_4117_88234)"/>
<path d="M16.6067 37.9638L19.7036 40.6184C20.1565 41.0065 20.7341 41.2203 21.33 41.2203C22.0941 41.2203 22.806 40.8783 23.283 40.282L23.9992 39.3868L24.7153 40.2819C25.1924 40.8783 25.9042 41.2203 26.6683 41.2203C27.2643 41.2203 27.8418 41.0065 28.2947 40.6183L31.3917 37.9638C31.6428 37.7485 31.8157 37.4737 31.9127 37.1763L29.7204 36.5315C29.609 36.4987 29.5039 36.4542 29.4031 36.4031L23.9989 37.3856L18.5952 36.4031C18.4944 36.4542 18.3893 36.4987 18.2779 36.5315L16.0856 37.1763C16.1826 37.4738 16.3555 37.7485 16.6067 37.9638Z" fill="url(#paint2_linear_4117_88234)"/>
<path d="M19.6239 33.1553C20.937 33.8567 22.4262 34.2607 23.9992 34.2607C25.5721 34.2607 27.0613 33.8567 28.3744 33.1553V31.7605H19.6239V33.1553Z" fill="#D29B6E"/>
<path d="M32.4371 22.3849H32.1246V15.5095H15.8737V22.3849H15.5612C14.6982 22.3849 13.9986 23.0845 13.9986 23.9475C13.9986 24.8105 14.6982 25.5101 15.5612 25.5101H15.9053C16.2254 29.7046 19.7226 33.0105 23.9992 33.0105C28.2757 33.0105 31.7729 29.7046 32.093 25.5101H32.4371C33.3001 25.5101 33.9997 24.8105 33.9997 23.9475C33.9997 23.0846 33.3002 22.3849 32.4371 22.3849Z" fill="url(#paint3_linear_4117_88234)"/>
<path d="M29.6245 16.7596V15.5095H15.8737V22.3849H15.6504C14.833 22.3849 14.0882 22.9729 14.0068 23.7862C13.9131 24.7216 14.6451 25.51 15.5613 25.51H15.9054C16.2255 29.7045 19.7227 33.0104 23.9992 33.0104C24.4268 33.0104 24.8437 32.9687 25.2532 32.905C21.3588 32.304 18.3739 28.9475 18.3739 24.8849V20.5096C18.3739 19.1288 19.4932 18.0094 20.874 18.0094H28.3744C29.0648 18.0097 29.6245 17.4501 29.6245 16.7596Z" fill="url(#paint4_linear_4117_88234)"/>
<path d="M23.9992 37.3858L18.9445 34.5776C18.6334 34.4048 18.2411 34.5261 18.0819 34.8444L17.2983 36.4115C17.1957 36.6168 17.246 36.8655 17.4202 37.0148L20.5172 39.6693C21.054 40.1294 21.8652 40.0532 22.3068 39.5011L23.9992 37.3858Z" fill="url(#paint5_linear_4117_88234)"/>
<path d="M23.9992 37.3858L29.0538 34.5776C29.3649 34.4048 29.7573 34.5261 29.9164 34.8444L30.7 36.4115C30.8026 36.6168 30.7524 36.8655 30.5782 37.0148L27.4812 39.6693C26.9444 40.1294 26.1331 40.0532 25.6915 39.5011L23.9992 37.3858Z" fill="url(#paint6_linear_4117_88234)"/>
<path d="M20.2489 24.3143C19.9035 24.3143 19.6239 24.0344 19.6239 23.6893V23.0642C19.6239 22.7191 19.9035 22.4392 20.2489 22.4392C20.5944 22.4392 20.874 22.7191 20.874 23.0642V23.6893C20.874 24.0345 20.5945 24.3143 20.2489 24.3143Z" fill="url(#paint7_radial_4117_88234)"/>
<path d="M27.7494 24.3143C27.4039 24.3143 27.1244 24.0344 27.1244 23.6893V23.0642C27.1244 22.7191 27.4039 22.4392 27.7494 22.4392C28.0949 22.4392 28.3744 22.7191 28.3744 23.0642V23.6893C28.3744 24.0345 28.0949 24.3143 27.7494 24.3143Z" fill="url(#paint8_radial_4117_88234)"/>
<path d="M20.874 21.7598H19.6239C19.2784 21.7598 18.9989 21.48 18.9989 21.1348C18.9989 20.7897 19.2784 20.5098 19.6239 20.5098H20.874C21.2194 20.5098 21.499 20.7897 21.499 21.1348C21.499 21.48 21.2195 21.7598 20.874 21.7598Z" fill="url(#paint9_linear_4117_88234)"/>
<path d="M28.3744 21.7598H27.1244C26.7789 21.7598 26.4993 21.48 26.4993 21.1348C26.4993 20.7897 26.7789 20.5098 27.1244 20.5098H28.3744C28.7199 20.5098 28.9995 20.7897 28.9995 21.1348C28.9995 21.48 28.7199 21.7598 28.3744 21.7598Z" fill="url(#paint10_linear_4117_88234)"/>
<path d="M21.5281 26.4998C21.3313 26.4998 21.185 26.6796 21.2178 26.8737C21.4208 28.0771 22.5888 28.9999 23.9992 28.9999C25.4096 28.9999 26.5776 28.0771 26.7806 26.8737C26.8133 26.6796 26.6671 26.4998 26.4703 26.4998H21.5281Z" fill="white"/>
<path d="M23.9992 43.0111C24.3444 43.0111 24.6242 42.7312 24.6242 42.386C24.6242 42.0408 24.3444 41.761 23.9992 41.761C23.654 41.761 23.3741 42.0408 23.3741 42.386C23.3741 42.7312 23.654 43.0111 23.9992 43.0111Z" fill="url(#paint11_radial_4117_88234)"/>
<path d="M23.9992 46.7613C24.3444 46.7613 24.6242 46.4815 24.6242 46.1363C24.6242 45.7911 24.3444 45.5112 23.9992 45.5112C23.654 45.5112 23.3741 45.7911 23.3741 46.1363C23.3741 46.4815 23.654 46.7613 23.9992 46.7613Z" fill="url(#paint12_radial_4117_88234)"/>
<path d="M31.0022 14.2595H16.9961C15.0877 14.2595 13.6249 15.9551 13.9047 17.8429L14.6236 22.6938L16.027 22.5204C16.6533 22.443 17.1238 21.9109 17.1238 21.2798V18.0097C17.1238 17.3192 17.6835 16.7596 18.3739 16.7596H29.6245C30.3149 16.7596 30.8746 17.3192 30.8746 18.0097V21.2797C30.8746 21.9109 31.3451 22.443 31.9714 22.5204L33.3747 22.6937L34.0937 17.8428C34.3734 15.955 32.9106 14.2595 31.0022 14.2595Z" fill="url(#paint13_linear_4117_88234)"/>
<path d="M32.418 10.0399C32.2979 9.6677 31.8656 9.487 31.524 9.67753C30.8729 10.0409 29.6625 10.5093 27.7493 10.5093H21.4989C19.0826 10.5093 17.1237 12.4682 17.1237 14.8846C17.1237 15.9202 17.9632 16.7597 18.9988 16.7597H28.9993C31.3482 16.7597 33.6969 14.0016 32.418 10.0399Z" fill="url(#paint14_linear_4117_88234)"/>
<path d="M14.6236 43.011V48.6363H12.7485V44.8861C12.7485 43.8505 13.588 43.011 14.6236 43.011Z" fill="url(#paint15_linear_4117_88234)"/>
<path d="M33.3747 43.011V48.6363H35.2498V44.8861C35.2498 43.8505 34.4103 43.011 33.3747 43.011Z" fill="url(#paint16_linear_4117_88234)"/>
<path d="M14.6236 48.6363H17.1238V36.8708L14.6236 37.6062V48.6363Z" fill="url(#paint17_linear_4117_88234)"/>
<path d="M33.3747 48.6363H30.8745V36.8708L33.3747 37.6062V48.6363Z" fill="url(#paint18_linear_4117_88234)"/>
<path d="M14.6236 48.6363H15.8737V44.2611C15.8737 43.5707 15.314 43.011 14.6236 43.011V48.6363Z" fill="#FFD164"/>
<path d="M33.3747 48.6363H32.1246V44.2611C32.1246 43.5707 32.6843 43.011 33.3747 43.011V48.6363Z" fill="#FFD164"/>
<path d="M20.8445 12.6881C20.8539 13.5743 21.6388 14.2594 22.5251 14.2594H31.0022C31.452 14.2594 31.8755 14.3564 32.2588 14.5251C32.8282 13.3694 32.9962 11.8289 32.4173 10.0373C32.2976 9.66695 31.8656 9.48664 31.5258 9.67648C30.8751 10.04 29.6642 10.5093 27.7493 10.5093H21.4989C21.4599 10.5322 21.4157 10.5582 21.3766 10.5811C21.0387 11.2016 20.8442 11.9115 20.8442 12.6679C20.8443 12.6746 20.8444 12.6813 20.8445 12.6881Z" fill="url(#paint19_linear_4117_88234)"/>
</g>
<defs>
<radialGradient id="paint0_radial_4117_88234" cx="0" cy="0" r="1" gradientUnits="userSpaceOnUse" gradientTransform="translate(9.5 5.5) rotate(51.8091) scale(47.7127)">
<stop offset="0.492268" stop-color="#B8A4FC"/>
<stop offset="1" stop-color="#B859E4"/>
</radialGradient>
<linearGradient id="paint1_linear_4117_88234" x1="23.9991" y1="36.4031" x2="23.9991" y2="48.6362" gradientUnits="userSpaceOnUse">
<stop stop-color="#FF414F"/>
<stop offset="1" stop-color="#FF7456"/>
</linearGradient>
<linearGradient id="paint2_linear_4117_88234" x1="23.9992" y1="36.4031" x2="23.9992" y2="41.2203" gradientUnits="userSpaceOnUse">
<stop stop-color="#B33639"/>
<stop offset="1" stop-color="#E64549"/>
</linearGradient>
<linearGradient id="paint3_linear_4117_88234" x1="15" y1="17.5" x2="31" y2="29.5" gradientUnits="userSpaceOnUse">
<stop stop-color="#EDB379"/>
<stop offset="1" stop-color="#FFC182"/>
</linearGradient>
<linearGradient id="paint4_linear_4117_88234" x1="14.5" y1="18" x2="24" y2="22.5" gradientUnits="userSpaceOnUse">
<stop stop-color="#C58646"/>
<stop offset="1" stop-color="#C68748" stop-opacity="0.06"/>
</linearGradient>
<linearGradient id="paint5_linear_4117_88234" x1="20.6223" y1="34.4988" x2="20.6223" y2="39.9703" gradientUnits="userSpaceOnUse">
<stop stop-color="#FF414F"/>
<stop offset="1" stop-color="#FF7456"/>
</linearGradient>
<linearGradient id="paint6_linear_4117_88234" x1="27.376" y1="34.4988" x2="27.376" y2="39.9703" gradientUnits="userSpaceOnUse">
<stop stop-color="#FF414F"/>
<stop offset="1" stop-color="#FF7456"/>
</linearGradient>
<radialGradient id="paint7_radial_4117_88234" cx="0" cy="0" r="1" gradientUnits="userSpaceOnUse" gradientTransform="translate(20 23) rotate(71.5651) scale(1.58114 1.05409)">
<stop stop-color="#040404"/>
<stop offset="1" stop-color="#767676"/>
</radialGradient>
<radialGradient id="paint8_radial_4117_88234" cx="0" cy="0" r="1" gradientUnits="userSpaceOnUse" gradientTransform="translate(27.5005 23) rotate(71.5651) scale(1.58114 1.05409)">
<stop stop-color="#040404"/>
<stop offset="1" stop-color="#767676"/>
</radialGradient>
<linearGradient id="paint9_linear_4117_88234" x1="20.5" y1="20.5" x2="20.5" y2="22" gradientUnits="userSpaceOnUse">
<stop stop-color="#332A2E"/>
<stop offset="1" stop-color="#6E5A64"/>
</linearGradient>
<linearGradient id="paint10_linear_4117_88234" x1="28.0005" y1="20.5" x2="28.0005" y2="22" gradientUnits="userSpaceOnUse">
<stop stop-color="#332A2E"/>
<stop offset="1" stop-color="#6E5A64"/>
</linearGradient>
<radialGradient id="paint11_radial_4117_88234" cx="0" cy="0" r="1" gradientUnits="userSpaceOnUse" gradientTransform="translate(24 41.5) rotate(90.0312) scale(1.51106)">
<stop stop-color="#FFC350"/>
<stop offset="1" stop-color="#FFD179" stop-opacity="0.97"/>
</radialGradient>
<radialGradient id="paint12_radial_4117_88234" cx="0" cy="0" r="1" gradientUnits="userSpaceOnUse" gradientTransform="translate(24 45.2502) rotate(90.0312) scale(1.51107 1.51106)">
<stop stop-color="#FFC350"/>
<stop offset="1" stop-color="#FFD179" stop-opacity="0.97"/>
</radialGradient>
<linearGradient id="paint13_linear_4117_88234" x1="23.9992" y1="14.2595" x2="23.9992" y2="22.6938" gradientUnits="userSpaceOnUse">
<stop stop-color="#362A30"/>
<stop offset="1" stop-color="#826574"/>
</linearGradient>
<linearGradient id="paint14_linear_4117_88234" x1="17.5" y1="14.5" x2="33" y2="11" gradientUnits="userSpaceOnUse">
<stop stop-color="#64505A"/>
<stop offset="1" stop-color="#78606C"/>
</linearGradient>
<linearGradient id="paint15_linear_4117_88234" x1="13.6861" y1="43.011" x2="13.6861" y2="48.6363" gradientUnits="userSpaceOnUse">
<stop stop-color="#B33639"/>
<stop offset="1" stop-color="#E64549"/>
</linearGradient>
<linearGradient id="paint16_linear_4117_88234" x1="34.3123" y1="43.011" x2="34.3123" y2="48.6363" gradientUnits="userSpaceOnUse">
<stop stop-color="#B33639"/>
<stop offset="1" stop-color="#E64549"/>
</linearGradient>
<linearGradient id="paint17_linear_4117_88234" x1="15.8737" y1="36.8708" x2="15.8737" y2="48.6363" gradientUnits="userSpaceOnUse">
<stop stop-color="#FFCA62"/>
<stop offset="1" stop-color="#FFCA62" stop-opacity="0.38"/>
</linearGradient>
<linearGradient id="paint18_linear_4117_88234" x1="32.1246" y1="36.8708" x2="32.1246" y2="48.6363" gradientUnits="userSpaceOnUse">
<stop stop-color="#FFCA62"/>
<stop offset="1" stop-color="#FFCA62" stop-opacity="0.38"/>
</linearGradient>
<linearGradient id="paint19_linear_4117_88234" x1="21" y1="13.5" x2="32.5" y2="10" gradientUnits="userSpaceOnUse">
<stop stop-color="#7A646F"/>
<stop offset="1" stop-color="#6E5A64"/>
</linearGradient>
</defs>
</svg>
