<svg width="48" height="48" viewBox="0 0 48 48" fill="none" xmlns="http://www.w3.org/2000/svg">
<circle cx="24" cy="24" r="24" fill="url(#paint0_radial_4774_56456)"/>
<mask id="mask0_4774_56456" style="mask-type:alpha" maskUnits="userSpaceOnUse" x="0" y="0" width="48" height="48">
<circle cx="24" cy="24" r="24" fill="#C4C4C4"/>
</mask>
<g mask="url(#mask0_4774_56456)">
<path d="M24 10.3479C18.285 10.3479 13.6522 14.9807 13.6522 20.6957V25.3624C13.6522 33.5291 18.7234 37.7038 18.7234 37.7038H34.3478V20.6957C34.3478 14.9807 29.7149 10.3479 24 10.3479Z" fill="#FFD164"/>
<path d="M13.6522 20.6957V25.3624C13.6522 33.5291 18.7234 37.7038 18.7234 37.7038H24V10.3479C18.285 10.3479 13.6522 14.9807 13.6522 20.6957Z" fill="url(#paint1_linear_4774_56456)"/>
<path d="M35.5633 39.9226L29.2766 37.7037C28.3031 37.3601 27.6521 36.44 27.6521 35.4077V31.6521H20.3477V35.4077C20.3477 36.44 19.6967 37.3601 18.7233 37.7037L12.4365 39.9226C10.9764 40.4379 9.99994 41.8181 9.99994 43.3665V46.2608C9.99994 47.2693 10.8175 48.0869 11.826 48.0869H36.1738C37.1823 48.0869 37.9999 47.2693 37.9999 46.2608V43.3665C37.9999 41.8181 37.0235 40.4379 35.5633 39.9226Z" fill="url(#paint2_linear_4774_56456)"/>
<path d="M35.5633 39.9227L30.3316 38.0762C29.4314 40.7112 26.9399 42.6087 24 42.6087C21.06 42.6087 18.5686 40.7111 17.6683 38.0762L12.4366 39.9227C10.9764 40.438 10 41.8182 10 43.3666V46.2609C10 47.2694 10.8176 48.087 11.8261 48.087H36.1739C37.1824 48.087 38 47.2694 38 46.2609V43.3666C37.9999 41.8182 37.0235 40.438 35.5633 39.9227Z" fill="url(#paint3_linear_4774_56456)"/>
<path d="M24 45.0435C28.0003 45.0435 31.3912 42.4667 32.6257 38.8858L30.3317 38.0762C29.4314 40.7112 26.9399 42.6087 24 42.6087C21.06 42.6087 18.5687 40.7111 17.6684 38.0762L15.3744 38.8858C16.6087 42.4667 19.9996 45.0435 24 45.0435Z" fill="url(#paint4_linear_4774_56456)"/>
<path d="M14.4154 43.8526L10.9681 40.8979C10.6891 41.2016 10.4674 41.5518 10.3043 41.932L13.6235 44.777C14.0283 45.1241 14.2607 45.6294 14.2607 46.1634V48.087H15.4781V46.1634C15.4782 45.2736 15.0906 44.4313 14.4154 43.8526Z" fill="url(#paint5_linear_4774_56456)"/>
<path d="M20.3478 33.9169C21.3382 34.3579 22.4184 34.6315 23.5602 34.6852C23.7075 34.6922 23.8543 34.6956 24.0001 34.6956C25.2987 34.6956 26.5326 34.4188 27.6522 33.9279V31.6521H20.3478V33.9169Z" fill="url(#paint6_linear_4774_56456)"/>
<path d="M32.1306 23.1304C31.338 23.1304 30.6956 22.4879 30.6956 21.6954V20.6956C30.6956 19.0147 29.333 17.6521 27.6521 17.6521H20.3478C18.6669 17.6521 17.3043 19.0147 17.3043 20.6956V21.6954C17.3043 22.4879 16.6619 23.1304 15.8694 23.1304C15.0734 23.1304 14.348 23.7031 14.2687 24.4951C14.1774 25.406 14.8904 26.1738 15.7825 26.1738H16.1176C16.4294 30.2587 19.8351 33.4782 23.9999 33.4782C28.1647 33.4782 31.5704 30.2587 31.8822 26.1738H32.2173C33.1096 26.1738 33.8224 25.406 33.7312 24.4951C33.6519 23.7031 32.9265 23.1304 32.1306 23.1304Z" fill="url(#paint7_linear_4774_56456)"/>
<path d="M20.3487 19.739C20.9452 19.6537 21.5553 19.8193 22.0112 20.2131C25.0267 22.8176 28.9314 24.3478 33.1304 24.3478C33.3119 24.3478 33.5019 24.3429 33.6983 24.3354C33.542 23.6231 32.8603 23.1224 32.1128 23.1305C31.3269 23.1389 30.6956 22.4815 30.6956 21.6954V20.6956C30.6956 19.0147 29.333 17.6521 27.6521 17.6521H20.3478C19.6602 17.6521 19.0312 17.8867 18.5217 18.2713V18.2746C17.7865 18.8301 17.3043 19.7031 17.3043 20.6956V21.7576C17.3043 22.547 16.6422 23.1226 15.853 23.1304C15.0635 23.1382 14.3475 23.7084 14.2687 24.495C14.1776 25.4059 14.8903 26.1738 15.7826 26.1738H16.1177C16.4294 30.2587 19.8352 33.4781 24 33.4781C24.4164 33.4781 24.8223 33.4376 25.2212 33.3755C21.4286 32.7902 18.5217 29.5216 18.5217 25.5651V21.8453C18.5217 20.7865 19.3003 19.8887 20.3487 19.739Z" fill="url(#paint8_linear_4774_56456)"/>
<path d="M20.3478 24.9564C20.0113 24.9564 19.7391 24.6839 19.7391 24.3478V23.7391C19.7391 23.4029 20.0114 23.1304 20.3478 23.1304C20.6842 23.1304 20.9565 23.4029 20.9565 23.7391V24.3478C20.9565 24.6839 20.6842 24.9564 20.3478 24.9564Z" fill="url(#paint9_radial_4774_56456)"/>
<path d="M27.6521 24.9564C27.3157 24.9564 27.0435 24.6839 27.0435 24.3478V23.7391C27.0435 23.4029 27.3157 23.1304 27.6521 23.1304C27.9886 23.1304 28.2608 23.4029 28.2608 23.7391V24.3478C28.2608 24.6839 27.9886 24.9564 27.6521 24.9564Z" fill="url(#paint10_radial_4774_56456)"/>
<path d="M23.9999 29.2174C23.0869 29.2174 22.244 28.9244 21.7464 28.4334C21.5069 28.1974 21.5045 27.812 21.7405 27.5727C21.9765 27.3331 22.3629 27.3308 22.6012 27.5667C22.8039 27.7668 23.2919 28.0001 23.9999 28.0001C24.7078 28.0001 25.1959 27.7668 25.3986 27.5667C25.637 27.3307 26.0233 27.3331 26.2593 27.5727C26.4953 27.812 26.4929 28.1975 26.2533 28.4334C25.7559 28.9244 24.913 29.2174 23.9999 29.2174Z" fill="#E3AA75"/>
<path d="M33.5845 43.8527L37.0318 40.8979C37.3108 41.2016 37.5325 41.5518 37.6956 41.932L34.3764 44.777C33.9716 45.1241 33.7392 45.6294 33.7392 46.1634V48.0871H32.5218V46.1635C32.5217 45.2737 32.9093 44.4313 33.5845 43.8527Z" fill="url(#paint11_linear_4774_56456)"/>
<path d="M19.1304 22.5223C18.8754 22.5223 18.6383 22.3609 18.5532 22.1059C18.4468 21.787 18.6192 21.4422 18.9378 21.3358L20.7639 20.7271C21.0855 20.6198 21.4273 20.7931 21.5337 21.112C21.6401 21.431 21.4677 21.7757 21.1491 21.8821L19.323 22.4908C19.2588 22.5122 19.194 22.5223 19.1304 22.5223Z" fill="url(#paint12_linear_4774_56456)"/>
<path d="M24 10.3479C21.7985 10.3479 19.7615 11.0405 18.0842 12.2125C20.1502 18.5496 26.1038 23.1305 33.1304 23.1305C33.5405 23.1305 33.9456 23.1099 34.3478 23.0792V20.6956C34.3478 14.9807 29.715 10.3479 24 10.3479Z" fill="url(#paint13_radial_4774_56456)"/>
<path d="M27.6521 33.4783V35.913C27.6521 41.2878 31.9129 43.2174 31.9129 48.0869H34.3477V33.4783H27.6521Z" fill="#FFD164"/>
</g>
<defs>
<radialGradient id="paint0_radial_4774_56456" cx="0" cy="0" r="1" gradientUnits="userSpaceOnUse" gradientTransform="translate(6.5 6.5) rotate(49.1446) scale(48.9183)">
<stop offset="0.572917" stop-color="#FFCC73"/>
<stop offset="1" stop-color="#FF93A0"/>
</radialGradient>
<linearGradient id="paint1_linear_4774_56456" x1="18.8261" y1="10.3479" x2="18.8261" y2="37.7038" gradientUnits="userSpaceOnUse">
<stop stop-color="#FFA436"/>
<stop offset="1" stop-color="#FFC773"/>
</linearGradient>
<linearGradient id="paint2_linear_4774_56456" x1="20.5" y1="35.5" x2="28.9594" y2="47.7828" gradientUnits="userSpaceOnUse">
<stop stop-color="#F5D48E"/>
<stop offset="1" stop-color="#FFE7B3"/>
</linearGradient>
<linearGradient id="paint3_linear_4774_56456" x1="14.5" y1="39.5" x2="35" y2="46.5" gradientUnits="userSpaceOnUse">
<stop stop-color="#75D8FF"/>
<stop offset="1" stop-color="#ADEBFF"/>
</linearGradient>
<linearGradient id="paint4_linear_4774_56456" x1="16.5" y1="38.5" x2="33.5" y2="41" gradientUnits="userSpaceOnUse">
<stop stop-color="#EDEBED"/>
<stop offset="1" stop-color="#FCFAFC"/>
</linearGradient>
<linearGradient id="paint5_linear_4774_56456" x1="12.8912" y1="40.8979" x2="12.8912" y2="48.087" gradientUnits="userSpaceOnUse">
<stop stop-color="#8CACEB"/>
<stop offset="1" stop-color="#8CACEB" stop-opacity="0"/>
</linearGradient>
<linearGradient id="paint6_linear_4774_56456" x1="20.5" y1="33.5" x2="25.5355" y2="36.9051" gradientUnits="userSpaceOnUse">
<stop stop-color="#EBC178"/>
<stop offset="1" stop-color="#F7D291" stop-opacity="0.14"/>
</linearGradient>
<linearGradient id="paint7_linear_4774_56456" x1="18.5" y1="18" x2="31.5" y2="32.5" gradientUnits="userSpaceOnUse">
<stop stop-color="#F7D78F"/>
<stop offset="1" stop-color="#FFE7B3"/>
</linearGradient>
<linearGradient id="paint8_linear_4774_56456" x1="18" y1="17.5" x2="26.5" y2="34.5" gradientUnits="userSpaceOnUse">
<stop stop-color="#F7CB7E"/>
<stop offset="1" stop-color="#F7D291" stop-opacity="0.14"/>
</linearGradient>
<radialGradient id="paint9_radial_4774_56456" cx="0" cy="0" r="1" gradientUnits="userSpaceOnUse" gradientTransform="translate(20.1054 23.6765) rotate(71.565) scale(1.53978 1.02652)">
<stop stop-color="#040404"/>
<stop offset="1" stop-color="#767676"/>
</radialGradient>
<radialGradient id="paint10_radial_4774_56456" cx="0" cy="0" r="1" gradientUnits="userSpaceOnUse" gradientTransform="translate(27.4097 23.6765) rotate(71.5651) scale(1.53978 1.02652)">
<stop stop-color="#040404"/>
<stop offset="1" stop-color="#767676"/>
</radialGradient>
<linearGradient id="paint11_linear_4774_56456" x1="35.1087" y1="40.8979" x2="35.1087" y2="48.0871" gradientUnits="userSpaceOnUse">
<stop stop-color="#8CACEB"/>
<stop offset="1" stop-color="#8CACEB" stop-opacity="0"/>
</linearGradient>
<linearGradient id="paint12_linear_4774_56456" x1="19" y1="21" x2="21" y2="22" gradientUnits="userSpaceOnUse">
<stop stop-color="#E3AA75"/>
<stop offset="1" stop-color="#FABB81"/>
</linearGradient>
<radialGradient id="paint13_radial_4774_56456" cx="0" cy="0" r="1" gradientUnits="userSpaceOnUse" gradientTransform="translate(25.5 10.5) rotate(75.9638) scale(12.3693 15.7378)">
<stop stop-color="#FAD348"/>
<stop offset="1" stop-color="#FFE17D"/>
</radialGradient>
</defs>
</svg>
