<svg width="48" height="48" viewBox="0 0 48 48" fill="none" xmlns="http://www.w3.org/2000/svg">
<circle cx="24" cy="24" r="24" fill="url(#paint0_radial_4117_88133)"/>
<path d="M30.1923 28.614C30.2643 28.77 30.3003 28.926 30.3003 29.082C30.3003 29.358 30.1863 29.592 29.9583 29.784C29.7423 29.976 29.4903 30.072 29.2023 30.072C29.0103 30.072 28.8303 30.024 28.6623 29.928C28.4943 29.82 28.3623 29.658 28.2663 29.442L27.1863 27.03H20.8503L19.7703 29.442C19.6743 29.658 19.5423 29.82 19.3743 29.928C19.2063 30.024 19.0203 30.072 18.8163 30.072C18.5403 30.072 18.2883 29.976 18.0603 29.784C17.8323 29.592 17.7183 29.358 17.7183 29.082C17.7183 28.926 17.7543 28.77 17.8263 28.614L22.7943 17.94C22.9023 17.7 23.0643 17.52 23.2803 17.4C23.5083 17.268 23.7483 17.202 24.0003 17.202C24.2523 17.202 24.4863 17.268 24.7023 17.4C24.9303 17.52 25.0983 17.7 25.2063 17.94L30.1923 28.614ZM21.6423 25.23H26.3943L24.0183 19.884L21.6423 25.23Z" fill="white"/>
<defs>
<radialGradient id="paint0_radial_4117_88133" cx="0" cy="0" r="1" gradientUnits="userSpaceOnUse" gradientTransform="translate(6.5 6.5) rotate(49.1446) scale(48.9183)">
<stop offset="0.311886" stop-color="#FFC259"/>
<stop offset="1" stop-color="#FF6C7E"/>
</radialGradient>
</defs>
</svg>
