<svg width="48" height="48" viewBox="0 0 48 48" fill="none" xmlns="http://www.w3.org/2000/svg">
<circle cx="24" cy="24" r="24" fill="url(#paint0_radial_4117_88212)"/>
<mask id="mask0_4117_88212" style="mask-type:alpha" maskUnits="userSpaceOnUse" x="0" y="0" width="48" height="48">
<circle cx="24" cy="24" r="24" fill="#C4C4C4"/>
</mask>
<g mask="url(#mask0_4117_88212)">
<path d="M40.3603 35.5755C40.4129 31.9458 39.203 31.3146 38.598 29.1841C37.989 27.0392 38.6086 25.5746 37.8879 23.2004C37.2172 20.991 35.9987 20.6177 35.6259 17.4796C34.9946 12.1665 29.2607 9.43115 26.4201 9.43115C25.6168 9.43115 25.0684 9.63502 24.6996 9.87887C24.2728 10.1612 23.7276 10.1612 23.3009 9.87887C22.9321 9.63502 22.3837 9.43115 21.5804 9.43115C18.7398 9.43115 13.0059 12.1665 12.3747 17.4796C12.0018 20.6177 10.7834 20.9909 10.1127 23.2004C9.39194 25.5746 10.0116 27.0392 9.40257 29.1841C8.79761 31.3146 7.58771 31.9458 7.6403 35.5755C7.7013 39.7848 5.27308 40.7308 6.21995 43.5188C6.92665 45.5995 10.744 47.3063 10.744 47.3063H37.2566C37.2566 47.3063 41.0739 45.5995 41.7806 43.5188C42.7274 40.7308 40.2992 39.7848 40.3603 35.5755Z" fill="url(#paint1_linear_4117_88212)"/>
<path d="M24.0003 10.0906C23.7572 10.0906 23.5142 10.0201 23.3009 9.87887C22.9321 9.63502 22.3837 9.43115 21.5804 9.43115C18.7398 9.43115 13.0059 12.1665 12.3747 17.4796C12.0018 20.6177 10.7834 20.9909 10.1127 23.2004C9.39194 25.5746 10.0116 27.0392 9.40257 29.1841C8.79761 31.3146 7.58771 31.9458 7.6403 35.5755C7.7013 39.7848 5.27308 40.7308 6.21995 43.5188C6.92665 45.5995 10.744 47.3063 10.744 47.3063H24.0003V10.0906Z" fill="url(#paint2_linear_4117_88212)"/>
<path d="M35.9921 40.102L29.4724 37.8009C28.4629 37.4446 27.7877 36.4904 27.7877 35.4198V32.1562H20.2127V35.4198C20.2127 36.4904 19.5376 37.4446 18.528 37.8009L12.0083 40.102C10.494 40.6364 9.48138 42.0677 9.48138 43.6735V46.6751C9.48138 47.721 10.3293 48.5689 11.3751 48.5689H36.6253C37.6712 48.5689 38.5191 47.721 38.5191 46.6751V43.6735C38.5191 42.0677 37.5064 40.6364 35.9921 40.102Z" fill="url(#paint3_linear_4117_88212)"/>
<path d="M35.9921 40.1021L31.6419 38.5667C29.9298 40.933 27.5998 43.5426 24.8875 44.9887C24.3342 45.2837 23.6663 45.2837 23.113 44.9887C20.4007 43.5427 18.0706 40.933 16.3586 38.5667L12.0084 40.1021C10.4941 40.6366 9.48145 42.0679 9.48145 43.6737V46.6753C9.48145 47.7211 10.3293 48.569 11.3752 48.569H36.6254C37.6712 48.569 38.5191 47.7211 38.5191 46.6753V43.6737C38.519 42.0679 37.5064 40.6366 35.9921 40.1021Z" fill="url(#paint4_linear_4117_88212)"/>
<path d="M20.2128 33.8736C21.3783 34.3889 22.6589 34.6813 24.0003 34.6813C25.3416 34.6813 26.6223 34.389 27.7877 33.8736V32.1562H20.2127L20.2128 33.8736Z" fill="url(#paint5_linear_4117_88212)"/>
<path d="M24.0002 33.4187C19.468 33.4187 15.7939 29.7447 15.7939 25.2124V14.4812H32.2066V25.2125C32.2066 29.7447 28.5324 33.4187 24.0002 33.4187Z" fill="url(#paint6_linear_4117_88212)"/>
<path d="M15.7939 14.4812V25.2125C15.7939 29.7447 19.4681 33.4188 24.0002 33.4188C24.4308 33.4188 24.8501 33.3756 25.2627 33.3119C21.3315 32.7031 18.3189 29.3143 18.3189 25.2125V21.9297C18.3189 21.4106 18.4799 20.9092 18.7548 20.4689C18.7563 20.4666 18.7577 20.4642 18.7592 20.4619C19.7956 18.7987 20.7659 18.5541 21.8892 18.2711C22.5343 18.1086 23.286 17.9191 24.0002 17.4432C24.7144 17.9191 25.4661 18.1086 26.1112 18.2711C27.2345 18.5542 28.2047 18.7987 29.2412 20.4619C30.2054 22.009 31.2844 22.8642 32.2064 23.5249V14.4812H15.7939Z" fill="url(#paint7_linear_4117_88212)"/>
<path d="M24.0002 29.6313C23.0528 29.6313 22.1792 29.3274 21.6632 28.8182C21.4148 28.5728 21.4123 28.1734 21.657 27.9256C21.903 27.6772 22.3025 27.6747 22.5496 27.9194C22.7598 28.1266 23.2653 28.3688 24.0002 28.3688C24.735 28.3688 25.2405 28.1266 25.4507 27.9194C25.6979 27.6747 26.0974 27.6772 26.3433 27.9256C26.5881 28.1734 26.5856 28.5729 26.3371 28.8182C25.8213 29.3274 24.9477 29.6313 24.0002 29.6313Z" fill="#A06E50"/>
<path d="M20.2127 25.2123C19.8638 25.2123 19.5815 24.93 19.5815 24.5811V23.9499C19.5815 23.6009 19.8639 23.3186 20.2127 23.3186C20.5616 23.3186 20.844 23.601 20.844 23.9499V24.5811C20.844 24.93 20.5616 25.2123 20.2127 25.2123Z" fill="url(#paint8_radial_4117_88212)"/>
<path d="M27.7877 25.2123C27.4388 25.2123 27.1565 24.93 27.1565 24.5811V23.9499C27.1565 23.6009 27.4389 23.3186 27.7877 23.3186C28.1367 23.3186 28.419 23.601 28.419 23.9499V24.5811C28.419 24.93 28.1367 25.2123 27.7877 25.2123Z" fill="url(#paint9_radial_4117_88212)"/>
<path d="M20.844 22.6873H19.5815C19.2326 22.6873 18.9503 22.4049 18.9503 22.0561C18.9503 21.7072 19.2326 21.4248 19.5815 21.4248H20.844C21.193 21.4248 21.4753 21.7072 21.4753 22.0561C21.4753 22.4049 21.1929 22.6873 20.844 22.6873Z" fill="url(#paint10_linear_4117_88212)"/>
<path d="M28.419 22.6873H27.1565C26.8075 22.6873 26.5252 22.4049 26.5252 22.0561C26.5252 21.7072 26.8076 21.4248 27.1565 21.4248H28.419C28.7679 21.4248 29.0502 21.7072 29.0502 22.0561C29.0502 22.4049 28.7679 22.6873 28.419 22.6873Z" fill="url(#paint11_linear_4117_88212)"/>
<path d="M14.1036 43.5402L10.8815 40.7424C10.5513 41.0115 10.2739 41.3339 10.0523 41.6938L13.2763 44.4933C13.6905 44.8533 13.9285 45.3748 13.9285 45.9235V48.5687H15.191V45.9234C15.191 45.0086 14.7947 44.1401 14.1036 43.5402Z" fill="url(#paint12_linear_4117_88212)"/>
<path d="M33.9253 43.5402L37.1474 40.7424C37.4775 41.0115 37.755 41.3339 37.9766 41.6938L34.7526 44.4933C34.3383 44.8533 34.1004 45.3748 34.1004 45.9235V48.5687H32.8379V45.9234C32.8378 45.0086 33.2342 44.1401 33.9253 43.5402Z" fill="url(#paint13_linear_4117_88212)"/>
<path d="M38.598 29.1841C37.989 27.0392 38.6086 25.5746 37.8879 23.2004C37.2172 20.991 35.9987 20.6177 35.6259 17.4796C34.9946 12.1665 29.2607 9.43115 26.4201 9.43115C25.6168 9.43115 25.0684 9.63502 24.6996 9.87887C24.4863 10.0201 24.2433 10.0906 24.0003 10.0906V15.7437C25.631 17.7953 28.0508 16.1645 30.3128 19.7942C32.2355 22.8794 34.6497 22.8014 35.499 25.2338C35.7423 25.9309 35.6103 26.6758 35.6686 27.4119C35.9941 31.525 39.1503 33.4188 40.5691 37.7111C40.4338 37.0982 40.3483 36.4011 40.3603 35.5755C40.4129 31.9458 39.203 31.3146 38.598 29.1841Z" fill="url(#paint14_linear_4117_88212)"/>
<path d="M9.40249 29.1841C10.0115 27.0392 9.39186 25.5746 10.1126 23.2004C10.7833 20.991 12.0018 20.6177 12.3746 17.4796C13.0059 12.1665 18.7398 9.43115 21.5804 9.43115C22.3837 9.43115 22.9321 9.63502 23.3009 9.87887C23.5142 10.0201 23.7572 10.0906 24.0002 10.0906V15.7437C22.3695 17.7953 19.9497 16.1645 17.6877 19.7942C15.765 22.8794 13.3508 22.8014 12.5016 25.2338C12.2582 25.9309 12.3902 26.6758 12.3319 27.4119C12.0064 31.525 8.8502 33.4188 7.43138 37.7111C7.56668 37.0982 7.65222 36.4011 7.64022 35.5755C7.58763 31.9458 8.79753 31.3146 9.40249 29.1841Z" fill="url(#paint15_linear_4117_88212)"/>
</g>
<defs>
<radialGradient id="paint0_radial_4117_88212" cx="0" cy="0" r="1" gradientUnits="userSpaceOnUse" gradientTransform="translate(7.5 7.5) rotate(48.4682) scale(46.7547)">
<stop offset="0.449021" stop-color="#FEC0B2"/>
<stop offset="1" stop-color="#FF866B"/>
</radialGradient>
<linearGradient id="paint1_linear_4117_88212" x1="24.0003" y1="9.43115" x2="24.0003" y2="47.3063" gradientUnits="userSpaceOnUse">
<stop stop-color="#33282D"/>
<stop offset="1" stop-color="#6E5561"/>
</linearGradient>
<linearGradient id="paint2_linear_4117_88212" x1="15.0004" y1="9.43115" x2="15.0004" y2="47.3063" gradientUnits="userSpaceOnUse">
<stop stop-color="#1A1417"/>
<stop offset="1" stop-color="#5A4650"/>
</linearGradient>
<linearGradient id="paint3_linear_4117_88212" x1="18.2969" y1="37.8154" x2="25.6342" y2="47.2147" gradientUnits="userSpaceOnUse">
<stop stop-color="#D4A06C"/>
<stop offset="1" stop-color="#FABD80"/>
</linearGradient>
<linearGradient id="paint4_linear_4117_88212" x1="14" y1="39.5" x2="33.5" y2="47" gradientUnits="userSpaceOnUse">
<stop stop-color="#ACED8E"/>
<stop offset="1" stop-color="#A6FFAA"/>
</linearGradient>
<linearGradient id="paint5_linear_4117_88212" x1="20.4557" y1="32.5156" x2="22.4017" y2="36.4912" gradientUnits="userSpaceOnUse">
<stop stop-color="#C58646"/>
<stop offset="1" stop-color="#C68748" stop-opacity="0.06"/>
</linearGradient>
<linearGradient id="paint6_linear_4117_88212" x1="16.6157" y1="16.6351" x2="32.1162" y2="25.4511" gradientUnits="userSpaceOnUse">
<stop stop-color="#EDB379"/>
<stop offset="1" stop-color="#FFC182"/>
</linearGradient>
<linearGradient id="paint7_linear_4117_88212" x1="16.3205" y1="17.1761" x2="26.4056" y2="21.8131" gradientUnits="userSpaceOnUse">
<stop stop-color="#C58646"/>
<stop offset="1" stop-color="#C68748" stop-opacity="0.06"/>
</linearGradient>
<radialGradient id="paint8_radial_4117_88212" cx="0" cy="0" r="1" gradientUnits="userSpaceOnUse" gradientTransform="translate(19.9613 23.885) rotate(71.565) scale(1.59685 1.06457)">
<stop stop-color="#040404"/>
<stop offset="1" stop-color="#767676"/>
</radialGradient>
<radialGradient id="paint9_radial_4117_88212" cx="0" cy="0" r="1" gradientUnits="userSpaceOnUse" gradientTransform="translate(27.5363 23.885) rotate(71.5651) scale(1.59685 1.06457)">
<stop stop-color="#040404"/>
<stop offset="1" stop-color="#767676"/>
</radialGradient>
<linearGradient id="paint10_linear_4117_88212" x1="19.1149" y1="21.7495" x2="19.3715" y2="23.0598" gradientUnits="userSpaceOnUse">
<stop stop-color="#403239"/>
<stop offset="1" stop-color="#806371"/>
</linearGradient>
<linearGradient id="paint11_linear_4117_88212" x1="26.6899" y1="21.7495" x2="26.9465" y2="23.0598" gradientUnits="userSpaceOnUse">
<stop stop-color="#403239"/>
<stop offset="1" stop-color="#806371"/>
</linearGradient>
<linearGradient id="paint12_linear_4117_88212" x1="12.5" y1="40" x2="12.6216" y2="48.5687" gradientUnits="userSpaceOnUse">
<stop stop-color="#87BA70"/>
<stop offset="1" stop-color="#87BA70" stop-opacity="0"/>
</linearGradient>
<linearGradient id="paint13_linear_4117_88212" x1="35.5" y1="40" x2="35.4072" y2="48.5687" gradientUnits="userSpaceOnUse">
<stop stop-color="#86C985"/>
<stop offset="1" stop-color="#86C985" stop-opacity="0"/>
</linearGradient>
<linearGradient id="paint14_linear_4117_88212" x1="25.5" y1="10" x2="40" y2="37" gradientUnits="userSpaceOnUse">
<stop stop-color="#5C4B53"/>
<stop offset="1" stop-color="#7A646F"/>
</linearGradient>
<linearGradient id="paint15_linear_4117_88212" x1="18.5" y1="9.5" x2="7.5" y2="42.5" gradientUnits="userSpaceOnUse">
<stop offset="0.00373261" stop-color="#4A3B43"/>
<stop offset="1" stop-color="#826875"/>
</linearGradient>
</defs>
</svg>
