<svg width="48" height="48" viewBox="0 0 48 48" fill="none" xmlns="http://www.w3.org/2000/svg">
<circle cx="24" cy="24" r="24" fill="url(#paint0_radial_4117_88138)"/>
<mask id="mask0_4117_88138" style="mask-type:alpha" maskUnits="userSpaceOnUse" x="0" y="0" width="48" height="48">
<circle cx="24" cy="24" r="24" fill="#C4C4C4"/>
</mask>
<g mask="url(#mask0_4117_88138)">
<path d="M36.3527 39.8994L32.1985 38.6211C31.4117 38.3791 30.8749 37.6522 30.8749 36.8291V33.8388C30.8749 33.4937 30.5951 33.2139 30.25 33.2139H17.75C17.4048 33.2139 17.125 33.4937 17.125 33.8388V36.829C17.125 37.6522 16.5881 38.3791 15.8014 38.6211L11.6472 39.8994C10.0737 40.3836 9 41.8373 9 43.4835V46.3388C9 47.3744 9.83949 48.2139 10.875 48.2139H37.125C38.1605 48.2139 39 47.3744 39 46.3388V43.4835C38.9999 41.8373 37.9262 40.3835 36.3527 39.8994Z" fill="url(#paint1_linear_4117_88138)"/>
<path d="M15.8633 38.5964C16.8337 41.2551 20.1038 43.2139 23.9999 43.2139C27.896 43.2139 31.1662 41.2551 32.1365 38.5964C31.3849 38.3355 30.8749 37.6296 30.8749 36.8291V33.8388C30.8749 33.4937 30.5951 33.2139 30.25 33.2139H17.75C17.4048 33.2139 17.125 33.4937 17.125 33.8388V36.829C17.1249 37.6296 16.615 38.3354 15.8633 38.5964Z" fill="url(#paint2_linear_4117_88138)"/>
<path d="M30.2499 33.2139H17.7499C17.5682 33.2139 17.4081 33.2941 17.2939 33.4179C18.7589 35.5566 21.2175 36.9639 24 36.9639C26.7825 36.9639 29.2411 35.5566 30.7061 33.4179C30.5917 33.2941 30.4316 33.2139 30.2499 33.2139Z" fill="url(#paint3_linear_4117_88138)"/>
<path d="M32.4374 22.5889H32.1249V16.3389H15.875V22.5888H15.5624C14.7031 22.5888 13.9999 23.2919 13.9999 24.1513C13.9999 25.0107 14.7031 25.7138 15.5624 25.7138H15.9065C16.2266 29.9081 19.7236 33.2138 23.9999 33.2138C28.2761 33.2138 31.7731 29.9081 32.0932 25.7138H32.4373C33.2967 25.7138 33.9998 25.0107 33.9998 24.1513C33.9998 23.2919 33.2968 22.5889 32.4374 22.5889Z" fill="url(#paint4_linear_4117_88138)"/>
<path d="M20.2499 24.5183C19.9044 24.5183 19.6249 24.2384 19.6249 23.8933V23.2683C19.6249 22.9231 19.9044 22.6433 20.2499 22.6433C20.5954 22.6433 20.8749 22.9232 20.8749 23.2683V23.8933C20.875 24.2384 20.5954 24.5183 20.2499 24.5183Z" fill="url(#paint5_radial_4117_88138)"/>
<path d="M27.75 24.5183C27.4045 24.5183 27.125 24.2384 27.125 23.8933V23.2683C27.125 22.9231 27.4045 22.6433 27.75 22.6433C28.0954 22.6433 28.3749 22.9232 28.3749 23.2683V23.8933C28.3749 24.2384 28.0954 24.5183 27.75 24.5183Z" fill="url(#paint6_radial_4117_88138)"/>
<path d="M20.8749 21.9638H19.625C19.2795 21.9638 19 21.684 19 21.3388C19 20.9937 19.2795 20.7139 19.625 20.7139H20.8749C21.2204 20.7139 21.4999 20.9937 21.4999 21.3388C21.4999 21.684 21.2204 21.9638 20.8749 21.9638Z" fill="url(#paint7_linear_4117_88138)"/>
<path d="M28.3749 21.9638H27.125C26.7795 21.9638 26.5 21.684 26.5 21.3388C26.5 20.9937 26.7795 20.7139 27.125 20.7139H28.3749C28.7204 20.7139 28.9999 20.9937 28.9999 21.3388C28.9999 21.684 28.7203 21.9638 28.3749 21.9638Z" fill="url(#paint8_linear_4117_88138)"/>
<path d="M28.9999 16.9639V16.3389H15.875V22.5888H15.6173C14.9057 22.5888 14.2411 23.0398 14.0568 23.727C13.7779 24.7665 14.565 25.7138 15.5625 25.7138H15.9066C16.2267 29.9081 19.7237 33.2138 23.9999 33.2138C24.4275 33.2138 24.8443 33.1722 25.2539 33.1085C21.3597 32.5075 18.375 29.1513 18.375 25.0888V21.3388C18.375 19.6129 19.7741 18.2138 21.4999 18.2138H27.7499C28.4403 18.2139 28.9999 17.6543 28.9999 16.9639Z" fill="url(#paint9_linear_4117_88138)"/>
<path d="M19.6249 10.8474C16.5532 11.4832 14.3422 14.3641 14.6854 17.6184L15.2135 22.6259L15.8582 22.6132C16.5389 22.5999 17.0836 22.0442 17.0836 21.3635V18.8392C17.0836 17.8036 17.9231 16.9642 18.9587 16.9642H25.875L19.6249 10.8474Z" fill="url(#paint10_linear_4117_88138)"/>
<path d="M28.9999 26.3389H18.9999C17.9644 26.3389 17.1249 27.1784 17.1249 28.2139V28.8389C17.1249 32.6358 20.203 35.7139 23.9999 35.7139C27.7969 35.7139 30.8749 32.6358 30.8749 28.8389V28.2139C30.8749 27.1784 30.0355 26.3389 28.9999 26.3389Z" fill="url(#paint11_linear_4117_88138)"/>
<path d="M23.9999 30.0888C23.0624 30.0888 22.1969 29.7879 21.686 29.2838C21.4401 29.0415 21.4376 28.6457 21.68 28.4C21.9222 28.1541 22.319 28.1516 22.5637 28.394C22.7719 28.5993 23.2729 28.8389 23.9999 28.8389C24.7269 28.8389 25.228 28.5993 25.4361 28.394C25.6808 28.1517 26.0776 28.1541 26.3199 28.4C26.5621 28.6457 26.5597 29.0415 26.3138 29.2838C25.8029 29.7879 24.9374 30.0888 23.9999 30.0888Z" fill="#E3AA75"/>
<path d="M20.2499 28.8389V28.2139C20.2499 27.1784 21.0894 26.3389 22.1249 26.3389H18.9999C17.9644 26.3389 17.1249 27.1784 17.1249 28.2139V28.8389C17.1249 32.6358 20.203 35.7139 23.9999 35.7139C24.5383 35.7139 25.0597 35.6457 25.5624 35.5287C22.5195 34.8203 20.2499 32.0974 20.2499 28.8389Z" fill="url(#paint12_linear_4117_88138)"/>
<path d="M32.745 22.6258L33.2732 17.6183C33.6623 13.9283 30.7693 10.714 27.0588 10.714H20.875C19.2722 10.714 17.4413 10.4857 16.3577 9.83381C16.1285 9.69593 15.8326 9.87321 15.8337 10.1407C15.8408 11.9853 16.709 16.9639 25.875 16.9639H28.9999C30.0355 16.9639 30.875 17.8034 30.875 18.839V21.3633C30.875 22.044 31.4197 22.5997 32.1004 22.613L32.745 22.6258Z" fill="url(#paint13_linear_4117_88138)"/>
</g>
<defs>
<radialGradient id="paint0_radial_4117_88138" cx="0" cy="0" r="1" gradientUnits="userSpaceOnUse" gradientTransform="translate(9 5) rotate(52.7652) scale(47.101)">
<stop offset="0.0625" stop-color="#A4F6FD"/>
<stop offset="1" stop-color="#7FFDC0"/>
</radialGradient>
<linearGradient id="paint1_linear_4117_88138" x1="15.5" y1="39.5" x2="37" y2="46" gradientUnits="userSpaceOnUse">
<stop stop-color="#FF7E47"/>
<stop offset="1" stop-color="#FFB473"/>
</linearGradient>
<linearGradient id="paint2_linear_4117_88138" x1="19.3892" y1="37.4046" x2="31.3914" y2="40.357" gradientUnits="userSpaceOnUse">
<stop stop-color="#FF8D5C"/>
<stop offset="1" stop-color="#FFBC82"/>
</linearGradient>
<linearGradient id="paint3_linear_4117_88138" x1="24.5" y1="35.5" x2="23.8898" y2="37.2923" gradientUnits="userSpaceOnUse">
<stop stop-color="#FF7E47"/>
<stop offset="1" stop-color="#FFB473"/>
</linearGradient>
<linearGradient id="paint4_linear_4117_88138" x1="18.4993" y1="19.5885" x2="29.9996" y2="31.5888" gradientUnits="userSpaceOnUse">
<stop stop-color="#F3B68A"/>
<stop offset="1" stop-color="#FED5B8"/>
</linearGradient>
<radialGradient id="paint5_radial_4117_88138" cx="0" cy="0" r="1" gradientUnits="userSpaceOnUse" gradientTransform="translate(20.001 23.204) rotate(71.565) scale(1.58099 1.054)">
<stop stop-color="#040404"/>
<stop offset="1" stop-color="#767676"/>
</radialGradient>
<radialGradient id="paint6_radial_4117_88138" cx="0" cy="0" r="1" gradientUnits="userSpaceOnUse" gradientTransform="translate(27.501 23.204) rotate(71.565) scale(1.58099 1.054)">
<stop stop-color="#040404"/>
<stop offset="1" stop-color="#767676"/>
</radialGradient>
<linearGradient id="paint7_linear_4117_88138" x1="20" y1="21" x2="20.25" y2="21.9638" gradientUnits="userSpaceOnUse">
<stop stop-color="#4D3F46"/>
<stop offset="1" stop-color="#6E5A64" stop-opacity="0.63"/>
</linearGradient>
<linearGradient id="paint8_linear_4117_88138" x1="27.5" y1="21" x2="27.75" y2="21.9638" gradientUnits="userSpaceOnUse">
<stop stop-color="#4D3F46"/>
<stop offset="1" stop-color="#6E5A64" stop-opacity="0.63"/>
</linearGradient>
<linearGradient id="paint9_linear_4117_88138" x1="16.2432" y1="16.5884" x2="22.599" y2="32.7824" gradientUnits="userSpaceOnUse">
<stop stop-color="#EBA873"/>
<stop offset="1" stop-color="#EBA773" stop-opacity="0"/>
</linearGradient>
<linearGradient id="paint10_linear_4117_88138" x1="18" y1="13.5" x2="17.9578" y2="23.0109" gradientUnits="userSpaceOnUse">
<stop stop-color="#473A41"/>
<stop offset="1" stop-color="#6E5A64"/>
</linearGradient>
<linearGradient id="paint11_linear_4117_88138" x1="24" y1="26.5" x2="30.0383" y2="31.5747" gradientUnits="userSpaceOnUse">
<stop stop-color="#473A41"/>
<stop offset="1" stop-color="#6E5A64"/>
</linearGradient>
<linearGradient id="paint12_linear_4117_88138" x1="18" y1="27" x2="21.5" y2="35.5" gradientUnits="userSpaceOnUse">
<stop stop-color="#6E5A64"/>
<stop offset="1" stop-color="#6E5A64" stop-opacity="0"/>
</linearGradient>
<linearGradient id="paint13_linear_4117_88138" x1="33.5" y1="17.5" x2="15.5" y2="10" gradientUnits="userSpaceOnUse">
<stop stop-color="#473A41"/>
<stop offset="1" stop-color="#6E5A64"/>
</linearGradient>
</defs>
</svg>
