<svg width="48" height="48" viewBox="0 0 48 48" fill="none" xmlns="http://www.w3.org/2000/svg">
<circle cx="24" cy="24" r="24" fill="url(#paint0_radial_4741_8352)"/>
<mask id="mask0_4741_8352" style="mask-type:alpha" maskUnits="userSpaceOnUse" x="0" y="0" width="48" height="48">
<circle cx="24" cy="24" r="24" fill="#C4C4C4"/>
</mask>
<g mask="url(#mask0_4741_8352)">
<path d="M30.5368 35.0577L23.9995 40.5628L17.4623 35.0577C14.0777 32.2076 12.1241 28.0084 12.1241 23.5837V21.8121C12.1241 15.2536 17.4409 9.93677 23.9995 9.93677C30.5581 9.93677 35.8749 15.2536 35.8749 21.8121V23.5837C35.8749 28.0085 33.9213 32.2076 30.5368 35.0577Z" fill="url(#paint1_linear_4741_8352)"/>
<path d="M36.3082 38.5209L29.7208 36.5835C28.9228 36.3488 28.3748 35.6164 28.3748 34.7846V31.8125H19.6244V34.7846C19.6244 35.6165 19.0764 36.3489 18.2784 36.5835L11.691 38.5209C10.095 38.9904 8.99902 40.4551 8.99902 42.1187V46.813C8.99902 47.8485 9.83854 48.688 10.8741 48.688H37.125C38.1605 48.688 39 47.8485 39 46.813V42.1187C39.0001 40.4551 37.9041 38.9904 36.3082 38.5209Z" fill="url(#paint2_linear_4741_8352)"/>
<path d="M36.3082 38.5211L29.7208 36.5837C29.6095 36.5509 29.5043 36.5064 29.4035 36.4553L23.9994 40.5629L18.5959 36.4553C18.4951 36.5064 18.39 36.5509 18.2786 36.5837L11.691 38.5211C10.095 38.9906 8.99902 40.4553 8.99902 42.1188V46.8131C8.99902 47.8487 9.83854 48.6882 10.8741 48.6882H37.125C38.1605 48.6882 39 47.8487 39 46.8131V42.1188C39.0001 40.4553 37.9041 38.9906 36.3082 38.5211Z" fill="url(#paint3_linear_4741_8352)"/>
<path d="M19.6244 33.2073C20.9375 33.9087 22.4266 34.3126 23.9995 34.3126C25.5725 34.3126 27.0616 33.9087 28.3747 33.2073V31.8125H19.6244V33.2073Z" fill="url(#paint4_linear_4741_8352)"/>
<path d="M32.4373 22.4373H32.1248V15.562H15.8743V22.4373H15.5618C14.6988 22.4373 13.9993 23.1368 13.9993 23.9998C13.9993 24.8628 14.6988 25.5623 15.5618 25.5623H15.9059C16.226 29.7567 19.7231 33.0626 23.9996 33.0626C28.276 33.0626 31.7731 29.7567 32.0932 25.5623H32.4373C33.3003 25.5623 33.9998 24.8627 33.9998 23.9998C34 23.1368 33.3003 22.4373 32.4373 22.4373Z" fill="url(#paint5_linear_4741_8352)"/>
<path d="M32.1249 15.562H15.8743V22.4373H15.651C14.8336 22.4373 14.0888 23.0254 14.0074 23.8386C13.9137 24.7739 14.6456 25.5624 15.5618 25.5624H15.9059C16.226 29.7568 19.7231 33.0626 23.9996 33.0626C24.4271 33.0626 24.844 33.021 25.2535 32.9573C21.3592 32.3563 18.3744 29 18.3744 24.9374V20.4471C18.3744 19.6324 19.1374 19.0426 19.9285 19.2375C20.9421 19.4873 22.0028 19.6967 23.0921 19.8401C23.1671 19.85 23.2411 19.8546 23.3138 19.8546C23.8733 19.8546 24.3956 19.576 24.711 19.1093C24.947 18.76 25.042 18.3417 24.9875 17.9343C26.878 18.4259 29.7212 19.5025 32.1247 21.7374V15.562H32.1249Z" fill="url(#paint6_linear_4741_8352)"/>
<path d="M20.2494 24.3665C19.9039 24.3665 19.6244 24.0867 19.6244 23.7415V23.1165C19.6244 22.7713 19.9039 22.4915 20.2494 22.4915C20.5949 22.4915 20.8744 22.7713 20.8744 23.1165V23.7415C20.8744 24.0867 20.5949 24.3665 20.2494 24.3665Z" fill="url(#paint7_radial_4741_8352)"/>
<path d="M27.7497 24.3665C27.4042 24.3665 27.1246 24.0867 27.1246 23.7415V23.1165C27.1246 22.7713 27.4042 22.4915 27.7497 22.4915C28.0951 22.4915 28.3747 22.7713 28.3747 23.1165V23.7415C28.3747 24.0867 28.0951 24.3665 27.7497 24.3665Z" fill="url(#paint8_radial_4741_8352)"/>
<path d="M20.8745 21.8123H19.6244C19.2789 21.8123 18.9994 21.5324 18.9994 21.1873C18.9994 20.8421 19.2789 20.5623 19.6244 20.5623H20.8745C21.2199 20.5623 21.4995 20.8421 21.4995 21.1873C21.4995 21.5324 21.2199 21.8123 20.8745 21.8123Z" fill="url(#paint9_linear_4741_8352)"/>
<path d="M28.3747 21.8123H27.1247C26.7792 21.8123 26.4996 21.5324 26.4996 21.1873C26.4996 20.8421 26.7792 20.5623 27.1247 20.5623H28.3747C28.7202 20.5623 28.9997 20.8421 28.9997 21.1873C28.9997 21.5324 28.7202 21.8123 28.3747 21.8123Z" fill="url(#paint10_linear_4741_8352)"/>
<path d="M23.9996 28.6874C23.0621 28.6874 22.1966 28.3865 21.6857 27.8824C21.4397 27.64 21.4373 27.2442 21.6796 26.9985C21.9219 26.7529 22.3187 26.7501 22.5634 26.9925C22.7715 27.1979 23.2726 27.4375 23.9996 27.4375C24.7266 27.4375 25.2277 27.1979 25.4359 26.9925C25.6807 26.7501 26.0774 26.7529 26.3197 26.9985C26.562 27.2442 26.5596 27.64 26.3136 27.8824C25.8026 28.3866 24.9371 28.6874 23.9996 28.6874Z" fill="#B67F5F"/>
<path d="M14.6242 22.7314L16.0203 22.5671C16.6499 22.493 17.1243 21.9595 17.1243 21.3256V15.562H14.6242V22.7314Z" fill="url(#paint11_linear_4741_8352)"/>
<path d="M33.3748 22.7314L31.9788 22.5671C31.3492 22.493 30.8748 21.9595 30.8748 21.3256V15.562H33.3748V22.7314Z" fill="url(#paint12_linear_4741_8352)"/>
<path d="M34.2631 15.8578C32.2066 12.321 28.3855 9.93677 23.9995 9.93677C19.7139 9.93677 15.9699 12.2146 13.8817 15.6179V15.8011C15.8958 16.7157 19.4173 18.0953 23.2553 18.6007C23.5896 18.6447 23.8459 18.3052 23.7201 17.9923L23.3224 17.0034C23.1923 16.6798 23.4669 16.3411 23.8106 16.4003C25.5651 16.7024 29.9552 17.7674 33.3749 21.1871L34.2631 15.8578Z" fill="url(#paint13_linear_4741_8352)"/>
<path d="M23.9995 9.93677C19.7139 9.93677 15.9699 12.2146 13.8817 15.6179V15.8011C14.3541 16.0156 14.9159 16.2567 15.5389 16.5051C17.3104 13.6913 20.436 11.8118 23.9995 11.8118C28.6632 11.8118 32.58 15.0253 33.6808 19.3512L34.2631 15.8578C32.2066 12.321 28.3855 9.93677 23.9995 9.93677Z" fill="url(#paint14_linear_4741_8352)"/>
<path d="M23.9995 9.31177C17.1066 9.31177 11.4991 14.9196 11.4991 21.8122V23.5838C11.4991 28.2034 13.5261 32.5597 17.0596 35.5362L23.3745 40.8541V48.6881H24.6246V40.854L30.9395 35.5361V35.5358C34.4729 32.5597 36.5 28.2034 36.5 23.5838V21.8122C36.5 14.9196 30.8926 9.31177 23.9995 9.31177ZM35.2499 23.5838C35.2499 27.8338 33.3853 31.8415 30.1338 34.5796L23.9995 39.7458L17.8653 34.5799C14.6138 31.8415 12.7491 27.8338 12.7491 23.5838V21.8122C12.7491 15.6087 17.7963 10.5618 23.9995 10.5618C30.2028 10.5618 35.2499 15.6087 35.2499 21.8122V23.5838Z" fill="url(#paint15_linear_4741_8352)"/>
<path d="M23.9996 40.5627C23.312 40.5627 22.7495 41.1252 22.7495 41.8128V43.0628C22.7495 43.7504 23.312 44.3129 23.9996 44.3129C24.6871 44.3129 25.2496 43.7504 25.2496 43.0628V41.8128C25.2496 41.1252 24.6871 40.5627 23.9996 40.5627Z" fill="url(#paint16_linear_4741_8352)"/>
<path d="M14.2 43.1L10.1073 39.4619C9.80806 39.7597 9.56504 40.1078 9.38062 40.4883L13.3699 44.0345C13.7697 44.39 13.9993 44.9006 13.9993 45.4359V48.6883H15.2493V45.4359C15.2492 44.5438 14.8672 43.6923 14.2 43.1Z" fill="url(#paint17_linear_4741_8352)"/>
<path d="M33.7991 43.1L37.8918 39.4619C38.191 39.7597 38.4341 40.1078 38.6185 40.4883L34.6293 44.0345C34.2295 44.39 33.9999 44.9006 33.9999 45.4359V48.6883H32.7499V45.4359C32.75 44.5438 33.1319 43.6923 33.7991 43.1Z" fill="url(#paint18_linear_4741_8352)"/>
</g>
<defs>
<radialGradient id="paint0_radial_4741_8352" cx="0" cy="0" r="1" gradientUnits="userSpaceOnUse" gradientTransform="translate(7.5 5) rotate(50.4206) scale(48.6544)">
<stop offset="0.552731" stop-color="#E3D7D2"/>
<stop offset="1" stop-color="#D3AE9E"/>
</radialGradient>
<linearGradient id="paint1_linear_4741_8352" x1="23.9995" y1="9.93677" x2="23.9995" y2="40.5628" gradientUnits="userSpaceOnUse">
<stop stop-color="#78A8EB"/>
<stop offset="1" stop-color="#99BBEB"/>
</linearGradient>
<linearGradient id="paint2_linear_4741_8352" x1="20" y1="34.5" x2="24.5469" y2="40.3928" gradientUnits="userSpaceOnUse">
<stop stop-color="#E6AC82"/>
<stop offset="1" stop-color="#F2CBAF"/>
</linearGradient>
<linearGradient id="paint3_linear_4741_8352" x1="23.9995" y1="36.4553" x2="23.9995" y2="48.6882" gradientUnits="userSpaceOnUse">
<stop stop-color="#78A8EB"/>
<stop offset="1" stop-color="#99BBEB"/>
</linearGradient>
<linearGradient id="paint4_linear_4741_8352" x1="19.9988" y1="33.0626" x2="23.6015" y2="37.793" gradientUnits="userSpaceOnUse">
<stop stop-color="#E6A470"/>
<stop offset="1" stop-color="#E6A370" stop-opacity="0"/>
</linearGradient>
<linearGradient id="paint5_linear_4741_8352" x1="18.4988" y1="18.9321" x2="30.4229" y2="30.5666" gradientUnits="userSpaceOnUse">
<stop stop-color="#F3B68A"/>
<stop offset="1" stop-color="#FED5B8"/>
</linearGradient>
<linearGradient id="paint6_linear_4741_8352" x1="16.7099" y1="15.8208" x2="22.5732" y2="33.2273" gradientUnits="userSpaceOnUse">
<stop stop-color="#EBA873"/>
<stop offset="1" stop-color="#EBA773" stop-opacity="0"/>
</linearGradient>
<radialGradient id="paint7_radial_4741_8352" cx="0" cy="0" r="1" gradientUnits="userSpaceOnUse" gradientTransform="translate(20.0005 23.0522) rotate(71.565) scale(1.5811 1.05407)">
<stop stop-color="#040404"/>
<stop offset="1" stop-color="#767676"/>
</radialGradient>
<radialGradient id="paint8_radial_4741_8352" cx="0" cy="0" r="1" gradientUnits="userSpaceOnUse" gradientTransform="translate(27.5007 23.0522) rotate(71.565) scale(1.5811 1.05407)">
<stop stop-color="#040404"/>
<stop offset="1" stop-color="#767676"/>
</radialGradient>
<linearGradient id="paint9_linear_4741_8352" x1="19.5" y1="20.5" x2="20.2494" y2="21.8123" gradientUnits="userSpaceOnUse">
<stop stop-color="#6E5A64"/>
<stop offset="1" stop-color="#6E5A64" stop-opacity="0.86"/>
</linearGradient>
<linearGradient id="paint10_linear_4741_8352" x1="27.0002" y1="20.5" x2="27.7497" y2="21.8123" gradientUnits="userSpaceOnUse">
<stop stop-color="#6E5A64"/>
<stop offset="1" stop-color="#6E5A64" stop-opacity="0.86"/>
</linearGradient>
<linearGradient id="paint11_linear_4741_8352" x1="15.5" y1="16.5" x2="15.3576" y2="22.971" gradientUnits="userSpaceOnUse">
<stop stop-color="#473A41"/>
<stop offset="1" stop-color="#6E5A64"/>
</linearGradient>
<linearGradient id="paint12_linear_4741_8352" x1="31.7505" y1="16.5" x2="31.6081" y2="22.971" gradientUnits="userSpaceOnUse">
<stop stop-color="#473A41"/>
<stop offset="1" stop-color="#6E5A64"/>
</linearGradient>
<linearGradient id="paint13_linear_4741_8352" x1="17.5" y1="13.5" x2="31.6643" y2="22.4162" gradientUnits="userSpaceOnUse">
<stop stop-color="#473A41"/>
<stop offset="1" stop-color="#6E5A64"/>
</linearGradient>
<linearGradient id="paint14_linear_4741_8352" x1="24" y1="11" x2="28" y2="18.5" gradientUnits="userSpaceOnUse">
<stop stop-color="#64505A"/>
<stop offset="1" stop-color="#64505A" stop-opacity="0"/>
</linearGradient>
<linearGradient id="paint15_linear_4741_8352" x1="23.9995" y1="9.31177" x2="23.9995" y2="48.6881" gradientUnits="userSpaceOnUse">
<stop stop-color="#A5CDFF"/>
<stop offset="0.600905" stop-color="#BDDAFF"/>
</linearGradient>
<linearGradient id="paint16_linear_4741_8352" x1="23.9996" y1="40.5627" x2="23.9996" y2="44.3129" gradientUnits="userSpaceOnUse">
<stop stop-color="#473A41"/>
<stop offset="1" stop-color="#6E5A64"/>
</linearGradient>
<linearGradient id="paint17_linear_4741_8352" x1="12.315" y1="39.4619" x2="12.315" y2="48.6883" gradientUnits="userSpaceOnUse">
<stop offset="0.21875" stop-color="#A5CDFF"/>
<stop offset="1" stop-color="#D9EAFF"/>
</linearGradient>
<linearGradient id="paint18_linear_4741_8352" x1="35.6842" y1="39.4619" x2="35.6842" y2="48.6883" gradientUnits="userSpaceOnUse">
<stop offset="0.21875" stop-color="#A5CDFF"/>
<stop offset="1" stop-color="#D9EAFF"/>
</linearGradient>
</defs>
</svg>
