<svg width="48" height="48" viewBox="0 0 48 48" fill="none" xmlns="http://www.w3.org/2000/svg">
<circle cx="24" cy="24" r="24" fill="url(#paint0_radial_4743_566)"/>
<mask id="mask0_4743_566" style="mask-type:alpha" maskUnits="userSpaceOnUse" x="0" y="0" width="48" height="48">
<circle cx="24" cy="24" r="24" fill="#C4C4C4"/>
</mask>
<g mask="url(#mask0_4743_566)">
<path d="M23.9996 10.1299C19.6292 10.1299 16.0863 11.4925 16.0863 13.1734V16.217H31.9129V13.1734C31.9129 11.4925 28.37 10.1299 23.9996 10.1299Z" fill="url(#paint1_linear_4743_566)"/>
<path d="M23.9995 29.6091C31.0594 29.6091 36.7826 26.066 36.7826 21.6954C36.7826 17.3248 31.0594 13.7817 23.9995 13.7817C16.9397 13.7817 11.2165 17.3248 11.2165 21.6954C11.2165 26.066 16.9397 29.6091 23.9995 29.6091Z" fill="url(#paint2_linear_4743_566)"/>
<path d="M35.2307 36.1198C34.8703 35.1619 34.3477 33.4291 34.3477 31.4349C34.3477 28.6957 34.3477 21.6955 34.3477 21.6955C34.3477 18.6699 29.7147 16.217 23.9996 16.217C18.2844 16.217 13.6514 18.6698 13.6514 21.6955C13.6514 21.6955 13.6514 28.6957 13.6514 31.4349C13.6514 33.4292 13.1288 35.162 12.7684 36.1198C12.5755 36.6327 12.7413 37.2049 13.1805 37.5327C13.888 38.0606 15.1055 38.8453 16.8627 39.5586C21.425 41.4106 26.5743 41.4106 31.1365 39.5586C32.8937 38.8453 34.1112 38.0606 34.8187 37.5327C35.2579 37.2049 35.4237 36.6326 35.2307 36.1198Z" fill="url(#paint3_linear_4743_566)"/>
<path d="M35.5633 40.9231L29.2763 38.7041C28.3028 38.3606 27.6518 37.4404 27.6518 36.4081V32.6523H20.3472V36.4081C20.3472 37.4404 19.6962 38.3606 18.7228 38.7041L12.4358 40.9231C10.9756 41.4385 9.99915 42.8186 9.99915 44.3671V46.044C9.99915 47.0526 10.8168 47.8702 11.8253 47.8702H36.1739C37.1824 47.8702 38 47.0526 38 46.044V44.3671C38 42.8186 37.0235 41.4385 35.5633 40.9231Z" fill="url(#paint4_linear_4743_566)"/>
<path d="M20.3473 34.9171C21.3377 35.3581 22.4179 35.6318 23.5598 35.6855C23.7071 35.6924 23.8538 35.6959 23.9996 35.6959C25.2983 35.6959 26.5323 35.4191 27.6519 34.9282V32.6523H20.3473V34.9171Z" fill="url(#paint5_linear_4743_566)"/>
<path d="M29.4781 21.6955H28.5127C28.3513 21.6955 28.1964 21.6314 28.0823 21.5172L25.8405 19.2754C25.6105 19.0454 25.2171 19.2083 25.2171 19.5337V21.0868C25.2171 21.423 24.9446 21.6955 24.6084 21.6955H18.5212C17.1765 21.6955 16.0864 22.7856 16.0864 24.1304V26.3417C16.0864 30.6027 19.3609 34.2691 23.6171 34.4695C28.1614 34.6835 31.913 31.0625 31.913 26.5653V24.1304C31.9129 22.7856 30.8228 21.6955 29.4781 21.6955Z" fill="url(#paint6_linear_4743_566)"/>
<path d="M29.4781 21.6955H28.5128C28.3514 21.6955 28.1965 21.6314 28.0823 21.5172L25.8406 19.2754C25.6105 19.0454 25.217 19.2083 25.217 19.5337V21.0869C25.217 21.4231 24.9445 21.6956 24.6083 21.6956H18.5211C17.1764 21.6956 16.0863 22.7857 16.0863 24.1304V26.3214C16.0863 29.895 18.3584 33.1633 21.7893 34.1631C22.9802 34.5101 24.1338 34.5502 25.2184 34.3824C21.3759 33.7773 18.5212 30.3198 18.5212 26.3418V25.3479C18.5212 24.0032 19.6113 22.9131 20.9561 22.9131H28.2607C28.933 22.9129 29.4781 22.3679 29.4781 21.6955Z" fill="url(#paint7_linear_4743_566)"/>
<path d="M20.3473 26.5651C20.0108 26.5651 19.7386 26.2926 19.7386 25.9564V25.3477C19.7386 25.0116 20.0109 24.739 20.3473 24.739C20.6837 24.739 20.956 25.0116 20.956 25.3477V25.9564C20.956 26.2926 20.6837 26.5651 20.3473 26.5651Z" fill="url(#paint8_radial_4743_566)"/>
<path d="M27.6519 26.5651C27.3154 26.5651 27.0432 26.2926 27.0432 25.9564V25.3477C27.0432 25.0116 27.3154 24.739 27.6519 24.739C27.9884 24.739 28.2606 25.0116 28.2606 25.3477V25.9564C28.2606 26.2926 27.9884 26.5651 27.6519 26.5651Z" fill="url(#paint9_radial_4743_566)"/>
<path d="M23.9996 30.826C23.0865 30.826 22.2436 30.533 21.746 30.042C21.5065 29.8059 21.5041 29.4205 21.74 29.1812C21.976 28.942 22.3625 28.9393 22.6008 29.1753C22.8035 29.3753 23.2915 29.6086 23.9995 29.6086C24.7075 29.6086 25.1956 29.3753 25.3983 29.1753C25.6367 28.9392 26.0231 28.942 26.259 29.1812C26.495 29.4205 26.4926 29.806 26.253 30.042C25.7556 30.533 24.9127 30.826 23.9996 30.826Z" fill="#E3AA75"/>
<path d="M19.7379 24.2065C19.458 24.2065 19.2059 24.0124 19.1441 23.728C19.0722 23.3995 19.2802 23.075 19.6083 23.003L20.8258 22.7367C21.1533 22.6654 21.4791 22.8726 21.5504 23.2012C21.6224 23.5297 21.4143 23.8543 21.0862 23.9262L19.8688 24.1925C19.8248 24.202 19.7813 24.2065 19.7379 24.2065Z" fill="url(#paint10_linear_4743_566)"/>
<path d="M28.2612 24.2065C28.2178 24.2065 28.1745 24.202 28.1305 24.1925L26.913 23.9261C26.5849 23.8542 26.3769 23.5296 26.4488 23.2012C26.5201 22.8724 26.8453 22.6647 27.1735 22.7366L28.3909 23.003C28.719 23.0749 28.9271 23.3995 28.8551 23.7279C28.7932 24.0124 28.5412 24.2065 28.2612 24.2065Z" fill="url(#paint11_linear_4743_566)"/>
<path d="M35.5633 40.9232L32.0519 39.6838C30.9011 43.0285 27.7348 45.4354 23.9995 45.4354C20.2643 45.4354 17.098 43.0284 15.9472 39.6838L12.4358 40.9232C10.9756 41.4385 9.99915 42.8187 9.99915 44.3672V46.0441C9.99915 47.0526 10.8168 47.8702 11.8253 47.8702H36.1739C37.1824 47.8702 38 47.0526 38 46.0441V44.3672C38 42.8187 37.0235 41.4385 35.5633 40.9232Z" fill="url(#paint12_linear_4743_566)"/>
<path d="M14.8002 40.0887C16.1181 43.9063 19.7341 46.6528 23.9996 46.6528C28.2651 46.6528 31.8811 43.9063 33.199 40.0887L32.052 39.6838C30.9011 43.0285 27.7349 45.4354 23.9996 45.4354C20.2643 45.4354 17.0981 43.0284 15.9472 39.6838L14.8002 40.0887Z" fill="url(#paint13_linear_4743_566)"/>
<path d="M23.9996 17.6612C29.7147 17.6612 34.3477 20.1139 34.3477 23.1397C34.3477 22.2643 34.3477 21.6955 34.3477 21.6955C34.3477 18.6699 29.7147 16.217 23.9996 16.217C18.2844 16.217 13.6514 18.6698 13.6514 21.6955C13.6514 21.6955 13.6514 22.2643 13.6514 23.1397C13.6514 20.114 18.2844 17.6612 23.9996 17.6612Z" fill="url(#paint14_linear_4743_566)"/>
</g>
<defs>
<radialGradient id="paint0_radial_4743_566" cx="0" cy="0" r="1" gradientUnits="userSpaceOnUse" gradientTransform="translate(5.5 8.5) rotate(45.8551) scale(47.3814)">
<stop offset="0.408481" stop-color="#D9FAAF"/>
<stop offset="1" stop-color="#90F0A0"/>
</radialGradient>
<linearGradient id="paint1_linear_4743_566" x1="17" y1="11.5" x2="32.5" y2="16" gradientUnits="userSpaceOnUse">
<stop stop-color="#FFD54A"/>
<stop offset="1" stop-color="#FFE17D"/>
</linearGradient>
<linearGradient id="paint2_linear_4743_566" x1="11.5" y1="19.5" x2="37" y2="24" gradientUnits="userSpaceOnUse">
<stop stop-color="#FFC230"/>
<stop offset="1" stop-color="#FFD164"/>
</linearGradient>
<linearGradient id="paint3_linear_4743_566" x1="17" y1="17.5" x2="32" y2="41" gradientUnits="userSpaceOnUse">
<stop stop-color="#B06438"/>
<stop offset="1" stop-color="#B67F5F"/>
</linearGradient>
<linearGradient id="paint4_linear_4743_566" x1="11.6156" y1="34.4735" x2="21.3954" y2="53.3327" gradientUnits="userSpaceOnUse">
<stop stop-color="#F5D89A"/>
<stop offset="1" stop-color="#FFE3A6"/>
</linearGradient>
<linearGradient id="paint5_linear_4743_566" x1="20.5" y1="34" x2="23.2147" y2="38.2423" gradientUnits="userSpaceOnUse">
<stop stop-color="#EDBF6D"/>
<stop offset="1" stop-color="#F2CC88" stop-opacity="0"/>
</linearGradient>
<linearGradient id="paint6_linear_4743_566" x1="17" y1="21" x2="29" y2="34" gradientUnits="userSpaceOnUse">
<stop stop-color="#F5D89A"/>
<stop offset="1" stop-color="#FFE3A6"/>
</linearGradient>
<linearGradient id="paint7_linear_4743_566" x1="16" y1="21.5" x2="23.5" y2="35" gradientUnits="userSpaceOnUse">
<stop stop-color="#EDBF6D"/>
<stop offset="1" stop-color="#F2CC88" stop-opacity="0"/>
</linearGradient>
<radialGradient id="paint8_radial_4743_566" cx="0" cy="0" r="1" gradientUnits="userSpaceOnUse" gradientTransform="translate(20.1049 25.2852) rotate(71.565) scale(1.53983 1.02656)">
<stop stop-color="#040404"/>
<stop offset="1" stop-color="#767676"/>
</radialGradient>
<radialGradient id="paint9_radial_4743_566" cx="0" cy="0" r="1" gradientUnits="userSpaceOnUse" gradientTransform="translate(27.4094 25.2852) rotate(71.5651) scale(1.53983 1.02655)">
<stop stop-color="#040404"/>
<stop offset="1" stop-color="#767676"/>
</radialGradient>
<linearGradient id="paint10_linear_4743_566" x1="19.5" y1="23" x2="20.3473" y2="24.2065" gradientUnits="userSpaceOnUse">
<stop stop-color="#99694D"/>
<stop offset="1" stop-color="#A06E50" stop-opacity="0.59"/>
</linearGradient>
<linearGradient id="paint11_linear_4743_566" x1="26.8047" y1="22.9998" x2="27.6521" y2="24.2064" gradientUnits="userSpaceOnUse">
<stop stop-color="#99694D"/>
<stop offset="1" stop-color="#A06E50" stop-opacity="0.59"/>
</linearGradient>
<linearGradient id="paint12_linear_4743_566" x1="14.5" y1="40.5" x2="35.5" y2="45.5" gradientUnits="userSpaceOnUse">
<stop stop-color="#BCB9BD"/>
<stop offset="1" stop-color="#D5D2D6"/>
</linearGradient>
<linearGradient id="paint13_linear_4743_566" x1="15.5" y1="40.5" x2="33.5" y2="44" gradientUnits="userSpaceOnUse">
<stop stop-color="#AAA5AB"/>
<stop offset="1" stop-color="#C8C3C9"/>
</linearGradient>
<linearGradient id="paint14_linear_4743_566" x1="16" y1="17.5" x2="32.5" y2="20.5" gradientUnits="userSpaceOnUse">
<stop stop-color="#A05A30"/>
<stop offset="1" stop-color="#A05A30" stop-opacity="0"/>
</linearGradient>
</defs>
</svg>
