<svg width="40" height="40" viewBox="0 0 40 40" fill="none" xmlns="http://www.w3.org/2000/svg">
<circle cx="20" cy="20" r="20" fill="url(#paint0_radial_4117_88123)"/>
<mask id="mask0_4117_88123" style="mask-type:alpha" maskUnits="userSpaceOnUse" x="0" y="0" width="40" height="40">
<circle cx="20" cy="20" r="20" fill="#C4C4C4"/>
</mask>
<g mask="url(#mask0_4117_88123)">
<path d="M30.2566 32.058L24.767 30.4435C24.102 30.2479 23.6453 29.6375 23.6453 28.9443V26.4675H16.3532V28.9443C16.3532 29.6375 15.8965 30.2478 15.2316 30.4435L9.74196 32.058C8.41196 32.4492 7.49857 33.6699 7.49857 35.0562V38.9682C7.49857 39.8312 8.19817 40.5308 9.06117 40.5308H30.9374C31.8004 40.5308 32.5 39.8312 32.5 38.9682V35.0562C32.5 33.6699 31.5867 32.4492 30.2566 32.058Z" fill="#E3AA75"/>
<path d="M30.2566 32.0582L24.767 30.4437C24.6742 30.4163 24.5866 30.3792 24.5026 30.3367L19.999 31.1555L15.496 30.3367C15.412 30.3792 15.3244 30.4163 15.2316 30.4437L9.74196 32.0582C8.4119 32.4494 7.49857 33.6701 7.49857 35.0564V38.9684C7.49857 39.8314 8.19817 40.531 9.06117 40.531H30.9374C31.8004 40.531 32.5 39.8314 32.5 38.9684V35.0564C32.5 33.6701 31.5867 32.4494 30.2566 32.0582Z" fill="url(#paint1_linear_4117_88123)"/>
<path d="M13.8389 31.6372L16.4197 33.8494C16.7971 34.1729 17.2784 34.351 17.775 34.351C18.4117 34.351 19.005 34.066 19.4025 33.5691L19.9993 32.8231L20.5961 33.569C20.9936 34.066 21.5868 34.351 22.2236 34.351C22.7202 34.351 23.2015 34.1728 23.5789 33.8494L26.1597 31.6372C26.369 31.4578 26.5131 31.2288 26.5939 30.981L24.767 30.4437C24.6742 30.4163 24.5866 30.3792 24.5026 30.3367L19.999 31.1555L15.496 30.3367C15.412 30.3792 15.3244 30.4163 15.2316 30.4437L13.4047 30.981C13.4855 31.2289 13.6296 31.4579 13.8389 31.6372Z" fill="url(#paint2_linear_4117_88123)"/>
<path d="M16.3532 27.6299C17.4475 28.2144 18.6885 28.551 19.9993 28.551C21.3101 28.551 22.5511 28.2144 23.6454 27.6299V26.4675H16.3532V27.6299Z" fill="#D29B6E"/>
<path d="M27.0309 18.6543H26.7705V12.9248H13.2281V18.6543H12.9677C12.2485 18.6543 11.6655 19.2373 11.6655 19.9564C11.6655 20.6756 12.2485 21.2586 12.9677 21.2586H13.2544C13.5212 24.754 16.4355 27.5089 19.9993 27.5089C23.5631 27.5089 26.4774 24.754 26.7442 21.2586H27.0309C27.7501 21.2586 28.3331 20.6756 28.3331 19.9564C28.3331 19.2373 27.7501 18.6543 27.0309 18.6543Z" fill="url(#paint3_linear_4117_88123)"/>
<path d="M24.6871 13.9665V12.9248H13.2281V18.6543H13.042C12.3608 18.6543 11.7402 19.1443 11.6723 19.822C11.5942 20.6015 12.2042 21.2585 12.9677 21.2585H13.2545C13.5213 24.7539 16.4356 27.5089 19.9994 27.5089C20.3557 27.5089 20.7031 27.4742 21.0443 27.421C17.799 26.9202 15.3116 24.1232 15.3116 20.7376V17.0915C15.3116 15.9409 16.2443 15.0081 17.395 15.0081H23.6454C24.2207 15.0083 24.6871 14.5419 24.6871 13.9665Z" fill="url(#paint4_linear_4117_88123)"/>
<path d="M19.9993 31.1546L15.7871 28.8145C15.5278 28.6704 15.2009 28.7716 15.0682 29.0368L14.4153 30.3427C14.3298 30.5138 14.3716 30.721 14.5168 30.8454L17.0976 33.0576C17.545 33.441 18.221 33.3775 18.589 32.9174L19.9993 31.1546Z" fill="url(#paint5_linear_4117_88123)"/>
<path d="M19.9993 31.1546L24.2115 28.8145C24.4708 28.6704 24.7977 28.7716 24.9304 29.0368L25.5833 30.3427C25.6688 30.5138 25.627 30.721 25.4818 30.8454L22.901 33.0576C22.4536 33.441 21.7776 33.3775 21.4096 32.9174L19.9993 31.1546Z" fill="url(#paint6_linear_4117_88123)"/>
<path d="M16.8741 20.2616C16.5862 20.2616 16.3532 20.0283 16.3532 19.7407V19.2198C16.3532 18.9322 16.5862 18.699 16.8741 18.699C17.162 18.699 17.395 18.9322 17.395 19.2198V19.7407C17.395 20.0284 17.1621 20.2616 16.8741 20.2616Z" fill="url(#paint7_radial_4117_88123)"/>
<path d="M23.1245 20.2616C22.8366 20.2616 22.6036 20.0283 22.6036 19.7407V19.2198C22.6036 18.9322 22.8366 18.699 23.1245 18.699C23.4124 18.699 23.6454 18.9322 23.6454 19.2198V19.7407C23.6454 20.0284 23.4124 20.2616 23.1245 20.2616Z" fill="url(#paint8_radial_4117_88123)"/>
<path d="M17.395 18.1335H16.3532C16.0654 18.1335 15.8324 17.9003 15.8324 17.6127C15.8324 17.325 16.0654 17.0918 16.3532 17.0918H17.395C17.6829 17.0918 17.9158 17.325 17.9158 17.6127C17.9158 17.9003 17.6829 18.1335 17.395 18.1335Z" fill="url(#paint9_linear_4117_88123)"/>
<path d="M23.6454 18.1335H22.6036C22.3158 18.1335 22.0828 17.9003 22.0828 17.6127C22.0828 17.325 22.3158 17.0918 22.6036 17.0918H23.6454C23.9333 17.0918 24.1662 17.325 24.1662 17.6127C24.1662 17.9003 23.9333 18.1335 23.6454 18.1335Z" fill="url(#paint10_linear_4117_88123)"/>
<path d="M17.9401 22.0837C17.7761 22.0837 17.6542 22.2336 17.6815 22.3953C17.8507 23.3982 18.824 24.1672 19.9993 24.1672C21.1747 24.1672 22.148 23.3982 22.3172 22.3953C22.3444 22.2336 22.2226 22.0837 22.0586 22.0837H17.9401Z" fill="white"/>
<path d="M19.9993 35.8425C20.287 35.8425 20.5202 35.6093 20.5202 35.3216C20.5202 35.034 20.287 34.8008 19.9993 34.8008C19.7117 34.8008 19.4785 35.034 19.4785 35.3216C19.4785 35.6093 19.7117 35.8425 19.9993 35.8425Z" fill="url(#paint11_radial_4117_88123)"/>
<path d="M19.9993 38.9678C20.287 38.9678 20.5202 38.7346 20.5202 38.4469C20.5202 38.1592 20.287 37.926 19.9993 37.926C19.7116 37.926 19.4784 38.1592 19.4784 38.4469C19.4784 38.7346 19.7116 38.9678 19.9993 38.9678Z" fill="url(#paint12_radial_4117_88123)"/>
<path d="M25.8352 11.8826H14.1634C12.5731 11.8826 11.3541 13.2955 11.5872 14.8687L12.1864 18.9111L13.3558 18.7667C13.8778 18.7022 14.2698 18.2588 14.2698 17.7328V15.0077C14.2698 14.4323 14.7363 13.966 15.3116 13.966H24.6871C25.2624 13.966 25.7288 14.4323 25.7288 15.0077V17.7327C25.7288 18.2587 26.1209 18.7022 26.6428 18.7666L27.8123 18.9111L28.4114 14.8686C28.6445 13.2955 27.4255 11.8826 25.8352 11.8826Z" fill="url(#paint13_linear_4117_88123)"/>
<path d="M27.015 8.36713C26.9149 8.05694 26.5547 7.90636 26.27 8.06514C25.7274 8.36795 24.7187 8.75831 23.1244 8.75831H17.9158C15.9021 8.75831 14.2697 10.3907 14.2697 12.4044C14.2697 13.2674 14.9693 13.967 15.8323 13.967H24.1661C26.1235 13.967 28.0808 11.6685 27.015 8.36713Z" fill="url(#paint14_linear_4117_88123)"/>
<path d="M12.1864 35.843V40.5308H10.6238V37.4056C10.6238 36.5426 11.3234 35.843 12.1864 35.843Z" fill="url(#paint15_linear_4117_88123)"/>
<path d="M27.8122 35.843V40.5308H29.3748V37.4056C29.3748 36.5426 28.6752 35.843 27.8122 35.843Z" fill="url(#paint16_linear_4117_88123)"/>
<path d="M12.1864 40.5308H14.2698V30.7263L12.1864 31.3391V40.5308Z" fill="url(#paint17_linear_4117_88123)"/>
<path d="M27.8122 40.5308H25.7288V30.7263L27.8122 31.3391V40.5308Z" fill="url(#paint18_linear_4117_88123)"/>
<path d="M12.1864 40.5308H13.2281V36.8847C13.2281 36.3094 12.7617 35.843 12.1864 35.843V40.5308Z" fill="#FFD164"/>
<path d="M27.8122 40.5308H26.7705V36.8847C26.7705 36.3094 27.2369 35.843 27.8122 35.843V40.5308Z" fill="#FFD164"/>
<path d="M17.3704 10.5738C17.3783 11.3123 18.0324 11.8833 18.7709 11.8833H25.8352C26.21 11.8833 26.5629 11.9641 26.8823 12.1047C27.3568 11.1416 27.4968 9.85782 27.0144 8.36486C26.9147 8.0562 26.5547 7.90594 26.2715 8.06414C25.7292 8.36708 24.7201 8.75814 23.1244 8.75814H17.9158C17.8832 8.77727 17.8464 8.79887 17.8139 8.818C17.5322 9.33511 17.3702 9.92669 17.3702 10.557C17.3703 10.5626 17.3703 10.5681 17.3704 10.5738Z" fill="url(#paint19_linear_4117_88123)"/>
</g>
<defs>
<radialGradient id="paint0_radial_4117_88123" cx="0" cy="0" r="1" gradientUnits="userSpaceOnUse" gradientTransform="translate(7.91667 4.58333) rotate(51.8091) scale(39.7606)">
<stop offset="0.492268" stop-color="#B8A4FC"/>
<stop offset="1" stop-color="#B859E4"/>
</radialGradient>
<linearGradient id="paint1_linear_4117_88123" x1="19.9993" y1="30.3367" x2="19.9993" y2="40.531" gradientUnits="userSpaceOnUse">
<stop stop-color="#FF414F"/>
<stop offset="1" stop-color="#FF7456"/>
</linearGradient>
<linearGradient id="paint2_linear_4117_88123" x1="19.9993" y1="30.3367" x2="19.9993" y2="34.351" gradientUnits="userSpaceOnUse">
<stop stop-color="#B33639"/>
<stop offset="1" stop-color="#E64549"/>
</linearGradient>
<linearGradient id="paint3_linear_4117_88123" x1="12.5" y1="14.5835" x2="25.8333" y2="24.5835" gradientUnits="userSpaceOnUse">
<stop stop-color="#EDB379"/>
<stop offset="1" stop-color="#FFC182"/>
</linearGradient>
<linearGradient id="paint4_linear_4117_88123" x1="12.0833" y1="15.0002" x2="20" y2="18.7502" gradientUnits="userSpaceOnUse">
<stop stop-color="#C58646"/>
<stop offset="1" stop-color="#C68748" stop-opacity="0.06"/>
</linearGradient>
<linearGradient id="paint5_linear_4117_88123" x1="17.1853" y1="28.7488" x2="17.1853" y2="33.3084" gradientUnits="userSpaceOnUse">
<stop stop-color="#FF414F"/>
<stop offset="1" stop-color="#FF7456"/>
</linearGradient>
<linearGradient id="paint6_linear_4117_88123" x1="22.8133" y1="28.7488" x2="22.8133" y2="33.3084" gradientUnits="userSpaceOnUse">
<stop stop-color="#FF414F"/>
<stop offset="1" stop-color="#FF7456"/>
</linearGradient>
<radialGradient id="paint7_radial_4117_88123" cx="0" cy="0" r="1" gradientUnits="userSpaceOnUse" gradientTransform="translate(16.6667 19.1663) rotate(71.5651) scale(1.31762 0.87841)">
<stop stop-color="#040404"/>
<stop offset="1" stop-color="#767676"/>
</radialGradient>
<radialGradient id="paint8_radial_4117_88123" cx="0" cy="0" r="1" gradientUnits="userSpaceOnUse" gradientTransform="translate(22.9171 19.1663) rotate(71.5651) scale(1.31762 0.87841)">
<stop stop-color="#040404"/>
<stop offset="1" stop-color="#767676"/>
</radialGradient>
<linearGradient id="paint9_linear_4117_88123" x1="17.0833" y1="17.0837" x2="17.0833" y2="18.3337" gradientUnits="userSpaceOnUse">
<stop stop-color="#332A2E"/>
<stop offset="1" stop-color="#6E5A64"/>
</linearGradient>
<linearGradient id="paint10_linear_4117_88123" x1="23.3337" y1="17.0837" x2="23.3337" y2="18.3337" gradientUnits="userSpaceOnUse">
<stop stop-color="#332A2E"/>
<stop offset="1" stop-color="#6E5A64"/>
</linearGradient>
<radialGradient id="paint11_radial_4117_88123" cx="0" cy="0" r="1" gradientUnits="userSpaceOnUse" gradientTransform="translate(20 34.5833) rotate(90.0312) scale(1.25922)">
<stop stop-color="#FFC350"/>
<stop offset="1" stop-color="#FFD179" stop-opacity="0.97"/>
</radialGradient>
<radialGradient id="paint12_radial_4117_88123" cx="0" cy="0" r="1" gradientUnits="userSpaceOnUse" gradientTransform="translate(20 37.7085) rotate(90.0312) scale(1.25922 1.25922)">
<stop stop-color="#FFC350"/>
<stop offset="1" stop-color="#FFD179" stop-opacity="0.97"/>
</radialGradient>
<linearGradient id="paint13_linear_4117_88123" x1="19.9993" y1="11.8826" x2="19.9993" y2="18.9111" gradientUnits="userSpaceOnUse">
<stop stop-color="#362A30"/>
<stop offset="1" stop-color="#826574"/>
</linearGradient>
<linearGradient id="paint14_linear_4117_88123" x1="14.5833" y1="12.0839" x2="27.5" y2="9.1672" gradientUnits="userSpaceOnUse">
<stop stop-color="#64505A"/>
<stop offset="1" stop-color="#78606C"/>
</linearGradient>
<linearGradient id="paint15_linear_4117_88123" x1="11.4051" y1="35.843" x2="11.4051" y2="40.5308" gradientUnits="userSpaceOnUse">
<stop stop-color="#B33639"/>
<stop offset="1" stop-color="#E64549"/>
</linearGradient>
<linearGradient id="paint16_linear_4117_88123" x1="28.5935" y1="35.843" x2="28.5935" y2="40.5308" gradientUnits="userSpaceOnUse">
<stop stop-color="#B33639"/>
<stop offset="1" stop-color="#E64549"/>
</linearGradient>
<linearGradient id="paint17_linear_4117_88123" x1="13.2281" y1="30.7263" x2="13.2281" y2="40.5308" gradientUnits="userSpaceOnUse">
<stop stop-color="#FFCA62"/>
<stop offset="1" stop-color="#FFCA62" stop-opacity="0.38"/>
</linearGradient>
<linearGradient id="paint18_linear_4117_88123" x1="26.7705" y1="30.7263" x2="26.7705" y2="40.5308" gradientUnits="userSpaceOnUse">
<stop stop-color="#FFCA62"/>
<stop offset="1" stop-color="#FFCA62" stop-opacity="0.38"/>
</linearGradient>
<linearGradient id="paint19_linear_4117_88123" x1="17.5" y1="11.2504" x2="27.0833" y2="8.33374" gradientUnits="userSpaceOnUse">
<stop stop-color="#7A646F"/>
<stop offset="1" stop-color="#6E5A64"/>
</linearGradient>
</defs>
</svg>
