<svg width="40" height="40" viewBox="0 0 40 40" fill="none" xmlns="http://www.w3.org/2000/svg">
<circle cx="20" cy="20" r="20" fill="url(#paint0_radial_4761_290)"/>
<mask id="mask0_4761_290" style="mask-type:alpha" maskUnits="userSpaceOnUse" x="0" y="0" width="40" height="40">
<circle cx="20" cy="20" r="20" fill="#C4C4C4"/>
</mask>
<g mask="url(#mask0_4761_290)">
<path d="M19.9999 8.62329C15.2375 8.62329 11.3768 12.484 11.3768 17.2465V21.1354C11.3768 27.9409 15.6028 31.4199 15.6028 31.4199H28.6231V17.2465C28.6231 12.484 24.7624 8.62329 19.9999 8.62329Z" fill="#FFD164"/>
<path d="M11.3768 17.2465V21.1354C11.3768 27.9409 15.6028 31.4199 15.6028 31.4199H19.9999V8.62329C15.2375 8.62329 11.3768 12.484 11.3768 17.2465Z" fill="url(#paint1_linear_4761_290)"/>
<path d="M29.6363 33.2688L24.3973 31.4197C23.5861 31.1334 23.0436 30.3666 23.0436 29.5064V26.3767H16.9565V29.5064C16.9565 30.3666 16.4141 31.1334 15.6029 31.4197L10.3639 33.2688C9.14712 33.6982 8.33344 34.8484 8.33344 36.1387V38.5506C8.33344 39.3911 9.01475 40.0724 9.85516 40.0724H30.145C30.9854 40.0724 31.6668 39.3911 31.6668 38.5506V36.1387C31.6668 34.8484 30.8531 33.6982 29.6363 33.2688Z" fill="url(#paint2_linear_4761_290)"/>
<path d="M29.6362 33.2692L25.2765 31.7305C24.5263 33.9263 22.4501 35.5076 20.0001 35.5076C17.5502 35.5076 15.474 33.9263 14.7238 31.7305L10.364 33.2692C9.14718 33.6986 8.3335 34.8488 8.3335 36.1391V38.5511C8.3335 39.3915 9.01481 40.0728 9.85522 40.0728H30.1451C30.9855 40.0728 31.6668 39.3915 31.6668 38.5511V36.1391C31.6668 34.8488 30.8531 33.6986 29.6362 33.2692Z" fill="url(#paint3_linear_4761_290)"/>
<path d="M19.9999 37.5365C23.3335 37.5365 26.1593 35.3893 27.1879 32.4052L25.2763 31.7305C24.5261 33.9263 22.4499 35.5076 19.9999 35.5076C17.5499 35.5076 15.4738 33.9263 14.7235 31.7305L12.8119 32.4052C13.8405 35.3893 16.6663 37.5365 19.9999 37.5365Z" fill="url(#paint4_linear_4761_290)"/>
<path d="M12.0129 36.5437L9.14022 34.0815C8.90767 34.3345 8.72297 34.6264 8.58704 34.9433L11.353 37.3141C11.6904 37.6034 11.884 38.0244 11.884 38.4695V40.0724H12.8985V38.4695C12.8986 37.7279 12.5756 37.026 12.0129 36.5437Z" fill="url(#paint5_linear_4761_290)"/>
<path d="M16.9567 28.264C17.782 28.6315 18.6822 28.8595 19.6337 28.9043C19.7564 28.9101 19.8787 28.913 20.0002 28.913C21.0825 28.913 22.1107 28.6823 23.0437 28.2732V26.3767H16.9567V28.264Z" fill="url(#paint6_linear_4761_290)"/>
<path d="M26.7753 19.2759C26.1149 19.2759 25.5795 18.7406 25.5795 18.0801V17.2469C25.5795 15.8462 24.444 14.7107 23.0433 14.7107H16.9563C15.5556 14.7107 14.4201 15.8462 14.4201 17.2469V18.0801C14.4201 18.7406 13.8847 19.2759 13.2243 19.2759C12.561 19.2759 11.9565 19.7532 11.8904 20.4132C11.8144 21.1723 12.4085 21.8121 13.152 21.8121H13.4312C13.691 25.2162 16.5291 27.8991 19.9998 27.8991C23.4704 27.8991 26.3086 25.2162 26.5684 21.8121H26.8476C27.5912 21.8121 28.1852 21.1723 28.1091 20.4132C28.0431 19.7532 27.4386 19.2759 26.7753 19.2759Z" fill="url(#paint7_linear_4761_290)"/>
<path d="M16.9571 16.4497C17.4542 16.3787 17.9626 16.5167 18.3425 16.8449C20.8555 19.0153 24.1094 20.2904 27.6085 20.2904C27.7598 20.2904 27.9181 20.2864 28.0818 20.2801C27.9515 19.6865 27.3834 19.2693 26.7606 19.276C26.1056 19.283 25.5795 18.7352 25.5795 18.0801V17.2469C25.5795 15.8462 24.444 14.7107 23.0433 14.7107H16.9563C16.3834 14.7107 15.8592 14.9062 15.4346 15.2267V15.2294C14.8219 15.6924 14.4201 16.4199 14.4201 17.2469V18.132C14.4201 18.7898 13.8684 19.2694 13.2107 19.2759C12.5527 19.2824 11.9561 19.7576 11.8905 20.4131C11.8145 21.1722 12.4085 21.8121 13.152 21.8121H13.4312C13.6911 25.2162 16.5292 27.899 19.9998 27.899C20.3468 27.899 20.6851 27.8653 21.0175 27.8135C17.857 27.3258 15.4346 24.6019 15.4346 21.3048V18.2051C15.4346 17.3227 16.0835 16.5746 16.9571 16.4497Z" fill="url(#paint8_linear_4761_290)"/>
<path d="M16.9563 20.7966C16.6759 20.7966 16.4491 20.5695 16.4491 20.2894V19.7821C16.4491 19.502 16.676 19.2749 16.9563 19.2749C17.2367 19.2749 17.4636 19.502 17.4636 19.7821V20.2894C17.4636 20.5695 17.2367 20.7966 16.9563 20.7966Z" fill="url(#paint9_radial_4761_290)"/>
<path d="M23.0434 20.7966C22.763 20.7966 22.5361 20.5695 22.5361 20.2894V19.7821C22.5361 19.502 22.763 19.2749 23.0434 19.2749C23.3238 19.2749 23.5506 19.502 23.5506 19.7821V20.2894C23.5506 20.5695 23.3238 20.7966 23.0434 20.7966Z" fill="url(#paint10_radial_4761_290)"/>
<path d="M19.9999 24.3486C19.239 24.3486 18.5366 24.1044 18.122 23.6953C17.9223 23.4986 17.9204 23.1774 18.117 22.978C18.3137 22.7784 18.6357 22.7764 18.8343 22.973C19.0032 23.1397 19.4099 23.3342 19.9998 23.3342C20.5898 23.3342 20.9965 23.1397 21.1654 22.973C21.3641 22.7764 21.6861 22.7784 21.8827 22.978C22.0794 23.1774 22.0773 23.4987 21.8777 23.6953C21.4632 24.1044 20.7608 24.3486 19.9999 24.3486Z" fill="#E3AA75"/>
<path d="M27.987 36.5438L30.8597 34.0815C31.0922 34.3345 31.2769 34.6264 31.4129 34.9433L28.6469 37.3141C28.3095 37.6034 28.1159 38.0244 28.1159 38.4695V40.0725H27.1014V38.4695C27.1013 37.728 27.4243 37.026 27.987 36.5438Z" fill="url(#paint11_linear_4761_290)"/>
<path d="M15.942 18.7686C15.7295 18.7686 15.5319 18.6341 15.461 18.4216C15.3723 18.1558 15.516 17.8685 15.7815 17.7798L17.3033 17.2726C17.5713 17.1832 17.8561 17.3276 17.9448 17.5934C18.0335 17.8591 17.8898 18.1464 17.6243 18.2351L16.1025 18.7424C16.049 18.7602 15.9951 18.7686 15.942 18.7686Z" fill="url(#paint12_linear_4761_290)"/>
<path d="M19.9999 8.62329C18.1653 8.62329 16.4678 9.2005 15.07 10.1771C16.7917 15.458 21.753 19.2754 27.6086 19.2754C27.9503 19.2754 28.2878 19.2583 28.623 19.2327V17.2464C28.623 12.484 24.7623 8.62329 19.9999 8.62329Z" fill="url(#paint13_radial_4761_290)"/>
<path d="M23.0432 27.8982V29.9272C23.0432 34.4062 26.5939 36.0141 26.5939 40.0721H28.6229V27.8982H23.0432Z" fill="#FFD164"/>
</g>
<defs>
<radialGradient id="paint0_radial_4761_290" cx="0" cy="0" r="1" gradientUnits="userSpaceOnUse" gradientTransform="translate(5.41666 5.41667) rotate(49.1446) scale(40.7652)">
<stop offset="0.572917" stop-color="#FFCC73"/>
<stop offset="1" stop-color="#FF93A0"/>
</radialGradient>
<linearGradient id="paint1_linear_4761_290" x1="15.6884" y1="8.62329" x2="15.6884" y2="31.4199" gradientUnits="userSpaceOnUse">
<stop stop-color="#FFA436"/>
<stop offset="1" stop-color="#FFC773"/>
</linearGradient>
<linearGradient id="paint2_linear_4761_290" x1="17.0835" y1="29.5833" x2="24.133" y2="39.819" gradientUnits="userSpaceOnUse">
<stop stop-color="#F5D48E"/>
<stop offset="1" stop-color="#FFE7B3"/>
</linearGradient>
<linearGradient id="paint3_linear_4761_290" x1="12.0835" y1="32.917" x2="29.1668" y2="38.7503" gradientUnits="userSpaceOnUse">
<stop stop-color="#75D8FF"/>
<stop offset="1" stop-color="#ADEBFF"/>
</linearGradient>
<linearGradient id="paint4_linear_4761_290" x1="13.7499" y1="32.0837" x2="27.9166" y2="34.167" gradientUnits="userSpaceOnUse">
<stop stop-color="#EDEBED"/>
<stop offset="1" stop-color="#FCFAFC"/>
</linearGradient>
<linearGradient id="paint5_linear_4761_290" x1="10.7428" y1="34.0815" x2="10.7428" y2="40.0724" gradientUnits="userSpaceOnUse">
<stop stop-color="#8CACEB"/>
<stop offset="1" stop-color="#8CACEB" stop-opacity="0"/>
</linearGradient>
<linearGradient id="paint6_linear_4761_290" x1="17.0835" y1="27.9166" x2="21.2798" y2="30.7542" gradientUnits="userSpaceOnUse">
<stop stop-color="#EBC178"/>
<stop offset="1" stop-color="#F7D291" stop-opacity="0.14"/>
</linearGradient>
<linearGradient id="paint7_linear_4761_290" x1="15.4165" y1="15.0006" x2="26.2499" y2="27.0839" gradientUnits="userSpaceOnUse">
<stop stop-color="#F7D78F"/>
<stop offset="1" stop-color="#FFE7B3"/>
</linearGradient>
<linearGradient id="paint8_linear_4761_290" x1="14.9999" y1="14.5839" x2="22.0832" y2="28.7506" gradientUnits="userSpaceOnUse">
<stop stop-color="#F7CB7E"/>
<stop offset="1" stop-color="#F7D291" stop-opacity="0.14"/>
</linearGradient>
<radialGradient id="paint9_radial_4761_290" cx="0" cy="0" r="1" gradientUnits="userSpaceOnUse" gradientTransform="translate(16.7543 19.73) rotate(71.565) scale(1.28315 0.855435)">
<stop stop-color="#040404"/>
<stop offset="1" stop-color="#767676"/>
</radialGradient>
<radialGradient id="paint10_radial_4761_290" cx="0" cy="0" r="1" gradientUnits="userSpaceOnUse" gradientTransform="translate(22.8414 19.73) rotate(71.5651) scale(1.28315 0.855435)">
<stop stop-color="#040404"/>
<stop offset="1" stop-color="#767676"/>
</radialGradient>
<linearGradient id="paint11_linear_4761_290" x1="29.2571" y1="34.0815" x2="29.2571" y2="40.0725" gradientUnits="userSpaceOnUse">
<stop stop-color="#8CACEB"/>
<stop offset="1" stop-color="#8CACEB" stop-opacity="0"/>
</linearGradient>
<linearGradient id="paint12_linear_4761_290" x1="15.8334" y1="17.5" x2="17.5001" y2="18.3333" gradientUnits="userSpaceOnUse">
<stop stop-color="#E3AA75"/>
<stop offset="1" stop-color="#FABB81"/>
</linearGradient>
<radialGradient id="paint13_radial_4761_290" cx="0" cy="0" r="1" gradientUnits="userSpaceOnUse" gradientTransform="translate(21.2499 8.75004) rotate(75.9638) scale(10.3078 13.1149)">
<stop stop-color="#FAD348"/>
<stop offset="1" stop-color="#FFE17D"/>
</radialGradient>
</defs>
</svg>
