<svg width="40" height="40" viewBox="0 0 40 40" fill="none" xmlns="http://www.w3.org/2000/svg">
<circle cx="20" cy="20" r="20" fill="url(#paint0_radial_4117_88022)"/>
<path d="M25.1586 23.845C25.2186 23.975 25.2486 24.105 25.2486 24.235C25.2486 24.465 25.1536 24.66 24.9636 24.82C24.7836 24.98 24.5736 25.06 24.3336 25.06C24.1736 25.06 24.0236 25.02 23.8836 24.94C23.7436 24.85 23.6336 24.715 23.5536 24.535L22.6536 22.525H17.3736L16.4736 24.535C16.3936 24.715 16.2836 24.85 16.1436 24.94C16.0036 25.02 15.8486 25.06 15.6786 25.06C15.4486 25.06 15.2386 24.98 15.0486 24.82C14.8586 24.66 14.7636 24.465 14.7636 24.235C14.7636 24.105 14.7936 23.975 14.8536 23.845L18.9936 14.95C19.0836 14.75 19.2186 14.6 19.3986 14.5C19.5886 14.39 19.7886 14.335 19.9986 14.335C20.2086 14.335 20.4036 14.39 20.5836 14.5C20.7736 14.6 20.9136 14.75 21.0036 14.95L25.1586 23.845ZM18.0336 21.025H21.9936L20.0136 16.57L18.0336 21.025Z" fill="white"/>
<defs>
<radialGradient id="paint0_radial_4117_88022" cx="0" cy="0" r="1" gradientUnits="userSpaceOnUse" gradientTransform="translate(5.41666 5.41667) rotate(49.1446) scale(40.7652)">
<stop offset="0.311886" stop-color="#FFC259"/>
<stop offset="1" stop-color="#FF6C7E"/>
</radialGradient>
</defs>
</svg>
