<svg width="40" height="40" viewBox="0 0 40 40" fill="none" xmlns="http://www.w3.org/2000/svg">
<circle cx="20" cy="20" r="20" fill="url(#paint0_radial_4117_88101)"/>
<mask id="mask0_4117_88101" style="mask-type:alpha" maskUnits="userSpaceOnUse" x="0" y="0" width="40" height="40">
<circle cx="20" cy="20" r="20" fill="#C4C4C4"/>
</mask>
<g mask="url(#mask0_4117_88101)">
<path d="M33.6336 29.6459C33.6774 26.6211 32.6691 26.0951 32.165 24.3197C31.6575 22.5323 32.1739 21.3118 31.5732 19.3332C31.0143 17.4921 29.9989 17.181 29.6883 14.5659C29.1622 10.1384 24.3839 7.85889 22.0167 7.85889C21.3473 7.85889 20.8903 8.02878 20.583 8.23198C20.2274 8.46729 19.773 8.46729 19.4174 8.23198C19.1101 8.02878 18.6531 7.85889 17.9837 7.85889C15.6165 7.85889 10.8383 10.1384 10.3122 14.5659C10.0015 17.181 8.98615 17.492 8.42724 19.3332C7.82661 21.3118 8.34297 22.5323 7.83546 24.3197C7.33134 26.0951 6.32308 26.6211 6.36691 29.6459C6.41774 33.1536 4.39422 33.9419 5.18328 36.2653C5.7722 37.9992 8.95328 39.4215 8.95328 39.4215H31.0472C31.0472 39.4215 34.2283 37.9991 34.8172 36.2653C35.6062 33.9419 33.5827 33.1536 33.6336 29.6459Z" fill="url(#paint1_linear_4117_88101)"/>
<path d="M20.0002 8.40843C19.7977 8.40843 19.5952 8.34964 19.4174 8.23198C19.1101 8.02878 18.6531 7.85889 17.9837 7.85889C15.6165 7.85889 10.8383 10.1384 10.3122 14.5659C10.0015 17.181 8.98615 17.492 8.42724 19.3332C7.82661 21.3118 8.34297 22.5323 7.83546 24.3197C7.33134 26.0951 6.32308 26.6211 6.36691 29.6459C6.41774 33.1536 4.39422 33.9419 5.18328 36.2653C5.7722 37.9992 8.95328 39.4215 8.95328 39.4215H20.0002V8.40843Z" fill="url(#paint2_linear_4117_88101)"/>
<path d="M29.9935 33.4183L24.5604 31.5007C23.7191 31.2038 23.1565 30.4086 23.1565 29.5165V26.7969H16.8439V29.5165C16.8439 30.4086 16.2813 31.2038 15.44 31.5007L10.0069 33.4183C8.745 33.8637 7.90116 35.0564 7.90116 36.3946V38.8959C7.90116 39.7675 8.60773 40.4741 9.47928 40.4741H30.5211C31.3927 40.4741 32.0992 39.7675 32.0992 38.8959V36.3946C32.0992 35.0564 31.2554 33.8637 29.9935 33.4183Z" fill="url(#paint3_linear_4117_88101)"/>
<path d="M29.9934 33.4185L26.3682 32.1389C24.9415 34.1109 22.9998 36.2856 20.7396 37.4906C20.2785 37.7364 19.7219 37.7364 19.2608 37.4906C17.0006 36.2856 15.0589 34.1109 13.6321 32.1389L10.0069 33.4185C8.74503 33.8639 7.90118 35.0566 7.90118 36.3948V38.8961C7.90118 39.7677 8.60775 40.4742 9.47931 40.4742H30.5211C31.3927 40.4742 32.0992 39.7677 32.0992 38.8961V36.3948C32.0992 35.0566 31.2553 33.8639 29.9934 33.4185Z" fill="url(#paint4_linear_4117_88101)"/>
<path d="M16.844 28.228C17.8152 28.6574 18.8825 28.9011 20.0002 28.9011C21.118 28.9011 22.1852 28.6575 23.1565 28.228V26.7969H16.8439L16.844 28.228Z" fill="url(#paint5_linear_4117_88101)"/>
<path d="M20.0002 27.8484C16.2233 27.8484 13.1616 24.7867 13.1616 21.0098V12.0671H26.8388V21.0099C26.8388 24.7867 23.777 27.8484 20.0002 27.8484Z" fill="url(#paint6_linear_4117_88101)"/>
<path d="M13.1616 12.0671V21.0099C13.1616 24.7867 16.2234 27.8485 20.0002 27.8485C20.359 27.8485 20.7084 27.8125 21.0523 27.7594C17.7763 27.2521 15.2658 24.4281 15.2658 21.0099V18.2742C15.2658 17.8417 15.3999 17.4238 15.629 17.0569C15.6302 17.055 15.6314 17.053 15.6326 17.0511C16.4963 15.665 17.3049 15.4612 18.241 15.2254C18.7786 15.0899 19.405 14.9321 20.0001 14.5355C20.5954 14.9321 21.2217 15.0899 21.7593 15.2254C22.6954 15.4613 23.5039 15.665 24.3677 17.051C25.1712 18.3403 26.0703 19.053 26.8387 19.6036V12.0671H13.1616Z" fill="url(#paint7_linear_4117_88101)"/>
<path d="M20.0002 24.6926C19.2106 24.6926 18.4826 24.4394 18.0527 24.0151C17.8456 23.8106 17.8436 23.4777 18.0475 23.2712C18.2525 23.0642 18.5854 23.0622 18.7913 23.2661C18.9665 23.4387 19.3878 23.6406 20.0001 23.6406C20.6125 23.6406 21.0337 23.4387 21.2089 23.2661C21.4149 23.0621 21.7478 23.0642 21.9527 23.2712C22.1567 23.4777 22.1546 23.8106 21.9476 24.0151C21.5177 24.4394 20.7898 24.6926 20.0002 24.6926Z" fill="#A06E50"/>
<path d="M16.8439 21.01C16.5531 21.01 16.3179 20.7747 16.3179 20.484V19.9579C16.3179 19.6671 16.5532 19.4319 16.8439 19.4319C17.1347 19.4319 17.37 19.6672 17.37 19.9579V20.484C17.37 20.7747 17.1347 21.01 16.8439 21.01Z" fill="url(#paint8_radial_4117_88101)"/>
<path d="M23.1565 21.01C22.8657 21.01 22.6304 20.7747 22.6304 20.484V19.9579C22.6304 19.6671 22.8657 19.4319 23.1565 19.4319C23.4473 19.4319 23.6825 19.6672 23.6825 19.9579V20.484C23.6825 20.7747 23.4473 21.01 23.1565 21.01Z" fill="url(#paint9_radial_4117_88101)"/>
<path d="M17.37 18.9066H16.3179C16.0271 18.9066 15.7919 18.6713 15.7919 18.3805C15.7919 18.0898 16.0272 17.8545 16.3179 17.8545H17.37C17.6608 17.8545 17.896 18.0898 17.896 18.3805C17.896 18.6713 17.6607 18.9066 17.37 18.9066Z" fill="url(#paint10_linear_4117_88101)"/>
<path d="M23.6825 18.9066H22.6304C22.3396 18.9066 22.1043 18.6713 22.1043 18.3805C22.1043 18.0898 22.3396 17.8545 22.6304 17.8545H23.6825C23.9733 17.8545 24.2085 18.0898 24.2085 18.3805C24.2085 18.6713 23.9733 18.9066 23.6825 18.9066Z" fill="url(#paint11_linear_4117_88101)"/>
<path d="M11.753 36.2829L9.06787 33.9514C8.79275 34.1756 8.56158 34.4443 8.37691 34.7442L11.0635 37.0771C11.4087 37.3772 11.607 37.8117 11.607 38.269V40.4733H12.6591V38.2689C12.6592 37.5066 12.3289 36.7828 11.753 36.2829Z" fill="url(#paint12_linear_4117_88101)"/>
<path d="M28.2711 36.2829L30.9562 33.9514C31.2313 34.1756 31.4625 34.4443 31.6471 34.7442L28.9605 37.0771C28.6153 37.3772 28.417 37.8117 28.417 38.269V40.4733H27.3649V38.2689C27.3649 37.5066 27.6951 36.7828 28.2711 36.2829Z" fill="url(#paint13_linear_4117_88101)"/>
<path d="M32.165 24.3197C31.6575 22.5323 32.1739 21.3118 31.5732 19.3332C31.0143 17.4921 29.9989 17.181 29.6883 14.5659C29.1622 10.1384 24.3839 7.85889 22.0167 7.85889C21.3473 7.85889 20.8903 8.02878 20.583 8.23198C20.4052 8.34964 20.2027 8.40843 20.0002 8.40843V13.1194C21.3591 14.829 23.3756 13.47 25.2607 16.4948C26.8629 19.0658 28.8747 19.0008 29.5824 21.0277C29.7853 21.6087 29.6753 22.2294 29.7238 22.8428C29.995 26.2704 32.6252 27.8486 33.8076 31.4255C33.6948 30.9147 33.6236 30.3338 33.6336 29.6459C33.6774 26.6211 32.6691 26.0951 32.165 24.3197Z" fill="url(#paint14_linear_4117_88101)"/>
<path d="M7.83538 24.3197C8.34289 22.5323 7.82653 21.3118 8.42716 19.3332C8.98607 17.4921 10.0015 17.181 10.3121 14.5659C10.8382 10.1384 15.6165 7.85889 17.9837 7.85889C18.653 7.85889 19.1101 8.02878 19.4174 8.23198C19.5952 8.34964 19.7977 8.40843 20.0002 8.40843V13.1194C18.6413 14.829 16.6247 13.47 14.7397 16.4948C13.1375 19.0658 11.1257 19.0008 10.4179 21.0277C10.2151 21.6087 10.3251 22.2294 10.2766 22.8428C10.0053 26.2704 7.37514 27.8486 6.19279 31.4255C6.30555 30.9147 6.37683 30.3338 6.36683 29.6459C6.323 26.6211 7.33125 26.0951 7.83538 24.3197Z" fill="url(#paint15_linear_4117_88101)"/>
</g>
<defs>
<radialGradient id="paint0_radial_4117_88101" cx="0" cy="0" r="1" gradientUnits="userSpaceOnUse" gradientTransform="translate(6.25 6.25) rotate(48.4682) scale(38.9622)">
<stop offset="0.449021" stop-color="#FEC0B2"/>
<stop offset="1" stop-color="#FF866B"/>
</radialGradient>
<linearGradient id="paint1_linear_4117_88101" x1="20.0002" y1="7.85889" x2="20.0002" y2="39.4215" gradientUnits="userSpaceOnUse">
<stop stop-color="#33282D"/>
<stop offset="1" stop-color="#6E5561"/>
</linearGradient>
<linearGradient id="paint2_linear_4117_88101" x1="12.5003" y1="7.85889" x2="12.5003" y2="39.4215" gradientUnits="userSpaceOnUse">
<stop stop-color="#1A1417"/>
<stop offset="1" stop-color="#5A4650"/>
</linearGradient>
<linearGradient id="paint3_linear_4117_88101" x1="15.2474" y1="31.5128" x2="21.3619" y2="39.3456" gradientUnits="userSpaceOnUse">
<stop stop-color="#D4A06C"/>
<stop offset="1" stop-color="#FABD80"/>
</linearGradient>
<linearGradient id="paint4_linear_4117_88101" x1="11.6666" y1="32.9167" x2="27.9166" y2="39.1667" gradientUnits="userSpaceOnUse">
<stop stop-color="#ACED8E"/>
<stop offset="1" stop-color="#A6FFAA"/>
</linearGradient>
<linearGradient id="paint5_linear_4117_88101" x1="17.0464" y1="27.0963" x2="18.6681" y2="30.4094" gradientUnits="userSpaceOnUse">
<stop stop-color="#C58646"/>
<stop offset="1" stop-color="#C68748" stop-opacity="0.06"/>
</linearGradient>
<linearGradient id="paint6_linear_4117_88101" x1="13.8464" y1="13.862" x2="26.7635" y2="21.2087" gradientUnits="userSpaceOnUse">
<stop stop-color="#EDB379"/>
<stop offset="1" stop-color="#FFC182"/>
</linearGradient>
<linearGradient id="paint7_linear_4117_88101" x1="13.6004" y1="14.3129" x2="22.0047" y2="18.1771" gradientUnits="userSpaceOnUse">
<stop stop-color="#C58646"/>
<stop offset="1" stop-color="#C68748" stop-opacity="0.06"/>
</linearGradient>
<radialGradient id="paint8_radial_4117_88101" cx="0" cy="0" r="1" gradientUnits="userSpaceOnUse" gradientTransform="translate(16.6344 19.9039) rotate(71.565) scale(1.33071 0.887138)">
<stop stop-color="#040404"/>
<stop offset="1" stop-color="#767676"/>
</radialGradient>
<radialGradient id="paint9_radial_4117_88101" cx="0" cy="0" r="1" gradientUnits="userSpaceOnUse" gradientTransform="translate(22.947 19.9039) rotate(71.5651) scale(1.33071 0.887138)">
<stop stop-color="#040404"/>
<stop offset="1" stop-color="#767676"/>
</radialGradient>
<linearGradient id="paint10_linear_4117_88101" x1="15.9291" y1="18.1251" x2="16.1429" y2="19.217" gradientUnits="userSpaceOnUse">
<stop stop-color="#403239"/>
<stop offset="1" stop-color="#806371"/>
</linearGradient>
<linearGradient id="paint11_linear_4117_88101" x1="22.2415" y1="18.1251" x2="22.4554" y2="19.217" gradientUnits="userSpaceOnUse">
<stop stop-color="#403239"/>
<stop offset="1" stop-color="#806371"/>
</linearGradient>
<linearGradient id="paint12_linear_4117_88101" x1="10.4167" y1="33.3327" x2="10.518" y2="40.4733" gradientUnits="userSpaceOnUse">
<stop stop-color="#87BA70"/>
<stop offset="1" stop-color="#87BA70" stop-opacity="0"/>
</linearGradient>
<linearGradient id="paint13_linear_4117_88101" x1="29.5833" y1="33.3327" x2="29.506" y2="40.4733" gradientUnits="userSpaceOnUse">
<stop stop-color="#86C985"/>
<stop offset="1" stop-color="#86C985" stop-opacity="0"/>
</linearGradient>
<linearGradient id="paint14_linear_4117_88101" x1="21.25" y1="8.33293" x2="33.3333" y2="30.8329" gradientUnits="userSpaceOnUse">
<stop stop-color="#5C4B53"/>
<stop offset="1" stop-color="#7A646F"/>
</linearGradient>
<linearGradient id="paint15_linear_4117_88101" x1="15.4166" y1="7.91626" x2="6.24998" y2="35.4163" gradientUnits="userSpaceOnUse">
<stop offset="0.00373261" stop-color="#4A3B43"/>
<stop offset="1" stop-color="#826875"/>
</linearGradient>
</defs>
</svg>
