<svg width="40" height="40" viewBox="0 0 40 40" fill="none" xmlns="http://www.w3.org/2000/svg">
<circle cx="20" cy="20" r="20" fill="url(#paint0_radial_4117_88066)"/>
<mask id="mask0_4117_88066" style="mask-type:alpha" maskUnits="userSpaceOnUse" x="0" y="0" width="40" height="40">
<circle cx="20" cy="20" r="20" fill="#C4C4C4"/>
</mask>
<g mask="url(#mask0_4117_88066)">
<path d="M12.4686 20.001H27.5323L28.1751 15.8223C28.806 11.721 25.6327 8.02222 21.4831 8.02222H18.5176C14.368 8.02222 11.1947 11.721 11.8257 15.8224L12.4686 20.001Z" fill="url(#paint1_linear_4117_88066)"/>
<path d="M30.2567 31.3186L24.7676 29.7041C24.1026 29.5085 23.646 28.8982 23.646 28.2051V25.7285H16.3546V28.2051C16.3546 28.8982 15.898 29.5085 15.2331 29.7041L9.74389 31.3186C8.41398 31.7097 7.5007 32.9303 7.5007 34.3165V38.749C7.5007 39.6119 8.20025 40.3114 9.06314 40.3114H30.9375C31.8004 40.3114 32.4999 39.6119 32.4999 38.749V34.3165C32.4999 32.9303 31.5867 31.7097 30.2567 31.3186Z" fill="url(#paint2_linear_4117_88066)"/>
<path d="M30.2567 31.3186L24.7676 29.7042C24.6747 29.6768 25.2925 29.9377 25.2084 29.8951L20 31.4576L14.792 29.8951C14.708 29.9377 15.3257 29.6768 15.2329 29.7042L9.74389 31.3186C8.41398 31.7098 7.5007 32.9303 7.5007 34.3166V38.749C7.5007 39.6119 8.20025 40.3115 9.06314 40.3115H30.9375C31.8004 40.3115 32.4999 39.6119 32.4999 38.749V34.3166C32.4999 32.9303 31.5867 31.7098 30.2567 31.3186Z" fill="url(#paint3_linear_4117_88066)"/>
<path d="M25.0299 30.759L24.4089 30.1379L20.0004 30.9376L15.592 30.1379L14.971 30.759C14.1896 31.5403 13.7506 32.6001 13.7506 33.7052V40.3124H26.2502V33.7052C26.2502 32.6001 25.8113 31.5403 25.0299 30.759Z" fill="url(#paint4_linear_4117_88066)"/>
<path d="M25.0299 30.759L24.4088 30.1379L20.0004 30.9376L15.592 30.1379L14.9709 30.759C14.7153 31.0146 14.5004 31.3023 14.3215 31.6094L16.2459 33.8087C16.5425 34.1478 16.9711 34.3423 17.4218 34.3423C17.8391 34.3423 18.2314 34.1798 18.5266 33.8846L20.0004 32.4108L21.4743 33.8847C21.7693 34.1798 22.1617 34.3423 22.579 34.3423C23.0297 34.3423 23.4583 34.1478 23.755 33.8087L25.6794 31.6094C25.5004 31.3024 25.2855 31.0146 25.0299 30.759Z" fill="url(#paint5_linear_4117_88066)"/>
<path d="M19.2482 33.5408L18.4381 40.3114H21.5629L20.7527 33.5408H19.2482Z" fill="url(#paint6_linear_4117_88066)"/>
<path d="M20.6665 34.0622H19.334C19.1098 34.0622 18.9108 33.9187 18.84 33.7061L17.917 30.9373H22.0836L21.1607 33.7061C21.0897 33.9188 20.8907 34.0622 20.6665 34.0622Z" fill="url(#paint7_linear_4117_88066)"/>
<path d="M16.3547 26.8907C17.4489 27.4752 18.6897 27.8118 20.0004 27.8118C21.3111 27.8118 22.5519 27.4752 23.6461 26.8907V25.7285H16.3547V26.8907Z" fill="url(#paint8_linear_4117_88066)"/>
<path d="M16.0068 28.7183L14.6344 30.3846L17.0297 33.122C17.2281 33.3488 17.5769 33.3604 17.7899 33.1473L20.0003 30.937L16.0068 28.7183Z" fill="url(#paint9_linear_4117_88066)"/>
<path d="M23.9941 28.7183L25.3664 30.3846L22.9711 33.122C22.7727 33.3488 22.424 33.3604 22.2109 33.1473L20.0005 30.937L23.9941 28.7183Z" fill="url(#paint10_linear_4117_88066)"/>
<path d="M11.1466 40.3115L10.229 36.7031C10.1518 36.3555 10.2575 35.9924 10.5093 35.7406L12.1882 34.0616L11.4158 32.903C11.234 32.6302 11.195 32.2877 11.2985 31.9766C12.5404 28.2446 16.3548 27.291 16.3548 27.291V28.2956C16.3548 28.9863 16.0804 29.6486 15.592 30.137L14.971 30.758C14.1896 31.5394 13.7506 32.5992 13.7506 33.7042V40.3115" fill="url(#paint11_linear_4117_88066)"/>
<path d="M28.8542 40.3115L29.7718 36.7031C29.849 36.3555 29.7433 35.9924 29.4915 35.7406L27.8126 34.0616L28.585 32.903C28.7669 32.6302 28.8058 32.2877 28.7023 31.9766C27.4605 28.2446 23.6461 27.291 23.6461 27.291V28.2956C23.6461 28.9863 23.9204 29.6486 24.4088 30.137L25.0299 30.758C25.8112 31.5394 26.2502 32.5992 26.2502 33.7042V40.3115" fill="url(#paint12_linear_4117_88066)"/>
<path d="M26.9857 17.9163H26.9632C26.33 17.9163 25.8596 17.3299 25.997 16.7118C26.3942 14.9245 25.0341 13.229 23.2032 13.229H16.7976C14.9666 13.229 13.6066 14.9245 14.0037 16.7118C14.1411 17.3299 13.6707 17.9163 13.0375 17.9163H13.015C12.422 17.9163 11.8682 18.2921 11.7146 18.8648C11.4823 19.731 12.1381 20.5204 12.9693 20.5204H13.2561C13.5228 24.0155 16.4369 26.7702 20.0004 26.7702C23.5639 26.7702 26.4779 24.0155 26.7447 20.5204H27.0314C27.8627 20.5204 28.5185 19.731 28.2862 18.8648C28.1325 18.2921 27.5787 17.9163 26.9857 17.9163Z" fill="url(#paint13_linear_4117_88066)"/>
<path d="M15.313 19.9996V16.8747C15.313 15.4365 16.4789 14.2706 17.9171 14.2706H22.0837C22.6589 14.2706 23.1252 13.8042 23.1251 13.229H16.7976C14.9652 13.229 13.6045 14.9271 14.0047 16.716C14.1426 17.3325 13.6692 17.9164 13.0375 17.9164H13.0151C12.4221 17.9164 11.8683 18.2921 11.7147 18.8649C11.4824 19.731 12.1381 20.5205 12.9694 20.5205H13.2561C13.5229 24.0157 16.4369 26.7703 20.0004 26.7703C20.3567 26.7703 20.7041 26.7356 21.0453 26.6825C17.8002 26.1817 15.313 23.3849 15.313 19.9996Z" fill="url(#paint14_linear_4117_88066)"/>
<path d="M21.4832 8.02222H18.5177C17.9487 8.02222 17.4006 8.09765 16.8756 8.22826V8.54303C16.8756 10.5565 18.5078 12.1887 20.5213 12.1887H27.735C26.7223 9.76717 24.3333 8.02222 21.4832 8.02222Z" fill="url(#paint15_linear_4117_88066)"/>
<path d="M16.8754 19.4787C16.5875 19.4787 16.3546 19.2457 16.3546 18.9579V18.4371C16.3546 18.1492 16.5876 17.9163 16.8754 17.9163C17.1633 17.9163 17.3962 18.1492 17.3962 18.4371V18.9579C17.3963 19.2458 17.1633 19.4787 16.8754 19.4787Z" fill="url(#paint16_radial_4117_88066)"/>
<path d="M23.1252 19.4787C22.8373 19.4787 22.6044 19.2457 22.6044 18.9579V18.4371C22.6044 18.1492 22.8373 17.9163 23.1252 17.9163C23.4131 17.9163 23.646 18.1492 23.646 18.4371V18.9579C23.646 19.2458 23.4131 19.4787 23.1252 19.4787Z" fill="url(#paint17_radial_4117_88066)"/>
<path d="M20.0003 23.1252C19.2186 23.1252 18.4978 22.8744 18.0721 22.4543C17.8672 22.2519 17.8651 21.9224 18.067 21.7179C18.27 21.5129 18.5996 21.5109 18.8035 21.7128C18.9769 21.8837 19.394 22.0836 20.0002 22.0836C20.6065 22.0836 21.0236 21.8837 21.197 21.7128C21.401 21.5109 21.7306 21.5129 21.9334 21.7179C22.1354 21.9224 22.1333 22.252 21.9283 22.4543C21.5028 22.8744 20.782 23.1252 20.0003 23.1252Z" fill="#A06E50"/>
<path d="M17.3964 17.3956H16.3547C16.0668 17.3956 15.8339 17.1627 15.8339 16.8748C15.8339 16.587 16.0669 16.354 16.3547 16.354H17.3964C17.6843 16.354 17.9172 16.587 17.9172 16.8748C17.9172 17.1627 17.6842 17.3956 17.3964 17.3956Z" fill="url(#paint18_linear_4117_88066)"/>
<path d="M23.646 17.3956H22.6044C22.3165 17.3956 22.0836 17.1627 22.0836 16.8748C22.0836 16.587 22.3165 16.354 22.6044 16.354H23.646C23.9339 16.354 24.1668 16.587 24.1668 16.8748C24.1668 17.1627 23.9339 17.3956 23.646 17.3956Z" fill="url(#paint19_linear_4117_88066)"/>
</g>
<defs>
<radialGradient id="paint0_radial_4117_88066" cx="0" cy="0" r="1" gradientUnits="userSpaceOnUse" gradientTransform="translate(6.25 5) rotate(50.5004) scale(39.9587)">
<stop stop-color="#F4D29F"/>
<stop offset="1" stop-color="#9FF4AD"/>
</radialGradient>
<linearGradient id="paint1_linear_4117_88066" x1="12.9167" y1="10.8341" x2="27.0833" y2="19.5841" gradientUnits="userSpaceOnUse">
<stop stop-color="#3B2E34"/>
<stop offset="1" stop-color="#5A4650"/>
</linearGradient>
<linearGradient id="paint2_linear_4117_88066" x1="16.6666" y1="26.666" x2="22.9166" y2="32.916" gradientUnits="userSpaceOnUse">
<stop stop-color="#B67F5F"/>
<stop offset="1" stop-color="#D69570"/>
</linearGradient>
<linearGradient id="paint3_linear_4117_88066" x1="19.9999" y1="30.8325" x2="20.0003" y2="40.3115" gradientUnits="userSpaceOnUse">
<stop stop-color="#3B2E34"/>
<stop offset="1" stop-color="#6E5561"/>
</linearGradient>
<linearGradient id="paint4_linear_4117_88066" x1="20.0004" y1="30.1379" x2="20.0004" y2="40.3124" gradientUnits="userSpaceOnUse">
<stop stop-color="#73B4FF"/>
<stop offset="1" stop-color="#ADD3FF"/>
</linearGradient>
<linearGradient id="paint5_linear_4117_88066" x1="15.8334" y1="31.2502" x2="24.1667" y2="34.5835" gradientUnits="userSpaceOnUse">
<stop stop-color="#76A7EB"/>
<stop offset="1" stop-color="#76A7EB"/>
</linearGradient>
<linearGradient id="paint6_linear_4117_88066" x1="20.0005" y1="33.5408" x2="20.0005" y2="40.3114" gradientUnits="userSpaceOnUse">
<stop stop-color="#403239"/>
<stop offset="1" stop-color="#735966"/>
</linearGradient>
<linearGradient id="paint7_linear_4117_88066" x1="20.0003" y1="30.9373" x2="20.0003" y2="34.0622" gradientUnits="userSpaceOnUse">
<stop stop-color="#403239"/>
<stop offset="1" stop-color="#735966"/>
</linearGradient>
<linearGradient id="paint8_linear_4117_88066" x1="16.6666" y1="26.666" x2="23.75" y2="27.4993" gradientUnits="userSpaceOnUse">
<stop stop-color="#A06E50"/>
<stop offset="1" stop-color="#A06E50" stop-opacity="0"/>
</linearGradient>
<linearGradient id="paint9_linear_4117_88066" x1="17.3174" y1="28.7183" x2="17.5" y2="36.2496" gradientUnits="userSpaceOnUse">
<stop stop-color="#73B4FF"/>
<stop offset="1" stop-color="#ADD3FF"/>
</linearGradient>
<linearGradient id="paint10_linear_4117_88066" x1="22.6835" y1="28.7183" x2="22.8661" y2="36.2496" gradientUnits="userSpaceOnUse">
<stop stop-color="#73B4FF"/>
<stop offset="1" stop-color="#ADD3FF"/>
</linearGradient>
<linearGradient id="paint11_linear_4117_88066" x1="13.2795" y1="27.291" x2="13.2795" y2="40.3115" gradientUnits="userSpaceOnUse">
<stop stop-color="#473940"/>
<stop offset="1" stop-color="#876C7A"/>
</linearGradient>
<linearGradient id="paint12_linear_4117_88066" x1="26.7214" y1="27.291" x2="26.7214" y2="40.3115" gradientUnits="userSpaceOnUse">
<stop stop-color="#473940"/>
<stop offset="1" stop-color="#876C7A"/>
</linearGradient>
<linearGradient id="paint13_linear_4117_88066" x1="14.5833" y1="14.1661" x2="27.0833" y2="25.8328" gradientUnits="userSpaceOnUse">
<stop stop-color="#C98E6C"/>
<stop offset="1" stop-color="#EDA87F"/>
</linearGradient>
<linearGradient id="paint14_linear_4117_88066" x1="14.1667" y1="14.5828" x2="19.1667" y2="26.2494" gradientUnits="userSpaceOnUse">
<stop stop-color="#B67F5F"/>
<stop offset="1" stop-color="#B67F5F" stop-opacity="0"/>
</linearGradient>
<linearGradient id="paint15_linear_4117_88066" x1="20.0001" y1="7.91744" x2="22.3053" y2="12.1887" gradientUnits="userSpaceOnUse">
<stop stop-color="#64505A"/>
<stop offset="1" stop-color="#64505A" stop-opacity="0"/>
</linearGradient>
<radialGradient id="paint16_radial_4117_88066" cx="0" cy="0" r="1" gradientUnits="userSpaceOnUse" gradientTransform="translate(16.668 18.3835) rotate(71.565) scale(1.31748 0.878322)">
<stop stop-color="#040404"/>
<stop offset="1" stop-color="#767676"/>
</radialGradient>
<radialGradient id="paint17_radial_4117_88066" cx="0" cy="0" r="1" gradientUnits="userSpaceOnUse" gradientTransform="translate(22.9178 18.3835) rotate(71.5651) scale(1.31748 0.878321)">
<stop stop-color="#040404"/>
<stop offset="1" stop-color="#767676"/>
</radialGradient>
<linearGradient id="paint18_linear_4117_88066" x1="16.25" y1="16.2494" x2="16.8755" y2="17.3956" gradientUnits="userSpaceOnUse">
<stop stop-color="#64505A"/>
<stop offset="1" stop-color="#64505A" stop-opacity="0.45"/>
</linearGradient>
<linearGradient id="paint19_linear_4117_88066" x1="22.4997" y1="16.2494" x2="23.1252" y2="17.3956" gradientUnits="userSpaceOnUse">
<stop stop-color="#64505A"/>
<stop offset="1" stop-color="#64505A" stop-opacity="0.45"/>
</linearGradient>
</defs>
</svg>
