<svg width="40" height="40" viewBox="0 0 40 40" fill="none" xmlns="http://www.w3.org/2000/svg">
<circle cx="20" cy="20" r="20" fill="url(#paint0_radial_4117_88027)"/>
<mask id="mask0_4117_88027" style="mask-type:alpha" maskUnits="userSpaceOnUse" x="0" y="0" width="40" height="40">
<circle cx="20" cy="20" r="20" fill="#C4C4C4"/>
</mask>
<g mask="url(#mask0_4117_88027)">
<path d="M30.294 33.25L26.8321 32.1848C26.1764 31.983 25.7291 31.3773 25.7291 30.6914V28.1995C25.7291 27.9119 25.4959 27.6787 25.2083 27.6787H14.7916C14.504 27.6787 14.2708 27.9119 14.2708 28.1995V30.6913C14.2708 31.3773 13.8234 31.983 13.1678 32.1848L9.70599 33.25C8.39478 33.6534 7.5 34.8649 7.5 36.2368V38.6162C7.5 39.4791 8.19957 40.1787 9.06252 40.1787H30.9375C31.8004 40.1787 32.5 39.4791 32.5 38.6162V36.2368C32.4999 34.8649 31.6052 33.6534 30.294 33.25Z" fill="url(#paint1_linear_4117_88027)"/>
<path d="M13.2195 32.1642C14.0282 34.3797 16.7533 36.012 20 36.012C23.2468 36.012 25.9719 34.3797 26.7805 32.1642C26.1542 31.9467 25.7292 31.3585 25.7292 30.6914V28.1995C25.7292 27.9119 25.496 27.6787 25.2084 27.6787H14.7917C14.5041 27.6787 14.2709 27.9119 14.2709 28.1995V30.6913C14.2708 31.3585 13.8459 31.9466 13.2195 32.1642Z" fill="url(#paint2_linear_4117_88027)"/>
<path d="M25.2082 27.6787H14.7916C14.6402 27.6787 14.5067 27.7456 14.4116 27.8487C15.6324 29.631 17.6812 30.8037 20 30.8037C22.3187 30.8037 24.3675 29.631 25.5884 27.8487C25.4931 27.7456 25.3596 27.6787 25.2082 27.6787Z" fill="url(#paint3_linear_4117_88027)"/>
<path d="M27.0313 18.8246H26.7708V13.6162H13.2292V18.8245H12.9688C12.2526 18.8245 11.6667 19.4104 11.6667 20.1266C11.6667 20.8427 12.2526 21.4287 12.9688 21.4287H13.2555C13.5222 24.9239 16.4364 27.6787 20 27.6787C23.5635 27.6787 26.4777 24.9239 26.7444 21.4287H27.0311C27.7473 21.4287 28.3332 20.8427 28.3332 20.1266C28.3332 19.4104 27.7474 18.8246 27.0313 18.8246Z" fill="url(#paint4_linear_4117_88027)"/>
<path d="M16.875 20.4323C16.5871 20.4323 16.3542 20.1991 16.3542 19.9115V19.3907C16.3542 19.103 16.5871 18.8699 16.875 18.8699C17.1629 18.8699 17.3958 19.1031 17.3958 19.3907V19.9115C17.3959 20.1992 17.1629 20.4323 16.875 20.4323Z" fill="url(#paint5_radial_4117_88027)"/>
<path d="M23.125 20.4323C22.8371 20.4323 22.6042 20.1991 22.6042 19.9115V19.3907C22.6042 19.103 22.8371 18.8699 23.125 18.8699C23.4129 18.8699 23.6459 19.1031 23.6459 19.3907V19.9115C23.6459 20.1992 23.4129 20.4323 23.125 20.4323Z" fill="url(#paint6_radial_4117_88027)"/>
<path d="M17.3958 18.3034H16.3542C16.0663 18.3034 15.8334 18.0701 15.8334 17.7825C15.8334 17.4949 16.0663 17.2617 16.3542 17.2617H17.3958C17.6837 17.2617 17.9166 17.495 17.9166 17.7825C17.9166 18.0701 17.6837 18.3034 17.3958 18.3034Z" fill="url(#paint7_linear_4117_88027)"/>
<path d="M23.6458 18.3034H22.6042C22.3163 18.3034 22.0834 18.0701 22.0834 17.7825C22.0834 17.4949 22.3163 17.2617 22.6042 17.2617H23.6458C23.9337 17.2617 24.1666 17.495 24.1666 17.7825C24.1666 18.0701 23.9337 18.3034 23.6458 18.3034Z" fill="url(#paint8_linear_4117_88027)"/>
<path d="M24.1667 14.1371V13.6162H13.2292V18.8245H13.0145C12.4215 18.8245 11.8677 19.2003 11.714 19.773C11.4817 20.6392 12.1375 21.4287 12.9688 21.4287H13.2555C13.5223 24.9239 16.4365 27.6787 20 27.6787C20.3563 27.6787 20.7037 27.644 21.045 27.5909C17.7998 27.0901 15.3125 24.2933 15.3125 20.9078V17.7828C15.3125 16.3446 16.4785 15.1787 17.9167 15.1787H23.125C23.7004 15.1787 24.1667 14.7124 24.1667 14.1371Z" fill="url(#paint9_linear_4117_88027)"/>
<path d="M16.3542 9.03882C13.7944 9.56864 11.9519 11.9694 12.2379 14.6813L12.678 18.8542L13.2153 18.8437C13.7825 18.8325 14.2364 18.3695 14.2364 17.8022V15.6986C14.2364 14.8357 14.936 14.1361 15.799 14.1361H21.5625L16.3542 9.03882Z" fill="url(#paint10_linear_4117_88027)"/>
<path d="M24.1665 21.9482H15.8332C14.9702 21.9482 14.2707 22.6478 14.2707 23.5108V24.0316C14.2707 27.1957 16.8357 29.7608 19.9998 29.7608C23.164 29.7608 25.729 27.1957 25.729 24.0316V23.5108C25.729 22.6478 25.0295 21.9482 24.1665 21.9482Z" fill="url(#paint11_linear_4117_88027)"/>
<path d="M20 25.0732C19.2187 25.0732 18.4975 24.8225 18.0718 24.4024C17.8668 24.2005 17.8647 23.8706 18.0667 23.6659C18.2686 23.4609 18.5992 23.4589 18.8032 23.6608C18.9766 23.8319 19.3942 24.0316 20 24.0316C20.6058 24.0316 21.0234 23.8319 21.1968 23.6608C21.4008 23.4589 21.7314 23.4609 21.9333 23.6659C22.1352 23.8706 22.1332 24.2005 21.9282 24.4024C21.5025 24.8225 20.7812 25.0732 20 25.0732Z" fill="#E3AA75"/>
<path d="M16.8748 24.0316V23.5108C16.8748 22.6478 17.5744 21.9482 18.4373 21.9482H15.8332C14.9702 21.9482 14.2707 22.6478 14.2707 23.5108V24.0316C14.2707 27.1957 16.8357 29.7608 19.9998 29.7608C20.4485 29.7608 20.883 29.704 21.3019 29.6064C18.7662 29.0161 16.8748 26.7471 16.8748 24.0316Z" fill="url(#paint12_linear_4117_88027)"/>
<path d="M27.2876 18.8549L27.7277 14.682C28.052 11.607 25.6411 8.92844 22.549 8.92844H17.3958C16.0602 8.92844 14.5344 8.73817 13.6315 8.19496C13.4404 8.08007 13.1939 8.2278 13.1948 8.45071C13.2007 9.98783 13.9242 14.1367 21.5625 14.1367H24.1666C25.0296 14.1367 25.7292 14.8363 25.7292 15.6993V17.8028C25.7292 18.3701 26.1831 18.8332 26.7503 18.8443L27.2876 18.8549Z" fill="url(#paint13_linear_4117_88027)"/>
</g>
<defs>
<radialGradient id="paint0_radial_4117_88027" cx="0" cy="0" r="1" gradientUnits="userSpaceOnUse" gradientTransform="translate(7.5 4.16667) rotate(52.7652) scale(39.2508)">
<stop offset="0.0625" stop-color="#A4F6FD"/>
<stop offset="1" stop-color="#7FFDC0"/>
</radialGradient>
<linearGradient id="paint1_linear_4117_88027" x1="12.9167" y1="32.9172" x2="30.8333" y2="38.3338" gradientUnits="userSpaceOnUse">
<stop stop-color="#FF7E47"/>
<stop offset="1" stop-color="#FFB473"/>
</linearGradient>
<linearGradient id="paint2_linear_4117_88027" x1="16.1577" y1="31.171" x2="26.1595" y2="33.6314" gradientUnits="userSpaceOnUse">
<stop stop-color="#FF8D5C"/>
<stop offset="1" stop-color="#FFBC82"/>
</linearGradient>
<linearGradient id="paint3_linear_4117_88027" x1="20.4167" y1="29.5838" x2="19.9082" y2="31.0774" gradientUnits="userSpaceOnUse">
<stop stop-color="#FF7E47"/>
<stop offset="1" stop-color="#FFB473"/>
</linearGradient>
<linearGradient id="paint4_linear_4117_88027" x1="15.4161" y1="16.3242" x2="24.9997" y2="26.3245" gradientUnits="userSpaceOnUse">
<stop stop-color="#F3B68A"/>
<stop offset="1" stop-color="#FED5B8"/>
</linearGradient>
<radialGradient id="paint5_radial_4117_88027" cx="0" cy="0" r="1" gradientUnits="userSpaceOnUse" gradientTransform="translate(16.6676 19.3372) rotate(71.565) scale(1.31749 0.87833)">
<stop stop-color="#040404"/>
<stop offset="1" stop-color="#767676"/>
</radialGradient>
<radialGradient id="paint6_radial_4117_88027" cx="0" cy="0" r="1" gradientUnits="userSpaceOnUse" gradientTransform="translate(22.9176 19.3372) rotate(71.565) scale(1.31749 0.878331)">
<stop stop-color="#040404"/>
<stop offset="1" stop-color="#767676"/>
</radialGradient>
<linearGradient id="paint7_linear_4117_88027" x1="16.6667" y1="17.5002" x2="16.875" y2="18.3034" gradientUnits="userSpaceOnUse">
<stop stop-color="#4D3F46"/>
<stop offset="1" stop-color="#6E5A64" stop-opacity="0.63"/>
</linearGradient>
<linearGradient id="paint8_linear_4117_88027" x1="22.9167" y1="17.5002" x2="23.125" y2="18.3034" gradientUnits="userSpaceOnUse">
<stop stop-color="#4D3F46"/>
<stop offset="1" stop-color="#6E5A64" stop-opacity="0.63"/>
</linearGradient>
<linearGradient id="paint9_linear_4117_88027" x1="13.5361" y1="13.8241" x2="18.8326" y2="27.3192" gradientUnits="userSpaceOnUse">
<stop stop-color="#EBA873"/>
<stop offset="1" stop-color="#EBA773" stop-opacity="0"/>
</linearGradient>
<linearGradient id="paint10_linear_4117_88027" x1="15.0001" y1="11.2493" x2="14.9649" y2="19.1751" gradientUnits="userSpaceOnUse">
<stop stop-color="#473A41"/>
<stop offset="1" stop-color="#6E5A64"/>
</linearGradient>
<linearGradient id="paint11_linear_4117_88027" x1="19.9999" y1="22.0825" x2="25.0318" y2="26.3114" gradientUnits="userSpaceOnUse">
<stop stop-color="#473A41"/>
<stop offset="1" stop-color="#6E5A64"/>
</linearGradient>
<linearGradient id="paint12_linear_4117_88027" x1="14.9999" y1="22.4992" x2="17.9166" y2="29.5825" gradientUnits="userSpaceOnUse">
<stop stop-color="#6E5A64"/>
<stop offset="1" stop-color="#6E5A64" stop-opacity="0"/>
</linearGradient>
<linearGradient id="paint13_linear_4117_88027" x1="27.9167" y1="14.5835" x2="12.9167" y2="8.33345" gradientUnits="userSpaceOnUse">
<stop stop-color="#473A41"/>
<stop offset="1" stop-color="#6E5A64"/>
</linearGradient>
</defs>
</svg>
