<svg width="40" height="40" viewBox="0 0 40 40" fill="none" xmlns="http://www.w3.org/2000/svg">
<circle cx="20" cy="20" r="20" fill="url(#paint0_radial_4741_8354)"/>
<mask id="mask0_4741_8354" style="mask-type:alpha" maskUnits="userSpaceOnUse" x="0" y="0" width="40" height="40">
<circle cx="20" cy="20" r="20" fill="#C4C4C4"/>
</mask>
<g mask="url(#mask0_4741_8354)">
<path d="M25.4475 29.2146L19.9998 33.8022L14.5521 29.2146C11.7316 26.8395 10.1036 23.3402 10.1036 19.6529V18.1766C10.1036 12.7112 14.5342 8.28052 19.9998 8.28052C25.4653 8.28052 29.8959 12.7112 29.8959 18.1766V19.6529C29.896 23.3403 28.268 26.8395 25.4475 29.2146Z" fill="url(#paint1_linear_4741_8354)"/>
<path d="M30.2567 32.1001L24.7672 30.4856C24.1022 30.29 23.6455 29.6797 23.6455 28.9866V26.5098H16.3535V28.9866C16.3535 29.6797 15.8969 30.2901 15.2318 30.4856L9.74233 32.1001C8.41236 32.4913 7.49902 33.7119 7.49902 35.0983V39.0102C7.49902 39.8731 8.19862 40.5727 9.06158 40.5727H30.9373C31.8003 40.5727 32.4999 39.8731 32.4999 39.0102V35.0983C32.4999 33.7119 31.5866 32.4913 30.2567 32.1001Z" fill="url(#paint2_linear_4741_8354)"/>
<path d="M30.2567 32.1006L24.7672 30.4861C24.6744 30.4588 24.5868 30.4217 24.5028 30.3792L19.9993 33.8021L15.4964 30.3792C15.4124 30.4217 15.3248 30.4588 15.232 30.4861L9.74233 32.1006C8.41236 32.4918 7.49902 33.7124 7.49902 35.0987V39.0107C7.49902 39.8736 8.19862 40.5732 9.06158 40.5732H30.9373C31.8003 40.5732 32.4999 39.8736 32.4999 39.0107V35.0987C32.4999 33.7124 31.5866 32.4918 30.2567 32.1006Z" fill="url(#paint3_linear_4741_8354)"/>
<path d="M16.3538 27.6721C17.448 28.2566 18.6889 28.5932 19.9997 28.5932C21.3105 28.5932 22.5514 28.2566 23.6457 27.6721V26.5098H16.3538V27.6721Z" fill="url(#paint4_linear_4741_8354)"/>
<path d="M27.0313 18.6976H26.7709V12.9683H13.2288V18.6976H12.9684C12.2492 18.6976 11.6663 19.2806 11.6663 19.9997C11.6663 20.7189 12.2492 21.3018 12.9684 21.3018H13.2551C13.5219 24.7972 16.4361 27.5521 19.9998 27.5521C23.5636 27.5521 26.4778 24.7972 26.7446 21.3018H27.0313C27.7504 21.3018 28.3334 20.7188 28.3334 19.9997C28.3335 19.2806 27.7504 18.6976 27.0313 18.6976Z" fill="url(#paint5_linear_4741_8354)"/>
<path d="M26.7709 12.9683H13.2288V18.6976H13.0427C12.3616 18.6976 11.7409 19.1877 11.673 19.8654C11.5949 20.6449 12.2049 21.3019 12.9684 21.3019H13.2551C13.5219 24.7973 16.4361 27.5521 19.9998 27.5521C20.3561 27.5521 20.7035 27.5174 21.0448 27.4643C17.7995 26.9635 15.3122 24.1665 15.3122 20.781V17.0392C15.3122 16.3602 15.9481 15.8687 16.6073 16.0312C17.452 16.2394 18.3358 16.4138 19.2436 16.5333C19.3061 16.5415 19.3678 16.5455 19.4284 16.5455C19.8946 16.5455 20.3299 16.3133 20.5927 15.9244C20.7894 15.6332 20.8686 15.2846 20.8231 14.9452C22.3986 15.3549 24.7679 16.252 26.7708 18.1144V12.9683H26.7709Z" fill="url(#paint6_linear_4741_8354)"/>
<path d="M16.8746 20.306C16.5867 20.306 16.3538 20.0727 16.3538 19.7851V19.2643C16.3538 18.9766 16.5867 18.7434 16.8746 18.7434C17.1625 18.7434 17.3955 18.9766 17.3955 19.2643V19.7851C17.3955 20.0727 17.1625 20.306 16.8746 20.306Z" fill="url(#paint7_radial_4741_8354)"/>
<path d="M23.1246 20.306C22.8367 20.306 22.6038 20.0727 22.6038 19.7851V19.2643C22.6038 18.9766 22.8367 18.7434 23.1246 18.7434C23.4125 18.7434 23.6455 18.9766 23.6455 19.2643V19.7851C23.6455 20.0727 23.4125 20.306 23.1246 20.306Z" fill="url(#paint8_radial_4741_8354)"/>
<path d="M17.3954 18.1765H16.3537C16.0658 18.1765 15.8329 17.9432 15.8329 17.6556C15.8329 17.368 16.0658 17.1348 16.3537 17.1348H17.3954C17.6833 17.1348 17.9163 17.368 17.9163 17.6556C17.9163 17.9432 17.6833 18.1765 17.3954 18.1765Z" fill="url(#paint9_linear_4741_8354)"/>
<path d="M23.6457 18.1765H22.604C22.3161 18.1765 22.0831 17.9432 22.0831 17.6556C22.0831 17.368 22.3161 17.1348 22.604 17.1348H23.6457C23.9336 17.1348 24.1665 17.368 24.1665 17.6556C24.1665 17.9432 23.9336 18.1765 23.6457 18.1765Z" fill="url(#paint10_linear_4741_8354)"/>
<path d="M19.9996 23.9062C19.2184 23.9062 18.4971 23.6554 18.0714 23.2353C17.8664 23.0334 17.8644 22.7035 18.0663 22.4988C18.2683 22.2941 18.5989 22.2918 18.8028 22.4937C18.9763 22.6649 19.3939 22.8645 19.9997 22.8645C20.6055 22.8645 21.0231 22.6649 21.1966 22.4937C21.4006 22.2918 21.7311 22.2941 21.9331 22.4988C22.135 22.7035 22.133 23.0334 21.928 23.2353C21.5021 23.6555 20.7809 23.9062 19.9996 23.9062Z" fill="#B67F5F"/>
<path d="M12.1867 18.9427L13.3501 18.8058C13.8747 18.7441 14.2701 18.2995 14.2701 17.7712V12.9683H12.1867V18.9427Z" fill="url(#paint11_linear_4741_8354)"/>
<path d="M27.8122 18.9427L26.6488 18.8058C26.1241 18.7441 25.7288 18.2995 25.7288 17.7712V12.9683H27.8122V18.9427Z" fill="url(#paint12_linear_4741_8354)"/>
<path d="M28.5527 13.2147C26.8389 10.2673 23.6547 8.28052 19.9997 8.28052C16.4284 8.28052 13.3084 10.1787 11.5682 13.0148V13.1674C13.2467 13.9296 16.1812 15.0793 19.3796 15.5005C19.6581 15.5371 19.8718 15.2542 19.7669 14.9935L19.4355 14.1693C19.3271 13.8997 19.5559 13.6175 19.8423 13.6668C21.3044 13.9186 24.9628 14.8061 27.8125 17.6558L28.5527 13.2147Z" fill="url(#paint13_linear_4741_8354)"/>
<path d="M19.9997 8.28052C16.4284 8.28052 13.3084 10.1787 11.5682 13.0148V13.1674C11.9619 13.3462 12.43 13.5471 12.9492 13.7541C14.4255 11.4093 17.0301 9.84307 19.9997 9.84307C23.8861 9.84307 27.1501 12.521 28.0675 16.1259L28.5527 13.2147C26.8389 10.2673 23.6547 8.28052 19.9997 8.28052Z" fill="url(#paint14_linear_4741_8354)"/>
<path d="M19.9996 7.75903C14.2555 7.75903 9.58258 12.4322 9.58258 18.1761V19.6524C9.58258 23.5021 11.2718 27.1323 14.2163 29.6127L19.4788 34.0443V40.5727H20.5205V34.0442L25.7829 29.6127V29.6124C28.7274 27.1323 30.4167 23.5021 30.4167 19.6524V18.1761C30.4167 12.4322 25.7438 7.75903 19.9996 7.75903ZM29.375 19.6524C29.375 23.1941 27.8211 26.5338 25.1115 28.8156L19.9996 33.1208L14.8877 28.8158C12.1782 26.5338 10.6243 23.1941 10.6243 19.6524V18.1761C10.6243 13.0065 14.8303 8.80074 19.9996 8.80074C25.169 8.80074 29.375 13.0065 29.375 18.1761V19.6524Z" fill="url(#paint15_linear_4741_8354)"/>
<path d="M19.9997 33.803C19.4268 33.803 18.958 34.2717 18.958 34.8447V35.8864C18.958 36.4593 19.4268 36.9281 19.9997 36.9281C20.5727 36.9281 21.0414 36.4593 21.0414 35.8864V34.8447C21.0414 34.2717 20.5727 33.803 19.9997 33.803Z" fill="url(#paint16_linear_4741_8354)"/>
<path d="M11.8333 35.9165L8.42272 32.8848C8.17335 33.1329 7.97082 33.423 7.81714 33.7401L11.1416 36.6952C11.4747 36.9915 11.666 37.417 11.666 37.8631V40.5734H12.7077V37.8631C12.7077 37.1197 12.3893 36.4101 11.8333 35.9165Z" fill="url(#paint17_linear_4741_8354)"/>
<path d="M28.1657 35.9165L31.5763 32.8848C31.8257 33.1329 32.0282 33.423 32.1819 33.7401L28.8575 36.6952C28.5244 36.9915 28.3331 37.417 28.3331 37.8631V40.5734H27.2914V37.8631C27.2914 37.1197 27.6098 36.4101 28.1657 35.9165Z" fill="url(#paint18_linear_4741_8354)"/>
</g>
<defs>
<radialGradient id="paint0_radial_4741_8354" cx="0" cy="0" r="1" gradientUnits="userSpaceOnUse" gradientTransform="translate(6.25 4.16667) rotate(50.4206) scale(40.5453)">
<stop offset="0.552731" stop-color="#E3D7D2"/>
<stop offset="1" stop-color="#D3AE9E"/>
</radialGradient>
<linearGradient id="paint1_linear_4741_8354" x1="19.9998" y1="8.28052" x2="19.9998" y2="33.8022" gradientUnits="userSpaceOnUse">
<stop stop-color="#78A8EB"/>
<stop offset="1" stop-color="#99BBEB"/>
</linearGradient>
<linearGradient id="paint2_linear_4741_8354" x1="16.6665" y1="28.7493" x2="20.4556" y2="33.66" gradientUnits="userSpaceOnUse">
<stop stop-color="#E6AC82"/>
<stop offset="1" stop-color="#F2CBAF"/>
</linearGradient>
<linearGradient id="paint3_linear_4741_8354" x1="19.9994" y1="30.3792" x2="19.9994" y2="40.5732" gradientUnits="userSpaceOnUse">
<stop stop-color="#78A8EB"/>
<stop offset="1" stop-color="#99BBEB"/>
</linearGradient>
<linearGradient id="paint4_linear_4741_8354" x1="16.6657" y1="27.5515" x2="19.6681" y2="31.4935" gradientUnits="userSpaceOnUse">
<stop stop-color="#E6A470"/>
<stop offset="1" stop-color="#E6A370" stop-opacity="0"/>
</linearGradient>
<linearGradient id="paint5_linear_4741_8354" x1="15.4158" y1="15.7767" x2="25.3526" y2="25.4721" gradientUnits="userSpaceOnUse">
<stop stop-color="#F3B68A"/>
<stop offset="1" stop-color="#FED5B8"/>
</linearGradient>
<linearGradient id="paint6_linear_4741_8354" x1="13.9252" y1="13.1839" x2="18.8112" y2="27.6893" gradientUnits="userSpaceOnUse">
<stop stop-color="#EBA873"/>
<stop offset="1" stop-color="#EBA773" stop-opacity="0"/>
</linearGradient>
<radialGradient id="paint7_radial_4741_8354" cx="0" cy="0" r="1" gradientUnits="userSpaceOnUse" gradientTransform="translate(16.6672 19.2107) rotate(71.565) scale(1.31758 0.878389)">
<stop stop-color="#040404"/>
<stop offset="1" stop-color="#767676"/>
</radialGradient>
<radialGradient id="paint8_radial_4741_8354" cx="0" cy="0" r="1" gradientUnits="userSpaceOnUse" gradientTransform="translate(22.9172 19.2107) rotate(71.565) scale(1.31758 0.878388)">
<stop stop-color="#040404"/>
<stop offset="1" stop-color="#767676"/>
</radialGradient>
<linearGradient id="paint9_linear_4741_8354" x1="16.2501" y1="17.0829" x2="16.8746" y2="18.1765" gradientUnits="userSpaceOnUse">
<stop stop-color="#6E5A64"/>
<stop offset="1" stop-color="#6E5A64" stop-opacity="0.86"/>
</linearGradient>
<linearGradient id="paint10_linear_4741_8354" x1="22.5003" y1="17.0829" x2="23.1248" y2="18.1765" gradientUnits="userSpaceOnUse">
<stop stop-color="#6E5A64"/>
<stop offset="1" stop-color="#6E5A64" stop-opacity="0.86"/>
</linearGradient>
<linearGradient id="paint11_linear_4741_8354" x1="12.9165" y1="13.7499" x2="12.7978" y2="19.1424" gradientUnits="userSpaceOnUse">
<stop stop-color="#473A41"/>
<stop offset="1" stop-color="#6E5A64"/>
</linearGradient>
<linearGradient id="paint12_linear_4741_8354" x1="26.4586" y1="13.7499" x2="26.3399" y2="19.1424" gradientUnits="userSpaceOnUse">
<stop stop-color="#473A41"/>
<stop offset="1" stop-color="#6E5A64"/>
</linearGradient>
<linearGradient id="paint13_linear_4741_8354" x1="14.5835" y1="11.2499" x2="26.3871" y2="18.68" gradientUnits="userSpaceOnUse">
<stop stop-color="#473A41"/>
<stop offset="1" stop-color="#6E5A64"/>
</linearGradient>
<linearGradient id="paint14_linear_4741_8354" x1="20.0001" y1="9.16654" x2="23.3335" y2="15.4165" gradientUnits="userSpaceOnUse">
<stop stop-color="#64505A"/>
<stop offset="1" stop-color="#64505A" stop-opacity="0"/>
</linearGradient>
<linearGradient id="paint15_linear_4741_8354" x1="19.9996" y1="7.75903" x2="19.9996" y2="40.5727" gradientUnits="userSpaceOnUse">
<stop stop-color="#A5CDFF"/>
<stop offset="0.600905" stop-color="#BDDAFF"/>
</linearGradient>
<linearGradient id="paint16_linear_4741_8354" x1="19.9997" y1="33.803" x2="19.9997" y2="36.9281" gradientUnits="userSpaceOnUse">
<stop stop-color="#473A41"/>
<stop offset="1" stop-color="#6E5A64"/>
</linearGradient>
<linearGradient id="paint17_linear_4741_8354" x1="10.2624" y1="32.8848" x2="10.2624" y2="40.5734" gradientUnits="userSpaceOnUse">
<stop offset="0.21875" stop-color="#A5CDFF"/>
<stop offset="1" stop-color="#D9EAFF"/>
</linearGradient>
<linearGradient id="paint18_linear_4741_8354" x1="29.7366" y1="32.8848" x2="29.7366" y2="40.5734" gradientUnits="userSpaceOnUse">
<stop offset="0.21875" stop-color="#A5CDFF"/>
<stop offset="1" stop-color="#D9EAFF"/>
</linearGradient>
</defs>
</svg>
