<svg width="40" height="40" viewBox="0 0 40 40" fill="none" xmlns="http://www.w3.org/2000/svg">
<circle cx="20" cy="20" r="20" fill="url(#paint0_radial_4761_263)"/>
<mask id="mask0_4761_263" style="mask-type:alpha" maskUnits="userSpaceOnUse" x="0" y="0" width="40" height="40">
<circle cx="20" cy="20" r="20" fill="#C4C4C4"/>
</mask>
<g mask="url(#mask0_4761_263)">
<path d="M19.9996 8.44238C16.3576 8.44238 13.4052 9.57791 13.4052 10.9787V13.515H26.594V10.9787C26.594 9.57791 23.6415 8.44238 19.9996 8.44238Z" fill="url(#paint1_linear_4761_263)"/>
<path d="M19.9995 24.6743C25.8827 24.6743 30.652 21.7218 30.652 18.0796C30.652 14.4374 25.8827 11.4849 19.9995 11.4849C14.1162 11.4849 9.34692 14.4374 9.34692 18.0796C9.34692 21.7218 14.1162 24.6743 19.9995 24.6743Z" fill="url(#paint2_linear_4761_263)"/>
<path d="M29.359 30.0996C29.0587 29.3013 28.6231 27.8573 28.6231 26.1955C28.6231 23.9128 28.6231 18.0793 28.6231 18.0793C28.6231 15.5579 24.7623 13.5139 19.9997 13.5139C15.2371 13.5139 11.3762 15.5579 11.3762 18.0793C11.3762 18.0793 11.3762 23.9128 11.3762 26.1955C11.3762 27.8574 10.9407 29.3014 10.6404 30.0996C10.4796 30.527 10.6178 31.0038 10.9838 31.2769C11.5734 31.7169 12.5879 32.3708 14.0523 32.9652C17.8542 34.5086 22.1453 34.5086 25.9472 32.9652C27.4115 32.3708 28.4261 31.7169 29.0157 31.2769C29.3816 31.0038 29.5198 30.5269 29.359 30.0996Z" fill="url(#paint3_linear_4761_263)"/>
<path d="M29.6361 34.1032L24.397 32.2541C23.5857 31.9678 23.0432 31.201 23.0432 30.3407V27.2109H16.956V30.3407C16.956 31.201 16.4135 31.9678 15.6023 32.2541L10.3632 34.1032C9.14636 34.5327 8.33264 35.6829 8.33264 36.9732V38.3707C8.33264 39.2111 9.01398 39.8925 9.85442 39.8925H30.1449C30.9854 39.8925 31.6667 39.2111 31.6667 38.3707V36.9732C31.6667 35.6829 30.8529 34.5327 29.6361 34.1032Z" fill="url(#paint4_linear_4761_263)"/>
<path d="M16.9562 29.0983C17.7815 29.4658 18.6817 29.6938 19.6333 29.7386C19.756 29.7443 19.8783 29.7472 19.9998 29.7472C21.0821 29.7472 22.1103 29.5166 23.0433 29.1075V27.2109H16.9562V29.0983Z" fill="url(#paint5_linear_4761_263)"/>
<path d="M24.565 18.0789H23.7605C23.626 18.0789 23.4969 18.0255 23.4018 17.9303L21.5337 16.0622C21.342 15.8704 21.0141 16.0062 21.0141 16.2774V17.5716C21.0141 17.8518 20.7871 18.0789 20.5069 18.0789H15.4342C14.3136 18.0789 13.4052 18.9873 13.4052 20.1079V21.9507C13.4052 25.5015 16.134 28.5569 19.6808 28.7239C23.4678 28.9022 26.5941 25.8847 26.5941 22.137V20.108C26.594 18.9873 25.6856 18.0789 24.565 18.0789Z" fill="url(#paint6_linear_4761_263)"/>
<path d="M24.565 18.0789H23.7606C23.6261 18.0789 23.497 18.0255 23.4018 17.9303L21.5337 16.0622C21.342 15.8704 21.0141 16.0062 21.0141 16.2774V17.5717C21.0141 17.8519 20.787 18.079 20.5068 18.079H15.4342C14.3136 18.079 13.4052 18.9874 13.4052 20.108V21.9338C13.4052 24.9118 15.2986 27.6354 18.1576 28.4686C19.15 28.7577 20.1114 28.7911 21.0152 28.6513C17.8132 28.147 15.4342 25.2658 15.4342 21.9508V21.1226C15.4342 20.002 16.3427 19.0935 17.4633 19.0935H23.5504C24.1107 19.0934 24.565 18.6392 24.565 18.0789Z" fill="url(#paint7_linear_4761_263)"/>
<path d="M16.9562 22.1377C16.6758 22.1377 16.449 21.9106 16.449 21.6305V21.1232C16.449 20.8431 16.6759 20.616 16.9562 20.616C17.2366 20.616 17.4635 20.8431 17.4635 21.1232V21.6305C17.4635 21.9106 17.2366 22.1377 16.9562 22.1377Z" fill="url(#paint8_radial_4761_263)"/>
<path d="M23.0431 22.1377C22.7627 22.1377 22.5358 21.9106 22.5358 21.6305V21.1232C22.5358 20.8431 22.7627 20.616 23.0431 20.616C23.3235 20.616 23.5503 20.8431 23.5503 21.1232V21.6305C23.5503 21.9106 23.3235 22.1377 23.0431 22.1377Z" fill="url(#paint9_radial_4761_263)"/>
<path d="M19.9995 25.6877C19.2387 25.6877 18.5362 25.4435 18.1216 25.0343C17.9219 24.8376 17.92 24.5164 18.1166 24.317C18.3132 24.1177 18.6353 24.1154 18.8339 24.3121C19.0028 24.4788 19.4095 24.6732 19.9995 24.6732C20.5895 24.6732 20.9962 24.4788 21.1651 24.3121C21.3638 24.1154 21.6858 24.1177 21.8824 24.317C22.0791 24.5164 22.077 24.8377 21.8774 25.0343C21.4629 25.4435 20.7604 25.6877 19.9995 25.6877Z" fill="#E3AA75"/>
<path d="M16.4481 20.1721C16.2148 20.1721 16.0047 20.0104 15.9533 19.7733C15.8933 19.4996 16.0667 19.2291 16.3401 19.1692L17.3546 18.9473C17.6276 18.8878 17.8991 19.0605 17.9585 19.3344C18.0185 19.6081 17.8451 19.8785 17.5717 19.9385L16.5571 20.1604C16.5205 20.1684 16.4843 20.1721 16.4481 20.1721Z" fill="url(#paint10_linear_4761_263)"/>
<path d="M23.551 20.172C23.5148 20.172 23.4787 20.1683 23.442 20.1603L22.4275 19.9384C22.1541 19.8785 21.9807 19.608 22.0407 19.3343C22.1001 19.0603 22.3711 18.8872 22.6445 18.9472L23.6591 19.1691C23.9325 19.2291 24.1059 19.4995 24.0459 19.7732C23.9943 20.0103 23.7843 20.172 23.551 20.172Z" fill="url(#paint11_linear_4761_263)"/>
<path d="M29.6361 34.1033L26.71 33.0706C25.7509 35.8578 23.1124 37.8635 19.9996 37.8635C16.8869 37.8635 14.2484 35.8577 13.2893 33.0706L10.3632 34.1033C9.14636 34.5327 8.33264 35.683 8.33264 36.9733V38.3708C8.33264 39.2112 9.01398 39.8926 9.85442 39.8926H30.1449C30.9854 39.8926 31.6667 39.2112 31.6667 38.3708V36.9733C31.6667 35.683 30.8529 34.5327 29.6361 34.1033Z" fill="url(#paint12_linear_4761_263)"/>
<path d="M12.3334 33.4079C13.4317 36.5893 16.4449 38.878 19.9996 38.878C23.5542 38.878 26.5674 36.5892 27.6657 33.4079L26.7099 33.0706C25.7508 35.8578 23.1123 37.8635 19.9996 37.8635C16.8868 37.8635 14.2483 35.8577 13.2892 33.0706L12.3334 33.4079Z" fill="url(#paint13_linear_4761_263)"/>
<path d="M19.9995 14.7174C24.7621 14.7174 28.6229 16.7613 28.6229 19.2828C28.6229 18.5533 28.6229 18.0793 28.6229 18.0793C28.6229 15.5579 24.7621 13.5139 19.9995 13.5139C15.2369 13.5139 11.376 15.5579 11.376 18.0793C11.376 18.0793 11.376 18.5533 11.376 19.2828C11.376 16.7614 15.2369 14.7174 19.9995 14.7174Z" fill="url(#paint14_linear_4761_263)"/>
</g>
<defs>
<radialGradient id="paint0_radial_4761_263" cx="0" cy="0" r="1" gradientUnits="userSpaceOnUse" gradientTransform="translate(4.58333 7.08333) rotate(45.8551) scale(39.4845)">
<stop offset="0.408481" stop-color="#D9FAAF"/>
<stop offset="1" stop-color="#90F0A0"/>
</radialGradient>
<linearGradient id="paint1_linear_4761_263" x1="14.1666" y1="9.58415" x2="27.0832" y2="13.3341" gradientUnits="userSpaceOnUse">
<stop stop-color="#FFD54A"/>
<stop offset="1" stop-color="#FFE17D"/>
</linearGradient>
<linearGradient id="paint2_linear_4761_263" x1="9.58318" y1="16.2501" x2="30.8332" y2="20.0001" gradientUnits="userSpaceOnUse">
<stop stop-color="#FFC230"/>
<stop offset="1" stop-color="#FFD164"/>
</linearGradient>
<linearGradient id="paint3_linear_4761_263" x1="14.1667" y1="14.583" x2="26.6667" y2="34.1664" gradientUnits="userSpaceOnUse">
<stop stop-color="#B06438"/>
<stop offset="1" stop-color="#B67F5F"/>
</linearGradient>
<linearGradient id="paint4_linear_4761_263" x1="9.67967" y1="28.7286" x2="17.8295" y2="44.4445" gradientUnits="userSpaceOnUse">
<stop stop-color="#F5D89A"/>
<stop offset="1" stop-color="#FFE3A6"/>
</linearGradient>
<linearGradient id="paint5_linear_4761_263" x1="17.0834" y1="28.334" x2="19.3457" y2="31.8692" gradientUnits="userSpaceOnUse">
<stop stop-color="#EDBF6D"/>
<stop offset="1" stop-color="#F2CC88" stop-opacity="0"/>
</linearGradient>
<linearGradient id="paint6_linear_4761_263" x1="14.1666" y1="17.4993" x2="24.1666" y2="28.3326" gradientUnits="userSpaceOnUse">
<stop stop-color="#F5D89A"/>
<stop offset="1" stop-color="#FFE3A6"/>
</linearGradient>
<linearGradient id="paint7_linear_4761_263" x1="13.3332" y1="17.916" x2="19.5832" y2="29.166" gradientUnits="userSpaceOnUse">
<stop stop-color="#EDBF6D"/>
<stop offset="1" stop-color="#F2CC88" stop-opacity="0"/>
</linearGradient>
<radialGradient id="paint8_radial_4761_263" cx="0" cy="0" r="1" gradientUnits="userSpaceOnUse" gradientTransform="translate(16.7542 21.0711) rotate(71.5651) scale(1.28319 0.855463)">
<stop stop-color="#040404"/>
<stop offset="1" stop-color="#767676"/>
</radialGradient>
<radialGradient id="paint9_radial_4761_263" cx="0" cy="0" r="1" gradientUnits="userSpaceOnUse" gradientTransform="translate(22.8411 21.0711) rotate(71.5651) scale(1.28319 0.855463)">
<stop stop-color="#040404"/>
<stop offset="1" stop-color="#767676"/>
</radialGradient>
<linearGradient id="paint10_linear_4761_263" x1="16.2498" y1="19.1667" x2="16.9559" y2="20.1721" gradientUnits="userSpaceOnUse">
<stop stop-color="#99694D"/>
<stop offset="1" stop-color="#A06E50" stop-opacity="0.59"/>
</linearGradient>
<linearGradient id="paint11_linear_4761_263" x1="22.3372" y1="19.1665" x2="23.0434" y2="20.1719" gradientUnits="userSpaceOnUse">
<stop stop-color="#99694D"/>
<stop offset="1" stop-color="#A06E50" stop-opacity="0.59"/>
</linearGradient>
<linearGradient id="paint12_linear_4761_263" x1="12.0834" y1="33.7507" x2="29.5834" y2="37.9174" gradientUnits="userSpaceOnUse">
<stop stop-color="#BCB9BD"/>
<stop offset="1" stop-color="#D5D2D6"/>
</linearGradient>
<linearGradient id="paint13_linear_4761_263" x1="12.9166" y1="33.7507" x2="27.9166" y2="36.6674" gradientUnits="userSpaceOnUse">
<stop stop-color="#AAA5AB"/>
<stop offset="1" stop-color="#C8C3C9"/>
</linearGradient>
<linearGradient id="paint14_linear_4761_263" x1="13.3332" y1="14.583" x2="27.0832" y2="17.083" gradientUnits="userSpaceOnUse">
<stop stop-color="#A05A30"/>
<stop offset="1" stop-color="#A05A30" stop-opacity="0"/>
</linearGradient>
</defs>
</svg>
